<svg width="25" height="25" viewBox="0 0 25 25" fill="none" xmlns="http://www.w3.org/2000/svg">
<path fill-rule="evenodd" clip-rule="evenodd" d="M21.5991 21.8491C22.0159 21.4324 22.25 20.8671 22.25 20.2778V4.72222C22.25 4.13285 22.0159 3.56762 21.5991 3.15087C21.1824 2.73413 20.6171 2.5 20.0278 2.5H4.47222C3.88285 2.5 3.31762 2.73413 2.90087 3.15087C2.48413 3.56762 2.25 4.13285 2.25 4.72222V20.2778C2.25 20.8671 2.48413 21.4324 2.90087 21.8491C3.31762 22.2659 3.88285 22.5 4.47222 22.5H20.0278C20.6171 22.5 21.1824 22.2659 21.5991 21.8491ZM8.74014 15.4381C9.43801 15.4381 9.43801 14.8554 9.43801 14.4768V10.8349C9.43801 10.4564 9.43801 9.87318 8.74014 9.87318C8.38614 9.87318 8.08272 10.129 8.04226 10.4871C7.71861 10.0267 7.19268 9.81179 6.65663 9.81179C5.3221 9.81179 4.25 11.0498 4.25 12.6659C4.25 14.3228 5.29122 15.5 6.65663 15.5C7.2129 15.5 7.66804 15.2647 8.04226 14.8145C8.1434 15.2033 8.31534 15.4381 8.74014 15.4381ZM7.98211 12.6664C7.98211 13.3724 7.618 14.15 6.85944 14.15C6.07054 14.15 5.70696 13.3718 5.70643 12.6664C5.70643 11.961 6.06043 11.1629 6.85944 11.1629C7.62812 11.1629 7.98211 11.9604 7.98211 12.6664ZM10.9961 7.5C10.5713 7.5 10.2679 7.82741 10.2679 8.31852V14.6195C10.2679 15.1112 10.5713 15.4381 10.9961 15.4381C11.4007 15.4381 11.6333 15.2135 11.7243 14.8247C11.9974 15.2749 12.5638 15.5 13.0589 15.5C14.5259 15.5 15.4559 14.1193 15.4559 12.7278C15.4559 11.2948 14.6771 9.81179 13.11 9.81179C12.6023 9.80795 12.1102 9.9896 11.7243 10.3234V8.31852C11.7243 7.82741 11.4209 7.5 10.9961 7.5ZM14 12.6664C14 13.3519 13.6258 14.15 12.8672 14.15C12.0682 14.15 11.7243 13.3314 11.7249 12.6152C11.7249 11.8996 12.0884 11.1629 12.8672 11.1629C13.6258 11.1629 14 11.9707 14 12.6664ZM19.1888 11.3187C19.3607 11.3857 19.5228 11.4488 19.6937 11.4488C20.0376 11.4488 20.25 11.0498 20.25 10.7429C20.25 10.0267 19.0464 9.81179 18.4699 9.81179C16.9336 9.81179 15.861 11.1726 15.861 12.6659C15.861 14.2006 16.9028 15.5 18.4699 15.5C18.9964 15.5 20.25 15.2437 20.25 14.4871C20.25 14.1392 19.9673 13.8425 19.6229 13.8425C19.5529 13.8425 19.4209 13.8934 19.2644 13.9538C19.0366 14.0416 18.7571 14.1494 18.5412 14.1494C17.7523 14.1494 17.3174 13.3923 17.3174 12.6659C17.3174 11.9093 17.7114 11.1624 18.5412 11.1624C18.7878 11.1624 18.9946 11.243 19.1888 11.3187Z" fill="#00435D"/>
</svg>
