<svg xmlns="http://www.w3.org/2000/svg" width="20" height="21" viewBox="0 0 20 21" fill="none">
  <mask id="path-1-inside-1_7289_48686" fill="white">
    <path d="M10 9.26621C9.65833 9.26621 9.375 8.98288 9.375 8.64121V5.86621C9.375 5.52454 9.65833 5.24121 10 5.24121C10.3417 5.24121 10.625 5.52454 10.625 5.86621V8.64121C10.625 8.99121 10.3417 9.26621 10 9.26621Z"/>
  </mask>
  <path d="M10 9.26621C9.65833 9.26621 9.375 8.98288 9.375 8.64121V5.86621C9.375 5.52454 9.65833 5.24121 10 5.24121C10.3417 5.24121 10.625 5.52454 10.625 5.86621V8.64121C10.625 8.99121 10.3417 9.26621 10 9.26621Z" fill="#00435D"/>
  <path d="M10 7.76621C10.4868 7.76621 10.875 8.15445 10.875 8.64121H7.875C7.875 9.81131 8.82991 10.7662 10 10.7662V7.76621ZM10.875 8.64121V5.86621H7.875V8.64121H10.875ZM10.875 5.86621C10.875 6.35297 10.4868 6.74121 10 6.74121V3.74121C8.82991 3.74121 7.875 4.69612 7.875 5.86621H10.875ZM10 6.74121C9.51324 6.74121 9.125 6.35297 9.125 5.86621H12.125C12.125 4.69612 11.1701 3.74121 10 3.74121V6.74121ZM9.125 5.86621V8.64121H12.125V5.86621H9.125ZM9.125 8.64121C9.125 8.14978 9.5263 7.76621 10 7.76621V10.7662C11.157 10.7662 12.125 9.83264 12.125 8.64121H9.125Z" fill="#00435D" mask="url(#path-1-inside-1_7289_48686)"/>
  <path d="M10.0187 17.4582C7.86867 17.4582 5.72701 17.1165 3.68534 16.4332C2.92701 16.1832 2.35201 15.6415 2.10201 14.9582C1.85201 14.2749 1.93534 13.4915 2.34367 12.8082L3.40201 11.0415C3.63534 10.6499 3.84367 9.91654 3.84367 9.4582V7.7082C3.84367 4.29987 6.61034 1.5332 10.0187 1.5332C13.427 1.5332 16.1937 4.29987 16.1937 7.7082V9.4582C16.1937 9.9082 16.402 10.6499 16.6353 11.0415L17.6937 12.8082C18.0853 13.4582 18.152 14.2332 17.8937 14.9415C17.6353 15.6499 17.0687 16.1915 16.352 16.4332C14.3103 17.1249 12.1687 17.4582 10.0187 17.4582ZM10.0187 2.79154C7.30201 2.79154 5.09367 4.99987 5.09367 7.71654V9.46654C5.09367 10.1415 4.827 11.1165 4.477 11.6915L3.41867 13.4665C3.20201 13.8249 3.15201 14.2082 3.27701 14.5415C3.40201 14.8749 3.68534 15.1249 4.08534 15.2582C7.91867 16.5332 12.1353 16.5332 15.9687 15.2582C16.327 15.1415 16.602 14.8749 16.727 14.5249C16.8603 14.1749 16.8187 13.7915 16.627 13.4665L15.5687 11.6999C15.2187 11.1249 14.952 10.1499 14.952 9.47487V7.72487C14.9437 4.99987 12.7353 2.79154 10.0187 2.79154Z" fill="#00435D"/>
  <path d="M10.0016 19.5836C9.1099 19.5836 8.2349 19.2169 7.60156 18.5836C6.96823 17.9503 6.60156 17.0753 6.60156 16.1836H7.85156C7.85156 16.7503 8.0849 17.3003 8.4849 17.7003C8.8849 18.1003 9.4349 18.3336 10.0016 18.3336C11.1849 18.3336 12.1516 17.3669 12.1516 16.1836H13.4016C13.4016 18.0586 11.8766 19.5836 10.0016 19.5836Z" fill="#00435D"/>
</svg>