<svg width="25" height="25" viewBox="0 0 25 25" fill="none" xmlns="http://www.w3.org/2000/svg">
<g id="input-numbers-svgrepo-com 1">
<path id="Vector" d="M12.75 2.5C7.22733 2.5 2.75 6.97733 2.75 12.5C2.75 18.0227 7.22733 22.5 12.75 22.5C18.2727 22.5 22.75 18.0227 22.75 12.5C22.75 6.97733 18.2727 2.5 12.75 2.5ZM8.08333 7.40767L9.623 6.83333H10.75V11.5H9.435V7.80267H9.41667L8.30667 8.22633L8.08333 7.40767ZM9.819 18.1667C9.20833 18.1667 8.69333 18.0137 8.41667 17.847L8.642 17.0553C8.83733 17.1523 9.289 17.3327 9.739 17.3327C10.312 17.3327 10.603 17.0697 10.603 16.729C10.603 16.2843 10.138 16.0827 9.65133 16.0827H9.20133V15.3257H9.63033C10 15.319 10.4713 15.1877 10.4713 14.8053C10.4713 14.5343 10.2397 14.3333 9.77467 14.3333C9.39 14.3333 8.983 14.493 8.787 14.6043L8.56233 13.84C8.84567 13.6667 9.412 13.5 10.0213 13.5C11.0303 13.5 11.5903 14.007 11.5903 14.6243C11.5903 15.104 11.307 15.479 10.7257 15.6737V15.6867C11.293 15.7847 11.75 16.194 11.75 16.7847C11.75 17.5827 11.017 18.1667 9.819 18.1667ZM13.9167 10.851L14.5247 10.314C15.5513 9.41767 16.0507 8.902 16.0643 8.36533C16.0643 7.991 15.8333 7.694 15.291 7.694C14.886 7.694 14.532 7.892 14.285 8.076L13.975 7.30633C14.3293 7.04467 14.8787 6.833 15.5147 6.833C16.5777 6.833 17.1637 7.43967 17.1637 8.273C17.1637 9.04267 16.592 9.657 15.9123 10.2503L15.4787 10.6027V10.617H17.25V11.5H13.9167V10.851ZM17.4167 17.054H16.806V18.1667H15.675V17.054H13.4167V16.343L15.3463 13.5H16.806V16.235H17.4167V17.054Z" fill="#00435D"/>
<path id="Vector_2" d="M15.5176 15.5399L14.75 16.6863V16.7016H16.0378V15.5399C16.0378 15.2234 16.0554 14.9013 16.0816 14.5615H16.0471C15.8619 14.9013 15.7115 15.2084 15.5176 15.5399Z" fill="#00435D"/>
</g>
</svg>
