<svg width="309" height="301" viewBox="0 0 309 301" fill="none" xmlns="http://www.w3.org/2000/svg">
<path d="M120.442 7.32876L47.7092 102.24L243.314 53.399L134.364 3.82149C131.99 2.73946 129.321 2.49715 126.793 3.1341C124.265 3.77104 122.026 5.24966 120.442 7.32876Z" fill="#EBEBEB"/>
<path d="M46.6776 102.915L120.121 7.09079C121.759 4.93605 124.078 3.40562 126.698 2.7514C129.317 2.09719 132.08 2.35819 134.532 3.49143L244.559 53.5524L46.6776 102.915ZM129.58 3.14607C127.872 3.14723 126.187 3.54552 124.657 4.30975C123.127 5.07398 121.795 6.18343 120.763 7.55126L48.733 101.572L242.091 53.2915L134.203 4.17446C132.75 3.5166 131.174 3.17902 129.58 3.18444V3.14607Z" fill="#E0E0E0"/>
<path d="M47.704 102.243L243.997 53.2319L270.443 160.086C270.967 162.202 270.632 164.44 269.513 166.308C268.394 168.175 266.582 169.52 264.476 170.046L84.0656 215.091C81.9594 215.617 79.7314 215.281 77.8718 214.157C76.0123 213.033 74.6734 211.213 74.1498 209.098L47.704 102.243Z" fill="#F0F0F0"/>
<path d="M231.914 59.0857L163.911 128.87L61.1264 105.632L49.3672 50.8739C48.7164 48.0494 49.1968 45.0811 50.7047 42.609C52.2126 40.1368 54.6273 38.3589 57.4282 37.6584L206.118 0.536648C207.52 0.185408 208.977 0.1153 210.406 0.330336C211.835 0.545373 213.207 1.04133 214.445 1.78982C215.683 2.53832 216.761 3.52465 217.619 4.69235C218.477 5.86006 219.097 7.18622 219.444 8.59491L231.914 59.0857Z" fill="white"/>
<path d="M154.573 123.383L73.8177 208.14C74.1029 209.293 74.6114 210.378 75.3141 211.333C76.0168 212.288 76.9001 213.095 77.9134 213.707C78.9266 214.32 80.0501 214.725 81.2195 214.901C82.3889 215.077 83.5814 215.02 84.7288 214.733L263.753 170.029C266.069 169.45 268.061 167.972 269.292 165.918C270.523 163.864 270.891 161.404 270.316 159.077L270.148 158.402L164.552 120.988C162.836 120.379 160.981 120.281 159.211 120.706C157.441 121.131 155.83 122.06 154.573 123.383Z" fill="#E0E0E0"/>
<path d="M128.773 45.7424L70.604 60.2771L72.0815 66.2426L130.251 51.7078L128.773 45.7424Z" fill="#E0E0E0"/>
<path d="M203.411 43.1531L74.3486 75.4019L76.0179 82.1419L205.08 49.8931L203.411 43.1531Z" fill="#E0E0E0"/>
<path d="M207.493 59.6196L78.4308 91.8684L80.1002 98.6084L209.162 66.3596L207.493 59.6196Z" fill="#E0E0E0"/>
<path d="M210.206 81.4416L206.164 85.5014L97.8175 113.951L83.6591 110.628L83.1243 109.085L211.773 76.9443L212.33 79.1776L210.206 81.4416Z" fill="#E0E0E0"/>
<path d="M182.493 109.799L133.684 121.986L118.761 118.563L191.708 100.336L182.493 109.799Z" fill="#E0E0E0"/>
<path d="M151.624 126.468C151.624 126.468 151.571 126.552 151.441 126.698L150.86 127.335L148.614 129.753L140.293 138.601C133.248 146.053 123.483 156.353 112.671 167.642C101.86 178.931 91.9265 189.062 84.683 196.322C81.0613 199.952 78.1119 202.883 76.0642 204.886L73.7032 207.189L73.0766 207.78C73.0113 207.853 72.9368 207.917 72.855 207.972C72.9115 207.891 72.9754 207.817 73.0461 207.749L73.642 207.127L75.9343 204.771L84.4691 196.122C91.6591 188.808 101.539 178.655 112.373 167.358C123.208 156.061 133.003 145.869 140.071 138.402L148.476 129.645L150.768 127.282L151.38 126.675C151.548 126.529 151.624 126.468 151.624 126.468Z" fill="#FAFAFA"/>
<path d="M270.148 158.387C270.11 158.494 247.593 150.643 219.857 140.85C192.12 131.057 169.664 123.03 169.702 122.922C169.741 122.815 192.258 130.658 219.994 140.451C247.73 150.244 270.187 158.271 270.148 158.387Z" fill="#FAFAFA"/>
<path d="M235.146 55.7241C235.104 55.7925 235.055 55.8568 235.001 55.916L234.573 56.4455L232.762 58.4639L226.015 65.8238C220.3 72.0172 212.338 80.5052 203.414 89.7684C194.489 99.0315 186.252 107.297 180.277 113.237L173.164 120.236L171.208 122.117L170.696 122.6C170.573 122.707 170.512 122.761 170.505 122.754C170.553 122.688 170.607 122.626 170.665 122.569L171.146 122.055L173.049 120.121L180.063 113.03C185.993 107.036 194.145 98.7322 203.07 89.4767C211.994 80.2212 219.986 71.7946 225.763 65.655L232.601 58.3872L234.473 56.4225L234.97 55.916C235.021 55.845 235.08 55.7806 235.146 55.7241Z" fill="#FAFAFA"/>
<path d="M151.624 126.468C151.534 126.463 151.444 126.447 151.357 126.422L150.593 126.238L147.536 125.47C144.923 124.81 141.126 123.882 136.427 122.776C127.036 120.543 114.008 117.665 99.6132 114.534C85.2179 111.403 72.198 108.479 62.8227 106.169C58.1312 105.018 54.3414 104.051 51.7359 103.345L48.733 102.523L47.969 102.301C47.8787 102.282 47.7914 102.251 47.7092 102.209L47.9766 102.262L48.7407 102.439L51.797 103.206C54.4178 103.866 58.2153 104.787 62.9144 105.9C72.3049 108.133 85.3249 111.011 99.7278 114.143C114.131 117.274 127.143 120.198 136.518 122.508C141.21 123.659 145 124.618 147.605 125.332L150.6 126.153L151.364 126.376L151.624 126.468Z" fill="#FAFAFA"/>
<path d="M231.914 59.0857C231.914 59.0857 231.837 58.8324 231.707 58.3182L231.15 56.1463C230.661 54.22 229.95 51.4034 229.033 47.7734L221.339 16.9831C220.931 15.3561 220.516 13.6908 220.093 11.987C219.887 11.1428 219.673 10.2756 219.452 9.40837C219.345 8.97092 219.238 8.53347 219.1 8.11137C218.98 7.68043 218.827 7.25959 218.642 6.85275C217.884 5.13101 216.693 3.63731 215.186 2.51894C213.678 1.40057 211.907 0.696169 210.046 0.475207C209.08 0.340996 208.1 0.340996 207.135 0.475207C206.172 0.644047 205.194 0.912657 204.208 1.15057L198.21 2.68547L185.672 5.79366L129.962 19.7613L74.1845 33.6676L61.6612 36.7834L58.6049 37.5509C57.6129 37.7579 56.6412 38.0533 55.7014 38.4335C53.8887 39.2227 52.3248 40.4937 51.178 42.1096C50.6231 42.8949 50.1711 43.7486 49.8332 44.6498C49.5182 45.5401 49.3104 46.4651 49.2143 47.405C48.9928 49.2853 49.5123 51.0965 49.8791 52.8846C50.6432 56.4661 51.3741 59.8966 52.072 63.1762C54.8609 76.292 57.1149 86.8982 58.6737 94.2427C59.4377 97.9111 60.0414 100.751 60.454 102.685C60.645 103.644 60.7978 104.381 60.9048 104.887C61.0117 105.394 61.0423 105.655 61.0423 105.655C61.0423 105.655 60.9735 105.401 60.8589 104.887C60.7443 104.373 60.5839 103.652 60.3699 102.7C59.942 100.758 59.3231 97.9188 58.5208 94.2581C56.9239 86.9212 54.624 76.315 51.7817 63.2222C51.0787 59.9452 50.3299 56.5147 49.5582 52.9307C49.1914 51.1655 48.6566 49.2929 48.8858 47.3513C48.9736 46.3794 49.1842 45.4226 49.5123 44.504C49.8614 43.5741 50.3261 42.6922 50.8953 41.8793C51.4742 41.052 52.1661 40.3105 52.9507 39.6768C53.7363 39.0188 54.6143 38.4809 55.5562 38.0804C56.5123 37.6885 57.5021 37.3854 58.5132 37.1748L61.5695 36.4074L74.1157 33.2915L129.894 19.3546L185.672 5.44831L198.195 2.33245L204.193 0.843585C205.178 0.597999 206.141 0.337066 207.15 0.160551C208.623 -0.0604104 210.125 0.0158239 211.568 0.384794C213.011 0.753764 214.366 1.40806 215.555 2.30942C217.067 3.45911 218.261 4.97822 219.024 6.72228C219.215 7.14141 219.374 7.57509 219.497 8.01928C219.635 8.45673 219.742 8.89418 219.849 9.33162C220.063 10.1988 220.269 11.0661 220.483 11.9179C220.903 13.6217 221.308 15.2871 221.713 16.9141L229.278 47.758C230.156 51.3958 230.844 54.22 231.31 56.1463C231.539 57.1056 231.715 57.8347 231.83 58.3336C231.944 58.8324 231.914 59.0857 231.914 59.0857Z" fill="#E0E0E0"/>
<path d="M308.689 299.728C308.689 299.843 239.585 299.935 154.344 299.935C69.1035 299.935 0 299.851 0 299.728C0 299.606 69.0958 299.514 154.344 299.514C239.593 299.514 308.689 299.621 308.689 299.728Z" fill="#263238"/>
<path d="M146.482 18.5793L138.925 24.3583L139.292 35.3943L132.377 29.8763L128.557 33.161L114.039 15.1565L146.482 18.5793Z" fill="#00A8E8"/>
<path d="M136.083 26.7068C136.083 27.0445 139.292 35.3944 139.292 35.3944L132.377 29.8764L136.083 26.7068Z" fill="#00A8E8"/>
<g opacity="0.3">
<path d="M136.083 26.7068C136.083 27.0445 139.292 35.3944 139.292 35.3944L132.377 29.8764L136.083 26.7068Z" fill="black"/>
</g>
<path d="M114.039 15.1565L136.083 26.7067L139.292 35.3943L138.925 24.3583L114.039 15.1565Z" fill="#00A8E8"/>
<path opacity="0.1" d="M114.039 15.1565L136.083 26.7067L139.292 35.3943L138.925 24.3583L114.039 15.1565Z" fill="black"/>
<path d="M175.165 164.057C173.807 164.012 172.472 163.686 171.246 163.099C172.604 163.144 173.939 163.47 175.165 164.057Z" fill="#263238"/>
<path d="M181.416 165.593C181.416 165.708 180.843 165.67 180.201 165.516C179.559 165.363 179.055 165.132 179.078 165.017C179.101 164.902 179.651 164.94 180.3 165.102C180.95 165.263 181.446 165.478 181.416 165.593Z" fill="#263238"/>
<path d="M155.62 33.951C154.943 33.961 154.268 33.8546 153.626 33.6366C152.953 33.5536 152.3 33.3483 151.701 33.0306C152.382 32.9408 153.075 33.009 153.725 33.23C154.406 33.3137 155.056 33.561 155.62 33.951Z" fill="#263238"/>
<path d="M163.017 37.1356C161.735 36.7134 160.522 36.1034 159.418 35.3254C160.1 35.3905 160.757 35.6166 161.336 35.9851C162.337 36.4913 163.078 37.0359 163.017 37.1356Z" fill="#263238"/>
<path d="M169.427 42.0173C169.343 42.1018 168.663 41.5262 167.807 40.8048C166.952 40.0834 166.279 39.4694 166.378 39.3696C167.03 39.6009 167.619 39.9819 168.098 40.4824C168.93 41.2192 169.511 41.9406 169.427 42.0173Z" fill="#263238"/>
<path d="M174.317 48.4257C174.21 48.4794 173.706 47.735 173.095 46.814C172.667 46.2863 172.331 45.6894 172.101 45.0489C172.185 44.9798 172.827 45.6398 173.446 46.5838C173.877 47.12 174.176 47.7512 174.317 48.4257Z" fill="#263238"/>
<path d="M177.092 56.0007C176.763 55.4055 176.536 54.7598 176.419 54.0898C176.163 53.4572 176.021 52.7843 175.998 52.1021C176.411 52.6545 176.691 53.2954 176.816 53.9746C177.073 54.6168 177.168 55.3129 177.092 56.0007Z" fill="#263238"/>
<path d="M177.504 64.0589C177.367 63.3925 177.339 62.7083 177.42 62.0328C177.362 61.3544 177.424 60.6711 177.603 60.0144C177.836 60.6624 177.918 61.3558 177.84 62.0405C177.888 62.7305 177.773 63.4222 177.504 64.0589Z" fill="#263238"/>
<path d="M175.418 71.8407C175.5 71.167 175.691 70.5112 175.983 69.8991C176.139 69.241 176.397 68.6117 176.748 68.0342C176.785 68.7256 176.646 69.4152 176.343 70.0372C176.187 70.7057 175.869 71.3252 175.418 71.8407Z" fill="#263238"/>
<path d="M170.749 78.3947C170.673 78.3026 171.269 77.6273 171.995 76.7984C172.72 75.9696 173.301 75.2635 173.4 75.3479C173.184 76.0052 172.808 76.5984 172.308 77.0747C171.567 77.9343 170.826 78.4791 170.749 78.3947Z" fill="#263238"/>
<path d="M164.01 82.7539C164.526 82.3154 165.109 81.963 165.737 81.7102C166.301 81.3343 166.923 81.0543 167.578 80.8813C167.134 81.4124 166.568 81.8261 165.928 82.0863C165.353 82.4643 164.694 82.6937 164.01 82.7539Z" fill="#263238"/>
<path d="M156.17 84.4502C156.81 84.214 157.484 84.0868 158.165 84.0739C158.826 83.9213 159.507 83.8773 160.182 83.9434C159.582 84.2851 158.907 84.4724 158.218 84.4885C157.543 84.6509 156.839 84.6377 156.17 84.4502Z" fill="#263238"/>
<path d="M148.3 82.9534C149.607 83.2265 150.886 83.6193 152.121 84.1269C151.436 84.2127 150.741 84.1175 150.104 83.8508C149.435 83.7157 148.813 83.4062 148.3 82.9534Z" fill="#263238"/>
<path d="M142.723 77.3971C142.837 77.3587 143.189 78.1645 143.815 79.0701C144.442 79.9757 145.045 80.605 144.961 80.7201C144.877 80.8353 144.129 80.2597 143.471 79.3157C143.009 78.7819 142.745 78.1042 142.723 77.3971Z" fill="#263238"/>
<path d="M146.115 71.1117C146.115 71.2345 145.282 71.5031 144.411 72.1248C143.54 72.7464 143.074 73.5216 142.967 73.4602C142.86 73.3988 143.196 72.4778 144.167 71.7871C144.707 71.321 145.404 71.0795 146.115 71.1117Z" fill="#263238"/>
<path d="M153.022 73.9898C152.915 74.0512 152.426 73.299 151.632 72.5623C150.837 71.8255 150.027 71.4572 150.104 71.342C150.813 71.3982 151.475 71.725 151.953 72.2553C152.501 72.6889 152.88 73.3031 153.022 73.9898Z" fill="#263238"/>
<path d="M153.282 81.8254C153.339 81.1568 153.464 80.4958 153.657 79.8531C153.714 79.182 153.84 78.5185 154.031 77.873C154.237 78.5432 154.237 79.2597 154.031 79.9298C153.979 80.6233 153.718 81.2844 153.282 81.8254Z" fill="#263238"/>
<path d="M148.048 87.8499C147.979 87.7501 148.675 87.1746 149.508 86.4608C150.34 85.7471 151.036 85.1331 151.089 85.2099C151.143 85.2866 150.646 86.0387 149.783 86.7448C148.919 87.4508 148.109 87.9497 148.048 87.8499Z" fill="#263238"/>
<path d="M140.904 91.5788C141.41 91.1197 142.002 90.7675 142.646 90.5433C143.234 90.1955 143.887 89.9735 144.564 89.8914C143.474 90.7034 142.228 91.2782 140.904 91.5788Z" fill="#263238"/>
<path d="M133.714 95.2481C133.653 95.1483 134.379 94.6034 135.342 94.0201C135.903 93.6265 136.545 93.3643 137.221 93.2527C137.282 93.3678 136.503 93.8359 135.548 94.3885C135.002 94.7992 134.378 95.0918 133.714 95.2481Z" fill="#263238"/>
<path d="M127.601 100.528C127.517 100.452 128.045 99.6994 128.847 98.909C129.289 98.3826 129.846 97.9651 130.474 97.6887C130.551 97.7808 129.932 98.4562 129.145 99.2236C128.358 99.9911 127.724 100.605 127.601 100.528Z" fill="#263238"/>
<path d="M123.017 107.144C123.145 106.466 123.427 105.828 123.842 105.279C124.43 104.32 125.034 103.629 125.126 103.698C124.928 104.35 124.614 104.961 124.201 105.501C123.621 106.445 123.124 107.197 123.017 107.144Z" fill="#263238"/>
<path d="M120.083 114.665C120.044 113.977 120.17 113.29 120.45 112.662C120.594 111.987 120.895 111.355 121.329 110.82C121.105 112.154 120.685 113.447 120.083 114.657V114.665Z" fill="#263238"/>
<path d="M119.029 122.677C118.751 121.331 118.846 119.935 119.304 118.64C119.42 119.31 119.42 119.996 119.304 120.666C119.33 121.347 119.237 122.028 119.029 122.677Z" fill="#263238"/>
<path d="M120.083 130.681C119.74 130.088 119.524 129.429 119.449 128.747C119.224 128.094 119.166 127.395 119.281 126.714C119.577 127.328 119.773 127.986 119.862 128.663C120.074 129.313 120.149 130 120.083 130.681Z" fill="#263238"/>
<path d="M123.193 138.126C123.093 138.187 122.551 137.45 122.054 136.437C121.686 135.855 121.463 135.191 121.405 134.503C121.845 135.022 122.191 135.614 122.429 136.253C122.791 136.827 123.049 137.461 123.193 138.126Z" fill="#263238"/>
<path d="M128.022 144.595C127.945 144.672 127.258 144.089 126.494 143.229C126.002 142.748 125.625 142.16 125.393 141.51C125.493 141.433 126.096 142.109 126.814 142.953C127.533 143.797 128.106 144.511 128.022 144.595Z" fill="#263238"/>
<path d="M134.226 149.737C133.562 149.558 132.949 149.224 132.438 148.762C131.536 148.102 130.91 147.442 130.971 147.35C131.602 147.605 132.184 147.969 132.69 148.425C133.577 149.077 134.287 149.637 134.226 149.737Z" fill="#263238"/>
<path d="M141.485 153.221C140.797 153.216 140.121 153.045 139.513 152.722C138.851 152.536 138.244 152.188 137.748 151.71C138.417 151.809 139.066 152.019 139.666 152.331C140.316 152.529 140.929 152.829 141.485 153.221Z" fill="#263238"/>
<path d="M145.527 154.257C145.527 154.365 145.458 154.457 145.42 154.449C145.382 154.441 145.366 154.342 145.42 154.227C145.473 154.112 145.489 154.027 145.527 154.035C145.565 154.043 145.55 154.142 145.527 154.257Z" fill="#263238"/>
<path d="M139.685 134.16L131.329 131.404L129.622 136.624L137.978 139.38L139.685 134.16Z" fill="#00A8E8"/>
<g opacity="0.3">
<path d="M139.685 134.16L131.329 131.404L129.622 136.624L137.978 139.38L139.685 134.16Z" fill="black"/>
</g>
<path d="M139.666 134.173C138.104 134.96 136.484 135.627 134.822 136.169L134.677 136.223L134.585 136.1L134.44 135.916C133.281 134.5 132.236 132.993 131.315 131.411C132.574 132.738 133.731 134.159 134.776 135.662L134.914 135.847L134.677 135.777C136.294 135.109 137.963 134.573 139.666 134.173Z" fill="#00A8E8"/>
<g opacity="0.1">
<path d="M139.666 134.173C138.104 134.96 136.484 135.627 134.822 136.169L134.677 136.223L134.585 136.1L134.44 135.916C133.281 134.5 132.236 132.993 131.315 131.411C132.574 132.738 133.731 134.159 134.776 135.662L134.914 135.847L134.677 135.777C136.294 135.109 137.963 134.573 139.666 134.173Z" fill="black"/>
</g>
<path d="M133.714 134.611C133.139 135.131 132.473 135.539 131.75 135.816C131.085 136.212 130.356 136.49 129.596 136.637C130.176 136.12 130.844 135.712 131.567 135.432C132.231 135.038 132.957 134.76 133.714 134.611Z" fill="#00A8E8"/>
<g opacity="0.1">
<path d="M133.714 134.611C133.139 135.131 132.473 135.539 131.75 135.816C131.085 136.212 130.356 136.49 129.596 136.637C130.176 136.12 130.844 135.712 131.567 135.432C132.231 135.038 132.957 134.76 133.714 134.611Z" fill="black"/>
</g>
<path d="M138.107 139.438C137.64 138.859 137.278 138.202 137.038 137.496C136.533 136.353 136.197 135.37 136.35 135.386C136.819 135.965 137.184 136.622 137.427 137.327C137.783 137.982 138.014 138.698 138.107 139.438Z" fill="#00A8E8"/>
<g opacity="0.1">
<path d="M138.107 139.438C137.64 138.859 137.278 138.202 137.038 137.496C136.533 136.353 136.197 135.37 136.35 135.386C136.819 135.965 137.184 136.622 137.427 137.327C137.783 137.982 138.014 138.698 138.107 139.438Z" fill="black"/>
</g>
<path d="M173.757 154.611L152.269 147.523L147.878 160.954L169.365 168.041L173.757 154.611Z" fill="#00A8E8"/>
<path d="M173.737 154.626C173.43 154.803 173.108 154.949 172.774 155.064L170.1 156.115C167.807 156.982 164.682 158.164 161.16 159.461L161.015 159.515L160.923 159.392L160.564 158.916C158.226 155.846 156.117 152.984 154.612 150.919L152.816 148.471C152.587 148.178 152.385 147.865 152.212 147.535C152.493 147.789 152.748 148.069 152.977 148.371L154.849 150.743C156.415 152.754 158.554 155.555 160.9 158.663L161.259 159.131L161.022 159.062C164.537 157.773 167.708 156.637 170 155.839L172.72 154.91C173.05 154.784 173.39 154.689 173.737 154.626Z" fill="#00A8E8"/>
<g opacity="0.2">
<path d="M173.737 154.626C173.43 154.803 173.108 154.949 172.774 155.064L170.1 156.115C167.807 156.982 164.682 158.164 161.16 159.461L161.015 159.515L160.923 159.392L160.564 158.916C158.226 155.846 156.117 152.984 154.612 150.919L152.816 148.471C152.587 148.178 152.385 147.865 152.212 147.535C152.493 147.789 152.748 148.069 152.977 148.371L154.849 150.743C156.415 152.754 158.554 155.555 160.9 158.663L161.259 159.131L161.022 159.062C164.537 157.773 167.708 156.637 170 155.839L172.72 154.91C173.05 154.784 173.39 154.689 173.737 154.626Z" fill="black"/>
</g>
<path d="M158.455 155.77C156.784 156.818 155.043 157.749 153.244 158.555C151.505 159.482 149.706 160.287 147.857 160.965C149.521 159.908 151.261 158.974 153.061 158.172C154.798 157.239 156.601 156.437 158.455 155.77Z" fill="#00A8E8"/>
<g opacity="0.2">
<path d="M158.455 155.77C156.784 156.818 155.043 157.749 153.244 158.555C151.505 159.482 149.706 160.287 147.857 160.965C149.521 159.908 151.261 158.974 153.061 158.172C154.798 157.239 156.601 156.437 158.455 155.77Z" fill="black"/>
</g>
<path d="M169.733 168.179C168.793 166.532 167.973 164.819 167.28 163.053C166.464 161.338 165.774 159.566 165.217 157.75C166.158 159.399 166.978 161.115 167.67 162.884C168.487 164.595 169.176 166.365 169.733 168.179Z" fill="#00A8E8"/>
<g opacity="0.2">
<path d="M169.733 168.179C168.793 166.532 167.973 164.819 167.28 163.053C166.464 161.338 165.774 159.566 165.217 157.75C166.158 159.399 166.978 161.115 167.67 162.884C168.487 164.595 169.176 166.365 169.733 168.179Z" fill="black"/>
</g>
<path d="M153.427 150.843C152.893 151.237 152.253 151.463 151.591 151.492C150.928 151.521 150.272 151.353 149.705 151.007C149.137 150.662 148.685 150.156 148.404 149.552C148.123 148.949 148.027 148.275 148.127 147.616C148.228 146.958 148.52 146.344 148.968 145.852C149.416 145.361 149.998 145.014 150.642 144.854C151.287 144.695 151.963 144.732 152.587 144.959C153.21 145.186 153.753 145.594 154.146 146.13C154.407 146.487 154.595 146.892 154.7 147.322C154.806 147.752 154.826 148.198 154.759 148.636C154.692 149.074 154.54 149.494 154.312 149.872C154.083 150.251 153.783 150.581 153.427 150.843Z" fill="#263238"/>
<path d="M153.58 147.504C152.87 148.034 152.116 148.502 151.326 148.901L150.791 149.2L150.692 149.254L150.638 149.162C150.277 148.586 149.97 147.977 149.722 147.343C150.147 147.875 150.519 148.448 150.829 149.054L150.684 149.008L151.219 148.701C151.97 148.234 152.76 147.833 153.58 147.504Z" fill="white"/>
<path d="M159.954 136.514L148.695 132.801L146.394 139.837L157.653 143.551L159.954 136.514Z" fill="#00A8E8"/>
<g opacity="0.2">
<path d="M159.954 136.514L148.695 132.801L146.394 139.837L157.653 143.551L159.954 136.514Z" fill="black"/>
</g>
<path d="M159.93 136.522C159.773 136.616 159.606 136.693 159.433 136.752L158.027 137.305C156.843 137.757 155.192 138.379 153.343 139.054H153.267L153.221 138.985L153.038 138.74C151.808 137.113 150.745 135.632 149.913 134.549L148.996 133.299C148.877 133.144 148.773 132.98 148.682 132.807C148.824 132.94 148.952 133.087 149.064 133.245L150.05 134.488C150.868 135.54 151.991 137.005 153.213 138.632L153.404 138.886H153.282C155.124 138.21 156.782 137.612 157.989 137.197L159.41 136.714C159.576 136.63 159.75 136.566 159.93 136.522Z" fill="#00A8E8"/>
<g opacity="0.2">
<path d="M159.93 136.522C159.773 136.616 159.606 136.693 159.433 136.752L158.027 137.305C156.843 137.757 155.192 138.379 153.343 139.054H153.267L153.221 138.985L153.038 138.74C151.808 137.113 150.745 135.632 149.913 134.549L148.996 133.299C148.877 133.144 148.773 132.98 148.682 132.807C148.824 132.94 148.952 133.087 149.064 133.245L150.05 134.488C150.868 135.54 151.991 137.005 153.213 138.632L153.404 138.886H153.282C155.124 138.21 156.782 137.612 157.989 137.197L159.41 136.714C159.576 136.63 159.75 136.566 159.93 136.522Z" fill="#00A8E8"/>
</g>
<path d="M151.93 137.12C151.054 137.667 150.143 138.154 149.202 138.578C148.289 139.064 147.345 139.487 146.375 139.845C147.247 139.289 148.159 138.799 149.103 138.379C150.014 137.891 150.958 137.471 151.93 137.12Z" fill="#00A8E8"/>
<g opacity="0.2">
<path d="M151.93 137.12C151.054 137.667 150.143 138.154 149.202 138.578C148.289 139.064 147.345 139.487 146.375 139.845C147.247 139.289 148.159 138.799 149.103 138.379C150.014 137.891 150.958 137.471 151.93 137.12Z" fill="#00A8E8"/>
</g>
<path d="M157.836 143.621C157.343 142.758 156.914 141.86 156.552 140.935C156.128 140.035 155.765 139.106 155.467 138.156C156.394 139.915 157.186 141.741 157.836 143.621Z" fill="#00A8E8"/>
<g opacity="0.2">
<path d="M157.836 143.621C157.343 142.758 156.914 141.86 156.552 140.935C156.128 140.035 155.765 139.106 155.467 138.156C156.394 139.915 157.186 141.741 157.836 143.621Z" fill="#00A8E8"/>
</g>
<path d="M69.5313 48.4412C68.7543 51.5128 67.0879 54.284 64.743 56.4044C62.398 58.5248 59.4797 59.8992 56.3571 60.3538C53.2345 60.8085 50.0478 60.3229 47.1999 58.9585C44.3521 57.594 41.971 55.4121 40.3577 52.6885C38.7444 49.9649 37.9714 46.822 38.1364 43.6572C38.3014 40.4923 39.397 37.4477 41.2846 34.9083C43.1723 32.3688 45.7673 30.4486 48.7414 29.3904C51.7156 28.3322 54.9354 28.1835 57.9936 28.9632C62.0944 30.0108 65.6132 32.651 67.7767 36.3034C69.9402 39.9558 70.5713 44.3216 69.5313 48.4412Z" fill="#263238"/>
<path d="M59.9573 35.8089C60.24 35.924 58.4291 41.2885 55.9077 47.7965C55.5333 48.7405 55.1436 49.6461 54.8303 50.5363L54.6393 51.0198L54.1579 50.8356C48.9851 48.8326 45.2029 47.1825 45.2946 46.9446C45.3863 46.7067 49.3136 47.95 54.5247 49.8456L53.8523 50.1526C54.1885 49.2623 54.5399 48.3491 54.8991 47.4051C57.4129 40.8894 59.6822 35.7245 59.9573 35.8089Z" fill="white"/>
<path d="M265.633 275.239C268.491 273.891 271.705 273.498 274.802 274.119C276.467 274.395 278.202 274.886 279.34 276.145C280.479 277.404 280.685 279.614 279.386 280.696C278.545 281.261 277.536 281.519 276.529 281.425C274.099 281.425 271.409 280.965 269.468 282.43C268.361 283.267 267.627 284.656 266.305 285.07C265.644 285.222 264.952 285.154 264.332 284.877C263.712 284.601 263.198 284.13 262.867 283.535C262.237 282.314 262.097 280.897 262.477 279.575C262.634 278.657 263 277.787 263.548 277.035C264.095 276.283 264.809 275.668 265.633 275.239Z" fill="#00A8E8"/>
<g opacity="0.2">
<path d="M265.633 275.239C268.491 273.891 271.705 273.498 274.802 274.119C276.467 274.395 278.202 274.886 279.34 276.145C280.479 277.404 280.685 279.614 279.386 280.696C278.545 281.261 277.536 281.519 276.529 281.425C274.099 281.425 271.409 280.965 269.468 282.43C268.361 283.267 267.627 284.656 266.305 285.07C265.644 285.222 264.952 285.154 264.332 284.877C263.712 284.601 263.198 284.13 262.867 283.535C262.237 282.314 262.097 280.897 262.477 279.575C262.634 278.657 263 277.787 263.548 277.035C264.095 276.283 264.809 275.668 265.633 275.239Z" fill="white"/>
</g>
<path d="M259.237 262.837C260.949 265.285 264.265 264.472 265.801 262.975C267.337 261.479 267.994 259.314 268.582 257.25C269.934 252.53 271.295 247.58 270.294 242.776C270.047 241.32 269.41 239.959 268.452 238.839C267.965 238.288 267.342 237.875 266.646 237.642C265.95 237.409 265.205 237.364 264.487 237.511C262.813 237.956 261.774 239.606 261.025 241.172C258.812 245.795 257.651 250.854 257.625 255.984C257.625 258.37 257.9 260.872 259.237 262.845" fill="#00A8E8"/>
<path d="M254.554 266.352C256.403 264.142 256.754 260.919 255.929 258.148C254.993 255.399 253.322 252.962 251.1 251.103C248.569 248.858 245.629 247.128 242.443 246.007C241.207 245.505 239.878 245.277 238.546 245.339C237.881 245.379 237.236 245.581 236.666 245.927C236.097 246.274 235.619 246.754 235.276 247.327C234.367 249.069 235.238 251.164 236.185 252.914C237.851 255.959 239.752 258.869 241.87 261.617C243.574 263.82 245.53 265.999 248.128 266.989C250.725 267.979 253.423 267.872 254.798 266.06" fill="#00A8E8"/>
<g opacity="0.1">
<path d="M254.554 266.352C256.403 264.142 256.754 260.919 255.929 258.148C254.993 255.399 253.322 252.962 251.1 251.103C248.569 248.858 245.629 247.128 242.443 246.007C241.207 245.505 239.878 245.277 238.546 245.339C237.881 245.379 237.236 245.581 236.666 245.927C236.097 246.274 235.619 246.754 235.276 247.327C234.367 249.069 235.238 251.164 236.185 252.914C237.851 255.959 239.752 258.869 241.87 261.617C243.574 263.82 245.53 265.999 248.128 266.989C250.725 267.979 253.423 267.872 254.798 266.06" fill="black"/>
</g>
<path d="M259.123 299.775C259.211 299.41 259.263 299.037 259.276 298.662C259.36 297.848 259.451 296.835 259.574 295.592C259.723 294.097 259.95 292.612 260.254 291.141C260.648 289.348 261.188 287.589 261.866 285.884C262.529 284.179 263.429 282.577 264.54 281.126C265.442 279.943 266.596 278.978 267.917 278.301C268.813 277.858 269.772 277.558 270.76 277.411C271.131 277.398 271.499 277.347 271.86 277.258C271.489 277.212 271.115 277.212 270.744 277.258C269.716 277.335 268.71 277.595 267.772 278.025C266.384 278.688 265.166 279.662 264.211 280.872C263.054 282.343 262.119 283.977 261.438 285.723C260.752 287.464 260.218 289.261 259.841 291.095C259.553 292.583 259.357 294.087 259.253 295.6C259.153 296.889 259.115 297.902 259.1 298.67C259.07 299.038 259.078 299.408 259.123 299.775Z" fill="#263238"/>
<path d="M259.329 297.426C259.352 297.256 259.352 297.083 259.329 296.912V295.439C259.329 294.157 259.329 292.3 259.39 290.013C259.505 285.408 259.895 279.107 260.659 272.162C261.423 265.216 262.431 258.961 263.356 254.51C263.57 253.39 263.791 252.377 263.998 251.494C264.204 250.612 264.364 249.836 264.525 249.192C264.685 248.547 264.777 248.133 264.869 247.757C264.921 247.59 264.951 247.417 264.96 247.242C264.883 247.396 264.824 247.558 264.785 247.726L264.357 249.146C264.166 249.76 263.975 250.519 263.753 251.402C263.532 252.285 263.279 253.29 263.035 254.418C261.788 260.258 260.852 266.16 260.231 272.1C259.467 279.061 259.13 285.4 259.1 289.99C259.1 292.292 259.1 294.142 259.176 295.423C259.212 296.022 259.242 296.513 259.268 296.897C259.271 297.075 259.292 297.252 259.329 297.426Z" fill="#263238"/>
<path d="M259.36 285.208C259.401 284.698 259.401 284.184 259.36 283.673C259.274 282.275 259.116 280.881 258.886 279.499C258.126 274.928 256.823 270.465 255.004 266.206C253.248 261.901 250.727 257.954 247.562 254.556C247.015 253.974 246.431 253.428 245.812 252.922C245.545 252.691 245.308 252.469 245.048 252.285L244.376 251.817C243.965 251.505 243.53 251.226 243.077 250.98C244.566 252.158 245.983 253.427 247.318 254.779C250.377 258.204 252.831 262.128 254.576 266.383C255.58 268.703 256.43 271.088 257.121 273.52C257.786 275.753 258.229 277.81 258.565 279.545C258.901 281.279 259.062 282.699 259.176 283.681C259.201 284.194 259.262 284.704 259.36 285.208Z" fill="#263238"/>
<path d="M143.15 184.035H175.143L187.811 148.486H186.038L173.477 182.3L143.15 182.477V184.035Z" fill="#455A64"/>
<path d="M129.015 188.525L130.199 299.874H133.454L132.132 187.703L129.015 188.525Z" fill="#263238"/>
<path d="M197.492 187.442C197.056 189.568 200.426 300.127 200.426 300.127H203.482L200.999 187.442H197.492Z" fill="#263238"/>
<path d="M234.894 184.035H98.8644V189.668H110.089L102.784 299.514L105.978 299.69L113.29 189.668H223.448L228.789 299.736H231.99L226.649 189.668H234.894V184.035Z" fill="#263238"/>
<path d="M158.165 295.684V287.242L142.417 287.081L142.241 299.437L143.219 299.506C147.559 299.798 165.317 300.657 168.228 299.805C171.467 298.854 158.165 295.684 158.165 295.684Z" fill="#00A8E8"/>
<path d="M147.941 299.368C147.725 298.031 147.022 296.822 145.97 295.976C144.937 295.135 143.63 294.711 142.302 294.786L142.257 299.207L147.941 299.368Z" fill="#F5F5F5"/>
<path d="M164.644 297.465C164.644 297.465 169.32 298.877 168.724 299.644C168.128 300.412 150.157 300.22 142.234 299.437V299.084L163.2 299.491C163.2 299.491 163.727 297.495 164.644 297.465Z" fill="#F5F5F5"/>
<path d="M142.287 299.069L143.051 299.13L145.909 299.284C148.323 299.399 151.662 299.507 155.353 299.553C159.043 299.599 162.39 299.553 164.805 299.499L167.67 299.414L168.434 299.376H168.701C168.613 299.364 168.523 299.364 168.434 299.376H167.67H164.805C162.39 299.376 159.043 299.376 155.361 299.376C151.678 299.376 148.331 299.238 145.917 299.161L143.051 299.069H142.287Z" fill="#263238"/>
<path d="M163.223 299.729C163.353 299.253 163.538 298.795 163.773 298.362C164.058 297.961 164.389 297.595 164.76 297.273C164.287 297.478 163.887 297.823 163.614 298.261C163.341 298.7 163.207 299.212 163.231 299.729H163.223Z" fill="#263238"/>
<path d="M158.6 297.318C158.646 297.318 158.876 297.072 159.105 296.712C159.334 296.351 159.495 296.037 159.449 296.006C159.403 295.976 159.181 296.252 158.944 296.612C158.78 296.82 158.663 297.06 158.6 297.318Z" fill="#263238"/>
<path d="M157.332 296.659C157.37 296.698 157.622 296.536 157.898 296.291C158.173 296.045 158.364 295.822 158.326 295.784C158.288 295.745 158.043 295.907 157.768 296.145C157.492 296.383 157.301 296.59 157.332 296.659Z" fill="#263238"/>
<path d="M156.545 295.123C156.805 295.225 157.085 295.264 157.362 295.238C157.64 295.274 157.922 295.248 158.188 295.162C157.928 295.06 157.648 295.021 157.37 295.047C157.093 295.011 156.811 295.037 156.545 295.123Z" fill="#263238"/>
<path d="M156.277 294.072C156.56 294.226 156.872 294.319 157.193 294.347C157.514 294.374 157.837 294.335 158.142 294.232C157.52 294.184 156.898 294.131 156.277 294.072Z" fill="#263238"/>
<path d="M159.15 295.944C159.487 296.003 159.83 296.003 160.167 295.944C160.532 295.906 160.893 295.831 161.244 295.722C161.459 295.661 161.667 295.577 161.863 295.469C161.923 295.437 161.976 295.394 162.02 295.341C162.063 295.288 162.095 295.227 162.115 295.162C162.132 295.086 162.127 295.007 162.102 294.934C162.076 294.861 162.03 294.796 161.97 294.748C161.586 294.557 161.149 294.505 160.732 294.6C160.314 294.695 159.942 294.931 159.678 295.269C159.517 295.467 159.399 295.697 159.334 295.944C159.334 296.121 159.334 296.22 159.334 296.22C159.435 295.908 159.593 295.616 159.8 295.361C160.029 295.093 160.332 294.898 160.671 294.801C160.869 294.738 161.077 294.714 161.284 294.731C161.492 294.748 161.693 294.806 161.878 294.901C162.039 295.024 161.97 295.208 161.794 295.315C161.611 295.413 161.419 295.493 161.221 295.553C160.879 295.667 160.529 295.754 160.174 295.814C159.54 295.891 159.15 295.891 159.15 295.944Z" fill="#263238"/>
<path d="M159.411 295.999C159.539 295.787 159.585 295.536 159.541 295.293C159.513 295.019 159.421 294.756 159.273 294.525C159.189 294.373 159.068 294.244 158.921 294.151C158.774 294.059 158.606 294.005 158.432 293.996C158.329 294.016 158.238 294.077 158.179 294.165C158.12 294.252 158.099 294.36 158.119 294.464C158.14 294.624 158.194 294.779 158.279 294.917C158.415 295.14 158.574 295.349 158.753 295.538C158.906 295.723 159.104 295.866 159.327 295.953C159.327 295.953 159.128 295.768 158.853 295.446C158.693 295.257 158.555 295.051 158.44 294.832C158.302 294.617 158.211 294.226 158.44 294.187C158.669 294.149 158.952 294.418 159.105 294.625C159.241 294.824 159.335 295.048 159.38 295.285C159.418 295.521 159.429 295.76 159.411 295.999Z" fill="#263238"/>
<path d="M142.386 294.748C142.386 294.748 142.837 294.71 143.548 294.802C144.473 294.92 145.348 295.292 146.077 295.876C146.786 296.489 147.314 297.285 147.605 298.178C147.834 298.854 147.857 299.314 147.888 299.307C147.918 299.299 147.888 299.191 147.888 298.992C147.862 298.701 147.808 298.413 147.727 298.132C147.453 297.201 146.904 296.375 146.155 295.762C145.405 295.148 144.488 294.776 143.525 294.694C143.236 294.662 142.943 294.662 142.654 294.694C142.562 294.695 142.471 294.713 142.386 294.748Z" fill="#263238"/>
<path d="M144.09 288.217C143.907 290.376 143.856 292.544 143.938 294.71C144.059 293.632 144.115 292.548 144.106 291.463C144.161 290.382 144.156 289.298 144.09 288.217Z" fill="#263238"/>
<path d="M149.943 297.848C150.693 298.034 151.464 298.119 152.236 298.1C153.003 298.15 153.774 298.096 154.528 297.94C154.528 297.887 153.496 297.94 152.236 297.94C150.975 297.94 149.951 297.795 149.943 297.848Z" fill="#263238"/>
<path d="M146.856 297.81C146.856 297.848 146.94 298.032 147.04 298.27C147.139 298.508 147.2 298.715 147.254 298.715C147.307 298.715 147.338 298.462 147.216 298.193C147.093 297.925 146.895 297.771 146.856 297.81Z" fill="#263238"/>
<path d="M145.71 296.344C145.71 296.383 145.771 296.544 145.932 296.713C146.092 296.882 146.253 296.989 146.291 296.951C146.329 296.912 146.23 296.751 146.07 296.582C145.909 296.413 145.748 296.306 145.71 296.344Z" fill="#263238"/>
<path d="M144.052 295.661C144.052 295.715 144.274 295.715 144.503 295.799C144.733 295.883 144.901 296.014 144.939 295.975C144.977 295.937 144.855 295.722 144.564 295.623C144.274 295.523 144.037 295.615 144.052 295.661Z" fill="#263238"/>
<path d="M142.883 295.338C142.883 295.384 142.952 295.468 143.082 295.521C143.212 295.575 143.334 295.575 143.349 295.521C143.365 295.468 143.281 295.392 143.151 295.338C143.021 295.285 142.883 295.285 142.883 295.338Z" fill="#263238"/>
<path d="M189.125 287.165L185.672 279.452L171.253 285.815L176.151 297.142L177.068 296.805C181.148 295.27 197.698 288.723 199.991 286.743C202.581 284.533 189.125 287.165 189.125 287.165Z" fill="#00A8E8"/>
<path d="M181.355 294.725C180.611 293.586 179.473 292.765 178.161 292.422C176.877 292.087 175.516 292.243 174.34 292.86L176.105 296.904L181.355 294.725Z" fill="#F5F5F5"/>
<path d="M195.796 286.091C195.796 286.091 200.632 285.439 200.38 286.39C200.128 287.342 183.693 294.587 176.151 297.135L176.037 296.805L195.307 288.508C195.307 288.508 194.97 286.498 195.796 286.091Z" fill="#F5F5F5"/>
<path d="M175.823 296.904L176.083 296.82L176.847 296.551L179.521 295.508C181.767 294.61 184.869 293.336 188.239 291.847C191.609 290.358 194.65 288.954 196.827 287.895L199.402 286.636L200.098 286.275C200.181 286.242 200.261 286.198 200.334 286.145L200.082 286.245L199.372 286.567L196.774 287.779C194.581 288.792 191.54 290.189 188.163 291.67C184.785 293.152 181.698 294.456 179.467 295.385L176.824 296.482L176.105 296.782L175.823 296.904Z" fill="#263238"/>
<path d="M195.429 288.746C195.349 288.26 195.328 287.765 195.368 287.273C195.469 286.79 195.62 286.319 195.819 285.868C195.444 286.231 195.215 286.721 195.177 287.242C195.075 287.758 195.165 288.293 195.429 288.746Z" fill="#263238"/>
<path d="M190.256 288.446C190.31 288.446 190.401 288.116 190.47 287.679C190.539 287.242 190.547 286.912 190.47 286.912C190.394 286.912 190.325 287.242 190.256 287.679C190.193 287.931 190.193 288.194 190.256 288.446Z" fill="#263238"/>
<path d="M188.789 288.346C188.835 288.346 188.996 288.109 189.148 287.779C189.301 287.449 189.378 287.158 189.332 287.135C189.286 287.111 189.126 287.365 188.973 287.702C188.82 288.04 188.728 288.323 188.789 288.346Z" fill="#263238"/>
<path d="M187.452 287.304C187.72 287.278 187.981 287.197 188.217 287.066C188.637 286.889 188.981 286.705 188.935 286.659C188.889 286.613 188.561 286.712 188.171 286.889C187.781 287.066 187.429 287.25 187.452 287.304Z" fill="#263238"/>
<path d="M186.78 286.452C187.101 286.505 187.431 286.459 187.727 286.322C188.04 286.244 188.323 286.073 188.537 285.83C188.235 285.908 187.941 286.013 187.658 286.145C187.356 286.219 187.062 286.322 186.78 286.452Z" fill="#263238"/>
<path d="M190.164 286.974C190.493 286.888 190.806 286.748 191.089 286.559C191.403 286.369 191.7 286.151 191.975 285.907C192.148 285.763 192.304 285.601 192.441 285.423C192.522 285.31 192.557 285.17 192.541 285.032C192.527 284.957 192.491 284.887 192.438 284.833C192.385 284.778 192.317 284.741 192.243 284.725C191.966 284.713 191.691 284.764 191.436 284.872C191.181 284.981 190.954 285.145 190.77 285.353C190.587 285.561 190.451 285.808 190.374 286.075C190.297 286.342 190.28 286.623 190.325 286.897C190.334 286.991 190.362 287.083 190.409 287.166C190.382 286.836 190.407 286.504 190.485 286.183C190.586 285.845 190.782 285.544 191.051 285.316C191.363 285.036 191.771 284.89 192.189 284.909C192.388 284.948 192.403 285.147 192.281 285.324C192.155 285.487 192.015 285.639 191.861 285.776C191.593 286.018 191.31 286.241 191.013 286.444C190.501 286.789 190.149 286.943 190.164 286.974Z" fill="#263238"/>
<path d="M190.424 286.911C190.448 286.668 190.386 286.423 190.249 286.221C190.111 285.99 189.923 285.793 189.698 285.646C189.56 285.543 189.397 285.477 189.226 285.455C189.055 285.432 188.881 285.453 188.72 285.515C188.635 285.576 188.576 285.668 188.558 285.771C188.539 285.874 188.562 285.981 188.621 286.068C188.704 286.208 188.82 286.326 188.957 286.413C189.171 286.565 189.402 286.691 189.645 286.789C189.862 286.892 190.101 286.94 190.34 286.927C190.34 286.927 190.08 286.842 189.698 286.658C189.473 286.555 189.26 286.426 189.064 286.275C188.85 286.137 188.613 285.822 188.827 285.676C188.956 285.639 189.091 285.63 189.223 285.651C189.355 285.673 189.481 285.723 189.591 285.799C189.801 285.922 189.981 286.089 190.119 286.29C190.238 286.488 190.34 286.696 190.424 286.911Z" fill="#263238"/>
<path d="M174.394 292.821C174.394 292.821 174.784 292.599 175.471 292.392C176.362 292.111 177.313 292.09 178.215 292.33C179.117 292.571 179.933 293.063 180.568 293.75C181.057 294.28 181.263 294.686 181.293 294.663C181.264 294.56 181.22 294.462 181.164 294.372C181.024 294.119 180.858 293.882 180.667 293.666C180.038 292.924 179.202 292.39 178.268 292.131C177.332 291.889 176.346 291.929 175.433 292.246C175.166 292.344 174.91 292.47 174.669 292.622C174.47 292.729 174.386 292.821 174.394 292.821Z" fill="#263238"/>
<path d="M173.255 286.122C173.58 287.169 173.97 288.194 174.424 289.191C174.821 290.201 175.272 291.187 175.777 292.146C175.445 291.113 175.052 290.101 174.6 289.115C174.208 288.093 173.759 287.093 173.255 286.122Z" fill="#263238"/>
<path d="M182.547 292.514C183.307 292.368 184.047 292.126 184.747 291.793C185.471 291.522 186.155 291.153 186.78 290.696C186.78 290.649 185.84 291.118 184.671 291.616C183.502 292.115 182.531 292.461 182.547 292.514Z" fill="#263238"/>
<path d="M179.719 293.75C179.719 293.804 179.888 293.919 180.079 294.096C180.27 294.272 180.408 294.441 180.453 294.41C180.499 294.38 180.453 294.149 180.209 293.95C179.964 293.75 179.735 293.704 179.719 293.75Z" fill="#263238"/>
<path d="M178.077 292.891C178.077 292.944 178.214 293.052 178.428 293.136C178.642 293.22 178.834 293.251 178.857 293.205C178.879 293.159 178.719 293.044 178.505 292.96C178.291 292.875 178.092 292.822 178.077 292.891Z" fill="#263238"/>
<path d="M176.289 292.951C176.289 292.997 176.51 292.913 176.755 292.897C177 292.882 177.199 292.897 177.222 292.897C177.244 292.897 177.038 292.699 176.74 292.729C176.442 292.76 176.251 292.913 176.289 292.951Z" fill="#263238"/>
<path d="M175.074 293.143C175.074 293.197 175.196 293.235 175.334 293.227C175.471 293.22 175.586 293.174 175.586 293.12C175.586 293.067 175.464 293.029 175.326 293.036C175.189 293.044 175.074 293.09 175.074 293.143Z" fill="#263238"/>
<path d="M46.2346 230.75L34.8651 145.416C34.7942 144.885 34.8422 144.345 35.0057 143.835C35.1693 143.325 35.4441 142.858 35.8102 142.468C36.1763 142.078 36.6244 141.776 37.1218 141.582C37.6193 141.388 38.1535 141.309 38.6855 141.349L66.093 143.651C67.3156 143.755 68.462 144.29 69.3281 145.163C70.1942 146.036 70.7239 147.189 70.8227 148.417L77.5008 229.207L46.2346 230.75Z" fill="#00A8E8"/>
<g opacity="0.2">
<path d="M46.2346 230.75L34.8651 145.416C34.7942 144.885 34.8422 144.345 35.0057 143.835C35.1693 143.325 35.4441 142.858 35.8102 142.468C36.1763 142.078 36.6244 141.776 37.1218 141.582C37.6193 141.388 38.1535 141.309 38.6855 141.349L66.093 143.651C67.3156 143.755 68.462 144.29 69.3281 145.163C70.1942 146.036 70.7239 147.189 70.8227 148.417L77.5008 229.207L46.2346 230.75Z" fill="black"/>
</g>
<path d="M72.6718 105.34C72.4425 102.086 71.5944 98.9167 71.1436 95.6934C70.6928 92.4701 70.6011 89.0779 71.8695 86.0772C72.6458 84.4043 73.7434 82.9018 75.0991 81.656C76.4549 80.4101 78.0422 79.4454 79.7701 78.8171C83.2404 77.5803 86.946 77.1551 90.6047 77.5738C91.2661 77.5939 91.9174 77.7425 92.5226 78.0112C92.8214 78.1502 93.0791 78.3648 93.2707 78.6338C93.4622 78.9028 93.5809 79.2172 93.6152 79.5462C93.6226 79.7094 93.5964 79.8725 93.5383 80.0252C93.4802 80.1779 93.3913 80.3169 93.2773 80.4335C93.1633 80.5502 93.0266 80.642 92.8757 80.7032C92.7248 80.7645 92.563 80.7938 92.4003 80.7894C93.7959 80.9326 95.1718 81.2285 96.5034 81.672C97.0446 81.8259 97.515 82.1653 97.8329 82.6313C97.962 82.9231 98.0129 83.2437 97.9808 83.5614C97.9486 83.879 97.8344 84.1828 97.6496 84.4425C97.2697 84.9567 96.8013 85.3985 96.2666 85.7472C96.4301 85.7148 96.5984 85.7151 96.7619 85.7482C96.9253 85.7812 97.0807 85.8462 97.219 85.9396C97.3574 86.033 97.4761 86.1529 97.5683 86.2923C97.6606 86.4318 97.7245 86.5882 97.7565 86.7525C97.8054 87.088 97.7838 87.43 97.693 87.7565C97.6022 88.083 97.4442 88.3868 97.2293 88.6482C96.8396 89.2007 96.3353 89.6535 95.9304 90.1831C94.28 92.3857 94.6009 95.4478 94.9982 98.1799" fill="#263238"/>
<path d="M72.9698 124.404L88.4119 124.128C88.6182 122.332 88.9162 115.348 88.9162 115.348C88.9162 115.348 95.3727 114.749 95.8464 108.333C96.3201 101.918 96.1215 87.1056 96.1215 87.1056C92.5842 85.3121 88.6344 84.4995 84.6799 84.7518C80.7255 85.004 76.9098 86.3121 73.6269 88.5408L72.6336 89.2161L72.9698 124.404Z" fill="#B78876"/>
<path d="M93.982 98.2338C93.8521 98.1026 93.7638 97.9358 93.7283 97.7543C93.6927 97.5728 93.7115 97.3848 93.7822 97.214C93.8529 97.0432 93.9724 96.8973 94.1255 96.7947C94.2787 96.692 94.4588 96.6372 94.6429 96.6372C94.8271 96.6372 95.0071 96.692 95.1603 96.7947C95.3135 96.8973 95.4329 97.0432 95.5036 97.214C95.5743 97.3848 95.5931 97.5728 95.5575 97.7543C95.522 97.9358 95.4337 98.1026 95.3038 98.2338C95.2177 98.3222 95.1149 98.3924 95.0014 98.4404C94.8879 98.4883 94.766 98.5131 94.6429 98.5131C94.5198 98.5131 94.3979 98.4883 94.2844 98.4404C94.1709 98.3924 94.0681 98.3222 93.982 98.2338Z" fill="#263238"/>
<path d="M95.6094 96.6749C95.5025 96.7823 94.9065 96.2607 94.0278 96.1993C93.1491 96.138 92.4996 96.5598 92.385 96.4371C92.2704 96.3144 92.4538 96.1917 92.7441 95.9922C93.1387 95.7478 93.6002 95.6347 94.0626 95.6691C94.525 95.7036 94.9647 95.8838 95.3191 96.184C95.5789 96.4218 95.6629 96.6289 95.6094 96.6749Z" fill="#263238"/>
<path d="M85.4166 96.8216C85.5682 96.9279 85.6849 97.077 85.7519 97.2501C85.8189 97.4231 85.8332 97.6123 85.7929 97.7935C85.7526 97.9747 85.6596 98.1398 85.5257 98.2678C85.3917 98.3957 85.223 98.4808 85.0408 98.5122C84.8586 98.5436 84.6712 98.5199 84.5025 98.4441C84.3337 98.3683 84.1912 98.2438 84.0931 98.0864C83.995 97.9291 83.9456 97.746 83.9514 97.5604C83.9571 97.3748 84.0177 97.1951 84.1253 97.0442C84.1954 96.9442 84.2844 96.8591 84.3873 96.7938C84.4902 96.7285 84.6049 96.6842 84.7249 96.6635C84.8449 96.6428 84.9678 96.6462 85.0865 96.6733C85.2052 96.7004 85.3173 96.7508 85.4166 96.8216Z" fill="#263238"/>
<path d="M85.9973 96.867C85.8903 96.9667 85.2944 96.4451 84.4157 96.3837C83.537 96.3224 82.8875 96.7442 82.7805 96.6292C82.6736 96.5141 82.8417 96.3761 83.1396 96.1843C83.5315 95.9358 83.9926 95.8203 84.4548 95.8549C84.9171 95.8894 85.356 96.0721 85.707 96.3761C85.9667 96.6062 86.0508 96.8209 85.9973 96.867Z" fill="#263238"/>
<path d="M89.0842 104.381C89.5473 104.227 90.0332 104.155 90.5207 104.166C90.7576 104.166 90.941 104.112 90.9639 103.99C90.9835 103.758 90.9413 103.525 90.8416 103.314C90.6506 102.716 90.4519 102.109 90.2533 101.472C89.451 98.8554 88.9009 96.6988 89.0384 96.6604C89.1759 96.6221 89.9247 98.7095 90.7347 101.327C90.9257 101.964 91.1014 102.578 91.2848 103.176C91.4103 103.486 91.4317 103.828 91.3459 104.151C91.3076 104.237 91.2496 104.314 91.1766 104.374C91.1037 104.434 91.0177 104.476 90.9257 104.496C90.7962 104.51 90.6655 104.51 90.536 104.496C90.0491 104.541 89.5582 104.502 89.0842 104.381Z" fill="#263238"/>
<path d="M86.1577 105.179C85.279 104.573 88.6028 106.714 90.3984 106.714C90.0697 107.156 89.6009 107.473 89.0691 107.613C88.5373 107.752 87.9741 107.706 87.472 107.481C85.577 106.675 86.1577 105.179 86.1577 105.179Z" fill="white"/>
<path d="M88.939 115.256C85.9828 115.132 83.1307 114.124 80.748 112.362C80.748 112.362 82.4367 117.105 88.8473 116.921L88.939 115.256Z" fill="#A36957"/>
<path d="M72.4273 94.0511L72.7558 102.378C72.7558 102.378 75.667 101.488 75.858 101.403C76.049 101.319 75.8045 91.2038 75.8045 91.2038C75.8045 91.2038 75.3996 87.3666 77.8752 86.484C80.4807 85.54 81.6115 87.4356 85.302 88.0189C97.4738 90.0834 96.641 86.3305 96.641 86.3305C96.641 86.3305 98.1692 84.6805 95.0441 82.8693C91.919 81.0581 84.1024 80.4441 79.8236 81.9253C71.4187 84.834 70.9144 87.7273 70.9144 90.2829C70.9144 93.9283 72.4273 94.0511 72.4273 94.0511Z" fill="#263238"/>
<path d="M73.8561 94.9104C73.7186 94.8566 69.1188 94.258 69.5543 99.7146C69.9898 105.171 75.3308 102.93 75.3308 102.784C75.3308 102.639 73.8561 94.9104 73.8561 94.9104Z" fill="#B78876"/>
<path d="M73.5123 100.958C73.5123 100.958 73.4206 101.035 73.2677 101.119C73.0487 101.234 72.794 101.258 72.5572 101.188C72.1866 100.997 71.8748 100.708 71.6554 100.353C71.4359 99.9971 71.3171 99.5881 71.3117 99.1698C71.2589 98.7011 71.3111 98.2265 71.4645 97.7807C71.5053 97.6095 71.5861 97.4505 71.7004 97.317C71.8147 97.1835 71.9592 97.0794 72.1216 97.0133C72.2282 96.9763 72.3443 96.9775 72.4501 97.0167C72.556 97.0559 72.645 97.1306 72.7023 97.2281C72.7864 97.374 72.7558 97.4891 72.7864 97.4968C72.8169 97.5044 72.8934 97.3893 72.8322 97.1744C72.7946 97.0397 72.7107 96.9228 72.5954 96.8444C72.4343 96.749 72.244 96.7163 72.0605 96.7523C71.8407 96.8133 71.6402 96.93 71.4783 97.0913C71.3164 97.2526 71.1985 97.453 71.136 97.6733C70.9434 98.1603 70.8726 98.6873 70.9297 99.2082C71.0519 100.306 71.6937 101.288 72.4578 101.457C72.6074 101.487 72.7619 101.484 72.9099 101.447C73.058 101.409 73.1959 101.34 73.3136 101.242C73.5123 101.127 73.5275 100.996 73.5123 100.958Z" fill="#A36957"/>
<path d="M134.539 168.494C134.539 168.494 142.18 168.126 143.708 168.824C146.352 169.983 154.222 182.377 153.825 182.377C152.633 182.377 150.18 182.377 150.18 182.377L137.955 177.719L135.074 178.448L134.539 168.494Z" fill="#B78876"/>
<path d="M167.395 204.081C167.395 204.081 190.256 283.612 190.31 283.221C190.363 282.829 169.817 293.144 169.817 293.144L155.957 235.631L167.395 204.081Z" fill="#263238"/>
<path d="M169.366 293.628L191.02 283.014L190.08 280.105L168.258 290.734L169.366 293.628Z" fill="#455A64"/>
<path d="M166.524 264.372C166.41 264.372 166.173 263.904 165.981 263.267C165.79 262.63 165.729 262.07 165.844 262.039C165.959 262.008 166.196 262.499 166.387 263.144C166.578 263.789 166.631 264.334 166.524 264.372Z" fill="#455A64"/>
<path d="M167.938 269.031C167.823 269.031 167.571 268.57 167.38 267.933C167.189 267.296 167.112 266.744 167.219 266.705C167.326 266.667 167.578 267.166 167.777 267.803C167.976 268.44 168.045 268.977 167.938 269.031Z" fill="#455A64"/>
<path d="M169.413 273.635C169.298 273.674 169.046 273.182 168.839 272.545C168.633 271.908 168.556 271.363 168.663 271.325C168.77 271.287 169.03 271.778 169.237 272.415C169.443 273.052 169.52 273.635 169.413 273.635Z" fill="#455A64"/>
<path d="M170.956 278.24C170.841 278.278 170.581 277.795 170.367 277.158C170.153 276.521 170.061 275.976 170.176 275.938C170.291 275.899 170.551 276.383 170.765 277.02C170.979 277.657 171.063 278.24 170.956 278.24Z" fill="#455A64"/>
<path d="M172.561 282.845C172.454 282.845 172.178 282.399 171.957 281.77C171.735 281.141 171.636 280.596 171.75 280.558C171.865 280.519 172.125 280.995 172.354 281.632C172.584 282.269 172.683 282.783 172.561 282.845Z" fill="#455A64"/>
<path d="M174.211 287.38C174.096 287.38 173.821 286.943 173.592 286.313C173.362 285.684 173.255 285.139 173.362 285.101C173.469 285.062 173.752 285.538 173.982 286.168C174.211 286.797 174.341 287.342 174.211 287.38Z" fill="#455A64"/>
<path d="M173.011 289.291C172.823 289.036 172.668 288.757 172.552 288.462C172.285 287.91 171.918 287.104 171.498 286.098C170.65 284.088 169.603 281.256 168.549 278.101C167.494 274.947 166.608 272.062 165.981 269.974C165.691 268.992 165.446 268.163 165.217 267.495C165.107 267.196 165.035 266.884 165.003 266.567C165.153 266.846 165.276 267.139 165.37 267.442C165.584 268.017 165.874 268.846 166.226 269.882L168.908 277.963C169.955 281.118 170.956 283.957 171.735 285.991L172.667 288.393C172.813 288.679 172.928 288.98 173.011 289.291Z" fill="#455A64"/>
<path d="M60.7368 198.555C60.9279 194.342 58.5439 221.679 79.4645 222.4C100.385 223.122 143.128 222.807 143.128 222.807L138.123 292.131H163.223L168.465 218.379C168.465 218.379 171.139 197.013 156.583 194.288C147.475 192.577 90.834 192.032 90.834 192.032L60.7368 198.555Z" fill="#263238"/>
<path d="M137.55 292.277H163.979V288.148L137.55 288.186V292.277Z" fill="#455A64"/>
<path d="M96.2054 219.146C96.2942 219.134 96.3841 219.134 96.4729 219.146L97.2369 219.1L100.293 218.962L111.64 218.524L149.913 217.204H150.157V217.45C149.813 220.274 149.523 223.259 149.278 226.291C148.942 230.627 148.621 234.856 148.308 238.938C147.995 243.021 147.544 246.951 147.154 250.696C146.39 258.171 145.672 264.909 145.076 270.581C144.48 276.252 143.983 280.795 143.64 283.98C143.464 285.515 143.326 286.774 143.227 287.626C143.181 288.025 143.143 288.339 143.112 288.57C143.103 288.678 143.085 288.786 143.059 288.892C143.047 288.785 143.047 288.677 143.059 288.57C143.059 288.332 143.105 288.017 143.135 287.618C143.212 286.758 143.326 285.531 143.471 283.965C143.777 280.78 144.236 276.198 144.778 270.55C145.321 264.901 146.016 258.14 146.765 250.65C147.131 246.905 147.529 242.975 147.888 238.9C148.247 234.825 148.522 230.588 148.851 226.26C149.095 223.19 149.385 220.236 149.737 217.396L149.951 217.634L111.67 218.808L100.324 219.123L97.2675 219.184H96.5034C96.4027 219.187 96.3022 219.174 96.2054 219.146Z" fill="#455A64"/>
<path d="M98.6199 216.145C98.6199 216.26 98.0851 216.367 97.4127 216.383C96.7403 216.398 96.2054 216.321 96.2054 216.206C96.2054 216.091 96.7403 215.976 97.405 215.961C98.0698 215.946 98.6199 216.03 98.6199 216.145Z" fill="#455A64"/>
<path d="M103.457 216.03C103.457 216.145 102.922 216.252 102.249 216.268C101.577 216.283 101.042 216.206 101.034 216.091C101.027 215.976 101.577 215.869 102.242 215.846C102.906 215.823 103.457 215.915 103.457 216.03Z" fill="#455A64"/>
<path d="M108.293 215.915C108.293 216.037 107.758 216.137 107.086 216.16C106.414 216.183 105.879 216.091 105.871 215.976C105.863 215.861 106.414 215.754 107.078 215.738C107.743 215.723 108.293 215.8 108.293 215.915Z" fill="#455A64"/>
<path d="M113.13 215.799C113.13 215.922 112.595 216.029 111.923 216.045C111.25 216.06 110.715 215.976 110.708 215.861C110.7 215.746 111.25 215.638 111.915 215.623C112.58 215.608 113.13 215.684 113.13 215.799Z" fill="#455A64"/>
<path d="M117.966 215.692C117.966 215.807 117.432 215.915 116.759 215.93C116.087 215.945 115.552 215.861 115.544 215.746C115.537 215.631 116.087 215.524 116.752 215.508C117.416 215.493 117.966 215.57 117.966 215.692Z" fill="#455A64"/>
<path d="M122.803 215.577C122.803 215.692 122.268 215.799 121.596 215.815C120.923 215.83 120.389 215.746 120.381 215.631C120.373 215.516 120.923 215.408 121.588 215.393C122.253 215.378 122.795 215.462 122.803 215.577Z" fill="#455A64"/>
<path d="M127.64 215.462C127.64 215.577 127.105 215.684 126.432 215.7C125.76 215.715 125.225 215.631 125.218 215.516C125.21 215.401 125.752 215.293 126.425 215.278C127.097 215.263 127.601 215.347 127.64 215.462Z" fill="#455A64"/>
<path d="M132.476 215.347C132.476 215.462 131.942 215.569 131.269 215.585C130.597 215.6 130.062 215.523 130.054 215.401C130.047 215.278 130.589 215.178 131.261 215.163C131.934 215.148 132.469 215.232 132.476 215.347Z" fill="#455A64"/>
<path d="M137.313 215.232C137.313 215.347 136.778 215.454 136.106 215.469C135.433 215.485 134.898 215.408 134.891 215.293C134.883 215.178 135.426 215.063 136.098 215.048C136.77 215.032 137.305 215.117 137.313 215.232Z" fill="#455A64"/>
<path d="M142.119 215.117C142.119 215.232 141.577 215.339 140.912 215.354C140.247 215.37 139.705 215.293 139.697 215.178C139.689 215.063 140.232 214.948 140.904 214.933C141.577 214.917 142.119 215.002 142.119 215.117Z" fill="#455A64"/>
<path d="M146.986 215.002C146.986 215.117 146.444 215.224 145.779 215.239C145.114 215.254 144.572 215.178 144.564 215.063C144.556 214.948 145.099 214.841 145.771 214.825C146.444 214.81 146.979 214.887 146.986 215.002Z" fill="#455A64"/>
<path d="M151.823 214.886C151.823 215.009 151.28 215.116 150.616 215.132C149.951 215.147 149.401 215.063 149.401 214.948C149.401 214.833 149.936 214.725 150.608 214.71C151.28 214.695 151.815 214.771 151.823 214.886Z" fill="#455A64"/>
<path d="M151.815 219.292C151.693 219.292 151.655 218.732 151.724 218.064C151.792 217.396 151.93 216.867 152.045 216.874C152.159 216.882 152.205 217.435 152.136 218.102C152.068 218.77 151.93 219.307 151.815 219.292Z" fill="#455A64"/>
<path d="M151.342 224.127C151.227 224.127 151.181 223.567 151.25 222.899C151.319 222.231 151.464 221.702 151.579 221.709C151.693 221.717 151.731 222.27 151.67 222.937C151.609 223.605 151.456 224.142 151.342 224.127Z" fill="#455A64"/>
<path d="M150.868 228.962C150.753 228.962 150.707 228.402 150.776 227.734C150.845 227.066 150.99 226.537 151.105 226.545C151.22 226.552 151.258 227.112 151.197 227.78C151.135 228.448 150.983 228.977 150.868 228.962Z" fill="#455A64"/>
<path d="M150.394 233.797C150.279 233.797 150.241 233.236 150.302 232.569C150.364 231.901 150.516 231.372 150.631 231.379C150.746 231.387 150.784 231.947 150.723 232.615C150.662 233.283 150.524 233.812 150.394 233.797Z" fill="#455A64"/>
<path d="M149.92 238.639C149.806 238.639 149.768 238.072 149.829 237.404C149.89 236.736 150.043 236.207 150.157 236.222C150.272 236.237 150.318 236.782 150.249 237.45C150.18 238.118 150.035 238.647 149.92 238.639Z" fill="#455A64"/>
<path d="M149.447 243.474C149.332 243.474 149.294 242.906 149.363 242.239C149.431 241.571 149.569 241.041 149.684 241.057C149.798 241.072 149.844 241.617 149.775 242.285C149.707 242.952 149.569 243.482 149.447 243.474Z" fill="#455A64"/>
<path d="M148.996 248.309C148.874 248.309 148.835 247.749 148.904 247.081C148.973 246.414 149.111 245.876 149.233 245.892C149.355 245.907 149.386 246.452 149.317 247.12C149.248 247.787 149.095 248.309 148.996 248.309Z" fill="#455A64"/>
<path d="M148.507 253.144C148.392 253.144 148.346 252.584 148.415 251.916C148.484 251.249 148.629 250.711 148.744 250.727C148.859 250.742 148.897 251.287 148.836 251.955C148.774 252.622 148.622 253.152 148.507 253.144Z" fill="#455A64"/>
<path d="M148.033 257.979C147.918 257.979 147.88 257.419 147.941 256.751C148.003 256.083 148.155 255.554 148.27 255.562C148.385 255.569 148.423 256.122 148.362 256.79C148.301 257.457 148.148 257.994 148.033 257.979Z" fill="#455A64"/>
<path d="M147.559 262.814C147.445 262.814 147.406 262.254 147.468 261.586C147.529 260.918 147.682 260.389 147.796 260.397C147.911 260.404 147.949 260.957 147.888 261.624C147.827 262.292 147.674 262.829 147.559 262.814Z" fill="#455A64"/>
<path d="M147.086 267.649C146.971 267.649 146.933 267.089 146.994 266.421C147.055 265.753 147.208 265.224 147.323 265.232C147.437 265.239 147.483 265.792 147.414 266.459C147.346 267.127 147.2 267.664 147.086 267.649Z" fill="#455A64"/>
<path d="M146.62 272.484C146.497 272.484 146.459 271.924 146.528 271.256C146.597 270.589 146.734 270.059 146.849 270.067C146.964 270.074 147.01 270.635 146.941 271.302C146.872 271.97 146.704 272.5 146.62 272.484Z" fill="#455A64"/>
<path d="M146.146 277.319C146.031 277.319 145.985 276.759 146.054 276.091C146.123 275.423 146.26 274.894 146.383 274.901C146.505 274.909 146.536 275.469 146.467 276.137C146.398 276.805 146.26 277.334 146.146 277.319Z" fill="#455A64"/>
<path d="M145.672 282.162C145.557 282.162 145.512 281.594 145.58 280.926C145.649 280.258 145.794 279.729 145.909 279.744C146.024 279.76 146.062 280.304 146.001 280.972C145.94 281.64 145.787 282.169 145.672 282.162Z" fill="#455A64"/>
<path d="M145.175 286.996C145.061 286.996 145.023 286.436 145.084 285.768C145.145 285.101 145.298 284.564 145.412 284.579C145.527 284.594 145.565 285.139 145.504 285.807C145.443 286.475 145.313 287.004 145.175 286.996Z" fill="#455A64"/>
<path d="M144.946 289.558C144.832 289.558 144.74 289.505 144.748 289.467C144.755 289.429 144.847 289.398 144.962 289.414C145.076 289.429 145.168 289.467 145.168 289.505C145.168 289.543 145.061 289.566 144.946 289.558Z" fill="#455A64"/>
<path d="M146.551 219.576C146.112 220.268 145.556 220.879 144.908 221.379C144.351 221.98 143.697 222.483 142.975 222.868C143.97 221.573 145.18 220.459 146.551 219.576Z" fill="#263238"/>
<path d="M148.285 220.512C147.455 221.114 146.548 221.602 145.588 221.962C144.683 222.446 143.716 222.802 142.715 223.022C143.546 222.419 144.453 221.931 145.412 221.571C146.318 221.089 147.284 220.733 148.285 220.512Z" fill="#263238"/>
<path d="M97.2446 165.501C97.2446 165.501 94.6849 137.957 90.1387 125.9L91.0403 125.217L89.6879 120.467L72.6794 118.395L72.9392 122.101C70.4293 123.237 68.3787 125.196 67.1246 127.658C61.0119 140.658 64.0682 155.839 60.7903 183.966C60.7903 183.966 56.9699 197.158 60.9126 201.287L98.024 192.6L96.2742 184.096C112.473 183.789 139.109 180.796 139.109 180.796L138.345 165.401C138.345 165.401 98.5436 165.639 97.2446 165.501Z" fill="#455A64"/>
<path d="M89.6573 120.444C90.1969 121.41 90.6103 122.441 90.8875 123.513C91.0536 123.932 91.1666 124.371 91.2237 124.818C91.2348 125.05 91.1584 125.277 91.0097 125.455C90.8871 125.6 90.7292 125.711 90.5513 125.777C89.9094 125.977 89.5427 125.839 89.5427 125.777C89.5427 125.716 89.94 125.708 90.4214 125.478C90.5503 125.42 90.6592 125.325 90.734 125.205C90.8089 125.084 90.8463 124.945 90.8416 124.803C90.7549 124.398 90.6374 124 90.4901 123.613C90.082 122.596 89.8023 121.531 89.6573 120.444Z" fill="#E0E0E0"/>
<path d="M93.7145 140.95C93.7145 141.073 86.8378 141.165 78.4329 141.165C70.028 141.165 63.1513 141.073 63.1513 140.95C63.1513 140.827 70.028 140.743 78.4329 140.743C86.8378 140.743 93.7145 140.866 93.7145 140.95Z" fill="#263238"/>
<path d="M92.1176 133.191C92.1176 133.306 86.0508 133.405 78.5781 133.405C71.1054 133.405 65.0386 133.306 65.0386 133.191C65.0386 133.076 71.0977 132.984 78.5781 132.984C86.0584 132.984 92.1176 133.076 92.1176 133.191Z" fill="#263238"/>
<path d="M89.8865 126.368C89.8865 126.483 84.8742 126.575 78.6851 126.575C72.4961 126.575 67.4913 126.483 67.4913 126.368C67.4913 126.253 72.5037 126.154 78.6851 126.154C84.8665 126.154 89.8865 126.284 89.8865 126.368Z" fill="#263238"/>
<path d="M89.6649 121.548C86.8101 121.765 83.9462 121.837 81.0843 121.763C78.2223 121.837 75.3584 121.765 72.5036 121.548C72.5036 121.433 76.324 121.341 81.0843 121.341C85.8445 121.341 89.6649 121.433 89.6649 121.548Z" fill="#263238"/>
<path d="M94.7919 148.417C94.7919 148.532 87.5561 148.624 78.6316 148.624C69.7071 148.624 62.4713 148.532 62.4713 148.417C62.4713 148.302 69.7071 148.202 78.6316 148.202C87.5561 148.202 94.7919 148.294 94.7919 148.417Z" fill="#263238"/>
<path d="M96.1061 155.915C96.1061 156.03 88.5799 156.122 79.2963 156.122C70.0127 156.122 62.4865 156.03 62.4865 155.915C62.4865 155.8 70.0127 155.7 79.2963 155.7C88.5799 155.7 96.1061 155.8 96.1061 155.915Z" fill="#263238"/>
<path d="M96.9313 162.822C96.9313 162.945 89.2141 163.037 79.7013 163.037C70.1885 163.037 62.4713 162.945 62.4713 162.822C62.4713 162.699 70.1885 162.615 79.7013 162.615C89.2141 162.615 96.9313 162.707 96.9313 162.822Z" fill="#263238"/>
<path d="M134.539 170.381C134.539 170.496 118.264 170.588 98.1921 170.588C78.1197 170.588 61.8371 170.496 61.8371 170.381C61.8371 170.266 78.112 170.167 98.1921 170.167C118.272 170.167 134.539 170.266 134.539 170.381Z" fill="#263238"/>
<path d="M134.822 176.429C134.822 176.552 118.425 176.644 98.1997 176.644C77.9745 176.644 61.5697 176.552 61.5697 176.429C61.5697 176.306 77.9669 176.222 98.1997 176.222C118.433 176.222 134.822 176.314 134.822 176.429Z" fill="#263238"/>
<path d="M95.6935 183.889C95.6935 184.012 87.8617 184.104 78.196 184.104C68.5304 184.104 60.6909 184.012 60.6909 183.889C60.6909 183.766 68.5228 183.682 78.196 183.682C87.8693 183.682 95.6935 183.774 95.6935 183.889Z" fill="#263238"/>
<path d="M97.4739 190.811C97.4739 190.926 88.9544 191.026 78.4482 191.026C67.9421 191.026 59.4226 190.926 59.4226 190.811C59.4226 190.696 67.9421 190.604 78.4482 190.604C88.9544 190.604 97.4739 190.696 97.4739 190.811Z" fill="#263238"/>
<path d="M65.077 192.646C64.9546 192.646 64.8629 179.223 64.8629 162.669C64.8629 146.115 64.9546 132.692 65.077 132.692C65.1993 132.692 65.2834 146.115 65.2834 162.669C65.2834 179.223 65.1916 192.646 65.077 192.646Z" fill="#263238"/>
<path d="M74.2535 191.909C74.1388 191.909 74.0471 175.501 74.0471 155.263C74.0471 135.025 74.1159 118.61 74.2535 118.61C74.3911 118.61 74.4676 135.01 74.4676 155.256C74.4676 175.501 74.3758 191.909 74.2535 191.909Z" fill="#263238"/>
<path d="M84.3929 190.812C84.2782 190.812 84.1864 174.995 84.1864 155.509C84.1864 136.023 84.2782 120.206 84.3929 120.206C84.5075 120.206 84.6069 136.023 84.6069 155.509C84.6069 174.995 84.5152 190.812 84.3929 190.812Z" fill="#263238"/>
<path d="M92.9124 192.623C92.7977 192.623 92.706 180.205 92.706 164.894C92.706 149.584 92.7977 137.159 92.9124 137.159C93.0271 137.159 93.1265 149.576 93.1265 164.894C93.1265 180.213 93.0271 192.623 92.9124 192.623Z" fill="#263238"/>
<path d="M101.936 165.463C102.036 166.359 102.064 167.263 102.021 168.164C102.021 169.829 102.021 172.124 101.929 174.657C101.837 177.189 101.791 179.492 101.715 181.149C101.708 182.051 101.636 182.952 101.501 183.843C101.401 182.949 101.373 182.048 101.417 181.149C101.417 179.484 101.417 177.189 101.508 174.649C101.6 172.109 101.646 169.814 101.722 168.149C101.72 167.249 101.792 166.351 101.936 165.463Z" fill="#263238"/>
<path d="M111.556 165.785C111.651 166.626 111.679 167.472 111.64 168.318C111.64 169.852 111.64 172.024 111.564 174.396C111.487 176.767 111.426 178.924 111.357 180.482C111.36 181.325 111.288 182.168 111.143 182.999C111.048 182.163 111.02 181.322 111.059 180.482C111.059 178.947 111.059 176.767 111.143 174.388C111.227 172.009 111.273 169.86 111.35 168.302C111.343 167.459 111.412 166.616 111.556 165.785Z" fill="#263238"/>
<path d="M121.122 165.616C121.227 166.428 121.258 167.247 121.214 168.064C121.214 169.599 121.214 171.664 121.138 173.966C121.061 176.268 121.008 178.356 120.931 179.86C120.939 180.681 120.87 181.5 120.725 182.308C120.629 181.498 120.598 180.682 120.633 179.868C120.633 178.333 120.633 176.268 120.717 173.966C120.801 171.664 120.847 169.568 120.916 168.064C120.918 167.244 120.987 166.425 121.122 165.616Z" fill="#263238"/>
<path d="M130.727 165.347C130.832 166.133 130.863 166.927 130.819 167.719C130.819 169.185 130.819 171.211 130.742 173.444C130.666 175.677 130.62 177.703 130.543 179.162C130.545 179.956 130.479 180.75 130.345 181.533C130.239 180.747 130.205 179.953 130.245 179.162C130.245 177.696 130.245 175.67 130.322 173.436C130.398 171.203 130.452 169.169 130.521 167.711C130.518 166.919 130.587 166.127 130.727 165.347Z" fill="#263238"/>
<path d="M93.9132 168.931C94.6047 167.225 95.8628 165.813 97.4738 164.933C96.9131 165.629 96.3082 166.288 95.6629 166.905C95.1223 167.617 94.5379 168.293 93.9132 168.931Z" fill="#263238"/>
<path d="M96.1061 169.115C95.9462 168.345 96.0046 167.544 96.2747 166.805C96.5448 166.065 97.0158 165.417 97.6343 164.933C97.726 165.017 97.0841 165.8 96.6715 166.951C96.2589 168.102 96.2742 169.115 96.1061 169.115Z" fill="#263238"/>
<path d="M135.243 180.712C134.815 178.277 134.524 175.82 134.372 173.352C134.081 170.894 133.928 168.421 133.913 165.946C134.351 168.382 134.645 170.842 134.792 173.314C135.083 175.769 135.233 178.239 135.243 180.712Z" fill="#263238"/>
<path d="M135.724 168.847C135.724 168.901 135.51 169.054 135.479 169.438C135.473 169.539 135.486 169.641 135.519 169.737C135.552 169.833 135.603 169.922 135.67 169.998C135.756 170.075 135.864 170.125 135.978 170.14C136.093 170.155 136.209 170.135 136.312 170.082C136.42 170.041 136.514 169.969 136.581 169.875C136.649 169.781 136.688 169.669 136.694 169.553C136.684 169.451 136.654 169.353 136.605 169.263C136.557 169.174 136.491 169.095 136.411 169.031C136.113 168.793 135.831 168.87 135.815 168.809C135.8 168.747 136.098 168.532 136.579 168.809C136.72 168.884 136.84 168.994 136.928 169.128C137.016 169.262 137.07 169.416 137.084 169.576C137.095 169.775 137.043 169.973 136.936 170.141C136.829 170.309 136.672 170.439 136.488 170.512C136.307 170.598 136.103 170.625 135.906 170.589C135.709 170.554 135.527 170.457 135.388 170.313C135.288 170.192 135.218 170.048 135.185 169.895C135.152 169.741 135.156 169.582 135.197 169.43C135.334 168.87 135.731 168.793 135.724 168.847Z" fill="#263238"/>
<path d="M97.1988 165.424H97.3898L97.9476 165.47C98.4442 165.524 99.1777 165.57 100.14 165.601C102.066 165.677 104.893 165.716 108.492 165.685C115.682 165.639 125.959 165.37 138.291 164.918H138.467V165.094C138.711 169.875 138.971 175.071 139.231 180.581V180.758H139.07C137.114 181.126 135.135 181.28 133.111 181.487L126.937 182.024C122.742 182.369 118.425 182.692 114.031 183.006L97.8788 184.096C93.195 183.797 88.6487 182.109 85.4701 179.008C83.9076 177.512 82.6807 175.699 81.8713 173.69C81.1117 171.792 80.5061 169.837 80.0604 167.842C78.1732 160.167 77.0041 153.175 76.049 147.374C75.5906 144.473 75.2009 141.856 74.8723 139.569C74.5242 137.622 74.2971 135.657 74.1923 133.682C74.1299 132.429 74.3933 131.18 74.9564 130.06C75.1494 129.677 75.4081 129.332 75.7205 129.039C75.4528 129.37 75.2149 129.725 75.0099 130.098C74.4886 131.217 74.2573 132.45 74.3375 133.682C74.4755 135.648 74.7307 137.603 75.1015 139.538C75.4607 141.84 75.8656 144.434 76.3394 147.335C77.3021 153.122 78.5246 160.067 80.4272 167.749C80.8781 169.726 81.4836 171.663 82.2381 173.544C83.0336 175.504 84.2372 177.27 85.7681 178.724C88.8244 181.74 93.3249 183.39 97.9246 183.689L114.07 182.584L126.967 181.61L133.141 181.08C135.151 180.873 137.168 180.719 139.04 180.366L138.887 180.574C138.627 175.086 138.383 169.868 138.123 165.079L138.314 165.255C125.989 165.708 115.712 165.923 108.515 165.908C104.916 165.908 102.089 165.838 100.163 165.723C99.2007 165.67 98.4595 165.608 97.9629 165.532L97.4051 165.462C97.3349 165.459 97.2655 165.446 97.1988 165.424Z" fill="#263238"/>
<path d="M97.1988 165.424C97.0303 165.036 96.8973 164.632 96.8015 164.219C96.5799 163.452 96.2743 162.301 95.9075 160.889C95.1434 158.072 94.2647 154.15 93.2867 149.822C92.3087 145.493 91.4147 141.572 90.7423 138.74L89.9782 135.386C89.8589 134.98 89.7796 134.564 89.7414 134.143C89.9055 134.533 90.0383 134.936 90.1387 135.348C90.3756 136.115 90.6812 137.259 91.0556 138.671C91.8197 141.48 92.7518 145.394 93.7299 149.73C94.7079 154.066 95.5102 157.911 96.1978 160.82C96.5035 162.186 96.7633 163.314 96.9619 164.181C97.0717 164.589 97.1509 165.004 97.1988 165.424Z" fill="#263238"/>
<path d="M89.7107 120.766C89.7175 121.05 89.6893 121.333 89.6267 121.61C89.5503 122.155 89.428 122.93 89.2599 123.912C89.1868 124.448 89.0796 124.979 88.939 125.501C88.8923 125.674 88.8058 125.834 88.6863 125.967C88.5669 126.1 88.4179 126.204 88.2513 126.269C87.9158 126.357 87.563 126.357 87.2275 126.269C85.9667 126.008 84.5914 125.67 83.1549 125.279C80.2896 124.511 77.7376 123.659 75.8809 123.084L73.688 122.393C73.4219 122.325 73.1652 122.225 72.9239 122.094C73.2064 122.102 73.4866 122.148 73.7567 122.232C74.2916 122.355 75.0557 122.539 75.9955 122.8C77.8751 123.298 80.4424 124.081 83.3001 124.872C84.7289 125.263 86.089 125.639 87.3421 125.892C87.6108 125.98 87.8972 125.999 88.1749 125.946C88.2889 125.904 88.3912 125.836 88.4736 125.747C88.556 125.657 88.616 125.549 88.6487 125.432C88.8168 124.941 88.8855 124.373 89.0001 123.897C89.1988 122.945 89.3745 122.178 89.4968 121.641C89.5257 121.34 89.5977 121.046 89.7107 120.766Z" fill="#263238"/>
<path d="M76.3393 227.012L81.6802 299.821L83.9114 299.299L83.0785 228.547L76.3393 227.012Z" fill="#263238"/>
<path d="M53.7073 229.545L37.4858 299.737H40.4199L63.6403 229.545H53.7073Z" fill="#263238"/>
<path d="M96.6104 229.545L118.738 299.737H121.107L103.525 229.545H96.6104Z" fill="#263238"/>
<path d="M99.5751 234.257L49.9862 266.805V268.585L100.958 234.257H99.5751Z" fill="#263238"/>
<path d="M57.4971 234.257L111.227 270.573V267.795L59.0711 232.668L57.4971 234.257Z" fill="#263238"/>
<path d="M46.2957 230.75L110.188 229.591C110.76 229.58 111.324 229.449 111.842 229.205C112.361 228.962 112.823 228.612 113.198 228.178C113.573 227.744 113.854 227.235 114.021 226.686C114.188 226.136 114.239 225.557 114.169 224.986C114.053 223.976 113.567 223.046 112.806 222.376C112.045 221.707 111.062 221.346 110.051 221.364L45.2489 222.408L46.2957 230.75Z" fill="#00A8E8"/>
<g opacity="0.2">
<path d="M46.2957 230.75L110.188 229.591C110.76 229.58 111.324 229.449 111.842 229.205C112.361 228.962 112.823 228.612 113.198 228.178C113.573 227.744 113.854 227.235 114.021 226.686C114.188 226.136 114.239 225.557 114.169 224.986C114.053 223.976 113.567 223.046 112.806 222.376C112.045 221.707 111.062 221.346 110.051 221.364L45.2489 222.408L46.2957 230.75Z" fill="black"/>
</g>
<path d="M39.7857 181.141L46.2346 230.75L96.6104 229.545L96.4805 199.415C96.4983 198.231 96.2678 197.056 95.8042 195.967C95.3406 194.879 94.6541 193.9 93.7894 193.095C92.9247 192.29 91.9011 191.677 90.785 191.296C89.669 190.914 88.4856 190.773 87.3116 190.88L48.9012 194.365L43.843 141.786L38.7389 141.349C38.2058 141.31 37.6707 141.391 37.1727 141.586C36.6747 141.781 36.2263 142.085 35.8602 142.476C35.4941 142.867 35.2196 143.336 35.0567 143.847C34.8938 144.358 34.8466 144.9 34.9185 145.432L39.7857 181.141Z" fill="#00A8E8"/>
</svg>
