<svg width="286" height="308" viewBox="0 0 286 308" fill="none" xmlns="http://www.w3.org/2000/svg">
<path d="M12.633 20.5543L21.5874 20.3556L26.1329 20.2776C27.6548 20.2776 29.1768 20.2776 30.7056 20.2776H31.0059V20.5969L31.0469 28.5366V28.8913H30.7056L21.6898 28.8062C18.6731 28.8062 15.6633 28.7281 12.6535 28.6856H12.4624V28.494C12.4624 27.1459 12.5238 25.812 12.5511 24.4851L12.633 20.5543ZM12.633 20.5543L12.7286 24.5703C12.7286 25.89 12.8037 27.1955 12.8173 28.494L12.633 28.3024C15.6428 28.3024 18.6527 28.1889 21.6693 28.1889L30.7056 28.1392L30.3644 28.494L30.3985 20.5543L30.7056 20.8736C29.2109 20.8736 27.7299 20.8736 26.2352 20.831L21.7444 20.753L12.633 20.5543Z" fill="#EBEBEB"/>
<path d="M22.7136 10.5428L31.668 10.3442L36.2134 10.2661C37.7354 10.2661 39.2642 10.2661 40.7861 10.2661H41.0864V10.5854L41.1274 18.5251V18.8799H40.7998L31.7499 18.7805C28.7332 18.7805 25.7234 18.7025 22.7136 18.6599H22.5225V18.4683C22.5225 17.1202 22.5839 15.7863 22.6112 14.4595L22.7136 10.5428ZM22.7136 10.5428L22.8091 14.5588C22.8091 15.8785 22.8842 17.1841 22.8978 18.4825L22.7136 18.2909C25.7234 18.2909 28.7332 18.1774 31.7499 18.1774L40.7998 18.1278L40.4585 18.4825V10.5428L40.7657 10.8621C39.2778 10.8621 37.79 10.8621 36.2953 10.8195L31.8045 10.7415L22.7136 10.5428Z" fill="#EBEBEB"/>
<path d="M40.24 112.552L49.1944 112.354L53.7399 112.276C55.2619 112.24 56.7907 112.276 58.3126 112.233H58.6129V112.552L58.6539 120.492V120.847H58.3126L49.2763 120.797C46.2597 120.797 43.2499 120.719 40.24 120.684H40.049V120.492C40.049 119.144 40.1104 117.803 40.1377 116.476L40.24 112.552ZM40.24 112.552L40.3356 116.561C40.3356 117.881 40.4107 119.194 40.4243 120.492L40.24 120.293C43.2499 120.293 46.2597 120.18 49.2763 120.18L58.3126 120.137L57.9714 120.492V112.552L58.2785 112.865C56.7838 112.865 55.3028 112.865 53.8081 112.865L49.3173 112.787L40.24 112.552Z" fill="#EBEBEB"/>
<path d="M50.3547 102.541L59.3091 102.342L63.8545 102.264C65.3765 102.264 66.9053 102.264 68.4273 102.222H68.7276V102.541L68.7685 110.481V110.835H68.4273L59.391 110.786C56.3743 110.786 53.3645 110.708 50.3547 110.672H50.1636V110.481C50.1636 109.133 50.225 107.792 50.2591 106.465L50.3547 102.541ZM50.3547 102.541L50.4502 106.55C50.4502 107.87 50.5253 109.182 50.5389 110.481L50.3547 110.31C53.3645 110.275 56.3743 110.204 59.391 110.197L68.4273 110.154L68.086 110.509V102.569L68.3931 102.882C66.9053 102.882 65.4174 102.882 63.9228 102.846L59.4319 102.768L50.3547 102.541Z" fill="#EBEBEB"/>
<path d="M2.57985 10.5428L11.5411 10.3442L16.0524 10.2661C17.5675 10.2661 19.0963 10.2661 20.6183 10.2661H20.9254V10.5854L20.9596 18.5251V18.8799H20.6115L11.582 18.7805C8.57219 18.7805 5.56237 18.7025 2.54573 18.6599H2.36145V18.4683C2.36145 17.1202 2.42288 15.7863 2.45018 14.4595L2.57985 10.5428ZM2.57985 10.5428L2.68223 14.5588C2.68223 15.8785 2.7573 17.1841 2.77095 18.4825L2.57985 18.2909C5.5965 18.2909 8.60632 18.1774 11.6161 18.1774L20.6524 18.1278L20.3112 18.4825L20.3248 10.5428L20.6251 10.8621C19.1373 10.8621 17.6563 10.8621 16.1616 10.8195L11.6707 10.7415L2.57985 10.5428Z" fill="#EBEBEB"/>
<path d="M270.986 182.974L262.032 183.173L257.487 183.258C255.965 183.258 254.443 183.258 252.914 183.293H252.614V182.974L252.573 175.041V174.679H252.914L261.95 174.722C264.967 174.722 267.977 174.8 270.986 174.836H271.178V175.027C271.178 176.368 271.116 177.709 271.089 179.036L270.986 182.974ZM270.986 182.974L270.891 178.965C270.891 177.645 270.816 176.34 270.802 175.041L270.986 175.233C267.977 175.268 264.967 175.346 261.95 175.346L252.914 175.389L253.255 175.041L253.221 182.974L252.914 182.662C254.409 182.662 255.89 182.662 257.384 182.662L261.875 182.747L270.986 182.974Z" fill="#EBEBEB"/>
<path d="M281.074 192.985L272.113 193.184L267.567 193.269C266.045 193.269 264.523 193.269 263.001 193.305H262.694V192.985L262.66 185.046V184.691H263.008L272.044 184.734C275.054 184.734 278.064 184.812 281.081 184.847H281.265V185.032C281.265 186.38 281.203 187.721 281.176 189.047L281.074 192.985ZM281.074 192.985L280.971 188.977C280.971 187.657 280.896 186.351 280.883 185.046L281.074 185.244C278.057 185.28 275.047 185.358 272.037 185.358L263.001 185.4L263.342 185.046L263.295 192.985L262.994 192.673C264.482 192.673 265.963 192.673 267.458 192.709L271.949 192.794L281.074 192.985Z" fill="#EBEBEB"/>
<path d="M30.8557 192.985L21.9013 193.184L17.3559 193.269C15.8339 193.269 14.3051 193.269 12.7831 193.305H12.4828V192.985L12.4419 185.046V184.691H12.8173L21.8536 184.734C24.8702 184.734 27.88 184.812 30.8899 184.847H31.081V185.032C31.081 186.38 31.0195 187.721 30.9854 189.047L30.8557 192.985ZM30.8557 192.985L30.7602 188.977C30.7602 187.657 30.6851 186.351 30.6715 185.046L30.8557 185.244C27.8459 185.28 24.8361 185.358 21.8194 185.358L12.8173 185.4L13.1585 185.046L13.1244 192.985L12.8173 192.673C14.3051 192.673 15.793 192.673 17.2876 192.709L21.7785 192.794L30.8557 192.985Z" fill="#EBEBEB"/>
<path d="M252.839 10.5428L261.8 10.3442L266.345 10.2661C267.861 10.2661 269.389 10.2661 270.911 10.2661H271.219V10.5854L271.253 18.5251V18.8799H270.911L261.875 18.7805C258.865 18.7805 255.849 18.7025 252.839 18.6599H252.655V18.4683C252.655 17.1202 252.709 15.7863 252.743 14.4595L252.839 10.5428ZM252.839 10.5428L252.934 14.5588C252.968 15.8785 253.016 17.1841 253.023 18.4825L252.839 18.2909C255.849 18.2909 258.865 18.1774 261.875 18.1774L270.911 18.1278L270.57 18.4825L270.611 10.5428L270.911 10.8621C269.424 10.8621 267.936 10.8621 266.448 10.8195L261.93 10.7415L252.839 10.5428Z" fill="#EBEBEB"/>
<path d="M278.767 132.859H187.899V0.935791H278.767V132.859ZM190.595 130.057H276.071V3.73845H190.595V130.057Z" fill="#EBEBEB"/>
<path d="M234.677 4.46899H231.981V131.454H234.677V4.46899Z" fill="#EBEBEB"/>
<path d="M281.217 6.60498H185.456V10.5074H281.217V6.60498Z" fill="#EBEBEB"/>
<path d="M281.217 10.9968H185.456V14.8993H281.217V10.9968Z" fill="#EBEBEB"/>
<path d="M281.217 15.3818H185.456V19.2843H281.217V15.3818Z" fill="#EBEBEB"/>
<path d="M281.217 19.7739H185.456V23.6764H281.217V19.7739Z" fill="#EBEBEB"/>
<path d="M281.217 24.1658H185.456V28.0682H281.217V24.1658Z" fill="#EBEBEB"/>
<path d="M281.217 28.5579H185.456V32.4603H281.217V28.5579Z" fill="#EBEBEB"/>
<path d="M281.217 32.95H185.456V36.8524H281.217V32.95Z" fill="#EBEBEB"/>
<path d="M281.217 37.342H185.456V41.2445H281.217V37.342Z" fill="#EBEBEB"/>
<path d="M281.217 41.7339H185.456V45.6363H281.217V41.7339Z" fill="#EBEBEB"/>
<path d="M273.205 5.8103H272.529V81.7659H273.205V5.8103Z" fill="#A6A6A6"/>
<path d="M274.065 85.0297H271.669L272.27 81.4536H273.464L274.065 85.0297Z" fill="#A6A6A6"/>
<path d="M275.634 5.8103H274.958V100.923H275.634V5.8103Z" fill="#A6A6A6"/>
<path d="M276.494 103.556H274.099L274.699 99.9795H275.894L276.494 103.556Z" fill="#A6A6A6"/>
<path d="M285.401 0.389404H181.272V8.55614H285.401V0.389404Z" fill="#DBDBDB"/>
<path d="M76.3171 47.2185H0V51.9298H76.3171V47.2185Z" fill="#EBEBEB"/>
<path d="M10.3262 51.9299H5.79443V67.5113H10.3262V51.9299Z" fill="#EBEBEB"/>
<path d="M10.3262 51.9299H5.79443V56.7477H10.3262V51.9299Z" fill="#DBDBDB"/>
<path d="M70.5226 51.9299H65.9908V67.5113H70.5226V51.9299Z" fill="#EBEBEB"/>
<path d="M70.5226 51.9299H65.9908V56.7477H70.5226V51.9299Z" fill="#DBDBDB"/>
<path d="M17.2058 47.2189V17.1914H9.93036L9.93036 47.2189H17.2058Z" fill="#C7C7C7"/>
<path d="M17.2058 18.8941V15.5947H9.93036V18.8941H17.2058Z" fill="#DBDBDB"/>
<path d="M17.2058 24.3432V23.1157H9.93036V24.3432H17.2058Z" fill="#DBDBDB"/>
<path d="M18.1135 43.2805V39.9812H9.93718V43.2805H18.1135Z" fill="#DBDBDB"/>
<path d="M22.2836 47.2186L22.2836 12.196H17.199V47.2186H22.2836Z" fill="#DBDBDB"/>
<path d="M21.2462 28.9623V15.4883H18.1954V28.9623H21.2462Z" fill="#EBEBEB"/>
<path d="M58.4372 43.4698L34.4792 18.8481L30.9046 22.6074L54.8626 47.2291L58.4372 43.4698Z" fill="#C7C7C7"/>
<path d="M52.1221 38.4298L42.9049 28.9573L40.7601 31.2128L49.9774 40.6854L52.1221 38.4298Z" fill="#DBDBDB"/>
<path d="M30.9172 47.2259V20.6255H22.2836V47.2259H30.9172Z" fill="#A6A6A6"/>
<path d="M30.9172 44.4018V41.9255H22.2836V44.4018H30.9172Z" fill="#C7C7C7"/>
<path d="M30.9172 40.3007V39.3357H22.2836V40.3007H30.9172Z" fill="#C7C7C7"/>
<path d="M9.9303 47.2327L9.9303 22.2288H3.96525L3.96525 47.2327H9.9303Z" fill="#A6A6A6"/>
<path d="M9.9303 44.5721V42.2449H3.96525V44.5721H9.9303Z" fill="#C7C7C7"/>
<path d="M9.9303 29.7003V27.373H3.96525V29.7003H9.9303Z" fill="#C7C7C7"/>
<path d="M9.9303 32.2048V31.3037H3.96525V32.2048H9.9303Z" fill="#C7C7C7"/>
<path d="M279.211 289.532C279.211 299.6 217.69 307.767 141.81 307.767C65.9294 307.767 4.40894 299.6 4.40894 289.532C4.40894 279.464 65.9294 271.297 141.81 271.297C217.69 271.297 279.211 279.464 279.211 289.532Z" fill="#EBEBEB"/>
<path d="M244.28 204.423C244.28 204.423 232.957 201.755 226.754 195.809C220.55 189.863 217.076 179.213 217.076 179.213C221.38 180.071 225.623 181.231 229.777 182.683C231.335 184.355 232.632 186.27 233.619 188.359C233.717 187.015 233.717 185.666 233.619 184.322C235.07 184.972 236.427 185.827 237.653 186.862C242.82 191.517 244.28 204.423 244.28 204.423Z" fill="#00A8E8"/>
<path d="M224.146 184.386C222.604 183.279 221.034 182.208 219.498 181.087C219.403 181.023 219.498 180.867 219.587 180.931C222.508 182.74 225.382 184.677 228.166 186.706C229.135 187.416 230.091 188.147 231.033 188.899L230.835 188.551C230.494 187.962 230.152 187.38 229.777 186.798C229.068 185.619 228.264 184.503 227.375 183.464C227.34 183.428 227.375 183.371 227.429 183.407C228.31 184.464 229.19 185.535 229.995 186.635C230.378 187.167 230.732 187.721 231.074 188.281C231.251 188.579 231.422 188.87 231.579 189.175L231.749 189.473C233.217 190.672 234.643 191.921 236.001 193.234C236.843 194.047 237.655 194.889 238.438 195.76C237.994 194.341 237.612 192.922 237.107 191.503C237.107 191.453 237.168 191.432 237.182 191.503C237.673 192.971 238.213 194.454 238.595 195.966C239.462 196.938 240.294 197.945 241.072 199.002L241.031 198.811C240.902 198.25 240.772 197.697 240.629 197.151C240.356 196.086 240.049 195.022 239.707 193.979C239.055 191.812 238.023 189.789 236.663 188.012C236.629 187.969 236.663 187.912 236.718 187.955C238.839 190.706 240.324 193.928 241.059 197.37C241.182 197.867 241.291 198.371 241.4 198.875C241.461 199.144 241.53 199.414 241.571 199.691C241.912 200.173 242.253 200.656 242.574 201.152C244.496 204.223 246.098 207.498 247.351 210.923C248.775 214.763 249.996 218.68 251.01 222.658C251.005 222.671 250.997 222.682 250.987 222.689C250.977 222.697 250.964 222.701 250.951 222.701C250.939 222.701 250.926 222.697 250.916 222.689C250.906 222.682 250.898 222.671 250.893 222.658C248.675 215.769 246.416 208.78 242.622 202.628C241.822 201.327 240.958 200.07 240.035 198.86C238.159 198.736 236.307 198.354 234.527 197.725C232.586 197.041 230.733 196.109 229.013 194.951C228.032 194.262 227.087 193.521 226.18 192.73C226.174 192.728 226.169 192.724 226.164 192.719C226.16 192.714 226.156 192.708 226.155 192.702C226.153 192.695 226.153 192.689 226.154 192.682C226.155 192.675 226.158 192.669 226.162 192.664C226.166 192.659 226.171 192.654 226.177 192.651C226.182 192.649 226.189 192.647 226.195 192.648C226.202 192.648 226.208 192.65 226.214 192.653C226.219 192.656 226.224 192.661 226.228 192.666C227.81 193.994 229.557 195.094 231.422 195.937C233.252 196.81 235.167 197.476 237.134 197.924C237.967 198.115 238.82 198.257 239.666 198.378C238.619 197.036 237.505 195.753 236.329 194.532C235.947 194.135 235.551 193.752 235.155 193.369C233.835 192.409 232.435 191.576 230.971 190.878C229.115 189.942 227.286 188.955 225.45 187.983C224.412 187.437 223.402 186.876 222.345 186.344C222.297 186.344 222.345 186.259 222.385 186.28C224.242 187.217 226.132 188.09 228.009 188.984C229.886 189.878 231.572 190.672 233.265 191.659L233.483 191.794C231.947 190.374 230.357 189.083 228.705 187.806C227.218 186.657 225.696 185.521 224.146 184.386Z" fill="#263238"/>
<path d="M224.795 190.488C225.716 190.907 226.651 191.276 227.566 191.723C228.48 192.17 229.388 192.709 230.296 193.255C230.3 193.257 230.303 193.261 230.306 193.264C230.309 193.268 230.311 193.272 230.312 193.277C230.314 193.282 230.314 193.286 230.314 193.291C230.313 193.296 230.312 193.301 230.309 193.305C230.307 193.309 230.304 193.313 230.3 193.316C230.297 193.319 230.293 193.321 230.288 193.322C230.284 193.323 230.279 193.324 230.275 193.323C230.27 193.323 230.266 193.321 230.262 193.319C229.361 192.872 228.446 192.453 227.532 191.985C226.617 191.517 225.709 190.992 224.767 190.566C224.726 190.488 224.747 190.438 224.795 190.488Z" fill="#263238"/>
<path d="M281.039 145.078C278.938 147.88 277.743 151.303 277.627 154.855C277.593 155.912 277.75 157.388 277.873 159.112C275.045 160.817 272.541 163.044 270.481 165.683C272.742 164.317 275.338 163.671 277.948 163.824C277.889 165.016 277.746 166.201 277.518 167.371C275.879 167.376 274.257 167.711 272.74 168.357C274.227 168.341 275.7 168.646 277.067 169.251C275.02 175.928 269.055 182.789 252.497 185.698C250.744 177.51 251.781 168.942 255.432 161.461C260.408 151.293 281.039 145.078 281.039 145.078Z" fill="#00A8E8"/>
<path d="M246.778 214.25C247.065 211.412 247.422 208.574 247.85 205.736C248.688 200.062 249.802 194.435 251.187 188.878C251.838 186.269 252.638 183.703 253.583 181.193C253.535 180.736 253.515 180.277 253.521 179.817C253.521 179.263 253.521 178.71 253.521 178.156C253.521 177.057 253.583 175.957 253.671 174.857C253.839 172.677 254.179 170.515 254.688 168.393C254.995 167.166 255.371 165.96 255.692 164.746C255.695 164.739 255.7 164.732 255.707 164.728C255.713 164.723 255.721 164.721 255.729 164.721C255.737 164.721 255.745 164.723 255.751 164.728C255.758 164.732 255.763 164.739 255.767 164.746C255.214 166.864 254.803 169.019 254.538 171.196C254.245 173.339 254.06 175.497 253.985 177.66C253.985 178.249 253.951 178.845 253.951 179.434C253.951 179.689 253.951 179.945 253.951 180.193C254.767 178.136 255.699 176.132 256.743 174.19C258.426 171.112 260.322 168.165 262.414 165.371C262.418 165.044 262.464 164.72 262.551 164.406C262.626 164.023 262.708 163.639 262.79 163.249C262.96 162.469 263.151 161.681 263.356 160.908C263.765 159.347 264.311 157.835 264.782 156.296C264.786 156.288 264.791 156.282 264.798 156.277C264.804 156.273 264.812 156.27 264.82 156.27C264.828 156.27 264.836 156.273 264.842 156.277C264.849 156.282 264.854 156.288 264.857 156.296C264.421 157.821 264.127 159.404 263.793 160.957C263.622 161.724 263.465 162.49 263.301 163.263C263.219 163.647 263.138 164.03 263.063 164.413C263.063 164.413 263.063 164.477 263.063 164.505C263.731 163.625 264.414 162.76 265.11 161.908C268.27 158.048 271.737 154.486 275.231 150.96C275.661 150.52 276.098 150.102 276.535 149.669C276.535 149.669 276.624 149.669 276.59 149.733C273.252 153.351 269.969 157.005 266.857 160.837C266.113 161.752 265.39 162.674 264.673 163.604L265.806 162.823C266.768 162.171 267.744 161.532 268.748 160.95C269.751 160.368 270.795 159.787 271.799 159.255C272.802 158.722 273.996 158.261 275.027 157.644C275.068 157.644 275.109 157.694 275.061 157.715C274.014 158.217 273.003 158.798 272.037 159.453C271.027 160.078 270.024 160.702 269.034 161.355C268.045 162.007 267.082 162.632 266.113 163.285C265.308 163.831 264.516 164.427 263.677 164.924C261.756 167.49 259.983 170.172 258.367 172.956C257.369 174.711 256.457 176.518 255.637 178.369L256.231 178.1L257.753 177.39C258.722 176.943 259.705 176.503 260.681 176.063C262.537 175.219 264.428 174.453 266.25 173.53C267.277 173.027 268.271 172.453 269.225 171.813C269.266 171.813 269.301 171.813 269.26 171.884C265.847 174.318 262.052 176.028 258.299 177.759L256.667 178.511C256.217 178.717 255.767 178.944 255.303 179.129C254.188 181.717 253.251 184.385 252.497 187.111C251.018 192.595 249.815 198.156 248.894 203.771C247.945 209.397 247.304 215.059 246.805 220.75C246.744 221.459 246.683 222.169 246.601 222.878C246.592 222.931 246.565 222.978 246.526 223.013C246.487 223.047 246.437 223.066 246.386 223.066C246.334 223.066 246.285 223.047 246.245 223.013C246.206 222.978 246.18 222.931 246.171 222.878C246.232 220.012 246.485 217.124 246.778 214.25Z" fill="#263238"/>
<path d="M256.859 166.683C257.159 164.931 257.609 163.221 258.06 161.504C258.06 161.454 258.149 161.504 258.135 161.504C257.719 163.185 257.418 164.902 257.111 166.605C256.804 168.308 256.531 170.096 256.292 171.849C256.292 171.849 256.244 171.884 256.244 171.849C256.355 170.116 256.56 168.391 256.859 166.683Z" fill="#263238"/>
<path d="M263.977 171.43C265.13 170.636 266.334 169.925 267.581 169.301C268.181 168.982 268.795 168.67 269.403 168.365C270.01 168.06 270.693 167.783 271.321 167.457C271.362 167.457 271.396 167.499 271.321 167.52C270.713 167.84 270.14 168.23 269.546 168.556L267.703 169.606C266.495 170.28 265.301 171.025 264.032 171.579C264.017 171.575 264.004 171.567 263.993 171.557C263.982 171.546 263.974 171.533 263.968 171.519C263.963 171.504 263.961 171.489 263.963 171.473C263.964 171.458 263.969 171.443 263.977 171.43Z" fill="#263238"/>
<path opacity="0.1" d="M244.075 184.031C244.075 184.031 233.599 181.427 228.787 174.098C224.194 167.123 222.706 155.224 222.59 154.174C222.775 155.139 224.938 165.527 232.07 170.38C237.537 174.112 242.82 177.163 244.075 184.031Z" fill="#263238"/>
<path d="M244.075 184.031C244.075 184.031 233.599 181.427 228.787 174.098C224.194 167.123 222.706 155.224 222.59 154.174C222.587 154.15 222.587 154.127 222.59 154.103C222.59 154.103 227.613 161.532 232.896 163.426C238.179 165.321 245.59 171.891 244.075 184.031Z" fill="#00A8E8"/>
<path d="M224.433 158.218C225.373 160.221 226.457 162.147 227.675 163.98C228.896 165.719 230.345 167.272 231.982 168.592C233.408 169.77 234.909 170.834 236.35 171.983V171.927C236.077 171.515 235.79 171.104 235.49 170.713C234.889 169.912 234.234 169.16 233.572 168.414C232.275 166.946 230.944 165.505 229.777 163.916C229.126 163.032 228.564 162.081 228.098 161.078C228.098 161.028 228.146 161.007 228.166 161.078C229.866 164.76 233.265 167.116 235.674 170.224C236.017 170.666 236.338 171.125 236.636 171.6C236.877 171.945 237.08 172.316 237.244 172.707C238.571 173.814 239.771 175.076 240.82 176.468C240.729 175.748 240.587 175.037 240.397 174.339C240.155 173.369 239.78 172.439 239.284 171.579C239.284 171.536 239.325 171.487 239.353 171.536C239.858 172.398 240.268 173.317 240.574 174.275C240.796 175.038 240.924 175.827 240.956 176.624C241.475 177.356 241.949 178.121 242.376 178.916C242.328 178.681 242.287 178.447 242.246 178.206C242.035 177.12 241.81 176.035 241.564 174.963C241.069 172.783 240.217 170.706 239.045 168.826C239.011 168.783 239.045 168.741 239.107 168.783C240.309 170.635 241.249 172.657 241.898 174.786C242.233 175.857 242.499 176.915 242.738 178.043C242.854 178.575 242.956 179.114 243.052 179.654C243.106 179.93 243.161 180.221 243.209 180.505C244.246 182.878 245.055 185.352 245.625 187.891C246.652 192.427 247.397 197.028 247.856 201.663C248.398 206.517 248.639 211.401 248.58 216.287C248.58 216.904 248.532 217.514 248.505 218.124C248.505 218.281 248.266 218.309 248.259 218.124C248.157 215.705 248.095 213.285 247.959 210.873C247.822 208.461 247.618 206.048 247.372 203.636C246.894 198.903 246.165 194.201 245.188 189.551C244.335 185.571 243.236 181.562 241.141 178.071C240.1 176.334 238.827 174.76 237.36 173.395C235.892 172.026 234.288 170.827 232.739 169.557C231.169 168.315 229.745 166.886 228.494 165.3C227.215 163.54 226.1 161.659 225.163 159.68L224.413 158.204C224.344 158.218 224.392 158.176 224.433 158.218Z" fill="#263238"/>
<path d="M226.242 159.822C226.931 161.292 227.711 162.714 228.576 164.079C228.576 164.079 228.576 164.143 228.528 164.079C227.628 162.731 226.838 161.307 226.167 159.822C226.146 159.801 226.221 159.772 226.242 159.822Z" fill="#263238"/>
<path d="M282.527 179.213C282.527 179.213 282.698 194.695 273.791 199.158C264.885 203.621 260.142 199.911 254.067 201.408C254.299 201.039 258.62 194.582 265.485 192.808C272.556 190.97 280.357 185.663 282.527 179.213Z" fill="#00A8E8"/>
<path opacity="0.1" d="M282.527 179.213C282.527 179.213 282.698 194.695 273.791 199.158C264.885 203.621 260.142 199.911 254.067 201.408C257.265 199.822 260.683 198.77 264.196 198.293C269.813 197.583 280.535 193.787 282.527 179.213Z" fill="black"/>
<path d="M253.48 201.684C254.538 200.677 255.731 199.836 257.022 199.187C257.207 199.095 257.405 199.017 257.603 198.931C257.693 198.807 257.791 198.688 257.896 198.577C258.169 198.286 258.442 198.009 258.735 197.747C259.296 197.247 259.896 196.798 260.53 196.406C262.005 195.504 263.622 194.873 265.131 194.036C265.171 194.036 265.212 194.078 265.165 194.107C264.421 194.504 263.697 194.951 262.974 195.391C262.25 195.831 261.547 196.228 260.858 196.689C260.241 197.103 259.653 197.56 259.097 198.059C258.94 198.201 258.79 198.357 258.64 198.513C259.625 198.169 260.63 197.892 261.65 197.683C263.281 197.342 264.926 197.101 266.557 196.739C267.355 196.562 268.143 196.341 268.918 196.079C269.655 195.455 270.393 194.845 271.096 194.171C271.941 193.364 272.711 192.475 273.396 191.517C273.396 191.481 273.491 191.517 273.457 191.559C272.378 193.079 271.157 194.483 269.812 195.753C270.195 195.597 270.57 195.434 270.945 195.256C274.005 193.832 276.631 191.562 278.535 188.693C278.535 188.65 278.63 188.693 278.603 188.735C276.984 191.197 274.892 193.284 272.461 194.866C271.244 195.656 269.943 196.297 268.584 196.775C267.006 197.283 265.396 197.679 263.766 197.959C262.169 198.229 260.592 198.618 259.049 199.123C257.629 199.624 256.293 200.354 255.091 201.287C252.824 203.119 250.997 205.472 249.754 208.163C248.158 211.745 247.163 215.584 246.812 219.515C246.812 219.678 246.553 219.678 246.56 219.515C246.976 212.973 248.655 206.197 253.48 201.684Z" fill="#263238"/>
<path d="M263.813 196.633C264.278 195.911 264.906 195.318 265.642 194.908C266.487 194.45 267.229 193.812 267.82 193.035C267.82 192.993 267.915 193.035 267.881 193.078C267.347 193.785 266.698 194.39 265.963 194.866C265.155 195.313 264.442 195.926 263.868 196.668C263.841 196.703 263.786 196.668 263.813 196.633Z" fill="#263238"/>
<path d="M259.084 213.108L258.681 221.622L257.439 247.627H238.759L237.517 221.622L237.114 213.108H259.084Z" fill="#37474F"/>
<path d="M259.084 213.108L258.681 221.622H237.517L237.114 213.108H259.084Z" fill="#263238"/>
<path d="M260.394 209.553H235.803V217.677H260.394V209.553Z" fill="#37474F"/>
<path d="M0 247.626L35.449 247.456L70.9049 247.392L141.81 247.272L212.715 247.392L248.17 247.456L283.619 247.626L248.17 247.804L212.715 247.868L141.81 247.981L70.9049 247.861L35.449 247.804L0 247.626Z" fill="#263238"/>
<path d="M227.272 266.592L227.272 19.2985C227.272 14.2473 223.333 10.1526 218.475 10.1526L65.151 10.1526C60.2924 10.1526 56.3536 14.2473 56.3536 19.2985L56.3536 266.592C56.3536 271.644 60.2924 275.738 65.151 275.738H218.475C223.333 275.738 227.272 271.644 227.272 266.592Z" fill="#263238"/>
<path d="M220.058 28.7424H63.7589V257.312H220.058V28.7424Z" fill="white"/>
<path d="M160.401 21.4342V20.448C160.401 19.9581 160.019 19.561 159.548 19.561L124.058 19.561C123.587 19.561 123.205 19.9581 123.205 20.448V21.4342C123.205 21.924 123.587 22.3211 124.058 22.3211L159.548 22.3211C160.019 22.3211 160.401 21.924 160.401 21.4342Z" fill="#37474F"/>
<path d="M141.809 271.297C144.467 271.297 146.621 269.057 146.621 266.294C146.621 263.532 144.467 261.292 141.809 261.292C139.152 261.292 136.998 263.532 136.998 266.294C136.998 269.057 139.152 271.297 141.809 271.297Z" fill="#37474F"/>
<path d="M195.979 60.1323H87.8442V61.7146H195.979V60.1323Z" fill="#EBEBEB"/>
<path d="M195.979 65.042H87.8442V66.6243H195.979V65.042Z" fill="#EBEBEB"/>
<path d="M195.979 214.562H87.8442V216.144H195.979V214.562Z" fill="#EBEBEB"/>
<path d="M195.979 219.472H87.8442V221.054H195.979V219.472Z" fill="#EBEBEB"/>
<path d="M114.134 236.508C116.893 236.508 119.13 234.183 119.13 231.314C119.13 228.446 116.893 226.121 114.134 226.121C111.375 226.121 109.138 228.446 109.138 231.314C109.138 234.183 111.375 236.508 114.134 236.508Z" fill="#00A8E8"/>
<path d="M114.216 234.344L111.24 231.215L112.244 230.186L113.977 232.017L117.594 226.127L118.775 226.915L114.216 234.344Z" fill="white"/>
<path d="M126.644 231.272C126.647 230.899 126.712 230.529 126.835 230.179C126.962 229.822 127.154 229.494 127.402 229.214C127.665 228.905 127.99 228.658 128.354 228.493C128.719 228.328 129.113 228.247 129.511 228.256C129.99 228.248 130.462 228.375 130.876 228.625C131.247 228.849 131.547 229.179 131.743 229.576L130.889 230.222C130.821 230.062 130.727 229.915 130.61 229.789C130.507 229.68 130.389 229.587 130.262 229.512C130.136 229.446 130.003 229.396 129.866 229.363C129.733 229.335 129.598 229.321 129.463 229.321C129.207 229.314 128.953 229.375 128.726 229.498C128.52 229.61 128.341 229.767 128.2 229.959C128.06 230.153 127.953 230.372 127.886 230.605C127.732 231.089 127.732 231.611 127.886 232.095C127.962 232.333 128.08 232.555 128.234 232.748C128.385 232.933 128.568 233.087 128.774 233.202C128.985 233.314 129.219 233.372 129.456 233.372C129.594 233.37 129.732 233.351 129.866 233.315C130.007 233.285 130.142 233.232 130.268 233.159C130.398 233.081 130.517 232.986 130.623 232.875C130.735 232.751 130.825 232.607 130.889 232.45L131.811 233.003C131.719 233.23 131.585 233.435 131.415 233.606C131.244 233.78 131.048 233.926 130.835 234.039C130.4 234.282 129.915 234.408 129.422 234.408C129.027 234.411 128.637 234.319 128.282 234.138C127.945 233.963 127.644 233.722 127.395 233.429C127.147 233.136 126.95 232.8 126.815 232.436C126.685 232.063 126.627 231.668 126.644 231.272Z" fill="#00A8E8"/>
<path d="M135.039 234.379C134.638 234.386 134.241 234.296 133.879 234.117C133.201 233.776 132.675 233.176 132.411 232.442C132.276 232.083 132.207 231.7 132.207 231.314C132.206 230.917 132.281 230.525 132.425 230.157C132.564 229.796 132.765 229.464 133.019 229.178C133.275 228.884 133.583 228.643 133.927 228.469C134.285 228.302 134.674 228.217 135.066 228.22C135.464 228.213 135.857 228.305 136.213 228.49C136.554 228.662 136.857 228.903 137.107 229.2C137.369 229.498 137.575 229.844 137.714 230.221C137.849 230.579 137.918 230.959 137.919 231.342C137.919 231.739 137.845 232.132 137.701 232.499C137.567 232.859 137.368 233.189 137.114 233.471C136.858 233.752 136.552 233.979 136.213 234.138C135.844 234.31 135.443 234.393 135.039 234.379ZM133.353 231.314C133.354 231.572 133.393 231.828 133.469 232.073C133.541 232.307 133.652 232.525 133.797 232.719C133.945 232.904 134.126 233.058 134.329 233.173C134.552 233.287 134.798 233.343 135.046 233.336C135.299 233.341 135.549 233.283 135.776 233.166C135.981 233.051 136.162 232.894 136.308 232.705C136.452 232.508 136.563 232.287 136.636 232.052C136.704 231.822 136.74 231.583 136.745 231.342C136.746 231.084 136.705 230.827 136.622 230.583C136.55 230.349 136.436 230.13 136.288 229.937C136.147 229.747 135.964 229.594 135.756 229.49C135.544 229.381 135.31 229.325 135.073 229.327C134.822 229.322 134.574 229.381 134.35 229.498C134.14 229.605 133.957 229.763 133.817 229.959C133.673 230.152 133.562 230.371 133.49 230.604C133.41 230.832 133.364 231.072 133.353 231.314Z" fill="#00A8E8"/>
<path d="M139.878 230.463V234.337H138.752V228.292H139.626L142.656 232.258V228.299H143.789V234.337H142.867L139.878 230.463Z" fill="#00A8E8"/>
<path d="M144.997 234.337V228.292H148.908V229.321H146.13V230.882H148.437V231.832H146.13V234.337H144.997Z" fill="#00A8E8"/>
<path d="M149.699 234.337V228.292H150.832V234.337H149.699Z" fill="#00A8E8"/>
<path d="M152.047 234.337V228.292H154.62C154.877 228.289 155.131 228.348 155.364 228.462C155.584 228.579 155.783 228.735 155.951 228.923C156.111 229.115 156.24 229.334 156.333 229.569C156.422 229.794 156.468 230.035 156.469 230.279C156.476 230.656 156.379 231.028 156.19 231.35C156.015 231.666 155.747 231.914 155.425 232.059L156.749 234.337H155.459L154.272 232.308H153.159V234.337H152.047ZM153.18 231.279H154.599C154.7 231.282 154.8 231.255 154.886 231.201C154.977 231.15 155.056 231.08 155.118 230.995C155.189 230.902 155.242 230.796 155.275 230.683C155.316 230.56 155.337 230.43 155.337 230.3C155.336 230.167 155.312 230.035 155.268 229.91C155.228 229.795 155.168 229.689 155.091 229.597C155.02 229.513 154.934 229.443 154.838 229.392C154.747 229.344 154.647 229.32 154.545 229.321H153.18V231.279Z" fill="#00A8E8"/>
<path d="M162.23 234.337V230.335L160.735 233.315H160.121L158.62 230.335V234.337H157.507V228.292H158.722L160.442 231.733L162.175 228.292H163.383V234.337H162.23Z" fill="#00A8E8"/>
<path d="M168.611 233.308V234.337H164.571V228.292H168.536V229.321H165.697V230.74H168.147V231.698H165.697V233.273L168.611 233.308Z" fill="#00A8E8"/>
<path d="M169.499 234.337V228.292H171.607C172.035 228.28 172.461 228.363 172.856 228.533C173.199 228.676 173.506 228.897 173.757 229.178C173.999 229.455 174.183 229.782 174.297 230.136C174.546 230.922 174.546 231.77 174.297 232.556C174.172 232.911 173.975 233.234 173.719 233.504C173.464 233.773 173.156 233.982 172.815 234.117C172.437 234.269 172.034 234.344 171.628 234.337H169.499ZM173.334 231.307C173.339 231.035 173.3 230.764 173.218 230.505C173.151 230.272 173.037 230.057 172.884 229.874C172.736 229.696 172.552 229.555 172.345 229.462C172.11 229.366 171.86 229.318 171.607 229.32H170.625V233.308H171.607C171.863 233.311 172.117 233.257 172.351 233.152C172.559 233.056 172.743 232.913 172.891 232.733C173.039 232.545 173.151 232.328 173.218 232.095C173.3 231.841 173.339 231.575 173.334 231.307Z" fill="#00A8E8"/>
<path d="M184.562 203.543H99.058V128.347L141.803 100.122L184.562 128.347V203.543Z" fill="#00A8E8"/>
<path opacity="0.2" d="M184.562 203.543H99.058V128.347L141.803 100.122L184.562 128.347V203.543Z" fill="black"/>
<path d="M179.736 96.5452H103.876V197.789H179.736V96.5452Z" fill="#EBEBEB"/>
<path d="M137.189 157.118L119.82 138.84L125.655 132.845L135.804 143.523L156.879 109.168L163.8 113.751L137.189 157.118Z" fill="#00A8E8"/>
<path d="M184.562 147.206V203.543H99.058V147.206C102.73 149.335 106.34 151.634 109.978 153.847C113.616 156.061 117.219 158.36 120.816 160.659C124.822 163.192 128.829 165.775 132.821 168.371L132.951 168.293C132.91 168.293 132.883 168.364 132.849 168.386C135.833 170.301 138.82 172.229 141.81 174.168C144.785 172.217 147.782 170.252 150.771 168.329C150.737 168.329 150.71 168.265 150.669 168.237C150.709 168.266 150.752 168.29 150.798 168.308C154.789 165.72 158.79 163.147 162.803 160.588C166.402 158.303 170.011 156.037 173.628 153.791C177.3 151.598 180.89 149.335 184.562 147.206Z" fill="#00A8E8"/>
<g opacity="0.2">
<path d="M184.562 147.206C181.108 149.725 177.593 152.173 174.112 154.628C170.632 157.083 167.09 159.481 163.554 161.886C159.869 164.398 156.176 166.886 152.477 169.351L152.143 169.592L142.294 176.12L141.803 176.425L141.325 176.12L131.49 169.578L131.142 169.351C127.434 166.881 123.737 164.389 120.052 161.872C116.53 159.481 113.015 157.054 109.507 154.628C105.999 152.201 102.511 149.689 99.058 147.206C102.73 149.335 106.34 151.634 109.978 153.847C113.616 156.061 117.219 158.36 120.816 160.659C124.822 163.192 128.829 165.775 132.821 168.371C135.824 170.297 138.82 172.229 141.81 174.168C144.785 172.217 147.782 170.252 150.771 168.329C154.761 165.741 158.763 163.168 162.776 160.609C166.375 158.324 169.983 156.059 173.601 153.812C177.3 151.598 180.89 149.335 184.562 147.206Z" fill="black"/>
<path d="M132.937 168.258C132.896 168.258 132.869 168.329 132.835 168.35L131.47 169.542C129.327 171.422 127.129 173.225 124.897 174.977C122.167 177.106 119.39 179.234 116.591 181.264C113.793 183.293 110.954 185.28 108.06 187.202C105.166 189.125 102.259 191.005 99.2423 192.73C101.836 190.367 104.532 188.16 107.255 186.017C109.978 183.875 112.776 181.76 115.561 179.724C118.345 177.688 121.212 175.694 124.099 173.771C126.399 172.238 128.74 170.727 131.122 169.315C131.675 168.982 132.227 168.662 132.794 168.336L132.937 168.258Z" fill="black"/>
<path d="M184.357 192.73C181.34 191.005 178.412 189.125 175.539 187.202C172.666 185.28 169.792 183.279 166.994 181.264C164.196 179.248 161.411 177.134 158.688 174.977C156.47 173.225 154.272 171.429 152.143 169.556L150.778 168.35C150.744 168.35 150.716 168.286 150.675 168.258C150.716 168.287 150.759 168.311 150.805 168.329C151.372 168.662 151.924 168.982 152.477 169.315C154.859 170.734 157.186 172.238 159.5 173.771C162.387 175.694 165.213 177.695 168.025 179.724C170.836 181.753 173.607 183.853 176.331 186.017C179.054 188.182 181.763 190.367 184.357 192.73Z" fill="black"/>
</g>
<path d="M105.228 91.7206C104.773 87.8206 104.773 83.8778 105.228 79.9778C105.683 83.8778 105.683 87.8206 105.228 91.7206Z" fill="#263238"/>
<path d="M100.423 93.5865C98.9272 92.3866 97.5112 91.0828 96.1848 89.684C94.8377 88.3091 93.5835 86.8393 92.431 85.2849C95.4058 87.7087 98.0892 90.4959 100.423 93.5865Z" fill="#263238"/>
<path d="M98.3004 98.4325C96.4267 98.685 94.5386 98.8035 92.6493 98.7873C90.7623 98.8092 88.8763 98.693 87.005 98.4396C88.8761 98.1837 90.7622 98.0651 92.6493 98.0849C94.5384 98.0663 96.4265 98.1825 98.3004 98.4325Z" fill="#263238"/>
<path d="M100.095 103.421C97.7616 106.511 95.0808 109.3 92.1102 111.729C94.4388 108.632 97.1202 105.84 100.095 103.414V103.421Z" fill="#263238"/>
<path d="M177.88 91.7206C177.643 89.7722 177.531 87.8095 177.546 85.8456C177.532 83.8837 177.648 81.9231 177.894 79.9778C178.349 83.8778 178.349 87.8206 177.894 91.7206H177.88Z" fill="#263238"/>
<path d="M182.685 93.5865C185.019 90.4959 187.702 87.7087 190.677 85.2849C189.524 86.8393 188.27 88.3091 186.923 89.684C185.597 91.0828 184.181 92.3866 182.685 93.5865Z" fill="#263238"/>
<path d="M184.807 98.4326C186.681 98.1825 188.569 98.0663 190.458 98.0849C192.346 98.065 194.232 98.1835 196.103 98.4397C194.232 98.6933 192.345 98.8095 190.458 98.7874C188.569 98.8036 186.681 98.685 184.807 98.4326Z" fill="#263238"/>
<path d="M183.012 103.42C185.987 105.844 188.668 108.634 190.997 111.729C189.504 110.526 188.09 109.22 186.766 107.82C185.419 106.444 184.165 104.975 183.012 103.42Z" fill="#263238"/>
<path d="M86.7254 297.003C85.2512 297.499 43.257 296.932 41.6804 295.853C41.073 295.456 40.7932 289.091 40.6703 281.386V281.145C40.6703 279.562 40.6225 277.923 40.6157 276.27C40.6157 276.043 40.6157 275.816 40.6157 275.561L42.6632 252.912L70.7549 253.203L67.9771 275.639V276.526L67.8065 281.166V281.648C67.8065 281.648 83.7906 289.34 85.415 290.716C87.0393 292.093 88.1928 296.52 86.7254 297.003Z" fill="#F7A9A0"/>
<path d="M86.7254 297.003C85.2512 297.5 43.257 296.932 41.6804 295.853C41.073 295.456 40.7932 289.092 40.6703 281.386V281.145C40.6703 279.563 40.6225 277.924 40.6157 276.27C40.6157 276.043 40.6157 275.816 40.6157 275.561L67.9703 275.639V276.526L67.7997 281.166V281.649C67.7997 281.649 83.7838 289.34 85.4082 290.716C87.0325 292.093 88.1928 296.52 86.7254 297.003Z" fill="#EBEBEB"/>
<path d="M86.8481 297.109C85.3603 297.606 42.9839 297.188 41.38 296.109C40.7658 295.705 40.4655 289.283 40.3153 281.514L67.6153 281.705C67.6153 281.705 83.77 289.411 85.4149 290.788C87.0597 292.164 88.3291 296.606 86.8481 297.109Z" fill="#00A8E8"/>
<path d="M86.2543 295.343C79.1563 295.087 50.4845 294.768 43.4479 295.08C43.3933 295.08 43.3933 295.123 43.4479 295.13C50.4845 295.534 79.1495 295.612 86.2543 295.463C86.4045 295.456 86.4045 295.343 86.2543 295.343Z" fill="#263238"/>
<path d="M82.7191 289.177C81.9299 289.149 81.1437 289.291 80.4097 289.594C79.6758 289.897 79.0098 290.354 78.4535 290.937C77.4485 291.983 76.8673 293.389 76.8291 294.867C76.8291 294.91 76.911 294.91 76.9178 294.867C77.1716 293.407 77.8743 292.072 78.9204 291.062C79.9665 290.053 81.2995 289.424 82.7191 289.269C82.7263 289.272 82.7342 289.273 82.7419 289.272C82.7497 289.272 82.7571 289.269 82.7636 289.264C82.7701 289.26 82.7754 289.253 82.779 289.246C82.7827 289.239 82.7846 289.231 82.7846 289.223C82.7846 289.215 82.7827 289.207 82.779 289.2C82.7754 289.193 82.7701 289.186 82.7636 289.182C82.7571 289.177 82.7497 289.174 82.7419 289.174C82.7342 289.173 82.7263 289.174 82.7191 289.177Z" fill="#263238"/>
<path d="M70.3862 282.472C67.5402 282.401 64.2437 283.408 62.4487 285.807C62.3805 285.906 62.5102 286.005 62.5921 285.956C65.0919 284.628 67.7207 283.582 70.434 282.834C70.4751 282.821 70.5105 282.794 70.5339 282.757C70.5572 282.72 70.5669 282.675 70.5611 282.631C70.5552 282.587 70.5344 282.547 70.5022 282.518C70.4701 282.488 70.4289 282.472 70.3862 282.472Z" fill="#263238"/>
<path d="M72.5703 283.38C69.7311 283.309 66.4278 284.324 64.6328 286.722C64.5646 286.814 64.6942 286.913 64.7761 286.871C67.275 285.539 69.904 284.49 72.6181 283.742C72.6591 283.73 72.6946 283.702 72.7179 283.665C72.7413 283.628 72.7509 283.583 72.7451 283.539C72.7393 283.495 72.7184 283.455 72.6863 283.426C72.6542 283.396 72.613 283.38 72.5703 283.38Z" fill="#263238"/>
<path d="M74.7611 284.288C71.9151 284.224 68.6186 285.232 66.8237 287.63C66.7554 287.722 66.8783 287.829 66.967 287.779C69.4649 286.453 72.0914 285.406 74.8021 284.657C74.8404 284.642 74.8728 284.614 74.8941 284.578C74.9154 284.541 74.9244 284.498 74.9197 284.456C74.915 284.414 74.8968 284.374 74.8681 284.344C74.8394 284.313 74.8017 284.294 74.7611 284.288Z" fill="#263238"/>
<path d="M76.9724 285.203C74.1332 285.132 70.8299 286.147 69.0349 288.545C68.9667 288.638 69.0963 288.737 69.1782 288.694C71.6619 287.366 74.2747 286.317 76.9724 285.565C77.0127 285.557 77.0489 285.534 77.0749 285.501C77.101 285.468 77.1152 285.427 77.1152 285.384C77.1152 285.342 77.101 285.3 77.0749 285.267C77.0489 285.234 77.0127 285.212 76.9724 285.203Z" fill="#263238"/>
<path d="M45.3249 288.084C42.1308 288.084 42.0967 293.214 45.3249 293.235C48.5531 293.256 48.519 288.105 45.3249 288.084Z" fill="white"/>
<path d="M73.5599 274.61C72.1334 273.354 70.3043 274.553 69.4103 275.83C67.8969 278.054 66.9741 280.653 66.7349 283.366C66.7349 283.422 66.7758 283.451 66.8236 283.451C66.8338 283.506 66.8566 283.559 66.8901 283.603C66.9236 283.648 66.9669 283.683 67.0163 283.707C67.0657 283.73 67.1199 283.741 67.1742 283.739C67.2285 283.736 67.2815 283.72 67.3286 283.692C69.3761 282.273 71.7171 280.982 73.2732 278.945C74.1741 277.76 74.8839 275.802 73.5599 274.61ZM70.0109 280.861C69.0281 281.571 68.0111 282.28 67.0556 283.039C67.5298 281.557 68.0766 280.1 68.6936 278.676C69.0044 277.99 69.3578 277.327 69.7515 276.689C70.3794 275.717 73.164 273.276 73.4438 276.497C73.5599 278.271 71.1575 279.988 69.9836 280.861H70.0109Z" fill="#263238"/>
<path d="M59.6506 284.387C62.1281 284.806 64.6875 284.104 67.124 283.735C67.1766 283.72 67.2253 283.694 67.2664 283.657C67.3075 283.619 67.3399 283.573 67.361 283.521C67.3821 283.469 67.3914 283.412 67.3882 283.356C67.3849 283.299 67.3693 283.245 67.3424 283.195C67.351 283.188 67.3579 283.179 67.3626 283.168C67.3674 283.158 67.3698 283.147 67.3698 283.135C67.3698 283.124 67.3674 283.112 67.3626 283.102C67.3579 283.091 67.351 283.082 67.3424 283.075C65.4197 281.239 63.0658 279.961 60.5174 279.371C59.0227 279.052 56.9001 279.449 56.6613 281.379C56.4224 283.203 58.2105 284.146 59.6506 284.387ZM57.9512 282.727C56.0538 280.173 59.712 280.003 60.804 280.279C61.5014 280.467 62.1855 280.704 62.8515 280.989C64.2575 281.571 65.5815 282.344 66.8988 283.061C65.6907 283.167 64.5032 283.38 63.2952 283.529C61.8824 283.685 59.0022 284.097 57.9512 282.727Z" fill="#263238"/>
<path opacity="0.1" d="M62.8446 297.18C52.3136 296.989 42.1512 296.627 41.38 296.109C40.7658 295.705 40.4655 289.283 40.3153 281.514H44.2056C48.5053 285.175 57.603 292.788 62.8446 297.18Z" fill="black"/>
<path d="M69.6014 281.308H39.3599C39.3599 281.308 45.4478 207.878 45.2089 206.594C44.9086 204.948 43.1205 197.519 40.7454 187.806C40.0014 184.769 39.1961 181.512 38.3634 178.135C36.1044 168.996 33.5859 159.013 31.4565 150.321C28.2078 137.308 25.6689 127.197 25.6689 127.197H51.2968C51.2968 127.197 54.2861 137.038 58.0535 149.853C64.196 170.663 72.386 199.314 73.1914 206.282C74.5018 217.514 69.6014 281.308 69.6014 281.308Z" fill="#37474F"/>
<path d="M68.2637 275.93C63.6431 275.831 64.9672 275.795 60.3467 275.745C58.0876 275.745 43.2364 275.589 41.1207 275.951C41.108 275.951 41.0958 275.956 41.0869 275.966C41.0779 275.975 41.0729 275.988 41.0729 276.001C41.0729 276.014 41.0779 276.027 41.0869 276.036C41.0958 276.045 41.108 276.05 41.1207 276.05C43.2364 276.412 58.0876 276.278 60.3467 276.256C64.9672 276.214 63.6431 276.171 68.2637 276.072C68.2818 276.072 68.2991 276.064 68.3119 276.051C68.3247 276.038 68.3319 276.02 68.3319 276.001C68.3319 275.982 68.3247 275.964 68.3119 275.951C68.2991 275.937 68.2818 275.93 68.2637 275.93Z" fill="#263238"/>
<path d="M50.9008 202.089C49.9112 197.548 48.4234 193.092 47.1334 188.607C44.5126 179.549 41.8759 170.491 39.2233 161.432C37.8992 156.905 36.5706 152.379 35.2375 147.852C34.5641 145.567 33.8816 143.285 33.19 141.005C32.5075 138.77 31.7499 136.563 31.1425 134.307C30.8968 133.391 30.7603 133.895 31.0811 135.059C31.7158 137.4 32.3437 139.749 33.0057 142.09C34.3024 146.726 35.6128 151.357 36.9369 155.983C39.5577 165.193 42.2012 174.395 44.8675 183.591C46.2007 188.208 47.5361 192.82 48.8738 197.427C49.5502 199.622 50.095 201.859 50.505 204.125C50.8654 206.492 50.957 208.895 50.778 211.284C50.4845 216.095 49.9453 220.898 49.5222 225.695C49.099 230.491 48.6622 235.316 48.2391 240.12C47.3882 249.694 46.5419 259.265 45.7002 268.834C45.5978 270.048 45.4954 271.261 45.4067 272.481C45.4067 272.886 45.9664 272.85 46.0073 272.481C47.0038 263.023 47.7682 253.523 48.6213 244.05C49.4744 234.578 50.3275 225.184 51.1738 215.754C51.3854 213.384 51.6311 211.014 51.6311 208.659C51.6255 206.447 51.3805 204.243 50.9008 202.089Z" fill="#263238"/>
<path d="M48.3894 127.183C46.608 141.494 43.216 168.336 40.7454 187.792C34.9646 164.235 25.6689 127.183 25.6689 127.183H48.3894Z" fill="#263238"/>
<path d="M54.682 297.429C53.2147 297.925 11.2205 297.521 9.63706 296.45C9.02964 296.052 8.72934 289.688 8.57919 281.982V281.741C8.54507 280.159 8.51776 278.52 8.51094 276.866C8.51094 276.639 8.51094 276.412 8.51094 276.157C8.41539 265.046 9.19344 253.516 9.19344 253.516L36.6436 253.7L35.8723 276.136V277.022L35.7222 281.67V282.145C35.7222 282.145 51.6586 289.822 53.2829 291.171C54.9073 292.519 56.1562 296.918 54.682 297.429Z" fill="#F7A9A0"/>
<path d="M54.6819 297.429C53.2146 297.925 11.2204 297.521 9.63699 296.45C9.02956 296.052 8.72927 289.688 8.57912 281.982V281.741C8.54499 280.159 8.51769 278.52 8.51086 276.867C8.51086 276.639 8.51086 276.412 8.51086 276.157H35.8654V277.044L35.7153 281.691V282.167C35.7153 282.167 51.6585 289.823 53.2828 291.171C54.9072 292.519 56.1561 296.918 54.6819 297.429Z" fill="#EBEBEB"/>
<path d="M54.8525 297.336C53.3647 297.833 10.9883 297.414 9.3844 296.336C8.77015 295.931 8.46985 289.51 8.3197 281.741L35.6197 281.932C35.6197 281.932 51.7744 289.638 53.4124 291.014C55.0504 292.391 56.3335 296.833 54.8525 297.336Z" fill="#00A8E8"/>
<path d="M54.2588 295.57C47.154 295.314 18.489 294.995 11.4524 295.307C11.3978 295.307 11.3978 295.35 11.4524 295.35C18.4822 295.761 47.154 295.839 54.2588 295.69C54.409 295.683 54.409 295.57 54.2588 295.57Z" fill="#263238"/>
<path d="M50.7236 289.404C49.9343 289.376 49.1481 289.518 48.414 289.821C47.68 290.123 47.0141 290.581 46.458 291.163C45.4507 292.208 44.869 293.616 44.8336 295.094C44.8336 295.137 44.9155 295.137 44.9223 295.094C45.1761 293.634 45.8788 292.299 46.9249 291.289C47.9711 290.28 49.304 289.651 50.7236 289.496C50.7325 289.492 50.7401 289.486 50.7454 289.478C50.7508 289.47 50.7536 289.46 50.7536 289.45C50.7536 289.44 50.7508 289.43 50.7454 289.422C50.7401 289.414 50.7325 289.408 50.7236 289.404Z" fill="#263238"/>
<path d="M38.3908 282.727C35.5447 282.663 32.2483 283.671 30.4533 286.069C30.385 286.161 30.5079 286.268 30.5966 286.218C33.0965 284.89 35.7253 283.844 38.4385 283.096C38.477 283.08 38.5093 283.052 38.5303 283.015C38.5512 282.978 38.5596 282.934 38.5541 282.892C38.5486 282.849 38.5295 282.81 38.4999 282.78C38.4703 282.75 38.4318 282.731 38.3908 282.727Z" fill="#263238"/>
<path d="M40.5747 283.607C37.7355 283.536 34.4322 284.543 32.6372 286.949C32.569 287.041 32.6986 287.14 32.7805 287.098C35.2794 285.766 37.9084 284.717 40.6225 283.969C40.6635 283.956 40.699 283.929 40.7223 283.892C40.7457 283.855 40.7553 283.81 40.7495 283.766C40.7437 283.722 40.7228 283.682 40.6907 283.653C40.6586 283.623 40.6174 283.607 40.5747 283.607Z" fill="#263238"/>
<path d="M42.7655 284.515C39.9195 284.444 36.623 285.459 34.828 287.857C34.753 287.949 34.8826 288.049 34.9714 288.006C37.4675 286.676 40.0944 285.629 42.8064 284.884C42.8448 284.869 42.8771 284.841 42.8984 284.805C42.9197 284.768 42.9288 284.725 42.9241 284.683C42.9194 284.641 42.9012 284.601 42.8725 284.571C42.8438 284.54 42.8061 284.521 42.7655 284.515Z" fill="#263238"/>
<path d="M44.9494 285.43C42.1034 285.36 38.8069 286.367 37.012 288.772C36.9437 288.865 37.0734 288.964 37.1553 288.921C39.6536 287.589 42.2827 286.54 44.9972 285.792C45.0383 285.78 45.0738 285.753 45.0971 285.716C45.1204 285.679 45.1301 285.634 45.1243 285.59C45.1185 285.546 45.0976 285.506 45.0655 285.476C45.0334 285.447 44.9922 285.431 44.9494 285.43Z" fill="#263238"/>
<path d="M13.3293 288.311C10.1352 288.311 10.1011 293.441 13.3293 293.462C16.5575 293.484 16.5234 288.332 13.3293 288.311Z" fill="white"/>
<path d="M41.537 274.837C40.1038 273.581 38.2815 274.78 37.3806 276.057C35.8778 278.282 34.9645 280.878 34.7325 283.586C34.7312 283.598 34.7327 283.61 34.7368 283.621C34.7409 283.633 34.7476 283.643 34.7562 283.651C34.7648 283.66 34.7752 283.666 34.7865 283.669C34.7978 283.672 34.8097 283.673 34.8212 283.671C34.8305 283.727 34.8526 283.78 34.8858 283.825C34.9189 283.871 34.9621 283.907 35.0116 283.931C35.0612 283.956 35.1156 283.967 35.1704 283.965C35.2252 283.963 35.2786 283.947 35.3263 283.919C37.3738 282.5 39.7147 281.209 41.2708 279.165C42.1649 277.973 42.8884 276.022 41.537 274.837ZM37.988 281.088C37.0052 281.798 35.9883 282.507 35.0328 283.259C35.5182 281.776 36.0763 280.32 36.7049 278.896C37.0157 278.212 37.3691 277.551 37.7628 276.916C38.3907 275.944 41.1753 273.503 41.4551 276.717C41.5643 278.47 39.1619 280.215 37.988 281.088Z" fill="#263238"/>
<path d="M27.6549 284.614C30.1256 285.033 32.6918 284.324 35.1215 283.962C35.1729 283.948 35.2207 283.922 35.261 283.886C35.3014 283.85 35.3334 283.805 35.3545 283.755C35.3755 283.704 35.3852 283.649 35.3827 283.594C35.3801 283.539 35.3655 283.485 35.3399 283.437C35.3497 283.429 35.3578 283.42 35.3633 283.409C35.3689 283.398 35.3718 283.385 35.3718 283.373C35.3718 283.36 35.3689 283.348 35.3633 283.337C35.3578 283.326 35.3497 283.316 35.3399 283.309C33.4145 281.477 31.0616 280.2 28.5149 279.605C27.0202 279.293 24.8976 279.69 24.6588 281.62C24.4199 283.437 26.2149 284.366 27.6549 284.614ZM25.9555 282.912C24.0582 280.357 27.7164 280.194 28.8084 280.471C29.5057 280.658 30.1898 280.895 30.8559 281.18C32.2355 281.799 33.5841 282.491 34.8963 283.252C33.6882 283.359 32.5007 283.564 31.2995 283.72C29.8799 283.912 27.0066 284.324 25.9555 282.912Z" fill="#263238"/>
<path d="M50.4709 127.183C50.4709 127.183 49.8772 139.955 47.0584 150.03C46.8332 150.867 46.5875 151.683 46.3282 152.471C43.7586 153.556 41.2892 154.881 38.9503 156.43C38.9503 156.43 38.6569 166.683 38.3634 178.128C38.0358 190.899 37.6809 205.175 37.7628 208.205C38.0221 219.557 36.3978 281.762 36.3978 281.762L6.15625 281.89C6.15625 281.89 11.6162 212.356 11.6162 208.233C11.5548 201.571 13.0768 172.111 14.2575 150.633C14.94 137.393 15.5679 127.219 15.5679 127.219L50.4709 127.183Z" fill="#37474F"/>
<path d="M35.34 276.164C30.7194 276.086 32.0435 276.043 27.4298 276.015C25.1639 276.015 10.3127 275.93 8.20378 276.306C8.19111 276.306 8.17896 276.311 8.17 276.321C8.16104 276.33 8.15601 276.342 8.15601 276.356C8.15601 276.369 8.16104 276.381 8.17 276.391C8.17896 276.4 8.19111 276.405 8.20378 276.405C10.3127 276.76 25.1707 276.554 27.4298 276.526C32.0503 276.455 30.7194 276.427 35.34 276.306C35.3581 276.306 35.3754 276.299 35.3882 276.285C35.401 276.272 35.4082 276.254 35.4082 276.235C35.4082 276.216 35.401 276.198 35.3882 276.185C35.3754 276.172 35.3581 276.164 35.34 276.164Z" fill="#263238"/>
<path d="M18.0862 131.738C17.5266 149.278 16.9396 166.818 16.1821 184.343C15.4245 201.869 14.4076 219.522 12.9948 237.061C12.2031 246.867 11.4523 260.661 10.4354 270.41C10.4354 270.473 10.5242 270.502 10.5378 270.41C12.7354 253.012 13.9503 231.506 15.0491 213.995C16.1479 196.483 16.8646 178.958 17.4379 161.432C17.7655 151.499 18.0112 141.565 18.2978 131.674C18.2773 131.596 18.0931 131.596 18.0862 131.738Z" fill="#263238"/>
<path d="M47.6249 151.712C44.6078 153.021 41.7055 154.6 38.9503 156.43C38.9315 156.446 38.9186 156.468 38.9137 156.492C38.9089 156.516 38.9125 156.542 38.9239 156.564C38.9352 156.586 38.9537 156.603 38.976 156.612C38.9983 156.622 39.023 156.622 39.0459 156.615C41.9601 155.139 44.9358 153.72 47.775 152.081C47.8111 152.053 47.8371 152.014 47.849 151.969C47.8609 151.925 47.8579 151.877 47.8406 151.834C47.8232 151.792 47.7924 151.756 47.7533 151.734C47.7141 151.712 47.6689 151.704 47.6249 151.712Z" fill="#263238"/>
<path d="M47.7682 140.898C47.5634 142.012 47.3041 143.119 47.0857 144.233C46.8673 145.347 46.7103 146.362 46.4441 147.369C46.2239 148.365 45.7363 149.275 45.0382 149.994C44.6492 150.37 44.2124 150.704 43.796 151.059L43.1135 151.619C43.1135 151.47 43.175 151.321 43.1954 151.165C43.2705 150.739 43.3388 150.321 43.407 149.895C43.5572 148.951 43.7005 148.008 43.8438 147.057C44.1168 145.198 44.3625 143.325 44.7379 141.494C44.7379 141.416 44.6423 141.388 44.6287 141.494C44.1851 143.311 43.6937 145.106 43.3046 146.943C43.1135 147.845 42.4379 152.286 42.4106 152.62C42.3833 152.953 42.3491 153.272 42.3423 153.599C42.2975 153.928 42.2975 154.263 42.3423 154.592C42.3423 154.677 42.4515 154.663 42.4856 154.592C42.6185 154.285 42.7104 153.96 42.7586 153.627C42.8405 153.315 42.9088 152.989 42.9634 152.669C42.9634 152.556 42.9634 152.435 43.0112 152.315C43.4343 152.052 43.8233 151.697 44.2192 151.399C44.615 151.101 45.0791 150.768 45.475 150.42C46.1938 149.756 46.7049 148.884 46.9424 147.916C47.2023 146.869 47.3713 145.8 47.4474 144.723C47.5839 143.46 47.6795 142.19 47.8501 140.934C47.891 140.82 47.7818 140.82 47.7682 140.898Z" fill="#263238"/>
<path d="M36.7049 98.298C39.0458 105.627 49.529 128.929 53.9312 130.56C58.5176 132.249 76.2284 134.357 80.1596 131.142C82.0843 129.56 82.7531 112.694 80.1596 113.12C77.5661 113.546 61.9505 114.135 60.0941 113.447C58.2377 112.758 45.8367 93.9911 40.7999 89.4217C32.1117 81.5814 35.4559 94.3459 36.7049 98.298Z" fill="#F7A9A0"/>
<path d="M76.2421 112.836L75.9896 133.832C75.9896 133.832 57.8283 133.881 52.9893 131.235C48.1504 128.588 37.9129 104.329 35.3536 95.0484C32.7942 85.7677 36.8892 84.3344 43.3934 91.146C49.8976 97.9575 59.6778 112.233 60.8381 112.524C61.9983 112.815 76.2421 112.836 76.2421 112.836Z" fill="#00A8E8"/>
<path d="M52.0066 101.519C48.2697 102.171 44.6512 103.415 41.2777 105.209L40.6635 105.542C40.5065 105.62 40.3563 105.706 40.2062 105.798C39.9059 105.961 39.6124 106.131 39.3189 106.316L39.1893 105.975L39.8103 105.599L40.2608 105.351C40.5406 105.188 40.8273 105.024 41.1139 104.875C42.8463 103.941 44.6524 103.162 46.5125 102.548C48.2341 101.968 49.9954 101.525 51.7814 101.221L52.0066 101.519ZM56.0606 106.819C55.7387 106.995 55.4084 107.154 55.071 107.295C54.1992 107.677 53.2803 107.93 52.341 108.047C51.8633 108.104 51.3855 108.189 50.9078 108.217L49.4677 108.26C47.5411 108.206 45.6401 107.787 43.8576 107.025C42.786 106.592 41.7418 106.067 40.6976 105.542C40.5611 105.486 40.4314 105.415 40.2949 105.351C39.9673 105.195 39.6124 105.031 39.3053 104.882L38.9845 104.741L38.6842 104.606L38.8002 104.904C38.8002 104.989 38.8685 105.074 38.8958 105.159H38.9572L39.8376 105.571L40.2335 105.769C41.3664 106.33 42.5062 106.926 43.6937 107.408C45.524 108.191 47.4758 108.621 49.454 108.678L50.9282 108.643C51.4196 108.643 51.911 108.522 52.3956 108.466C53.381 108.347 54.3458 108.087 55.2621 107.692C55.6422 107.537 56.0136 107.359 56.3746 107.16L56.0606 106.819ZM49.0718 97.78C47.7948 98.3959 46.5529 99.0877 45.3522 99.8519C43.0934 101.297 40.9523 102.932 38.9504 104.741L38.7661 104.904C38.7661 104.989 38.8344 105.074 38.8617 105.159V105.216C38.8617 105.216 38.8617 105.216 38.9026 105.216C39.0186 105.11 39.1278 105.003 39.2439 104.911C41.2104 103.169 43.3078 101.594 45.516 100.2C46.7396 99.4387 47.9992 98.7424 49.2902 98.1135L49.0718 97.78Z" fill="white"/>
<path d="M70.9527 123.203C70.9527 121.535 71.0687 114.887 71.212 113.269H71.2598C71.4168 114.873 71.4987 121.436 71.4918 123.103C71.5445 126.419 71.4238 129.735 71.1301 133.037C71.1262 133.048 71.1192 133.057 71.1101 133.064C71.1009 133.07 71.0901 133.074 71.0789 133.074C71.0678 133.074 71.0569 133.07 71.0477 133.064C71.0386 133.057 71.0316 133.048 71.0277 133.037C70.7889 129.766 70.9185 126.481 70.9527 123.203Z" fill="#263238"/>
<path opacity="0.1" d="M35.3399 95.041C37.8992 104.329 48.1367 128.581 52.9757 131.227C55.2962 132.497 60.6743 133.15 65.6497 133.476L37.1485 86.8955C34.712 86.6259 33.7906 89.3718 35.3399 95.041Z" fill="black"/>
<path d="M12.3943 146.12C12.5035 146.234 56.8114 143.084 57.18 142.573C57.6987 141.863 43.6733 95.034 40.1584 88.187C38.6637 85.2566 31.4975 84.8309 28.6651 87.6052C21.574 94.5373 16.6395 116.952 15.6021 123.671C13.8822 134.754 11.9985 145.716 12.3943 146.12Z" fill="#00A8E8"/>
<path d="M54.8116 133.257L53.5695 132.497C51.8952 131.484 50.1706 130.562 48.4029 129.737L47.4338 129.297L46.9629 129.099C45.6576 128.538 44.3195 128.064 42.9566 127.68C41.094 127.14 39.1855 126.788 37.2577 126.63C33.3893 126.455 29.5183 126.91 25.7849 127.978L25.1024 128.176C24.9318 128.219 24.768 128.269 24.6042 128.325C22.0028 129.152 19.475 130.211 17.0489 131.49C16.3664 131.823 15.6839 132.199 15.056 132.547L14.8513 132.661L14.1005 133.079L14.1619 132.717L14.9332 132.306C15.6976 131.873 16.4688 131.454 17.2468 131.064C17.8884 130.724 18.5436 130.404 19.1988 130.099C20.8468 129.313 22.5378 128.629 24.2629 128.049L24.7612 127.9C25.0683 127.793 25.3754 127.701 25.6894 127.616C27.5695 127.066 29.4924 126.689 31.436 126.488C33.376 126.269 35.33 126.217 37.2782 126.332C40.7048 126.636 44.0622 127.51 47.2222 128.921L47.6863 129.134L48.4985 129.51C50.2688 130.358 51.9935 131.306 53.665 132.348L54.7297 133.001L54.8116 133.257ZM52.5184 125.452C51.3855 126.161 50.2798 126.871 49.181 127.623C48.4985 128.063 47.8774 128.51 47.2222 128.943L46.9629 129.12C46.0688 129.716 45.1611 130.291 44.2329 130.83C42.5712 131.84 40.7612 132.559 38.8752 132.959C37.9333 133.146 36.9708 133.197 36.0156 133.108C35.5378 133.058 35.0532 133.044 34.5823 132.973L33.1627 132.71C31.2882 132.244 29.5102 131.429 27.9143 130.305C26.952 129.652 26.0374 128.886 25.1092 128.176L24.7543 127.9C24.4677 127.673 24.1742 127.446 23.8807 127.233L23.6009 127.02L23.1914 126.729C21.5656 125.526 19.637 124.842 17.6427 124.764C16.8558 124.779 16.0784 124.945 15.3495 125.253L15.2881 125.636C16.0327 125.314 16.8293 125.14 17.6359 125.125C19.5577 125.221 21.4105 125.9 22.9662 127.077L23.2051 127.247L23.4849 127.453C23.7442 127.644 24.0036 127.843 24.2561 128.049L24.611 128.325C25.6143 129.12 26.6107 129.943 27.6822 130.667C29.3164 131.822 31.1387 132.658 33.0603 133.136L34.5209 133.413C35.0055 133.484 35.4969 133.505 35.9883 133.555C36.9776 133.643 37.9739 133.593 38.9503 133.406C40.8749 132.992 42.72 132.249 44.4103 131.206C45.4272 130.61 46.4169 129.964 47.3928 129.297L47.6454 129.134L49.3653 127.964C50.43 127.254 51.5083 126.544 52.6003 125.835L52.5184 125.452ZM51.7677 122.94C50.5822 122.542 49.377 122.21 48.1572 121.947C46.2371 121.543 44.2805 121.357 42.3219 121.393C40.3627 121.432 38.4104 121.645 36.4865 122.032C34.5638 122.409 32.6722 122.94 30.8286 123.621C28.3352 124.553 25.9201 125.697 23.6077 127.041C23.4712 127.112 23.3416 127.19 23.2119 127.268C22.2427 127.829 21.2941 128.411 20.3522 129.014C19.308 129.681 18.2706 130.369 17.2468 131.064C16.4483 131.596 15.6566 132.143 14.8649 132.682L14.1005 133.2C14.1005 133.313 14.0664 133.42 14.0527 133.526C15.0628 132.859 16.0593 132.178 17.0626 131.511C17.7451 131.036 18.4822 130.56 19.1988 130.092C19.6288 129.808 20.0587 129.532 20.4955 129.262C21.4783 128.645 22.4816 128.042 23.4917 127.467L23.8876 127.247C26.153 125.957 28.5154 124.861 30.9514 123.969C34.6078 122.615 38.4428 121.854 42.3219 121.713C44.2609 121.666 46.199 121.837 48.1026 122.223C49.3738 122.49 50.6293 122.831 51.8632 123.245C51.8291 123.125 51.795 123.018 51.7677 122.919V122.94Z" fill="white"/>
<path d="M22.7137 92.9268C10.9543 106.408 -2.30668 129.191 3.36489 134.08C8.55188 138.521 27.4708 134.293 39.3667 129.461C41.6326 128.538 32.4462 107.721 30.1393 108.955C27.7105 110.299 25.2031 111.484 22.6318 112.503C21.9493 112.687 25.5529 108.146 29.5387 97.2337C33.5655 86.0869 29.4364 85.2141 22.7137 92.9268Z" fill="#F7A9A0"/>
<path d="M59.0432 107.38C59.0432 109.8 53.317 109.324 53.317 109.324C54.1517 109.889 54.7698 110.74 55.0642 111.73C55.4942 113.511 53.0167 115.001 53.0167 115.001C53.7605 115.777 54.2664 116.764 54.4705 117.839C54.7162 119.584 52.423 121.464 52.423 121.464C52.7263 122.579 52.6343 123.77 52.1636 124.821C50.7986 127.581 46.2122 127.659 43.3798 128.255C40.2062 129.018 37.0974 130.047 34.0842 131.334L28.8153 109.587C28.8153 109.587 41.1003 102.002 44.5128 102.172C47.3929 102.378 59.0296 103.676 59.0432 107.38Z" fill="#F7A9A0"/>
<path d="M53.2691 109.253C50.2252 108.331 46.9765 108.175 43.8438 108.054C43.7756 108.054 43.7687 108.16 43.8438 108.167C46.9697 108.246 50.1433 109.196 53.2487 109.409C53.2686 109.412 53.2887 109.406 53.3047 109.394C53.3207 109.381 53.3313 109.362 53.334 109.342C53.3367 109.321 53.3314 109.3 53.3192 109.283C53.3071 109.267 53.289 109.256 53.2691 109.253Z" fill="#263238"/>
<path d="M52.9143 114.781C52.2037 114.642 51.4785 114.601 50.7576 114.66C49.9932 114.66 49.2288 114.695 48.4644 114.731C46.931 114.802 45.4022 114.915 43.878 115.072C43.8097 115.072 43.8029 115.185 43.878 115.185C45.4068 115.114 46.9356 115.064 48.4576 115.057H50.7508C51.4722 115.119 52.198 115.095 52.9143 114.986C52.9331 114.977 52.9491 114.963 52.9602 114.944C52.9714 114.926 52.9773 114.905 52.9773 114.884C52.9773 114.862 52.9714 114.841 52.9602 114.823C52.9491 114.804 52.9331 114.79 52.9143 114.781Z" fill="#263238"/>
<path d="M52.3137 121.528C51.6702 121.411 51.012 121.411 50.3685 121.528L48.3074 121.663C46.9424 121.741 45.516 121.826 44.1169 121.854C44.1024 121.854 44.0885 121.86 44.0782 121.871C44.068 121.882 44.0623 121.896 44.0623 121.911C44.0623 121.926 44.068 121.941 44.0782 121.951C44.0885 121.962 44.1024 121.968 44.1169 121.968C45.5365 121.968 46.9561 121.968 48.3757 121.904L50.4641 121.84C51.1004 121.88 51.7385 121.801 52.3478 121.606C52.3578 121.601 52.3655 121.593 52.3693 121.582C52.3732 121.571 52.3728 121.56 52.3683 121.549C52.3637 121.539 52.3555 121.531 52.3452 121.527C52.335 121.523 52.3236 121.523 52.3137 121.528Z" fill="#263238"/>
<path d="M28.2214 109.409L32.7532 132.824C32.7532 132.824 4.58647 140.465 1.66537 133.058C-1.25573 125.65 15.3154 98.1418 24.8704 90.2943C34.4253 82.4469 30.8354 94.807 30.5419 95.8003C29.252 100.192 23.246 111.644 23.246 111.644L28.2214 109.409Z" fill="#00A8E8"/>
<path d="M32.7533 132.795C32.7533 132.795 4.58658 140.437 1.66548 133.03C0.0957298 129.042 4.16343 119.243 9.73945 109.814L9.82817 109.665L9.9442 109.473C9.97832 109.409 10.0193 109.345 10.0602 109.282C12.074 105.907 14.2517 102.641 16.5849 99.497L16.8238 99.1777C19.174 95.9055 21.8684 92.9164 24.8568 90.266C34.4118 82.4185 30.8219 94.7786 30.5284 95.772C30.4397 96.0842 30.3236 96.4318 30.1871 96.8079C30.1325 96.9498 30.0779 97.1059 30.0165 97.262C29.2316 99.348 27.969 102.158 26.6927 104.74L26.5426 105.053C26.5426 105.053 26.5426 105.124 26.4948 105.152L26.4129 105.315C24.7954 108.629 23.328 111.438 23.2393 111.609L28.2215 109.409L32.7533 132.795Z" fill="#00A8E8"/>
<path d="M26.6926 104.74L26.5424 105.053C26.5424 105.053 26.5424 105.124 26.4947 105.152L26.1534 105.379L23.3756 107.259C21.7454 108.375 20.0417 109.371 18.2774 110.239C17.3841 110.668 16.4479 110.991 15.4859 111.204C14.5121 111.44 13.496 111.408 12.5375 111.112C12.2987 111.041 12.053 110.984 11.855 110.906L11.1725 110.601C10.7189 110.4 10.2808 110.163 9.86214 109.892L9.75977 109.828L9.84849 109.679L9.96451 109.487C9.99525 109.518 10.0297 109.544 10.0669 109.565L10.1624 109.622C10.5303 109.874 10.9185 110.092 11.3227 110.275L12.0052 110.573L12.6877 110.779C13.5957 111.066 14.5601 111.103 15.4859 110.885C16.4256 110.682 17.341 110.373 18.2159 109.963C19.9683 109.115 21.6626 108.143 23.2869 107.054L25.505 105.578L26.0852 105.187L26.6926 104.74ZM26.0101 105.173C22.5089 106.06 19.0759 107.188 15.5815 108.075C13.7524 108.551 11.896 108.969 10.0328 109.281C9.99181 109.345 9.95087 109.409 9.91674 109.473L9.80072 109.665L10.1147 109.608C11.9779 109.281 13.8275 108.849 15.6566 108.366C18.9394 107.508 22.1608 106.443 25.43 105.564L26.1125 105.379C26.1944 105.379 26.2831 105.329 26.3718 105.315L26.4537 105.152C26.4537 105.152 26.4537 105.088 26.5015 105.053L26.0101 105.173ZM26.2353 99.277C25.3858 99.753 24.4974 100.15 23.5804 100.462C22.6813 100.781 21.7293 100.906 20.7821 100.831C19.345 100.621 17.9778 100.054 16.7963 99.1777L16.5575 99.497C17.8003 100.404 19.2356 100.986 20.7412 101.193C21.7385 101.268 22.74 101.128 23.6828 100.781C24.6278 100.462 25.5419 100.051 26.4128 99.5538C27.653 98.8542 28.858 98.0893 30.0232 97.262C30.0846 97.1059 30.1392 96.9498 30.1938 96.8079C28.9256 97.7014 27.6134 98.5255 26.2626 99.277H26.2353Z" fill="white"/>
<path d="M27.7369 109.431C24.5019 110.608 16.0252 115.008 14.162 116.81C14.154 116.821 14.1496 116.834 14.1494 116.847C14.1492 116.861 14.1532 116.874 14.1609 116.886C14.1685 116.897 14.1794 116.905 14.1918 116.909C14.2043 116.913 14.2178 116.913 14.2303 116.909C16.0594 115.568 26.5153 110.239 28.1737 109.587C28.1737 109.587 28.2556 109.792 28.2898 109.849C28.3239 109.906 28.3853 109.885 28.3853 109.807C28.3563 109.615 28.3153 109.425 28.2625 109.239L27.7369 109.431Z" fill="#263238"/>
<path d="M25.3277 122.514C25.0205 120.882 23.8467 114.341 23.676 112.694C23.676 112.694 23.676 112.659 23.717 112.694C24.1811 114.227 25.5188 120.648 25.8327 122.28C26.5271 125.526 27.0489 128.809 27.3956 132.114C27.3956 132.171 27.3137 132.207 27.2933 132.114C26.4674 128.978 25.9283 125.729 25.3277 122.514Z" fill="#263238"/>
<path d="M23.014 111.729C23.8944 109.736 24.9728 107.841 25.9419 105.897C26.9111 103.953 27.9144 102.023 28.8153 100.058H28.8562C28.3102 101.399 27.7642 102.74 27.1773 104.059C27.3547 103.854 27.5185 103.634 27.6823 103.414C27.9826 103.016 28.2556 102.598 28.5286 102.179C28.5286 102.179 28.5764 102.179 28.5696 102.179C28.3571 102.649 28.0938 103.091 27.7847 103.499C27.5562 103.805 27.3052 104.092 27.0339 104.357C26.7951 104.897 26.5425 105.436 26.2832 105.968C25.4428 107.949 24.4595 109.86 23.3416 111.687C23.3007 111.822 22.9799 111.822 23.014 111.729Z" fill="#263238"/>
<path d="M13.6638 136.095C16.9876 136.052 29.5388 133.491 32.6441 132.824C32.6032 132.483 32.6441 132.363 32.5622 131.88C32.5622 131.816 32.6509 131.788 32.6646 131.88C32.7465 132.341 33.0468 133.257 32.9239 133.299C31.4293 133.909 16.9262 136.542 13.6638 136.258C13.6535 136.258 13.6433 136.256 13.6338 136.252C13.6243 136.248 13.6156 136.242 13.6083 136.234C13.601 136.226 13.5952 136.217 13.5913 136.208C13.5874 136.198 13.5853 136.187 13.5853 136.176C13.5853 136.166 13.5874 136.155 13.5913 136.145C13.5952 136.135 13.601 136.126 13.6083 136.119C13.6156 136.111 13.6243 136.105 13.6338 136.101C13.6433 136.097 13.6535 136.095 13.6638 136.095Z" fill="#263238"/>
<path d="M47.4611 133.732L70.8298 137.003L79.6955 103.237L56.3267 99.9727L47.4611 133.732Z" fill="#263238"/>
<path d="M48.6144 133.888L71.9763 137.159L80.842 103.399L57.4801 100.128L48.6144 133.888Z" fill="#37474F"/>
<path d="M67.9907 117.569C67.8448 118.2 67.4815 118.753 66.9697 119.124C66.4578 119.496 65.8329 119.659 65.213 119.584C64.9205 119.552 64.6382 119.455 64.3851 119.299C64.1321 119.143 63.9143 118.932 63.7465 118.681C63.5788 118.43 63.4651 118.144 63.4131 117.843C63.3611 117.543 63.3721 117.234 63.4453 116.937C63.5912 116.306 63.9542 115.752 64.4658 115.379C64.9774 115.007 65.6024 114.842 66.2231 114.915C66.5163 114.947 66.7993 115.045 67.053 115.201C67.3066 115.357 67.5248 115.568 67.6927 115.82C67.8605 116.072 67.974 116.359 68.0255 116.661C68.0769 116.963 68.0651 117.272 67.9907 117.569Z" fill="white"/>
<path d="M80.6102 110.36C81.5861 113.198 84.3707 116.895 84.4117 119.137C84.4394 119.689 84.2959 120.236 84.0022 120.697C83.7086 121.158 83.2803 121.509 82.7805 121.698C82.7805 121.698 84.828 123.025 84.5072 125.062C84.3639 126.112 82.6167 126.793 82.6167 126.793C83.0584 127.118 83.405 127.564 83.6182 128.081C83.8314 128.598 83.9029 129.167 83.8247 129.723C83.5381 131.142 81.8318 131.618 81.8318 131.618C81.8318 131.618 82.8556 133.441 82.1117 134.804C80.5965 137.564 68.5777 136.294 67.1717 131.49C66.4892 129.255 69.4308 129.73 69.4308 129.73C69.4308 129.73 65.3904 127.992 65.5815 125.409C65.7726 122.827 69.5264 123.678 69.5264 123.678C69.5264 123.678 65.6293 121.961 66.1139 119.3C66.5984 116.639 70.2089 118.059 70.2089 118.059C70.2089 118.059 67.7177 115.93 68.5163 113.943C69.8335 110.715 74.4881 115.44 77.1908 115.064L79.095 110.686L80.6102 110.36Z" fill="#F7A9A0"/>
<path d="M82.6372 114.567C81.9547 111.793 85.4491 108.827 85.1488 106.053C84.7461 102.328 80.4532 105.485 79.0609 110.679L78.6582 114.936L82.6372 114.567Z" fill="#F7A9A0"/>
<path d="M81.5792 131.731C81.5883 131.731 81.597 131.735 81.6034 131.742C81.6098 131.748 81.6134 131.757 81.6134 131.767C81.6134 131.776 81.6098 131.785 81.6034 131.792C81.597 131.798 81.5883 131.802 81.5792 131.802C77.3762 132.417 73.0928 131.692 69.2942 129.723C69.1714 129.659 69.226 129.425 69.3693 129.475C73.3124 130.839 77.4255 131.599 81.5792 131.731Z" fill="#263238"/>
<path d="M82.6712 126.821C82.719 126.821 82.719 126.906 82.6712 126.913C78.0232 127.555 73.3078 126.447 69.3761 123.791C69.2396 123.692 69.2123 123.465 69.3761 123.564C72.1266 125.211 78.7674 126.757 82.6712 126.821Z" fill="#263238"/>
<path d="M69.9495 117.76C73.8193 120.322 78.0849 121.308 82.6099 121.727C82.6645 121.727 82.6577 121.819 82.6099 121.826C80.344 122.266 77.4843 121.705 75.3003 121.074C73.2554 120.53 71.3842 119.436 69.8745 117.902C69.8062 117.839 69.8676 117.704 69.9495 117.76Z" fill="#263238"/>
<path d="M40.9842 89.9894C41.0661 92.118 41.1275 96.9499 37.9743 96.588C36.707 96.3263 35.5389 95.6908 34.6096 94.7574C33.6149 93.899 32.7153 92.928 31.9274 91.8625C31.0236 90.705 30.211 89.4735 29.4977 88.1801C29.4977 88.1304 29.3885 88.1801 29.4226 88.2368C30.1461 89.5353 30.7467 90.8763 31.593 92.1038C32.3921 93.2935 33.3426 94.3652 34.4185 95.2896C35.429 96.2655 36.7038 96.8947 38.0699 97.0918C38.6558 97.1348 39.2379 96.9652 39.717 96.612C40.1961 96.2588 40.5427 95.7438 40.6975 95.1548C41.1636 93.477 41.2615 91.7118 40.9842 89.9894Z" fill="#263238"/>
<path d="M37.8788 94.4524C35.5992 94.6582 31.8728 90.1952 30.7808 87.1655C31.0671 85.5867 31.4293 84.0238 31.8659 82.4826C32.214 80.9855 32.5484 79.3039 32.7941 77.75L41.8441 81.546C41.0362 83.4117 40.4494 85.3726 40.0969 87.3855C40.0767 87.6002 40.0767 87.8164 40.0969 88.0312C40.0969 88.0312 40.0969 88.1021 40.0969 88.1376C40.1174 89.3793 40.0764 94.2538 37.8788 94.4524Z" fill="#F7A9A0"/>
<path d="M40.0697 88.0311C40.0732 88.0665 40.0732 88.1021 40.0697 88.1375C39.745 88.1353 39.421 88.1068 39.1006 88.0524C33.6815 87.0945 33.3744 79.9921 33.4017 78.0125L35.6676 78.9561L41.8101 81.5459C41.0024 83.4111 40.4179 85.3722 40.0697 87.3854C40.0499 87.6001 40.0499 87.8163 40.0697 88.0311Z" fill="#263238"/>
<path d="M31.7568 67.107C30.8149 70.6546 32.8351 80.6803 35.2785 82.8657C38.8275 86.0444 44.5059 86.2076 47.0721 81.8014C49.5564 77.5442 46.7035 64.4817 43.9803 62.5092C39.9741 59.593 33.1423 61.899 31.7568 67.107Z" fill="#F7A9A0"/>
<path d="M41.2912 73.4502C41.2912 73.4502 41.2503 73.4928 41.2912 73.5211C41.4414 74.1952 41.5096 74.997 40.9636 75.3446C40.9636 75.3446 40.9636 75.3872 40.9636 75.3801C41.6393 75.1247 41.5437 74.0675 41.2912 73.4502Z" fill="#263238"/>
<path d="M40.5748 72.8683C39.5101 73.0102 39.8923 75.2097 40.841 75.082C41.7896 74.9543 41.4825 72.7547 40.5748 72.8683Z" fill="#263238"/>
<path d="M44.9972 72.7051C44.9972 72.7051 45.0586 72.7051 45.0586 72.7618C45.1473 73.4714 45.3589 74.2164 45.9868 74.3441V74.3796C45.2429 74.3796 44.9767 73.3578 44.9972 72.7051Z" fill="#263238"/>
<path d="M45.4751 71.882C46.5194 71.6194 46.9493 73.8048 45.9802 74.0106C45.011 74.2163 44.6015 72.1019 45.4751 71.882Z" fill="#263238"/>
<path d="M39.5783 71.9954C39.8447 71.867 40.1023 71.7201 40.3496 71.5555C40.6358 71.44 40.8763 71.2275 41.0321 70.9524C41.0672 70.8542 41.0702 70.7468 41.0406 70.6467C41.0109 70.5467 40.9504 70.4595 40.8683 70.3989C40.6894 70.3041 40.4895 70.2606 40.2891 70.2731C40.0887 70.2856 39.8951 70.3535 39.7285 70.4699C39.3583 70.652 39.0664 70.9706 38.9095 71.3639C38.8744 71.4587 38.8677 71.5623 38.8903 71.6611C38.9129 71.76 38.9637 71.8494 39.036 71.9177C39.1083 71.9859 39.1988 72.0299 39.2956 72.0438C39.3924 72.0576 39.4909 72.0408 39.5783 71.9954Z" fill="#263238"/>
<path d="M46.1575 71.2076C45.8572 71.2076 45.5774 71.1508 45.2771 71.1224C44.9639 71.1374 44.6546 71.0452 44.3967 70.8599C44.3281 70.7839 44.285 70.6868 44.274 70.5832C44.2629 70.4796 44.2844 70.375 44.3352 70.2852C44.4631 70.1248 44.6298 70.0027 44.8181 69.9316C45.0065 69.8605 45.2097 69.843 45.4068 69.8808C45.8183 69.8923 46.2107 70.0646 46.5056 70.3632C46.5687 70.4347 46.6106 70.5236 46.6263 70.6192C46.642 70.7149 46.6308 70.8132 46.594 70.9023C46.5572 70.9915 46.4965 71.0678 46.4191 71.1219C46.3416 71.176 46.2508 71.2058 46.1575 71.2076Z" fill="#263238"/>
<path d="M41.3868 79.8359C41.5539 80.0101 41.7728 80.1201 42.0079 80.1481C42.2529 80.0991 42.4853 79.9976 42.6904 79.85C42.6904 79.85 42.7382 79.85 42.6904 79.8855C42.6163 80.035 42.5051 80.1612 42.3683 80.2511C42.2315 80.3409 42.0741 80.391 41.9124 80.3964C41.7736 80.3809 41.6422 80.3237 41.5343 80.2317C41.4264 80.1396 41.3467 80.0169 41.3049 79.8784C41.3186 79.8429 41.3664 79.8004 41.3868 79.8359Z" fill="#263238"/>
<path d="M41.7553 77.5158C41.9656 77.757 42.2214 77.9508 42.5066 78.085C42.7919 78.2193 43.1007 78.2912 43.4138 78.2963C43.6876 78.3018 43.9609 78.2684 44.226 78.197L44.3761 78.1544L44.5126 78.1047C44.5473 78.0922 44.577 78.0679 44.5968 78.0357C44.6166 78.0035 44.6254 77.9654 44.6218 77.9273C44.6258 77.9039 44.6258 77.8799 44.6218 77.8564V77.7996C44.5536 77.2675 44.3761 76.4799 44.3761 76.4799C44.5741 76.5438 45.591 76.8276 45.5296 76.5508C45.0997 74.1927 44.4388 71.8865 43.5571 69.6684C43.5529 69.6558 43.5451 69.645 43.5347 69.6373C43.5243 69.6296 43.5119 69.6255 43.4991 69.6255C43.4864 69.6255 43.4739 69.6296 43.4635 69.6373C43.4531 69.645 43.4453 69.6558 43.4411 69.6684C43.8233 71.8537 44.5809 73.9256 45.004 76.1322C44.6421 76.0269 44.2674 75.9767 43.8916 75.9832C43.8233 75.9832 44.2601 77.5016 44.2669 77.7429C43.8597 77.8559 43.4348 77.8828 43.0175 77.8218C42.6001 77.7609 42.1987 77.6134 41.8372 77.3881C41.7553 77.4094 41.7076 77.4661 41.7553 77.5158Z" fill="#263238"/>
<path d="M43.9258 78.0692C43.708 78.4821 43.3934 78.8311 43.0112 79.0839C42.8048 79.2088 42.5669 79.2657 42.3287 79.247C41.7896 79.1974 41.7008 78.7078 41.7281 78.2679C41.7425 78.0266 41.7861 77.7883 41.8578 77.5583C42.4783 77.9504 43.2019 78.1292 43.9258 78.0692Z" fill="#263238"/>
<path d="M43.0112 79.0907C42.8048 79.2156 42.5669 79.2725 42.3287 79.2539C41.7896 79.2043 41.7008 78.7147 41.7281 78.2748C41.9987 78.2438 42.2716 78.3071 42.5038 78.4548C42.7361 78.6024 42.9146 78.8262 43.0112 79.0907Z" fill="#FF9ABB"/>
<path d="M45.8368 65.4393C45.2908 64.6517 44.6902 63.8642 44.1442 63.8003C43.5982 63.7364 43.5368 65.0988 42.4038 65.4393C40.8682 65.8934 39.8103 64.5808 37.6263 64.9072C34.4527 65.3826 33.6405 68.4052 34.521 73.0242C35.3058 77.1537 32.999 78.0761 32.999 78.0761C32.999 78.0761 29.6684 69.3276 31.5043 65.7728C33.3402 62.218 38.7115 59.6282 43.1068 61.6504C44.6697 62.3812 45.8368 65.4393 45.8368 65.4393Z" fill="#263238"/>
<path d="M34.6029 75.7845C34.6029 75.7845 32.2619 72.627 30.8764 73.5069C29.491 74.3867 31.3405 79.0412 33.0468 79.6088C33.2596 79.6979 33.4875 79.7411 33.7168 79.7357C33.9462 79.7304 34.172 79.6766 34.3808 79.5778C34.5895 79.4789 34.7767 79.337 34.931 79.1606C35.0854 78.9842 35.2036 78.777 35.2786 78.5516L34.6029 75.7845Z" fill="#F7A9A0"/>
<path d="M31.436 74.8335C31.436 74.8335 31.436 74.8335 31.436 74.8832C31.9851 75.1368 32.477 75.5071 32.8802 75.9703C33.2833 76.4334 33.5888 76.9791 33.777 77.5723C33.7032 77.4534 33.6054 77.3525 33.4905 77.2766C33.3756 77.2007 33.2462 77.1517 33.1113 77.1328C32.9763 77.1139 32.8391 77.1256 32.7089 77.1672C32.5788 77.2088 32.4589 77.2792 32.3574 77.3736C32.3574 77.3736 32.3574 77.4446 32.3915 77.4375C32.5949 77.358 32.8171 77.346 33.0273 77.4032C33.2375 77.4604 33.4255 77.5839 33.5654 77.7568C33.7914 78.0513 33.9902 78.3672 34.1592 78.7005C34.2138 78.8069 34.4049 78.743 34.3571 78.6153C34.3094 77.026 33.0536 74.9044 31.436 74.8335Z" fill="#263238"/>
<path d="M39.9194 60.4018C38.588 60.0071 37.2089 59.8135 35.8244 59.8271C34.2615 59.8768 29.5045 61.0475 28.5012 62.2395C27.498 63.4315 27.9074 68.1996 27.9825 68.8949C28.0576 69.5903 28.979 73.7127 30.5897 74.4861C32.2004 75.2594 31.2722 68.1428 33.2036 65.4182C35.1351 62.6936 39.9194 60.4018 39.9194 60.4018Z" fill="#00A8E8"/>
<path opacity="0.1" d="M39.9195 60.4086C39.9195 60.4086 35.142 62.6933 33.1696 65.4179C31.1972 68.1425 32.1595 75.2521 30.5625 74.4858C30.1902 74.2723 29.8622 73.9844 29.5975 73.6385C29.3328 73.2927 29.1365 72.8958 29.02 72.4707C29.02 70.3421 29.3271 67.0073 30.6512 64.5097C31.8933 62.1754 34.4118 60.6782 37.2237 59.8765C38.1354 59.9723 39.0374 60.1503 39.9195 60.4086Z" fill="black"/>
<path d="M31.5862 78.6296C31.4292 76.721 32.5144 71.3569 34.0159 68.1427C35.5174 64.9285 40.9569 62.3103 41.7555 62.2252C43.7074 62.0265 44.2807 62.9347 44.5605 62.6864C44.8403 62.438 42.5608 60.4868 41.9602 60.2385C41.0643 59.9384 40.1151 59.8511 39.1824 59.983C38.343 60.1391 33.2447 61.5227 31.7091 64.1267C30.1734 66.7307 28.515 73.6061 29.1975 75.1742C29.3749 75.5502 29.88 75.7205 30.1598 76.2598C30.4874 76.9693 30.7604 77.7853 31.0539 78.2677C31.3473 78.7502 31.5999 78.7928 31.5862 78.6296Z" fill="#00A8E8"/>
<path d="M34.2616 66.7733C33.7881 66.5608 33.3316 66.3093 32.8966 66.0212C32.4392 65.7356 32.0174 65.3925 31.6408 64.9995C31.6408 64.9995 31.5657 64.9995 31.593 65.0421C31.9239 65.4974 32.3225 65.895 32.7737 66.2199C33.2271 66.5351 33.7345 66.7568 34.2684 66.8727C34.2811 66.8717 34.2929 66.8656 34.3012 66.8556C34.3095 66.8456 34.3137 66.8326 34.3128 66.8195C34.3119 66.8063 34.306 66.794 34.2964 66.7854C34.2868 66.7767 34.2743 66.7724 34.2616 66.7733Z" fill="#263238"/>
<path d="M31.2859 76.7424C31.2108 76.6147 31.1084 76.5083 31.0265 76.3877C30.9299 76.2517 30.8497 76.104 30.7877 75.9477C30.703 75.6421 30.5863 75.347 30.4396 75.0679C30.2881 74.8609 30.1141 74.6727 29.9209 74.5074C29.6894 74.3335 29.5211 74.0835 29.4432 73.7979H29.3885C29.4704 74.3726 29.9004 74.7203 30.2144 75.1602C30.374 75.4614 30.5065 75.7773 30.6102 76.1038C30.7311 76.4018 30.9419 76.6509 31.2108 76.8134C31.2449 76.8347 31.3064 76.7921 31.2859 76.7424Z" fill="#263238"/>
<path d="M31.5998 74.5995C31.395 74.4151 31.1835 74.2519 30.9924 74.0461C30.8013 73.8403 30.6511 73.6204 30.4941 73.4004C30.3372 73.1805 30.2143 72.9463 30.0642 72.6909C29.914 72.4354 29.6888 72.1871 29.525 71.9104C29.525 71.9104 29.4567 71.9104 29.4772 71.953C29.6478 72.2297 29.7639 72.549 29.9208 72.8328C30.0615 73.0789 30.2165 73.3159 30.3849 73.5423C30.5442 73.7621 30.7224 73.9664 30.9173 74.1525C31.1124 74.3476 31.345 74.4975 31.5998 74.5924C31.5998 74.5924 31.6134 74.6137 31.5998 74.5995Z" fill="#263238"/>
<path d="M31.982 72.6483C31.5494 72.3768 31.1583 72.0396 30.8217 71.6478C30.4941 71.2647 30.1802 70.8602 29.8799 70.4558C29.8799 70.4558 29.8116 70.4558 29.8321 70.4558C30.0553 70.9363 30.3375 71.3847 30.6716 71.7897C30.8339 71.9882 31.0196 72.1646 31.2244 72.3148C31.4461 72.468 31.6815 72.5987 31.9274 72.705C31.9274 72.705 32.0161 72.705 31.982 72.6483Z" fill="#263238"/>
<path d="M32.4324 70.7611C32.2235 70.6575 32.0358 70.513 31.8796 70.3354C31.6885 70.1509 31.5042 69.9593 31.3268 69.7606C31.1493 69.5691 30.9719 69.3917 30.8013 69.2001C30.6169 69.0205 30.4705 68.8031 30.3713 68.5615C30.3713 68.5615 30.3099 68.5615 30.3167 68.5615C30.3703 68.8203 30.48 69.063 30.6375 69.2711C30.7896 69.5232 30.9632 69.7607 31.1562 69.9806C31.347 70.185 31.5499 70.377 31.7636 70.5553C31.9441 70.7268 32.17 70.838 32.412 70.8746C32.4191 70.876 32.4265 70.8759 32.4336 70.8744C32.4408 70.8728 32.4476 70.8698 32.4536 70.8655C32.4596 70.8612 32.4647 70.8557 32.4687 70.8494C32.4727 70.843 32.4755 70.8359 32.4768 70.8285C32.4781 70.821 32.4781 70.8134 32.4766 70.8059C32.4751 70.7985 32.4722 70.7915 32.468 70.7852C32.4639 70.779 32.4587 70.7736 32.4526 70.7695C32.4464 70.7653 32.4396 70.7625 32.4324 70.7611Z" fill="#263238"/>
<path d="M32.6099 68.4478C32.4097 68.3059 32.2186 68.1569 32.0366 68.0008C31.8591 67.8376 31.6817 67.6744 31.5111 67.5041C31.3404 67.3338 31.1425 67.1493 30.9719 66.9578C30.9719 66.9578 30.9036 66.9578 30.9241 66.9932C31.0541 67.2167 31.2025 67.428 31.3677 67.6247C31.5308 67.8168 31.7064 67.997 31.8933 68.164C32.0784 68.3317 32.2745 68.4858 32.4802 68.6252C32.6822 68.7857 32.9149 68.8994 33.1627 68.9587C33.1683 68.9548 33.173 68.9495 33.1762 68.9433C33.1794 68.9371 33.181 68.9302 33.181 68.9232C33.181 68.9162 33.1794 68.9092 33.1762 68.903C33.173 68.8969 33.1683 68.8916 33.1627 68.8877C32.9919 68.7236 32.8068 68.5764 32.6099 68.4478Z" fill="#263238"/>
<path d="M35.4969 65.4676C35.2785 65.2689 35.0669 65.0703 34.8144 64.8858C34.5619 64.7013 34.3298 64.5381 34.0705 64.382C33.5806 64.0694 33.0587 63.8147 32.5144 63.6228C32.5144 63.6228 32.4529 63.6583 32.5144 63.6796C33.4835 64.304 34.4868 64.8858 35.4559 65.5244C35.4632 65.53 35.4723 65.5324 35.4812 65.5311C35.4902 65.5298 35.4983 65.5248 35.5037 65.5173C35.5091 65.5097 35.5115 65.5003 35.5102 65.491C35.5089 65.4816 35.5041 65.4732 35.4969 65.4676Z" fill="#263238"/>
<path d="M36.35 63.6726C36.1392 63.4815 35.9106 63.3128 35.6675 63.1689C35.129 62.8869 34.5611 62.6703 33.9749 62.5232C33.934 62.5232 33.9135 62.5658 33.9749 62.58C34.5004 62.8283 35.026 63.0695 35.531 63.3463C35.7767 63.4882 36.0292 63.6301 36.2613 63.7933C36.4933 63.9565 36.6913 64.1764 36.9438 64.3538C36.7926 64.087 36.5906 63.8552 36.35 63.6726Z" fill="#263238"/>
<path d="M37.7491 62.6865C37.5402 62.4909 37.3113 62.3196 37.0666 62.1756C36.62 61.8938 36.1308 61.6923 35.6197 61.5796C35.6197 61.5796 35.572 61.6293 35.6197 61.6435C36.0945 61.8365 36.5513 62.074 36.9847 62.353C37.2031 62.4949 37.4215 62.651 37.6672 62.8071C37.9129 62.9632 38.0836 63.1619 38.3088 63.2896C38.1411 63.0705 37.9537 62.8686 37.7491 62.6865Z" fill="#263238"/>
<path d="M38.6978 61.5653C38.4862 61.4376 38.261 61.317 38.0153 61.2035C37.8019 61.0789 37.5719 60.9881 37.3328 60.9338V60.9977L38.5749 61.7569C38.9406 62.0202 39.2791 62.3222 39.585 62.658C39.585 62.658 39.626 62.658 39.585 62.658C39.4023 62.2089 39.0929 61.828 38.6978 61.5653Z" fill="#263238"/>
<path d="M40.0151 61.0403C39.6113 60.7584 39.1597 60.5585 38.6842 60.4514C38.6501 60.4514 38.6365 60.5011 38.6842 60.5153C39.1289 60.6839 39.5456 60.9233 39.9196 61.2248C40.2986 61.511 40.6464 61.8393 40.957 62.204C40.957 62.204 41.0047 62.204 40.9911 62.204C40.7618 61.7392 40.4267 61.3398 40.0151 61.0403Z" fill="#263238"/>
<path d="M43.0385 61.5155C42.9131 61.3852 42.7809 61.262 42.6427 61.1466C42.5042 61.0321 42.3583 60.9278 42.2059 60.8344C42.0489 60.735 41.8919 60.6428 41.7418 60.5364C41.7418 60.5364 41.6735 60.5719 41.7418 60.5931C41.9015 60.6896 42.0523 60.8013 42.1922 60.9266L42.5881 61.2672L42.9907 61.6078C43.1172 61.7353 43.2517 61.8538 43.3934 61.9625C43.2919 61.8 43.1728 61.65 43.0385 61.5155Z" fill="#263238"/>
<path d="M84.7733 48.0913C84.4889 50.9345 83.4499 53.6395 81.7723 55.9042C80.0947 58.1689 77.8445 59.9042 75.273 60.9163C72.7016 61.9283 69.9101 62.1773 67.2104 61.6354C64.5107 61.0935 62.0091 59.782 59.9849 57.8474L52.5593 58.9827L56.2721 52.313C55.4214 50.1431 55.0574 47.8001 55.2078 45.4621C55.3582 43.124 56.019 40.8523 57.14 38.8194C58.261 36.7865 59.8128 35.0459 61.6776 33.7296C63.5423 32.4133 65.671 31.556 67.9021 31.2227C70.1332 30.8895 72.408 31.089 74.5538 31.8063C76.6996 32.5235 78.66 33.7395 80.2862 35.3621C81.9125 36.9846 83.1617 38.971 83.9392 41.1705C84.7167 43.37 85.0019 45.7247 84.7733 48.0558V48.0913Z" fill="white"/>
<path d="M84.7732 48.0913C84.484 50.9299 83.4473 53.6305 81.7771 55.8961C80.9606 57.0406 79.98 58.048 78.8696 58.8833C77.7764 59.748 76.5698 60.4457 75.2865 60.9551C74.0061 61.4763 72.6625 61.8106 71.2939 61.9485C70.6129 62.0081 69.929 62.0224 69.2464 61.991C68.5594 61.9681 67.875 61.8922 67.1989 61.764C64.4636 61.2425 61.9227 59.9376 59.862 57.9964L60.0326 58.0531L52.6002 59.2239L52.061 59.309L52.334 58.8194L56.0264 52.1285V52.3981C55.1531 50.1878 54.7796 47.7986 54.9346 45.4146C55.0896 43.0306 55.769 40.7154 56.9204 38.6474C58.077 36.5904 59.6659 34.8319 61.5682 33.5032C63.9361 31.8811 66.6974 30.9892 69.5325 30.9308C72.3677 30.8724 75.1608 31.6498 77.5886 33.1731C80.0164 34.6964 81.9797 36.9033 83.2511 39.5384C84.5226 42.1734 85.0503 45.129 84.7732 48.0629V48.0913ZM84.7732 48.0913C85.0102 45.7684 84.7311 43.42 83.9575 41.227C83.1839 39.034 81.9365 37.0548 80.3112 35.4419C78.686 33.829 76.7263 32.6255 74.5831 31.9241C72.44 31.2226 70.1705 31.0419 67.9496 31.3959C65.7444 31.7385 63.6435 32.6 61.8071 33.9148C59.9928 35.2398 58.4768 36.9587 57.3641 38.9525C56.2728 40.9512 55.6289 43.18 55.4804 45.4731C55.3462 47.7679 55.7028 50.0651 56.5246 52.1995L56.5792 52.3343L56.5109 52.462L52.7708 59.1174L52.5115 58.713L59.9371 57.6274H60.0395L60.1145 57.6984C62.0965 59.6284 64.5569 60.9454 67.2194 61.5015C67.8939 61.6452 68.5787 61.7306 69.2668 61.7569C69.9485 61.8076 70.6327 61.8076 71.3143 61.7569C72.6703 61.6473 74.0049 61.3416 75.2797 60.8487C76.5609 60.3674 77.7662 59.6907 78.856 58.8407C79.4066 58.4244 79.9309 57.9717 80.4257 57.4855C80.9113 56.9825 81.3671 56.4493 81.7907 55.889C83.4555 53.6243 84.4875 50.9261 84.7732 48.0913Z" fill="#263238"/>
<path d="M68.2772 55.2859L61.9436 48.6163L64.073 46.4309L67.7722 50.3263L75.4639 37.7888L77.9892 39.4633L68.2772 55.2859Z" fill="#00A8E8"/>
</svg>
