<svg width="44" height="44" viewBox="0 0 44 44" fill="none" xmlns="http://www.w3.org/2000/svg">
<rect width="44" height="44" rx="8" fill="#00435D"/>
<path d="M21.4961 30.3334H18.4961C17.0294 30.3334 15.8294 31.5334 15.8294 33V33.3334H14.4961C13.9494 33.3334 13.4961 33.7867 13.4961 34.3334C13.4961 34.88 13.9494 35.3334 14.4961 35.3334H30.4961C31.0428 35.3334 31.4961 34.88 31.4961 34.3334C31.4961 33.7867 31.0428 33.3334 30.4961 33.3334H29.1628V33C29.1628 31.5334 27.9628 30.3334 26.4961 30.3334H23.4961V27.28C23.1628 27.32 22.8294 27.3334 22.4961 27.3334C22.1628 27.3334 21.8294 27.32 21.4961 27.28V30.3334Z" fill="#FFDD00"/>
<path d="M31.143 21.52C32.023 21.1867 32.7963 20.64 33.4096 20.0267C34.6496 18.6533 35.463 17.0133 35.463 15.0933C35.463 13.1733 33.9563 11.6667 32.0363 11.6667H31.2896C30.423 9.89334 28.6096 8.66667 26.503 8.66667H18.503C16.3963 8.66667 14.583 9.89334 13.7163 11.6667H12.9696C11.0496 11.6667 9.54297 13.1733 9.54297 15.0933C9.54297 17.0133 10.3563 18.6533 11.5963 20.0267C12.2096 20.64 12.983 21.1867 13.863 21.52C15.2496 24.9333 18.583 27.3333 22.503 27.3333C26.423 27.3333 29.7563 24.9333 31.143 21.52ZM26.2896 17.2667L25.463 18.28C25.3296 18.4267 25.2363 18.72 25.2496 18.92L25.3296 20.2267C25.383 21.0267 24.8096 21.44 24.063 21.1467L22.8496 20.6667C22.663 20.6 22.343 20.6 22.1563 20.6667L20.943 21.1467C20.1963 21.44 19.623 21.0267 19.6763 20.2267L19.7563 18.92C19.7696 18.72 19.6763 18.4267 19.543 18.28L18.7163 17.2667C18.1963 16.6533 18.423 15.9733 19.1963 15.7733L20.463 15.4533C20.663 15.4 20.903 15.2133 21.0096 15.04L21.7163 13.9467C22.1563 13.2667 22.8496 13.2667 23.2896 13.9467L23.9963 15.04C24.103 15.2133 24.343 15.4 24.543 15.4533L25.8096 15.7733C26.583 15.9733 26.8096 16.6533 26.2896 17.2667Z" fill="#FFDD00"/>
</svg>
