<svg width="44" height="44" viewBox="0 0 44 44" fill="none" xmlns="http://www.w3.org/2000/svg">
<rect width="44" height="44" rx="8" fill="#00435D"/>
<path d="M21.4961 30.3332H18.4961C17.0294 30.3332 15.8294 31.5332 15.8294 32.9999V33.3332H14.4961C13.9494 33.3332 13.4961 33.7866 13.4961 34.3332C13.4961 34.8799 13.9494 35.3332 14.4961 35.3332H30.4961C31.0428 35.3332 31.4961 34.8799 31.4961 34.3332C31.4961 33.7866 31.0428 33.3332 30.4961 33.3332H29.1628V32.9999C29.1628 31.5332 27.9628 30.3332 26.4961 30.3332H23.4961V27.2799C23.1628 27.3199 22.8294 27.3332 22.4961 27.3332C22.1628 27.3332 21.8294 27.3199 21.4961 27.2799V30.3332Z" fill="#E2E2E2"/>
<path d="M31.143 21.5201C32.023 21.1867 32.7963 20.6401 33.4096 20.0267C34.6496 18.6534 35.463 17.0134 35.463 15.0934C35.463 13.1734 33.9563 11.6667 32.0363 11.6667H31.2896C30.423 9.89341 28.6096 8.66675 26.503 8.66675H18.503C16.3963 8.66675 14.583 9.89341 13.7163 11.6667H12.9696C11.0496 11.6667 9.54297 13.1734 9.54297 15.0934C9.54297 17.0134 10.3563 18.6534 11.5963 20.0267C12.2096 20.6401 12.983 21.1867 13.863 21.5201C15.2496 24.9334 18.583 27.3334 22.503 27.3334C26.423 27.3334 29.7563 24.9334 31.143 21.5201ZM26.2896 17.2667L25.463 18.2801C25.3296 18.4267 25.2363 18.7201 25.2496 18.9201L25.3296 20.2267C25.383 21.0267 24.8096 21.4401 24.063 21.1467L22.8496 20.6667C22.663 20.6001 22.343 20.6001 22.1563 20.6667L20.943 21.1467C20.1963 21.4401 19.623 21.0267 19.6763 20.2267L19.7563 18.9201C19.7696 18.7201 19.6763 18.4267 19.543 18.2801L18.7163 17.2667C18.1963 16.6534 18.423 15.9734 19.1963 15.7734L20.463 15.4534C20.663 15.4001 20.903 15.2134 21.0096 15.0401L21.7163 13.9467C22.1563 13.2667 22.8496 13.2667 23.2896 13.9467L23.9963 15.0401C24.103 15.2134 24.343 15.4001 24.543 15.4534L25.8096 15.7734C26.583 15.9734 26.8096 16.6534 26.2896 17.2667Z" fill="#E2E2E2"/>
</svg>
