<svg width="40" height="40" viewBox="0 0 40 40" fill="none" xmlns="http://www.w3.org/2000/svg">
<path d="M24.5 15V15.5H25H35C36.1935 15.5 37.3381 15.9741 38.182 16.818C39.0259 17.6619 39.5 18.8065 39.5 20C39.5 21.1935 39.0259 22.3381 38.182 23.182C37.3391 24.0249 36.1963 24.4988 35.0043 24.5L25.0089 24.3226L24.5 24.3135V24.8225V35C24.5 36.1935 24.0259 37.3381 23.182 38.182C22.3381 39.0259 21.1935 39.5 20 39.5C18.8065 39.5 17.6619 39.0259 16.818 38.182C15.9751 37.3391 15.5011 36.1962 15.5 35.0042L15.6774 24.8312L15.6865 24.3135L15.1688 24.3226L4.99577 24.5C3.80382 24.4989 2.66094 24.0249 1.81802 23.182C0.974106 22.3381 0.5 21.1935 0.5 20C0.5 18.8065 0.974106 17.6619 1.81802 16.818C2.66193 15.9741 3.80653 15.5 5 15.5H15.1775H15.6865L15.6774 14.9911L15.5 4.9957C15.5011 3.80378 15.9751 2.66092 16.818 1.81802C17.6619 0.974106 18.8065 0.5 20 0.5C21.1935 0.5 22.3381 0.974106 23.182 1.81802C24.0259 2.66193 24.5 3.80653 24.5 5V15Z" fill="#F7EEE7" stroke="#00222E"/>
</svg>
