<svg xmlns="http://www.w3.org/2000/svg" width="113" height="48" viewBox="0 0 113 48" fill="none">
  <path d="M113.001 9.76149C113.001 10.5996 112.943 11.4377 112.827 12.2759C111.18 12.3818 109.542 12.5553 107.914 12.7961C106.286 13.0273 104.658 13.2585 103.03 13.4897C103.281 14.1833 103.671 14.7373 104.201 15.1515C104.74 15.5658 105.381 15.7729 106.122 15.7729C106.508 15.7729 106.927 15.7006 107.38 15.5561C107.842 15.4116 108.3 15.2334 108.752 15.0215C109.205 14.7999 109.639 14.5639 110.053 14.3134C110.467 14.0629 110.824 13.8365 111.122 13.6342L110.429 20.1947C110.053 20.4837 109.644 20.7294 109.2 20.9317C108.767 21.134 108.314 21.2978 107.842 21.423C107.37 21.5483 106.893 21.6398 106.411 21.6976C105.93 21.7554 105.458 21.7843 104.995 21.7843C104.042 21.7843 103.17 21.6542 102.38 21.3941C101.59 21.134 100.872 20.7728 100.227 20.3103C99.5908 19.8383 99.0321 19.2844 98.5504 18.6485C98.0687 18.0127 97.6689 17.3191 97.351 16.5677C97.0331 15.8162 96.7922 15.0215 96.6285 14.1833C96.4647 13.3452 96.3828 12.4974 96.3828 11.6401C96.3828 10.7441 96.4647 9.84819 96.6285 8.95226C96.7922 8.05633 97.0379 7.19412 97.3654 6.36563C97.7026 5.53713 98.1217 4.77126 98.6226 4.068C99.1332 3.35511 99.7257 2.73374 100.4 2.20389C101.074 1.67404 101.835 1.25979 102.683 0.961149C103.541 0.662505 104.485 0.513184 105.516 0.513184C106.373 0.513184 107.153 0.633604 107.856 0.874446C108.569 1.10565 109.2 1.4332 109.75 1.85708C110.308 2.27133 110.79 2.76746 111.195 3.34548C111.609 3.9235 111.946 4.55932 112.206 5.25294C112.476 5.93693 112.673 6.66427 112.799 7.43496C112.933 8.19602 113.001 8.97153 113.001 9.76149ZM107.221 9.01007C107.221 8.74032 107.192 8.46576 107.134 8.18639C107.076 7.89738 106.98 7.63727 106.845 7.40606C106.72 7.17486 106.551 6.987 106.339 6.84249C106.127 6.68836 105.862 6.61129 105.544 6.61129C105.159 6.61129 104.817 6.71726 104.518 6.9292C104.229 7.1315 103.979 7.39161 103.767 7.70952C103.555 8.0178 103.382 8.35498 103.247 8.72106C103.112 9.08714 103.011 9.42431 102.943 9.73259L107.221 9.32798V9.01007Z" fill="#00A8E8"/>
  <path d="M96.1822 1.06201L96.0377 7.18902L91.7315 7.36242L91.2113 20.7725L85.1132 21.0904L84.5641 7.68033L80.2578 7.91154L80.4312 1.09091L96.1822 1.06201Z" fill="#00A8E8"/>
  <path d="M79.7115 10.3684C79.7115 11.2451 79.6103 12.0928 79.408 12.9117C79.2057 13.7209 78.9119 14.482 78.5266 15.1949C78.1508 15.9078 77.6884 16.5629 77.1393 17.1602C76.5998 17.7478 75.9881 18.2536 75.3041 18.6775C74.6297 19.1013 73.8928 19.4337 73.0932 19.6745C72.2936 19.9057 71.4458 20.0213 70.5499 20.0213C69.6829 20.0213 68.8544 19.9106 68.0644 19.689C67.2841 19.4674 66.5519 19.1591 65.8679 18.7642C65.1839 18.3595 64.5626 17.8779 64.0038 17.3191C63.4547 16.7507 62.9826 16.1245 62.5877 15.4405C62.2023 14.7469 61.8989 14.0051 61.6773 13.2152C61.4653 12.4252 61.3594 11.6015 61.3594 10.7441C61.3594 9.90601 61.4605 9.08715 61.6628 8.28756C61.8651 7.47833 62.1542 6.71727 62.5299 6.00438C62.9152 5.29149 63.3776 4.6364 63.9171 4.03911C64.4566 3.44183 65.0587 2.92643 65.7234 2.49291C66.3978 2.0594 67.1251 1.72222 67.9054 1.48138C68.6858 1.24054 69.5094 1.12012 70.3765 1.12012C71.7734 1.12012 73.045 1.33687 74.1914 1.77039C75.3474 2.2039 76.3301 2.82527 77.1393 3.6345C77.9582 4.43409 78.5892 5.40709 79.0323 6.5535C79.4851 7.69027 79.7115 8.96191 79.7115 10.3684ZM73.2955 10.7441C73.2955 10.3299 73.2329 9.93009 73.1076 9.54475C72.992 9.14977 72.8186 8.80296 72.5874 8.50431C72.3562 8.19604 72.0672 7.95038 71.7204 7.76734C71.3832 7.57467 70.993 7.47833 70.5499 7.47833C70.0971 7.47833 69.6925 7.56021 69.336 7.72399C68.9796 7.88776 68.6713 8.11415 68.4112 8.40316C68.1607 8.68254 67.9681 9.0149 67.8332 9.40024C67.6983 9.77596 67.6309 10.1758 67.6309 10.5996C67.6309 11.0042 67.6887 11.4089 67.8043 11.8135C67.9199 12.2181 68.0933 12.5842 68.3245 12.9117C68.5557 13.2393 68.8399 13.5042 69.1771 13.7065C69.5239 13.9088 69.9237 14.0099 70.3765 14.0099C70.8293 14.0099 71.2339 13.9232 71.5903 13.7498C71.9564 13.5668 72.2647 13.326 72.5151 13.0273C72.7656 12.719 72.9583 12.3674 73.0932 11.9724C73.228 11.5774 73.2955 11.168 73.2955 10.7441Z" fill="#00A8E8"/>
  <path d="M60.3659 11.6401C60.3659 13.0178 60.3226 14.3906 60.2359 15.7585C60.1492 17.1265 60.048 18.4993 59.9324 19.8769L52.5049 20.2237C52.7265 18.5475 52.9239 16.8712 53.0974 15.195C53.2804 13.5091 53.3719 11.8232 53.3719 10.1373C53.3719 10.0313 53.3671 9.84829 53.3575 9.58818C53.3478 9.31844 53.3286 9.01498 53.2997 8.6778C53.2804 8.34062 53.2467 7.99381 53.1985 7.63736C53.16 7.27129 53.1022 6.93892 53.0251 6.64028C52.9577 6.332 52.871 6.08153 52.765 5.88886C52.659 5.69618 52.5338 5.59985 52.3893 5.59985C52.0521 5.59985 51.7872 5.7299 51.5945 5.99001C51.4018 6.24048 51.2573 6.54394 51.161 6.90039C51.0743 7.25683 51.0213 7.62291 51.002 7.99863C50.9828 8.36471 50.9731 8.66335 50.9731 8.89456C50.9731 9.29917 50.9828 9.70378 51.002 10.1084C51.0213 10.513 51.0309 10.9273 51.0309 11.3511C51.0309 12.8444 50.9924 14.3328 50.9153 15.8163C50.8479 17.2999 50.7612 18.7883 50.6552 20.2815L43.8057 20.5416C44.0273 18.8654 44.2199 17.194 44.3837 15.5273C44.5571 13.8511 44.6438 12.17 44.6438 10.4841C44.6438 10.3781 44.639 10.1855 44.6294 9.90609C44.6197 9.62671 44.6005 9.31362 44.5716 8.96681C44.5523 8.62 44.5186 8.25873 44.4704 7.88302C44.4223 7.50731 44.3596 7.16532 44.2826 6.85704C44.2151 6.53913 44.1284 6.27902 44.0225 6.07671C43.9165 5.87441 43.7864 5.77325 43.6323 5.77325C43.3914 5.77325 43.1891 5.86959 43.0254 6.06226C42.8616 6.2453 42.7267 6.48614 42.6208 6.78479C42.5244 7.08343 42.4474 7.41579 42.3895 7.78187C42.3414 8.13831 42.3028 8.48994 42.2739 8.83675C42.2547 9.18357 42.2402 9.50629 42.2306 9.80494C42.2306 10.0939 42.2258 10.3107 42.2161 10.4552L42.7797 12.1957H35.4967C35.6508 10.5676 35.805 8.93469 35.9591 7.29697C36.1229 5.65925 35.3811 12.8347 35.4967 11.2066C35.6219 9.56891 35.7231 7.93119 35.8001 6.29347C35.8772 4.65575 35.9157 3.01803 35.9157 1.3803L42.7942 1.0913L42.7653 2.76755C42.9772 2.49781 43.218 2.22807 43.4878 1.95832C43.7575 1.67895 44.0417 1.43329 44.3404 1.22135C44.6486 0.999776 44.9714 0.821553 45.3085 0.686682C45.6554 0.551811 46.0118 0.484375 46.3779 0.484375C46.8499 0.484375 47.2738 0.52291 47.6495 0.599979C48.0252 0.667414 48.3624 0.787835 48.6611 0.961241C48.9693 1.13465 49.2391 1.37549 49.4703 1.68377C49.7015 1.98241 49.9038 2.36294 50.0772 2.82535C50.3855 2.48818 50.6938 2.17508 51.002 1.88607C51.3199 1.59706 51.6523 1.3514 51.9991 1.1491C52.3459 0.937157 52.7216 0.773385 53.1263 0.657781C53.5309 0.542177 53.9788 0.484375 54.4701 0.484375C55.4046 0.484375 56.1994 0.667414 56.8545 1.03349C57.5096 1.38994 58.0539 1.8668 58.4874 2.46409C58.9305 3.06138 59.2725 3.74537 59.5134 4.51606C59.7638 5.28675 59.9517 6.08635 60.0769 6.91484C60.2022 7.74333 60.2792 8.56701 60.3081 9.38587C60.3467 10.2047 60.3659 10.9562 60.3659 11.6401Z" fill="#00A8E8"/>
  <path d="M34.204 9.76149C34.204 10.5996 34.1462 11.4377 34.0306 12.2759C32.3832 12.3818 30.7455 12.5553 29.1174 12.7961C27.4893 13.0273 25.8612 13.2585 24.2332 13.4897C24.4836 14.1833 24.8738 14.7373 25.4036 15.1515C25.9431 15.5658 26.5838 15.7729 27.3256 15.7729C27.7109 15.7729 28.13 15.7006 28.5828 15.5561C29.0452 15.4116 29.5028 15.2334 29.9556 15.0215C30.4083 14.7999 30.8418 14.5639 31.2561 14.3134C31.6703 14.0629 32.0268 13.8365 32.3254 13.6342L31.6318 20.1947C31.2561 20.4837 30.8467 20.7294 30.4035 20.9317C29.97 21.134 29.5172 21.2978 29.0452 21.423C28.5731 21.5483 28.0963 21.6398 27.6146 21.6976C27.1329 21.7554 26.6608 21.7843 26.1984 21.7843C25.2447 21.7843 24.3728 21.6542 23.5829 21.3941C22.7929 21.134 22.0752 20.7728 21.4298 20.3103C20.7939 19.8383 20.2352 19.2844 19.7535 18.6485C19.2718 18.0127 18.872 17.3191 18.5541 16.5677C18.2362 15.8162 17.9954 15.0215 17.8316 14.1833C17.6678 13.3452 17.5859 12.4974 17.5859 11.6401C17.5859 10.7441 17.6678 9.84819 17.8316 8.95226C17.9954 8.05633 18.241 7.19412 18.5686 6.36563C18.9057 5.53713 19.3248 4.77126 19.8258 4.068C20.3363 3.35511 20.9288 2.73374 21.6032 2.20389C22.2775 1.67404 23.0386 1.25979 23.8863 0.961149C24.7437 0.662505 25.6878 0.513184 26.7186 0.513184C27.576 0.513184 28.3564 0.633604 29.0596 0.874446C29.7725 1.10565 30.4035 1.4332 30.9526 1.85708C31.5114 2.27133 31.9931 2.76746 32.3977 3.34548C32.8119 3.9235 33.1491 4.55932 33.4092 5.25294C33.679 5.93693 33.8764 6.66427 34.0017 7.43496C34.1366 8.19602 34.204 8.97153 34.204 9.76149ZM28.4238 9.01007C28.4238 8.74032 28.3949 8.46576 28.3371 8.18639C28.2793 7.89738 28.183 7.63727 28.0481 7.40606C27.9228 7.17486 27.7543 6.987 27.5423 6.84249C27.3304 6.68836 27.0655 6.61129 26.7475 6.61129C26.3622 6.61129 26.0202 6.71726 25.7216 6.9292C25.4325 7.1315 25.1821 7.39161 24.9701 7.70952C24.7582 8.0178 24.5848 8.35498 24.4499 8.72106C24.315 9.08714 24.2139 9.42431 24.1465 9.73259L28.4238 9.32798V9.01007Z" fill="#00A8E8"/>
  <path d="M17.0516 7.50707C17.0516 8.2585 16.9841 8.94249 16.8493 9.55904C16.724 10.166 16.5217 10.7247 16.2423 11.2353C15.963 11.7459 15.6017 12.2179 15.1586 12.6514C14.7154 13.085 14.1807 13.4992 13.5546 13.8942L16.9938 20.0212L10.491 21.2928L8.26568 15.1369L6.47382 15.1947L6.21371 21.2061H0C0.0481683 19.0097 0.0915197 16.8228 0.130054 14.6456C0.178223 12.4684 0.231208 10.2816 0.28901 8.08509C0.308277 6.97722 0.327544 5.87898 0.346812 4.79038C0.366079 3.70178 0.404613 2.60354 0.462415 1.49567C1.13677 1.2452 1.80149 1.03807 2.45658 0.8743C3.11167 0.710528 3.76676 0.585291 4.42185 0.498588C5.08657 0.402251 5.75611 0.339633 6.43046 0.310732C7.11445 0.272197 7.81289 0.25293 8.52578 0.25293C9.62402 0.25293 10.6837 0.407068 11.7049 0.715345C12.7357 1.01399 13.6461 1.46677 14.436 2.07369C15.226 2.68061 15.857 3.43685 16.329 4.34242C16.8107 5.24798 17.0516 6.30287 17.0516 7.50707ZM10.5778 7.96949C10.5778 7.56487 10.52 7.19398 10.4043 6.8568C10.2984 6.51962 10.1346 6.23061 9.91303 5.98977C9.70109 5.7393 9.43135 5.54662 9.1038 5.41175C8.78589 5.26725 8.41018 5.19499 7.97667 5.19499C7.78399 5.19499 7.59614 5.20944 7.4131 5.23835C7.23006 5.25761 7.05184 5.29133 6.87843 5.3395L6.64722 10.7151H6.99403C7.40828 10.7151 7.82734 10.6621 8.25123 10.5561C8.68474 10.4502 9.07009 10.2864 9.40726 10.0648C9.75408 9.84323 10.0335 9.55904 10.2454 9.21223C10.467 8.86542 10.5778 8.45117 10.5778 7.96949Z" fill="#00A8E8"/>
  <g filter="url(#filter0_d_9519_49372)">
    <path d="M32.3671 41.1593C32.3671 41.9602 32.2175 42.6502 31.9183 43.2292C31.6288 43.8082 31.238 44.3004 30.7458 44.7057C30.2537 45.111 29.6843 45.4439 29.0378 45.7045C28.4008 45.9554 27.735 46.1532 27.0402 46.298C26.3454 46.4427 25.6457 46.5392 24.9413 46.5875C24.2465 46.6357 23.5951 46.6598 22.9871 46.6598C22.3888 46.6598 21.7664 46.6357 21.1198 46.5875C20.4829 46.5489 19.846 46.4765 19.2091 46.3703C18.5722 46.2642 17.9449 46.1243 17.3273 45.9506C16.7097 45.7672 16.1259 45.5404 15.5758 45.2702L15.5469 26.6262C16.0873 26.4042 16.6615 26.2064 17.2694 26.0327C17.8774 25.8493 18.495 25.6998 19.1222 25.584C19.7592 25.4585 20.3912 25.3668 21.0185 25.3089C21.6458 25.2414 22.2537 25.2076 22.8424 25.2076C23.5275 25.2076 24.2175 25.251 24.9123 25.3379C25.6168 25.4247 26.2923 25.5695 26.9389 25.7721C27.5854 25.9748 28.1885 26.2402 28.7483 26.5683C29.308 26.8867 29.7953 27.2824 30.2102 27.7552C30.6349 28.2281 30.963 28.7781 31.1946 29.4054C31.4358 30.0327 31.5564 30.7564 31.5564 31.5767C31.5564 32.1171 31.4792 32.6237 31.3248 33.0966C31.1704 33.5694 30.9485 33.994 30.659 34.3704C30.3695 34.7467 30.0172 35.07 29.6023 35.3402C29.1873 35.6008 28.7193 35.7938 28.1982 35.9192C28.8255 36.0833 29.3948 36.3245 29.9063 36.643C30.4274 36.9615 30.8665 37.3475 31.2235 37.801C31.5902 38.2546 31.8701 38.766 32.0631 39.3354C32.2657 39.9047 32.3671 40.5127 32.3671 41.1593ZM25.0137 32.9084C25.0137 32.6285 24.9558 32.3921 24.84 32.1991C24.7241 31.9965 24.5794 31.8324 24.4057 31.707C24.2416 31.5815 24.0583 31.4898 23.8556 31.4319C23.6626 31.374 23.4889 31.3451 23.3345 31.3451C23.1415 31.3451 22.9534 31.374 22.77 31.4319C22.5866 31.4898 22.4081 31.5574 22.2344 31.6346L22.1476 34.8481C22.3695 34.8481 22.6445 34.8288 22.9727 34.7902C23.3008 34.7516 23.6144 34.6695 23.9135 34.5441C24.2223 34.409 24.4829 34.216 24.6952 33.9651C24.9075 33.7045 25.0137 33.3523 25.0137 32.9084ZM22.9582 37.6273C22.6783 37.6273 22.4081 37.6563 22.1476 37.7142L22.0897 41.0145C22.2344 41.0435 22.3743 41.0724 22.5094 41.1014C22.6542 41.1207 22.7941 41.1303 22.9292 41.1303C23.1319 41.1303 23.3538 41.111 23.5951 41.0724C23.8363 41.0242 24.0631 40.9373 24.2754 40.8119C24.4877 40.6768 24.6614 40.4982 24.7965 40.2763C24.9413 40.0543 25.0137 39.76 25.0137 39.3933C25.0137 39.0266 24.9413 38.7274 24.7965 38.4958C24.6614 38.2642 24.4925 38.0857 24.2899 37.9602C24.0872 37.8251 23.8653 37.7383 23.624 37.6997C23.3828 37.6514 23.1608 37.6273 22.9582 37.6273Z" fill="#FFDD00"/>
    <path d="M40.8603 25.9314L39.847 45.6466L33.7385 45.965L33.1595 26.3367L40.8603 25.9314Z" fill="#FFDD00"/>
    <path d="M61.889 25.555L60.8468 45.1834L53.2618 45.8782L49.2087 35.3692L48.5718 46.0808H42.058L42.5791 25.555L49.8167 25.2076L54.8251 35.6297L55.0567 25.7866L61.889 25.555Z" fill="#FFDD00"/>
    <path d="M80.7031 43.3595C80.2495 43.9288 79.6898 44.4258 79.0239 44.8504C78.3581 45.275 77.644 45.6273 76.8816 45.9071C76.1192 46.187 75.3376 46.3945 74.5366 46.5296C73.7357 46.6743 72.9733 46.7467 72.2495 46.7467C70.8503 46.7467 69.562 46.4958 68.3847 45.994C67.2074 45.4922 66.1893 44.8022 65.3304 43.924C64.4812 43.0362 63.8153 41.994 63.3328 40.7974C62.8503 39.6008 62.6091 38.3125 62.6091 36.9325C62.6091 35.8806 62.7297 34.8529 62.9709 33.8493C63.2122 32.836 63.5548 31.8855 63.9987 30.9977C64.4522 30.1002 65.0023 29.2799 65.6489 28.5369C66.2954 27.7842 67.0288 27.1376 67.8491 26.5972C68.6693 26.0568 69.5668 25.637 70.5415 25.3379C71.5161 25.0387 72.5583 24.8891 73.6681 24.8891C74.0831 24.8891 74.527 24.9084 74.9998 24.947C75.4727 24.976 75.9407 25.0339 76.4039 25.1207C76.8768 25.1979 77.3352 25.3089 77.7791 25.4537C78.223 25.5984 78.6283 25.777 78.995 25.9893L78.5897 31.5188C78.0493 31.3161 77.4896 31.181 76.9106 31.1135C76.3412 31.0363 75.7815 30.9977 75.2314 30.9977C74.4594 30.9977 73.7357 31.1183 73.0602 31.3596C72.3943 31.5912 71.8105 31.9289 71.3087 32.3728C70.8165 32.8167 70.4257 33.3571 70.1362 33.994C69.8467 34.6309 69.7019 35.3499 69.7019 36.1508C69.7019 36.6526 69.7695 37.14 69.9046 37.6128C70.0397 38.076 70.2423 38.491 70.5125 38.8577C70.7924 39.2148 71.135 39.5043 71.5403 39.7262C71.9552 39.9482 72.4329 40.0591 72.9733 40.0591C73.34 40.0591 73.7164 40.0109 74.1024 39.9144C74.498 39.8179 74.8358 39.6538 75.1156 39.4222L75.1735 38.2932L71.6995 38.2353L71.8732 33.8927C73.3111 33.8445 74.7489 33.8059 76.1868 33.7769C77.6247 33.7383 79.0722 33.6901 80.5294 33.6322L80.7031 43.3595Z" fill="#FFDD00"/>
    <path d="M99.8645 36.0929C99.8645 36.9711 99.7632 37.8203 99.5605 38.6406C99.3579 39.4512 99.0635 40.2135 98.6775 40.9277C98.3012 41.6418 97.838 42.298 97.2879 42.8963C96.7475 43.4849 96.1347 43.9916 95.4496 44.4162C94.7741 44.8408 94.0358 45.1737 93.2349 45.415C92.4339 45.6466 91.5847 45.7624 90.6872 45.7624C89.8187 45.7624 88.9888 45.6514 88.1975 45.4294C87.4158 45.2075 86.6824 44.8987 85.9973 44.503C85.3121 44.0977 84.6897 43.6152 84.13 43.0555C83.5799 42.4862 83.107 41.8589 82.7114 41.1737C82.3254 40.4789 82.0214 39.7359 81.7995 38.9446C81.5872 38.1532 81.481 37.3282 81.481 36.4693C81.481 35.6297 81.5823 34.8095 81.785 34.0085C81.9876 33.1979 82.2771 32.4355 82.6535 31.7214C83.0395 31.0073 83.5027 30.3511 84.0431 29.7528C84.5835 29.1545 85.1867 28.6382 85.8525 28.204C86.528 27.7697 87.2566 27.4319 88.0383 27.1907C88.8199 26.9494 89.645 26.8288 90.5135 26.8288C91.9128 26.8288 93.1866 27.0459 94.335 27.4802C95.493 27.9145 96.4773 28.5369 97.2879 29.3475C98.1082 30.1485 98.7403 31.1231 99.1842 32.2715C99.6377 33.4102 99.8645 34.684 99.8645 36.0929ZM93.4375 36.4693C93.4375 36.0543 93.3748 35.6539 93.2493 35.2679C93.1335 34.8722 92.9598 34.5248 92.7282 34.2256C92.4966 33.9168 92.2071 33.6708 91.8597 33.4874C91.522 33.2944 91.1311 33.1979 90.6872 33.1979C90.2337 33.1979 89.8284 33.2799 89.4713 33.444C89.1143 33.608 88.8055 33.8348 88.5449 34.1243C88.294 34.4042 88.101 34.7371 87.9659 35.1231C87.8308 35.4995 87.7632 35.8999 87.7632 36.3245C87.7632 36.7298 87.8211 37.1352 87.9369 37.5405C88.0527 37.9458 88.2264 38.3125 88.458 38.6406C88.6897 38.9687 88.9743 39.2341 89.3121 39.4367C89.6595 39.6394 90.06 39.7407 90.5135 39.7407C90.9671 39.7407 91.3724 39.6538 91.7294 39.4801C92.0961 39.2968 92.405 39.0555 92.6559 38.7564C92.9068 38.4476 93.0998 38.0953 93.2349 37.6997C93.37 37.304 93.4375 36.8939 93.4375 36.4693Z" fill="#FFDD00"/>
    <path d="M41.7514 17.6689C41.7514 20.1248 39.7605 22.1157 37.3046 22.1157C34.8487 22.1157 32.8578 20.1248 32.8578 17.6689C32.8578 15.2131 34.8487 13.2222 37.3046 13.2222C39.7605 13.2222 41.7514 15.2131 41.7514 17.6689Z" fill="#FFDD00"/>
  </g>
  <defs>
    <filter id="filter0_d_9519_49372" x="15.5469" y="13.2222" width="86.099" height="34.562" filterUnits="userSpaceOnUse" color-interpolation-filters="sRGB">
      <feFlood flood-opacity="0" result="BackgroundImageFix"/>
      <feColorMatrix in="SourceAlpha" type="matrix" values="0 0 0 0 0 0 0 0 0 0 0 0 0 0 0 0 0 0 127 0" result="hardAlpha"/>
      <feOffset dx="1.48226" dy="0.74113"/>
      <feGaussianBlur stdDeviation="0.148226"/>
      <feComposite in2="hardAlpha" operator="out"/>
      <feColorMatrix type="matrix" values="0 0 0 0 0.4 0 0 0 0 0.270588 0 0 0 0 0 0 0 0 1 0"/>
      <feBlend mode="normal" in2="BackgroundImageFix" result="effect1_dropShadow_9519_49372"/>
      <feBlend mode="normal" in="SourceGraphic" in2="effect1_dropShadow_9519_49372" result="shape"/>
    </filter>
  </defs>
</svg>