<svg width="89" height="32" viewBox="0 0 89 32" fill="none" xmlns="http://www.w3.org/2000/svg">
<rect x="0.046875" width="88" height="32" rx="16" fill="#FFFAD9"/>
<path d="M19.5131 17.7303C21.065 17.7303 22.3231 16.4723 22.3231 14.9203C22.3231 13.3684 21.065 12.1104 19.5131 12.1104C17.9612 12.1104 16.7031 13.3684 16.7031 14.9203C16.7031 16.4723 17.9612 17.7303 19.5131 17.7303Z" stroke="#292D32" stroke-width="1.5" stroke-linecap="round" stroke-linejoin="round"/>
<path d="M24.7003 24.2007C24.7003 21.8707 22.3803 19.9707 19.5103 19.9707C16.6403 19.9707 14.3203 21.8607 14.3203 24.2007" stroke="#292D32" stroke-width="1.5" stroke-linecap="round" stroke-linejoin="round"/>
<path d="M29.0469 16.5C29.0469 21.75 24.7969 26 19.5469 26C14.2969 26 10.0469 21.75 10.0469 16.5C10.0469 11.25 14.2969 7 19.5469 7C20.8569 7 22.1069 7.25999 23.2469 7.73999C23.1169 8.13999 23.0469 8.56 23.0469 9C23.0469 9.75 23.2569 10.46 23.6269 11.06C23.8269 11.4 24.0869 11.71 24.3869 11.97C25.0869 12.61 26.0169 13 27.0469 13C27.4869 13 27.9069 12.93 28.2969 12.79C28.7769 13.93 29.0469 15.19 29.0469 16.5Z" stroke="#292D32" stroke-width="1.5" stroke-linecap="round" stroke-linejoin="round"/>
<path d="M31.0469 9C31.0469 9.32 31.0069 9.62999 30.9269 9.92999C30.8369 10.33 30.6769 10.72 30.4669 11.06C29.9869 11.87 29.2169 12.5 28.2969 12.79C27.9069 12.93 27.4869 13 27.0469 13C26.0169 13 25.0869 12.61 24.3869 11.97C24.0869 11.71 23.8269 11.4 23.6269 11.06C23.2569 10.46 23.0469 9.75 23.0469 9C23.0469 8.56 23.1169 8.13999 23.2469 7.73999C23.4369 7.15999 23.7569 6.64002 24.1769 6.21002C24.9069 5.46002 25.9269 5 27.0469 5C28.2269 5 29.2969 5.51002 30.0169 6.33002C30.6569 7.04002 31.0469 7.98 31.0469 9Z" stroke="#292D32" stroke-width="1.5" stroke-miterlimit="10" stroke-linecap="round" stroke-linejoin="round"/>
<path d="M28.5347 8.97949H25.5547" stroke="#292D32" stroke-width="1.5" stroke-miterlimit="10" stroke-linecap="round" stroke-linejoin="round"/>
<path d="M27.0469 7.51953V10.5095" stroke="#292D32" stroke-width="1.5" stroke-miterlimit="10" stroke-linecap="round" stroke-linejoin="round"/>
<path d="M41.3809 21.168C40.4195 21.168 39.5889 20.958 38.8889 20.538C38.1982 20.1087 37.6615 19.516 37.2789 18.76C36.8962 17.9947 36.7049 17.108 36.7049 16.1C36.7049 15.1013 36.8962 14.224 37.2789 13.468C37.6615 12.7027 38.1982 12.1053 38.8889 11.676C39.5889 11.2467 40.4195 11.032 41.3809 11.032C42.5009 11.032 43.4109 11.3027 44.1109 11.844C44.8202 12.376 45.2729 13.1227 45.4689 14.084H44.1669C44.0175 13.4773 43.7095 12.992 43.2429 12.628C42.7855 12.2547 42.1649 12.068 41.3809 12.068C40.6809 12.068 40.0695 12.2313 39.5469 12.558C39.0242 12.8753 38.6182 13.3373 38.3289 13.944C38.0489 14.5413 37.9089 15.26 37.9089 16.1C37.9089 16.94 38.0489 17.6633 38.3289 18.27C38.6182 18.8673 39.0242 19.3293 39.5469 19.656C40.0695 19.9733 40.6809 20.132 41.3809 20.132C42.1649 20.132 42.7855 19.9547 43.2429 19.6C43.7095 19.236 44.0175 18.7553 44.1669 18.158H45.4689C45.2729 19.1007 44.8202 19.838 44.1109 20.37C43.4109 20.902 42.5009 21.168 41.3809 21.168ZM47.089 21V14.056H48.153L48.251 15.386C48.4657 14.9287 48.7924 14.5647 49.231 14.294C49.6697 14.0233 50.211 13.888 50.855 13.888V15.12H50.533C50.1224 15.12 49.7444 15.1947 49.399 15.344C49.0537 15.484 48.7784 15.7267 48.573 16.072C48.3677 16.4173 48.265 16.8933 48.265 17.5V21H47.089ZM55.0372 21.168C54.3746 21.168 53.7866 21.0187 53.2732 20.72C52.7599 20.412 52.3539 19.9873 52.0552 19.446C51.7659 18.9047 51.6212 18.2653 51.6212 17.528C51.6212 16.8 51.7659 16.1653 52.0552 15.624C52.3446 15.0733 52.7459 14.6487 53.2592 14.35C53.7819 14.042 54.3839 13.888 55.0652 13.888C55.7372 13.888 56.3159 14.042 56.8012 14.35C57.2959 14.6487 57.6739 15.0453 57.9352 15.54C58.1966 16.0347 58.3272 16.5667 58.3272 17.136C58.3272 17.2387 58.3226 17.3413 58.3132 17.444C58.3132 17.5467 58.3132 17.6633 58.3132 17.794H52.7832C52.8112 18.326 52.9326 18.7693 53.1472 19.124C53.3712 19.4693 53.6466 19.7307 53.9732 19.908C54.3092 20.0853 54.6639 20.174 55.0372 20.174C55.5226 20.174 55.9286 20.062 56.2552 19.838C56.5819 19.614 56.8199 19.3107 56.9692 18.928H58.1312C57.9446 19.572 57.5852 20.1087 57.0532 20.538C56.5306 20.958 55.8586 21.168 55.0372 21.168ZM55.0372 14.882C54.4772 14.882 53.9779 15.0547 53.5392 15.4C53.1099 15.736 52.8626 16.2307 52.7972 16.884H57.1652C57.1372 16.2587 56.9226 15.7687 56.5212 15.414C56.1199 15.0593 55.6252 14.882 55.0372 14.882ZM62.1959 21.168C61.6173 21.168 61.1366 21.07 60.7539 20.874C60.3713 20.678 60.0866 20.4167 59.8999 20.09C59.7133 19.7633 59.6199 19.4087 59.6199 19.026C59.6199 18.3167 59.8906 17.7707 60.4319 17.388C60.9733 17.0053 61.7106 16.814 62.6439 16.814H64.5199V16.73C64.5199 16.1233 64.3613 15.666 64.0439 15.358C63.7266 15.0407 63.3019 14.882 62.7699 14.882C62.3126 14.882 61.9159 14.9987 61.5799 15.232C61.2533 15.456 61.0479 15.7873 60.9639 16.226H59.7599C59.8066 15.722 59.9746 15.2973 60.2639 14.952C60.5626 14.6067 60.9313 14.3453 61.3699 14.168C61.8086 13.9813 62.2753 13.888 62.7699 13.888C63.7406 13.888 64.4686 14.1493 64.9539 14.672C65.4486 15.1853 65.6959 15.8713 65.6959 16.73V21H64.6459L64.5759 19.754C64.3799 20.146 64.0906 20.482 63.7079 20.762C63.3346 21.0327 62.8306 21.168 62.1959 21.168ZM62.3779 20.174C62.8259 20.174 63.2086 20.0573 63.5259 19.824C63.8526 19.5907 64.0999 19.2873 64.2679 18.914C64.4359 18.5407 64.5199 18.1487 64.5199 17.738V17.724H62.7419C62.0513 17.724 61.5613 17.8453 61.2719 18.088C60.9919 18.3213 60.8519 18.6153 60.8519 18.97C60.8519 19.334 60.9826 19.628 61.2439 19.852C61.5146 20.0667 61.8926 20.174 62.3779 20.174ZM70.0127 21C69.3781 21 68.8787 20.846 68.5147 20.538C68.1507 20.23 67.9687 19.6747 67.9687 18.872V15.05H66.7647V14.056H67.9687L68.1227 12.39H69.1447V14.056H71.1887V15.05H69.1447V18.872C69.1447 19.3107 69.2334 19.6093 69.4107 19.768C69.5881 19.9173 69.9007 19.992 70.3487 19.992H71.0767V21H70.0127ZM75.6134 21.168C74.9507 21.168 74.3627 21.0187 73.8494 20.72C73.3361 20.412 72.9301 19.9873 72.6314 19.446C72.3421 18.9047 72.1974 18.2653 72.1974 17.528C72.1974 16.8 72.3421 16.1653 72.6314 15.624C72.9207 15.0733 73.3221 14.6487 73.8354 14.35C74.3581 14.042 74.9601 13.888 75.6414 13.888C76.3134 13.888 76.8921 14.042 77.3774 14.35C77.8721 14.6487 78.2501 15.0453 78.5114 15.54C78.7727 16.0347 78.9034 16.5667 78.9034 17.136C78.9034 17.2387 78.8987 17.3413 78.8894 17.444C78.8894 17.5467 78.8894 17.6633 78.8894 17.794H73.3594C73.3874 18.326 73.5087 18.7693 73.7234 19.124C73.9474 19.4693 74.2227 19.7307 74.5494 19.908C74.8854 20.0853 75.2401 20.174 75.6134 20.174C76.0987 20.174 76.5047 20.062 76.8314 19.838C77.1581 19.614 77.3961 19.3107 77.5454 18.928H78.7074C78.5207 19.572 78.1614 20.1087 77.6294 20.538C77.1067 20.958 76.4347 21.168 75.6134 21.168ZM75.6134 14.882C75.0534 14.882 74.5541 15.0547 74.1154 15.4C73.6861 15.736 73.4387 16.2307 73.3734 16.884H77.7414C77.7134 16.2587 77.4987 15.7687 77.0974 15.414C76.6961 15.0593 76.2014 14.882 75.6134 14.882Z" fill="#404040"/>
</svg>
