<svg width="33" height="32" viewBox="0 0 33 32" fill="none" xmlns="http://www.w3.org/2000/svg">
<path d="M15.8089 1.89266C9.22887 1.74266 1.97137 7.20016 2.11137 16.0402C2.23387 23.8127 8.07387 29.6952 15.6414 29.8177C23.2089 29.9402 29.9139 24.9377 29.9539 16.0002C29.9964 6.99266 23.0464 2.05766 15.8089 1.89266Z" fill="#FF2A23"/>
<path d="M15.8306 5.04771C10.6106 5.22521 5.34309 9.12021 5.22059 15.9877C5.09809 22.8552 11.1006 26.6802 15.8306 26.6802C21.8356 26.6802 26.8531 21.9502 26.7281 15.6577C26.6056 9.36771 21.8756 4.84271 15.8306 5.04771Z" fill="#FFFDFE"/>
<path d="M15.9477 7.72273C11.2177 7.61523 7.72265 11.7952 7.68015 15.7827C7.64015 19.8552 10.1877 24.0077 15.8652 24.2127C21.5427 24.4177 24.2127 19.8952 24.2952 16.0702C24.3801 12.2452 21.3352 7.84523 15.9477 7.72273Z" fill="#FF2A23"/>
<path d="M10.5395 15.9324C10.4995 19.5099 13.047 21.5674 16.132 21.5674C18.9345 21.5674 21.6845 19.7999 21.6845 16.0574C21.6845 12.6849 19.1345 10.6699 16.297 10.5474C13.4595 10.4224 10.5795 12.4799 10.5395 15.9324Z" fill="white" fill-opacity="0.3"/>
<path d="M13.0719 15.9048C12.9194 18.0373 14.6544 19.0573 16.2169 19.0573C17.6969 19.0573 19.1569 18.0848 19.1994 16.1098C19.2369 14.2548 17.7819 13.1223 16.2169 13.0673C14.6019 13.0123 13.1944 14.1723 13.0719 15.9048Z" fill="#FB2B22"/>
<path d="M16.7281 16.0723L15.8906 16.5373L17.4881 18.8098C17.4881 18.8098 18.7231 18.9048 19.0081 18.5823C19.2931 18.2598 18.9706 17.3098 18.9706 17.3098L16.7281 16.0723Z" fill="#CC1935"/>
<path d="M21.8996 13.6029C21.6746 13.1379 21.4446 12.7654 20.8346 12.8804C20.2271 12.9954 19.1046 13.6404 18.8946 13.9454C18.7021 14.2254 18.5146 14.5729 18.5146 14.5729C18.5146 14.5729 16.3646 15.7479 16.0246 15.9404C15.4921 16.2454 15.8596 16.8654 16.2346 16.7954C16.7471 16.7004 19.0371 15.7679 19.0371 15.7679C19.0371 15.7679 19.5221 15.8829 19.8071 15.8829C20.0921 15.8829 21.7171 15.0804 21.9371 14.9329C22.2996 14.6854 22.1271 14.0779 21.8996 13.6029Z" fill="#ACB1B5"/>
<path d="M18.9644 17.3047C18.9644 17.3047 18.8444 17.7297 18.4069 18.1697C17.9519 18.6247 17.4844 18.8047 17.4844 18.8047L18.9269 20.9197C18.9269 20.9197 19.9994 20.9972 20.7794 20.2372C21.5594 19.4772 21.2194 18.4822 21.2194 18.4822L18.9644 17.3047Z" fill="#C8C8C8"/>
<path d="M20.3997 23.143L18.9297 20.918C18.9297 20.918 19.1747 20.788 19.4972 20.568C20.0897 20.163 20.4197 19.8405 20.8422 19.1805C21.0722 18.8255 21.2197 18.4805 21.2197 18.4805L23.4922 19.603C23.4922 19.603 23.4422 21.358 22.6997 22.213C21.9572 23.068 20.3997 23.143 20.3997 23.143Z" fill="#CC1935"/>
<path d="M20.3984 23.1421L21.6609 25.0346C21.6609 25.0346 23.3084 25.1971 24.6584 23.5796C26.0084 21.9621 25.6484 20.6321 25.6484 20.6321L23.4909 19.5996C23.4909 19.5996 23.0709 20.6096 22.2359 21.5796C21.4009 22.5496 20.3984 23.1421 20.3984 23.1421Z" fill="#C8C8C8"/>
<path d="M23.5316 27.8327L21.6641 25.0377C21.6641 25.0377 23.0716 24.2152 24.0716 23.0327C25.1091 21.8052 25.6516 20.6377 25.6516 20.6377L28.6741 22.1402C28.6741 22.1402 27.9941 23.8977 26.4866 25.4852C25.0116 27.0327 23.5316 27.8327 23.5316 27.8327Z" fill="#CC1935"/>
<path d="M20.4458 14.3427C20.7283 14.8702 21.1958 14.8752 21.6908 14.6652C22.1858 14.4552 24.5233 12.8027 24.5233 12.8027C24.5233 12.8027 27.6983 14.4002 29.7508 13.6002C31.8033 12.8027 31.7458 10.6352 31.7458 10.6352L30.5308 9.86523C30.5308 9.86523 31.4158 9.40523 31.7008 9.23523C31.8408 9.15023 32.0483 8.83523 31.9333 8.55273C31.8433 8.33273 31.4983 8.25774 31.2133 8.37274C30.9283 8.48774 30.1058 8.74523 30.1058 8.74523C30.1058 8.74523 30.4333 7.38273 30.3758 7.30773C30.3183 7.23273 29.7283 6.92773 29.7283 6.92773C29.7283 6.92773 27.8083 6.92773 27.5608 7.02273C27.3133 7.11773 25.4133 9.00023 25.4133 9.00023L24.5008 10.8627L24.1108 11.6927C24.1108 11.6927 21.4483 12.8852 21.0483 13.0552C20.6508 13.2277 20.0983 13.7002 20.4458 14.3427Z" fill="#006CA9"/>
<path d="M24.6784 11.4624C24.6784 11.4624 25.7984 10.6524 26.5959 10.2524C27.3934 9.85242 28.8734 9.36492 29.3109 9.31242C29.7484 9.25992 29.9284 9.37742 30.0059 9.58242C30.0834 9.78742 29.8259 10.0449 29.6059 10.1624C29.3884 10.2774 28.2284 10.8049 26.9434 11.4874C25.6584 12.1699 25.0484 12.6699 24.5284 12.7874C24.2659 12.8474 23.9284 12.6124 23.9084 12.2199C23.8934 11.9149 23.9534 11.6599 24.1534 11.0749C24.3984 10.3549 24.9359 9.27242 25.3884 8.56742C26.0584 7.52492 27.0234 6.81742 28.0909 6.62492C29.1584 6.43242 30.0334 6.70242 30.2534 6.88242C30.4709 7.06242 30.4584 7.24742 30.3809 7.30992C30.3034 7.37242 30.1884 7.42242 29.6084 7.21742C29.2059 7.07492 27.9234 7.07492 27.0234 7.74492C26.1134 8.41992 25.8909 8.83742 25.4934 9.57242C25.0959 10.3074 24.6784 11.4624 24.6784 11.4624Z" fill="#1F87FD"/>
</svg>
