<svg width="33" height="32" viewBox="0 0 33 32" fill="none" xmlns="http://www.w3.org/2000/svg">
<path d="M27.7434 5.77514L20.4684 15.8751C20.3684 16.0501 20.3684 16.2501 20.4684 16.4251L27.7434 27.0001C28.0434 27.4501 27.4934 27.9751 27.0434 27.7001L16.3184 20.5501C16.1434 20.4501 15.9434 20.4501 15.7684 20.5501L5.04342 27.7001C4.59342 28.0001 4.06842 27.4501 4.34342 27.0001L11.6184 16.4251C11.7184 16.2501 11.7184 16.0501 11.6184 15.8751L4.34342 5.77514C4.04342 5.32514 4.59342 4.80014 5.04342 5.07514L15.7684 11.7251C15.9434 11.8251 16.1434 11.8251 16.3184 11.7251L27.0434 5.07514C27.4934 4.80014 28.0184 5.32514 27.7434 5.77514Z" fill="#F77E00"/>
<path d="M16.5484 1.39961L18.6484 13.0246C18.6984 13.2246 18.8484 13.3746 19.0234 13.3996L30.6484 15.4996C31.1734 15.6246 31.1734 16.3746 30.6484 16.4746L18.9984 18.5746C18.7984 18.6246 18.6484 18.7746 18.6234 18.9496L16.5484 30.5996C16.4484 31.1246 15.6734 31.1246 15.5734 30.5996L13.4734 18.9496C13.4234 18.7496 13.2734 18.5996 13.0984 18.5746L1.44844 16.4996C0.923438 16.3996 0.923438 15.6246 1.44844 15.5246L13.0734 13.4246C13.2734 13.3746 13.4234 13.2246 13.4484 13.0496L15.5484 1.39961C15.6734 0.874609 16.4234 0.874609 16.5484 1.39961Z" fill="#FF9800"/>
<path opacity="0.75" d="M13.2078 14.2545C12.6428 14.6145 11.6328 14.6145 11.6328 15.0495C11.6328 15.3695 12.2103 15.3695 12.8253 15.3695C13.6978 15.357 14.4278 15.2795 14.7853 14.9845C15.1453 14.6895 15.2603 14.202 15.2978 13.217C15.3353 12.037 15.2453 11.832 14.9528 11.832C14.5653 11.832 14.3228 13.562 13.2078 14.2545Z" fill="#FFBD52"/>
</svg>
