<svg width="50" height="30" viewBox="0 0 50 30" fill="none" xmlns="http://www.w3.org/2000/svg">
<path d="M19.3337 13.9283C19.7599 13.9283 20.1687 13.759 20.4701 13.4576C20.7715 13.1562 20.9408 12.7474 20.9408 12.3211C20.9408 11.8949 20.7715 11.4861 20.4701 11.1847C20.1687 10.8833 19.7599 10.714 19.3337 10.714C18.9075 10.714 18.4987 10.8833 18.1973 11.1847C17.8959 11.4861 17.7266 11.8949 17.7266 12.3211C17.7266 12.7474 17.8959 13.1562 18.1973 13.4576C18.4987 13.759 18.9075 13.9283 19.3337 13.9283ZM13.4408 12.3211C13.4408 12.7474 13.2715 13.1562 12.9701 13.4576C12.6687 13.759 12.2599 13.9283 11.8337 13.9283C11.4075 13.9283 10.9987 13.759 10.6973 13.4576C10.3959 13.1562 10.2266 12.7474 10.2266 12.3211C10.2266 11.8949 10.3959 11.4861 10.6973 11.1847C10.9987 10.8833 11.4075 10.714 11.8337 10.714C12.2599 10.714 12.6687 10.8833 12.9701 11.1847C13.2715 11.4861 13.4408 11.8949 13.4408 12.3211ZM9.50656 18.3533C9.68219 18.2337 9.89801 18.1886 10.1068 18.2278C10.3156 18.2669 10.5005 18.3872 10.6208 18.5622L10.6305 18.5751L10.6776 18.6383C10.7226 18.6961 10.7955 18.784 10.8951 18.8933C11.0955 19.1108 11.4008 19.4076 11.8144 19.7044C12.6373 20.2969 13.8823 20.8926 15.5837 20.8926C17.2851 20.8926 18.5301 20.2969 19.353 19.7044C19.7666 19.4076 20.073 19.1108 20.2723 18.8933C20.3659 18.7916 20.4546 18.6854 20.538 18.5751L20.5455 18.5644C20.6655 18.3882 20.8507 18.2669 21.0601 18.2272C21.2696 18.1875 21.4863 18.2327 21.6625 18.3528C21.8386 18.4728 21.9599 18.6579 21.9996 18.8674C22.0393 19.0769 21.9941 19.2935 21.8741 19.4697L21.8719 19.4708V19.4729L21.8687 19.4761L21.8612 19.4869L21.8376 19.5201L21.7562 19.6272C21.6605 19.7483 21.5604 19.8659 21.4562 19.9797C21.1047 20.362 20.7143 20.7067 20.2916 21.0083C19.2523 21.7572 17.6858 22.4997 15.5837 22.4997C13.4816 22.4997 11.9151 21.7561 10.8758 21.0094C10.4526 20.7071 10.0619 20.3617 9.71013 19.9786C9.56785 19.8218 9.4334 19.658 9.30728 19.4879L9.29871 19.4772L9.29656 19.4729L9.29549 19.4708L9.29442 19.4697C9.17451 19.2935 9.12949 19.0769 9.16928 18.8676C9.20906 18.6582 9.33039 18.4732 9.50656 18.3533ZM15.5837 2.14258C8.48335 2.14258 2.72656 7.89936 2.72656 14.9997C2.72656 22.1001 8.48335 27.8569 15.5837 27.8569C22.6841 27.8569 28.4408 22.1001 28.4408 14.9997C28.4408 7.89936 22.6841 2.14258 15.5837 2.14258ZM4.33371 14.9997C4.33371 8.78651 9.37049 3.74972 15.5837 3.74972C21.7969 3.74972 26.8337 8.78651 26.8337 14.9997C26.8337 21.2129 21.7969 26.2497 15.5837 26.2497C9.37049 26.2497 4.33371 21.2129 4.33371 14.9997Z" fill="#FF0057"/>
<path d="M34.9329 18.7524L37.4428 21.3246L38.9752 22.9031C39.6242 23.5682 40.6929 23.5813 41.358 22.9324L45.5088 18.8821C46.0537 18.3505 45.6771 17.4274 44.9251 17.4182L40.4841 17.3637L35.5524 17.3032C34.7925 17.2939 34.4013 18.2075 34.9329 18.7524Z" fill="#00222E"/>
</svg>
