<svg width="24" height="16" viewBox="0 0 24 16" fill="none" xmlns="http://www.w3.org/2000/svg">
<g clip-path="url(#clip0_143_4819)">
<rect width="24" height="16" fill="white"/>
<path d="M0 0H23.9995V15.9999H0V0Z" fill="#F0F0F0"/>
<path d="M13.4997 0H10.4998V6.49984H0V9.49978H10.4998V15.9996H13.4997V9.49978H23.9995V6.49984H13.4997V0Z" fill="#D80027"/>
<path d="M18.4583 10.7822L23.9995 13.8607V10.7822H18.4583ZM14.6084 10.7822L23.9995 15.9995V14.5242L17.264 10.7822H14.6084ZM21.498 15.9995L14.6084 12.1716V15.9995H21.498Z" fill="#0052B4"/>
<path d="M14.6084 10.7822L23.9995 15.9995V14.5242L17.264 10.7822H14.6084Z" fill="#F0F0F0"/>
<path d="M14.6084 10.7822L23.9995 15.9995V14.5242L17.264 10.7822H14.6084Z" fill="#D80027"/>
<path d="M4.23465 10.7822L0 13.1348V10.7822H4.23465ZM9.39113 11.4457V15.9995H1.19487L9.39113 11.4457Z" fill="#0052B4"/>
<path d="M6.73548 10.7822L0 14.5242V15.9995L9.39113 10.7822H6.73548Z" fill="#D80027"/>
<path d="M5.54122 5.21727L0 2.13877V5.21727H5.54122ZM9.39113 5.21727L0 0V1.47531L6.73548 5.21727H9.39113ZM2.50148 0L9.39113 3.82793V0H2.50148Z" fill="#0052B4"/>
<path d="M9.39113 5.21727L0 0V1.47531L6.73548 5.21727H9.39113Z" fill="#F0F0F0"/>
<path d="M9.39113 5.21727L0 0V1.47531L6.73548 5.21727H9.39113Z" fill="#D80027"/>
<path d="M19.7649 5.21732L23.9995 2.86471V5.21732H19.7649ZM14.6084 4.55386V0H22.8047L14.6084 4.55386Z" fill="#0052B4"/>
<path d="M17.264 5.21727L23.9995 1.47531V0L14.6084 5.21727H17.264Z" fill="#D80027"/>
<path d="M0 0H23.9997V16H0V0Z" fill="white"/>
<path d="M0 1.99951H23.9997V3.99932H0V1.99951ZM0 5.99964H23.9997V7.99945H0V5.99964ZM0 9.99925H23.9997V11.9991H0V9.99925ZM0 13.9994H23.9997V15.9992H0V13.9994Z" fill="#D80027"/>
<path d="M0 0H11.9999V8.61539H0V0Z" fill="#2E52B2"/>
<path d="M4.67907 3.52942L4.48581 4.12398H3.86069L4.36651 4.49124L4.17325 5.08575L4.67907 4.71849L5.18457 5.08575L4.99135 4.49124L5.49717 4.12398H4.87201L4.67907 3.52942ZM4.87201 6.26952L4.67907 5.67501L4.48581 6.26952H3.86069L4.36651 6.63683L4.17325 7.23134L4.67907 6.86403L5.18457 7.23134L4.99135 6.63683L5.49717 6.26952H4.87201ZM2.23011 6.26952L2.03713 5.67501L1.84387 6.26952H1.21875L1.72457 6.63683L1.53131 7.23134L2.03713 6.86403L2.54267 7.23134L2.34946 6.63683L2.85519 6.26952H2.23011ZM2.03713 3.52942L1.84387 4.12398H1.21875L1.72457 4.49124L1.53131 5.08575L2.03713 4.71849L2.54267 5.08575L2.34946 4.49124L2.85519 4.12398H2.23011L2.03713 3.52942ZM4.67907 1.38379L4.48581 1.97839H3.86069L4.36651 2.3457L4.17325 2.94021L4.67907 2.5729L5.18457 2.94021L4.99135 2.3457L5.49717 1.97839H4.87201L4.67907 1.38379ZM2.03713 1.38379L1.84387 1.97839H1.21875L1.72457 2.3457L1.53131 2.94021L2.03713 2.5729L2.54267 2.94021L2.34946 2.3457L2.85519 1.97839H2.23011L2.03713 1.38379ZM7.32097 3.52942L7.12775 4.12398H6.50263L7.00841 4.49124L6.81524 5.08575L7.32097 4.71849L7.82655 5.08575L7.63329 4.49124L8.13911 4.12398H7.51399L7.32097 3.52942ZM7.51399 6.26952L7.32097 5.67501L7.12775 6.26952H6.50263L7.00841 6.63683L6.81524 7.23134L7.32097 6.86403L7.82655 7.23134L7.63329 6.63683L8.13911 6.26952H7.51399ZM10.1559 6.26952L9.96295 5.67501L9.76969 6.26952H9.14462L9.65035 6.63683L9.45713 7.23134L9.96295 6.86403L10.4685 7.23134L10.2752 6.63683L10.7811 6.26952H10.1559ZM9.96295 3.52942L9.76969 4.12398H9.14462L9.65035 4.49124L9.45713 5.08575L9.96295 4.71849L10.4685 5.08575L10.2752 4.49124L10.7811 4.12398H10.1559L9.96295 3.52942ZM7.32097 1.38379L7.12775 1.97839H6.50263L7.00841 2.3457L6.81524 2.94021L7.32097 2.5729L7.82655 2.94021L7.63329 2.3457L8.13911 1.97839H7.51399L7.32097 1.38379ZM9.96295 1.38379L9.76969 1.97839H9.14462L9.65035 2.3457L9.45713 2.94021L9.96295 2.5729L10.4685 2.94021L10.2752 2.3457L10.7811 1.97839H10.1559L9.96295 1.38379Z" fill="#F0F0F0"/>
</g>
<defs>
<clipPath id="clip0_143_4819">
<rect width="24" height="16" fill="white"/>
</clipPath>
</defs>
</svg>
