<svg width="32" height="29" viewBox="0 0 32 29" fill="none" xmlns="http://www.w3.org/2000/svg">
<path d="M15.9453 28.7C8.97031 28.7 1.44531 24.325 1.44531 14.725C1.44531 5.125 8.97031 0.75 15.9453 0.75C19.8203 0.75 23.3953 2.025 26.0453 4.35C28.9203 6.9 30.4453 10.5 30.4453 14.725C30.4453 18.95 28.9203 22.525 26.0453 25.075C23.3953 27.4 19.7953 28.7 15.9453 28.7Z" fill="url(#paint0_radial_9126_31670)"/>
<path d="M27.9159 6.41797C29.2484 8.56797 29.9434 11.128 29.9434 13.9755C29.9434 18.2005 28.4184 21.7755 25.5434 24.3255C22.8934 26.6505 19.2934 27.9505 15.4434 27.9505C10.9284 27.9505 6.19344 26.113 3.39844 22.2155C6.08844 26.6305 11.1484 28.7005 15.9434 28.7005C19.7934 28.7005 23.3934 27.4005 26.0434 25.0755C28.9184 22.5255 30.4434 18.9505 30.4434 14.7255C30.4434 11.5405 29.5759 8.71047 27.9159 6.41797Z" fill="#EB8F00"/>
<path d="M9.91092 6.80293C9.80092 6.53793 9.50092 6.40293 9.23092 6.50043C8.82592 6.63293 8.43592 6.80543 8.06342 7.01293C7.07342 7.55793 6.22592 8.33043 5.59092 9.26293C5.41592 9.50043 5.46092 9.83293 5.69342 10.0129C5.81592 10.1154 5.97592 10.1654 6.13592 10.1454C6.25592 10.1279 6.36592 10.0704 6.45092 9.98293C7.41092 9.04293 8.48592 8.22793 9.64842 7.55793L9.67592 7.54293C9.94092 7.40043 10.0459 7.07293 9.91092 6.80293Z" fill="#422B0D"/>
<path d="M22.7183 6.55293C22.8283 6.28793 23.1283 6.15293 23.3983 6.25043C23.8008 6.38043 24.1908 6.54793 24.5633 6.75043C25.5533 7.29543 26.4008 8.06543 27.0383 9.00043C27.2108 9.23793 27.1658 9.56793 26.9358 9.75043C26.8133 9.85293 26.6533 9.90043 26.4933 9.88293C26.3733 9.86543 26.2633 9.80793 26.1783 9.72043C25.2183 8.78043 24.1433 7.96543 22.9808 7.29543L22.9533 7.28043C22.6958 7.13793 22.5908 6.82043 22.7183 6.55293Z" fill="#422B0D"/>
<path d="M25.5669 16.9049C25.2169 16.2724 24.4569 15.9949 23.7819 16.2499C21.2169 16.9974 18.5569 17.3699 15.8844 17.3574C13.2119 17.3699 10.5519 16.9974 7.98685 16.2499C7.31435 15.9949 6.55435 16.2699 6.20435 16.8999C5.86435 17.5274 6.10935 18.2549 6.39685 18.8824C8.00185 22.4074 11.5394 24.5174 15.8644 24.5299H15.9044C20.2294 24.5299 23.7669 22.4074 25.3744 18.8824C25.6594 18.2499 25.9069 17.5324 25.5669 16.9049Z" fill="#422B0D"/>
<path d="M19.8822 23.5353C19.7897 23.4503 19.6947 23.3728 19.5997 23.2853C18.5797 22.3878 17.2597 21.9053 15.8997 21.9328C14.4997 21.9103 13.1372 22.3753 12.0447 23.2503C11.9497 23.3278 11.8497 23.4028 11.7572 23.5003C11.6647 23.5978 11.6147 23.6678 11.5547 23.7503C12.9297 24.2878 14.3947 24.5628 15.8722 24.5553H15.9122C17.3272 24.5553 18.7297 24.3028 20.0547 23.8053C20.0047 23.7103 19.9472 23.6203 19.8822 23.5353Z" fill="#ED7770"/>
<path d="M23.7784 16.25C21.2134 16.9975 18.5534 17.37 15.8809 17.3575C13.2084 17.37 10.5484 16.9975 7.98344 16.25C7.31094 15.995 6.55094 16.27 6.20094 16.9C6.15094 16.995 6.11094 17.095 6.08594 17.1975C6.16844 17.24 6.26344 17.2825 6.37594 17.3275C9.38594 18.835 12.7134 19.6 16.0784 19.56C19.3059 19.5975 22.4959 18.895 25.4109 17.51C25.5284 17.46 25.6259 17.4125 25.7134 17.3675C25.6934 17.205 25.6409 17.045 25.5634 16.9C25.2134 16.27 24.4534 15.9925 23.7784 16.25Z" fill="white" fill-opacity="0.3"/>
<path d="M25.5769 16.9074C25.2219 16.2749 24.4594 15.9949 23.7794 16.2499C21.2144 16.9974 18.5544 17.3699 15.8844 17.3574C13.2119 17.3699 10.5519 16.9974 7.98685 16.2499C7.31435 15.9949 6.55435 16.2699 6.20435 16.8999C5.86435 17.5274 6.10935 18.2549 6.39685 18.8824C6.52435 19.1649 6.66685 19.4424 6.82435 19.7099C6.82435 19.7099 6.29935 17.7649 6.75435 17.1999C6.90935 16.9599 7.16935 16.8099 7.45435 16.7949C7.57185 16.7949 7.68685 16.8149 7.79935 16.8499C10.4094 17.6174 13.1169 18.0049 15.8394 17.9999H15.9269C18.6494 18.0049 21.3569 17.6174 23.9669 16.8499C24.0794 16.8149 24.1944 16.7949 24.3119 16.7949C24.5969 16.8099 24.8594 16.9599 25.0144 17.1999C25.4769 17.7649 24.9444 19.7174 24.9444 19.7174C25.0994 19.4499 25.2544 19.1749 25.3844 18.8899C25.6694 18.2624 25.9169 17.5374 25.5769 16.9074Z" fill="#EB8F00"/>
<path d="M25.2188 13.2725C25.2188 13.2725 29.4688 13.39 31.1662 16.5225C31.8762 17.8375 31.9162 20.0225 30.4462 20.82C28.6687 21.7975 27.0012 20.41 26.7887 18.93C26.2162 14.915 25.2188 13.2725 25.2188 13.2725Z" fill="#29B6F6"/>
<path d="M30.861 19.3181C30.6935 19.6231 30.326 19.7556 30.0035 19.6281C29.716 19.4756 29.6385 19.1081 29.5935 18.7856L29.456 17.7856C29.3985 17.3881 28.9935 16.1006 29.4185 15.8906C29.756 15.7256 30.4035 16.1806 30.5935 16.4431C31.011 17.0381 31.2085 18.7331 30.861 19.3181Z" fill="#81D4FA"/>
<path d="M29.4219 15.9023C29.7594 15.7373 30.4069 16.1923 30.5969 16.4548C31.0144 17.0373 31.2119 18.7323 30.8644 19.3173C30.6969 19.6223 30.3294 19.7548 30.0069 19.6273C29.7194 19.4748 29.6419 19.1073 29.5969 18.7848L29.4594 17.7848" fill="#81D4FA"/>
<path d="M6.87461 13.2725C6.87461 13.2725 2.62461 13.39 0.927108 16.5225C0.217108 17.825 0.189608 20 1.64711 20.8075C3.42461 21.785 5.09211 20.3975 5.30461 18.9175C5.87711 14.915 6.87461 13.2725 6.87461 13.2725Z" fill="#29B6F6"/>
<path d="M1.23327 19.3181C1.40077 19.6231 1.76827 19.7556 2.09077 19.6281C2.37827 19.4756 2.45577 19.1081 2.50077 18.7856L2.63827 17.7856C2.69577 17.3881 3.10077 16.1006 2.67577 15.8906C2.33827 15.7256 1.69077 16.1806 1.50077 16.4431C1.08327 17.0381 0.885768 18.7331 1.23327 19.3181Z" fill="#81D4FA"/>
<path d="M12.0862 12.9678L12.0487 12.9128L11.9962 12.8453C11.9762 12.8178 11.9562 12.7953 11.9312 12.7728L11.7787 12.6178C11.7137 12.5528 11.6412 12.4878 11.5612 12.4203C11.3962 12.2778 11.2112 12.1628 11.0112 12.0728C10.8187 11.9878 10.6087 11.9428 10.3987 11.9428C10.4862 11.9428 10.4212 11.9428 10.4412 11.9428H10.2987C10.2737 11.9403 10.2512 11.9403 10.2262 11.9428C10.1812 11.9478 10.1362 11.9553 10.0912 11.9653C9.98875 11.9903 9.88625 12.0228 9.78875 12.0628C9.58875 12.1503 9.40375 12.2678 9.23875 12.4103C9.10375 12.5228 8.97625 12.6453 8.85875 12.7778L8.71625 12.9378L8.64125 13.0228C8.33875 13.3678 7.81625 13.4028 7.47125 13.1028C7.21375 12.8778 7.12125 12.5153 7.23625 12.1928L7.26375 12.1128C7.28625 12.0603 7.30625 11.9803 7.35375 11.8853C7.46875 11.6153 7.61875 11.3578 7.79875 11.1253C8.23625 10.5478 8.85125 10.1278 9.54875 9.92781C9.69125 9.89031 9.83625 9.86281 9.98375 9.84281C10.0587 9.84281 10.1687 9.82031 10.2012 9.82031H10.3912C10.6737 9.82531 10.9562 9.86531 11.2312 9.93531C11.4937 10.0078 11.7437 10.1128 11.9812 10.2478C12.3687 10.4753 12.7087 10.7753 12.9812 11.1328C13.1662 11.3753 13.3237 11.6378 13.4462 11.9178C13.4662 11.9578 13.4837 11.9978 13.4937 12.0403C13.5062 12.0728 13.5137 12.1003 13.5212 12.1228L13.5437 12.1903C13.6862 12.6328 13.4437 13.1078 13.0012 13.2503C12.6687 13.3578 12.3012 13.2478 12.0837 12.9753L12.0862 12.9678Z" fill="#422B0D"/>
<path d="M23.4187 12.9678L23.3737 12.9128L23.3212 12.8453C23.3012 12.8178 23.2812 12.7953 23.2562 12.7728L23.1012 12.6178C23.0337 12.5478 22.9612 12.4828 22.8862 12.4203C22.7212 12.2778 22.5362 12.1628 22.3362 12.0728C22.1437 11.9878 21.9337 11.9428 21.7237 11.9428C21.8112 11.9428 21.7462 11.9428 21.7662 11.9428H21.6212C21.5962 11.9403 21.5737 11.9403 21.5487 11.9428C21.5037 11.9478 21.4587 11.9553 21.4137 11.9653C21.3112 11.9903 21.2087 12.0228 21.1112 12.0628C20.9087 12.1553 20.7187 12.2753 20.5487 12.4203C20.4137 12.5353 20.2887 12.6578 20.1712 12.7878L20.0287 12.9478L19.9537 13.0328C19.6512 13.3778 19.1287 13.4128 18.7837 13.1128C18.5262 12.8878 18.4337 12.5253 18.5487 12.2028L18.5762 12.1228C18.5987 12.0703 18.6187 11.9903 18.6637 11.8953C18.7837 11.6203 18.9362 11.3628 19.1212 11.1253C19.5587 10.5478 20.1737 10.1278 20.8712 9.92781C21.0137 9.89031 21.1587 9.86281 21.3062 9.84281C21.3812 9.84281 21.4912 9.82031 21.5237 9.82031H21.7137C21.9962 9.82531 22.2787 9.86531 22.5537 9.93531C22.8137 10.0103 23.0637 10.1153 23.2987 10.2503C23.6862 10.4753 24.0262 10.7778 24.2987 11.1353C24.4037 11.2703 24.4962 11.4128 24.5812 11.5603C24.6487 11.6778 24.7087 11.7978 24.7637 11.9203C24.7837 11.9603 24.7987 12.0003 24.8112 12.0428C24.8112 12.0753 24.8312 12.1028 24.8387 12.1253L24.8612 12.1928C25.0037 12.6353 24.7612 13.1103 24.3187 13.2528C23.9862 13.3603 23.6187 13.2503 23.4012 12.9778L23.4187 12.9678Z" fill="#422B0D"/>
<defs>
<radialGradient id="paint0_radial_9126_31670" cx="0" cy="0" r="1" gradientUnits="userSpaceOnUse" gradientTransform="translate(15.9453 14.725) scale(14.2399)">
<stop offset="0.5" stop-color="#FDE030"/>
<stop offset="0.92" stop-color="#F7C02B"/>
<stop offset="1" stop-color="#F4A223"/>
</radialGradient>
</defs>
</svg>
