<svg width="247" height="195" viewBox="0 0 247 195" fill="none" xmlns="http://www.w3.org/2000/svg">
<path d="M84.8975 97.0687C117.585 116.629 89.3127 93.29 91.4521 90.308C91.4521 90.308 75.6958 78.0626 60.7488 66.1333C60.7488 66.1333 40.1654 52.3029 30.0455 41.9586C19.9256 31.6143 11.3166 29.941 26.4206 47.0012C41.5247 64.0613 52.2096 77.508 84.8975 97.0687Z" fill="#404040"/>
<path d="M9.17888 40.3638C10.3139 41.6661 12.1004 43.5129 13.5075 44.2377C15.0348 44.7228 15.7183 44.7473 17.2473 44.65C18.7763 44.5526 20.2314 44.1603 21.5294 43.4953C22.8275 42.8303 23.943 41.9058 24.8125 40.7745C25.6819 39.6432 26.7785 38.4472 27.2552 36.9361C27.792 35.6821 27.9062 33.1588 27.6067 31.6562C27.3073 30.1536 27.0329 28.9348 25.5949 27.7884C23.8798 26.4212 22.6633 26.0658 21.3704 25.0721L14.9669 33.2081L9.17888 40.3638Z" fill="#D4D4D4"/>
<path d="M5.41306 37.609C4.03418 36.5902 3.7423 34.6464 4.76113 33.2675C5.77996 31.8887 7.72369 31.5968 9.10257 32.6156L5.41306 37.609ZM13.5966 35.9362L16.0933 37.7809L12.4038 42.7743L9.90709 40.9295L13.5966 35.9362ZM9.10257 32.6156L13.5966 35.9362L9.90709 40.9295L5.41306 37.609L9.10257 32.6156Z" fill="#D4D4D4"/>
<path d="M9.41306 32.5943C8.03418 31.5755 7.7423 29.6318 8.76113 28.2529C9.77996 26.874 11.7237 26.5821 13.1026 27.601L9.41306 32.5943ZM17.5966 30.9215L20.0933 32.7663L16.4038 37.7597L13.9071 35.9149L17.5966 30.9215ZM13.1026 27.601L17.5966 30.9215L13.9071 35.9149L9.41306 32.5943L13.1026 27.601Z" fill="#D4D4D4"/>
<path d="M13.4131 27.5787C12.0342 26.5599 11.7423 24.6162 12.7611 23.2373C13.78 21.8584 15.7237 21.5665 17.1026 22.5853L13.4131 27.5787ZM21.5966 25.9059L24.0933 27.7507L20.4038 32.744L17.9071 30.8993L21.5966 25.9059ZM17.1026 22.5853L21.5966 25.9059L17.9071 30.8993L13.4131 27.5787L17.1026 22.5853Z" fill="#D4D4D4"/>
<g filter="url(#filter0_i_7174_95657)">
<path d="M16.0955 42.0489C12.4605 43.2498 21.8204 47.4051 21.8204 47.4051L32.2526 36.2548L26.5278 30.8986C26.5278 30.8986 24.3518 39.3213 16.0955 42.0489Z" fill="#FAFAFA"/>
</g>
<path d="M193.43 95.2146C176.949 78.1563 188.375 97.8648 185.418 100.037C185.418 100.037 192.121 110.433 198.341 120.536C198.341 120.536 208.052 132.445 211.265 141.035C214.477 149.625 220.351 151.434 216.27 137.362C212.19 123.291 209.911 112.273 193.43 95.2146Z" fill="#404040"/>
<path d="M206.57 145.63C205.635 144.177 204.358 141.947 204.054 140.394C204.013 138.792 204.18 138.129 204.699 136.687C205.219 135.246 206.001 133.957 207.001 132.896C208.001 131.834 209.199 131.02 210.528 130.5C211.857 129.98 213.311 129.26 214.895 129.223C216.249 129.056 218.704 129.649 220.064 130.355C221.423 131.061 222.518 131.664 223.218 133.364C224.054 135.392 224.057 136.66 224.651 138.178L215.054 142.063L206.57 145.63Z" fill="#D4D4D4"/>
<path d="M208.174 150.01C208.769 151.618 210.555 152.44 212.163 151.845C213.771 151.251 214.592 149.465 213.998 147.857L208.174 150.01ZM212.059 142.616L210.983 139.704L205.16 141.858L206.236 144.769L212.059 142.616ZM213.998 147.857L212.059 142.616L206.236 144.769L208.174 150.01L213.998 147.857Z" fill="#D4D4D4"/>
<path d="M214.104 147.566C214.699 149.174 216.484 149.995 218.092 149.401C219.7 148.806 220.522 147.021 219.927 145.413L214.104 147.566ZM217.989 140.172L216.913 137.26L211.089 139.414L212.166 142.325L217.989 140.172ZM219.927 145.413L217.989 140.172L212.166 142.325L214.104 147.566L219.927 145.413Z" fill="#D4D4D4"/>
<path d="M220.034 145.123C220.628 146.731 222.414 147.552 224.022 146.957C225.63 146.363 226.452 144.577 225.857 142.969L220.034 145.123ZM223.919 137.728L222.842 134.817L217.019 136.97L218.096 139.882L223.919 137.728ZM225.857 142.969L223.919 137.728L218.096 139.882L220.034 145.123L225.857 142.969Z" fill="#D4D4D4"/>
<g filter="url(#filter1_i_7174_95657)">
<path d="M206.172 137.233C204.007 140.39 202.622 130.243 202.622 130.243L216.236 123.328L219.786 130.317C219.786 130.317 211.091 130.062 206.172 137.233Z" fill="white"/>
</g>
<path fill-rule="evenodd" clip-rule="evenodd" d="M154.623 125.671C154.23 125.675 153.838 125.758 146.924 125.723L146.774 155.584L149.384 181.16C147.907 182.01 146.486 185.313 145.519 193.608L175.365 194.563L201.343 193.887C201.343 193.887 195.044 175.601 178.456 176.903C163.537 178.073 157.085 183.828 155.938 184.973C154.395 167.63 156.354 125.77 156.354 125.77C155.055 125.691 154.839 125.669 154.623 125.671Z" fill="#404040"/>
<path fill-rule="evenodd" clip-rule="evenodd" d="M117.455 125.671C117.848 125.675 118.24 125.758 125.154 125.723L125.304 155.584L122.694 181.16C124.172 182.01 125.592 185.313 126.559 193.608L96.7127 194.563L70.7348 193.887C70.7348 193.887 77.0346 175.601 93.6218 176.903C108.541 178.073 114.993 183.828 116.14 184.973C117.683 167.63 115.724 125.77 115.724 125.77C117.023 125.691 117.239 125.669 117.455 125.671Z" fill="#404040"/>
<mask id="path-15-outside-1_7174_95657" maskUnits="userSpaceOnUse" x="84.5391" y="61.0576" width="52" height="40" fill="black">
<rect fill="white" x="84.5391" y="61.0576" width="52" height="40"/>
<path d="M86.5391 63.541C86.5391 62.1695 87.6509 61.0576 89.0225 61.0576H136.208V98.309H86.5391V63.541Z"/>
</mask>
<path d="M86.5391 63.541C86.5391 62.1695 87.6509 61.0576 89.0225 61.0576H136.208V98.309H86.5391V63.541Z" fill="#58D1FF"/>
<path d="M86.5391 61.0576H136.208H86.5391ZM136.208 100.172H84.6765L88.4016 96.4464H136.208V100.172ZM84.6765 100.172V65.4036C84.6765 63.0034 86.6223 61.0576 89.0225 61.0576H89.0225C88.6796 61.0576 88.4016 62.1695 88.4016 63.541V96.4464L84.6765 100.172ZM136.208 61.0576V98.309V61.0576Z" fill="#00A8E8" mask="url(#path-15-outside-1_7174_95657)"/>
<mask id="path-17-outside-2_7174_95657" maskUnits="userSpaceOnUse" x="134.211" y="61.0576" width="52" height="40" fill="black">
<rect fill="white" x="134.211" y="61.0576" width="52" height="40"/>
<path d="M136.211 61.0576H185.879V98.309H136.211V61.0576Z"/>
</mask>
<path d="M136.211 61.0576H185.879V98.309H136.211V61.0576Z" fill="#FF9A7A"/>
<path d="M136.211 98.309H134.348V100.172H136.211V98.309ZM185.879 96.4464H136.211V100.172H185.879V96.4464ZM138.074 98.309V61.0576H134.348V98.309H138.074Z" fill="#FF9A7A" mask="url(#path-17-outside-2_7174_95657)"/>
<mask id="path-19-outside-3_7174_95657" maskUnits="userSpaceOnUse" x="84.5391" y="98.3086" width="52" height="40" fill="black">
<rect fill="white" x="84.5391" y="98.3086" width="52" height="40"/>
<path d="M86.5391 98.3086H136.208V135.56H86.5391V98.3086Z"/>
</mask>
<path d="M86.5391 98.3086H136.208V135.56H86.5391V98.3086Z" fill="#FF9A7A"/>
<path d="M86.5391 135.56H84.6765V137.423H86.5391V135.56ZM136.208 133.697H86.5391V137.423H136.208V133.697ZM88.4016 135.56V98.3086H84.6765V135.56H88.4016Z" fill="#FF9A7A" mask="url(#path-19-outside-3_7174_95657)"/>
<mask id="path-21-outside-4_7174_95657" maskUnits="userSpaceOnUse" x="134.211" y="98.3086" width="52" height="40" fill="black">
<rect fill="white" x="134.211" y="98.3086" width="52" height="40"/>
<path d="M136.211 98.3086H185.879V133.077C185.879 134.448 184.768 135.56 183.396 135.56H136.211V98.3086Z"/>
</mask>
<path d="M136.211 98.3086H185.879V133.077C185.879 134.448 184.768 135.56 183.396 135.56H136.211V98.3086Z" fill="#58D1FF"/>
<path d="M136.211 98.3086H185.879H136.211ZM185.879 133.077C185.879 135.477 183.934 137.423 181.533 137.423H134.348L138.074 133.697H183.396C184.768 133.697 185.879 133.419 185.879 133.077ZM134.348 137.423V98.3086H138.074V133.697L134.348 137.423ZM185.879 98.3086V135.56V98.3086Z" fill="#00A8E8" mask="url(#path-21-outside-4_7174_95657)"/>
<path d="M131.243 75.6722C131.243 78.5352 126.408 73.7088 122.061 73.7088C117.715 73.7088 112.617 78.5352 112.617 75.6722C112.617 72.8092 117.715 70.3711 122.061 70.3711C126.408 70.3711 131.243 72.8092 131.243 75.6722Z" fill="#2F2E41"/>
<ellipse cx="121.93" cy="89.9275" rx="9.31284" ry="10.865" fill="white"/>
<ellipse cx="123.791" cy="89.9282" rx="5.5877" ry="6.51899" fill="black"/>
<ellipse cx="119.755" cy="88.3235" rx="1.55214" ry="1.81083" fill="white"/>
<path d="M157.938 75.6722C157.938 78.5352 153.103 73.7088 148.757 73.7088C144.41 73.7088 139.312 78.5352 139.312 75.6722C139.312 72.8092 144.41 70.3711 148.757 70.3711C153.103 70.3711 157.938 72.8092 157.938 75.6722Z" fill="#2F2E41"/>
<ellipse cx="148.625" cy="89.9275" rx="9.31284" ry="10.865" fill="white"/>
<ellipse cx="147.385" cy="89.9282" rx="5.5877" ry="6.51899" fill="black"/>
<ellipse cx="152.037" cy="87.7034" rx="1.55214" ry="1.81083" fill="white"/>
<path d="M113.234 114.452C114.476 116.315 113.234 119.109 113.234 119.109" stroke="white" stroke-width="1.24171"/>
<path d="M156.008 112.589C154.766 114.451 156.008 117.245 156.008 117.245" stroke="white" stroke-width="1.24171"/>
<path d="M113.836 116.625C136.196 125.007 155.433 115.383 155.433 115.383" stroke="white" stroke-width="1.86257"/>
<path d="M114.477 29.3575C114.477 29.3575 126.908 23.862 135.584 23.807C143.779 23.7551 157.316 29.3575 157.316 29.3575L154.522 62.9206H117.27L114.477 29.3575Z" fill="#0086BA"/>
<path d="M115.102 54.2286C115.102 54.2286 126.912 54.241 135.588 54.2288C143.783 54.2172 156.388 54.2288 156.388 54.2288L154.526 62.9207H117.275L115.102 54.2286Z" fill="#00222E"/>
<path d="M165.7 58.0366C165.7 58.4288 165.524 58.8386 165.132 59.2657C164.739 59.6946 164.145 60.1232 163.353 60.5412C161.77 61.3768 159.46 62.1388 156.578 62.7822C150.82 64.068 142.85 64.866 134.037 64.866C125.223 64.866 117.253 64.068 111.495 62.7822C108.614 62.1388 106.303 61.3768 104.72 60.5412C103.928 60.1232 103.334 59.6946 102.941 59.2657C102.55 58.8386 102.373 58.4288 102.373 58.0366C102.373 57.8385 102.417 57.6914 102.49 57.5776C102.562 57.4632 102.677 57.3615 102.849 57.2762C103.207 57.0997 103.774 57.0137 104.572 57.023C106.158 57.0416 108.471 57.4304 111.373 57.9502C111.685 58.0062 112.004 58.0636 112.33 58.1222C118.024 59.1472 125.654 60.5206 134.037 60.5206C142.419 60.5206 150.049 59.1472 155.743 58.1222C156.069 58.0636 156.388 58.0062 156.7 57.9502C159.602 57.4304 161.915 57.0416 163.502 57.023C164.299 57.0137 164.866 57.0997 165.224 57.2762C165.397 57.3615 165.511 57.4632 165.584 57.5776C165.656 57.6914 165.7 57.8385 165.7 58.0366Z" fill="#0086BA"/>
<path d="M165.7 58.0366C165.7 58.4288 165.524 58.8386 165.132 59.2657C164.739 59.6946 164.145 60.1232 163.353 60.5412C161.77 61.3768 159.46 62.1388 156.578 62.7822C150.82 64.068 142.85 64.866 134.037 64.866C125.223 64.866 117.253 64.068 111.495 62.7822C108.614 62.1388 106.303 61.3768 104.72 60.5412C103.928 60.1232 103.334 59.6946 102.941 59.2657C102.55 58.8386 102.373 58.4288 102.373 58.0366C102.373 57.8385 102.417 57.6914 102.49 57.5776C102.562 57.4632 102.677 57.3615 102.849 57.2762C103.207 57.0997 103.774 57.0137 104.572 57.023C106.158 57.0416 108.471 57.4304 111.373 57.9502C111.685 58.0062 112.004 58.0636 112.33 58.1222C118.024 59.1472 125.654 60.5206 134.037 60.5206C142.419 60.5206 150.049 59.1472 155.743 58.1222C156.069 58.0636 156.388 58.0062 156.7 57.9502C159.602 57.4304 161.915 57.0416 163.502 57.023C164.299 57.0137 164.866 57.0997 165.224 57.2762C165.397 57.3615 165.511 57.4632 165.584 57.5776C165.656 57.6914 165.7 57.8385 165.7 58.0366Z" stroke="black" stroke-width="0.620856"/>
<path d="M165.7 58.0366C165.7 58.4288 165.524 58.8386 165.132 59.2657C164.739 59.6946 164.145 60.1232 163.353 60.5412C161.77 61.3768 159.46 62.1388 156.578 62.7822C150.82 64.068 142.85 64.866 134.037 64.866C125.223 64.866 117.253 64.068 111.495 62.7822C108.614 62.1388 106.303 61.3768 104.72 60.5412C103.928 60.1232 103.334 59.6946 102.941 59.2657C102.55 58.8386 102.373 58.4288 102.373 58.0366C102.373 57.8385 102.417 57.6914 102.49 57.5776C102.562 57.4632 102.677 57.3615 102.849 57.2762C103.207 57.0997 103.774 57.0137 104.572 57.023C106.158 57.0416 108.471 57.4304 111.373 57.9502C111.685 58.0062 112.004 58.0636 112.33 58.1222C118.024 59.1472 125.654 60.5206 134.037 60.5206C142.419 60.5206 150.049 59.1472 155.743 58.1222C156.069 58.0636 156.388 58.0062 156.7 57.9502C159.602 57.4304 161.915 57.0416 163.502 57.023C164.299 57.0137 164.866 57.0997 165.224 57.2762C165.397 57.3615 165.511 57.4632 165.584 57.5776C165.656 57.6914 165.7 57.8385 165.7 58.0366Z" stroke="black" stroke-opacity="0.2" stroke-width="0.620856"/>
<defs>
<filter id="filter0_i_7174_95657" x="15.2578" y="30.8984" width="16.9922" height="17.7485" filterUnits="userSpaceOnUse" color-interpolation-filters="sRGB">
<feFlood flood-opacity="0" result="BackgroundImageFix"/>
<feBlend mode="normal" in="SourceGraphic" in2="BackgroundImageFix" result="shape"/>
<feColorMatrix in="SourceAlpha" type="matrix" values="0 0 0 0 0 0 0 0 0 0 0 0 0 0 0 0 0 0 127 0" result="hardAlpha"/>
<feOffset dy="2.48342"/>
<feGaussianBlur stdDeviation="0.620856"/>
<feComposite in2="hardAlpha" operator="arithmetic" k2="-1" k3="1"/>
<feColorMatrix type="matrix" values="0 0 0 0 0 0 0 0 0 0 0 0 0 0 0 0 0 0 0.25 0"/>
<feBlend mode="normal" in2="shape" result="effect1_innerShadow_7174_95657"/>
</filter>
<filter id="filter1_i_7174_95657" x="202.625" y="123.327" width="17.1641" height="15.7564" filterUnits="userSpaceOnUse" color-interpolation-filters="sRGB">
<feFlood flood-opacity="0" result="BackgroundImageFix"/>
<feBlend mode="normal" in="SourceGraphic" in2="BackgroundImageFix" result="shape"/>
<feColorMatrix in="SourceAlpha" type="matrix" values="0 0 0 0 0 0 0 0 0 0 0 0 0 0 0 0 0 0 127 0" result="hardAlpha"/>
<feOffset dy="2.48342"/>
<feGaussianBlur stdDeviation="0.620856"/>
<feComposite in2="hardAlpha" operator="arithmetic" k2="-1" k3="1"/>
<feColorMatrix type="matrix" values="0 0 0 0 0 0 0 0 0 0 0 0 0 0 0 0 0 0 0.25 0"/>
<feBlend mode="normal" in2="shape" result="effect1_innerShadow_7174_95657"/>
</filter>
</defs>
</svg>
