<svg width="308" height="276" viewBox="0 0 308 276" fill="none" xmlns="http://www.w3.org/2000/svg">
<path d="M222.817 115.016C196.272 87.5407 214.674 119.285 209.911 122.784C209.911 122.784 220.708 139.528 230.727 155.801C230.727 155.801 246.369 174.982 251.543 188.818C256.717 202.654 266.177 205.567 259.605 182.902C253.033 160.237 249.362 142.491 222.817 115.016Z" fill="#404040"/>
<path d="M243.983 196.218C242.477 193.878 240.422 190.286 239.931 187.784C239.866 185.204 240.134 184.136 240.971 181.814C241.807 179.492 243.066 177.417 244.677 175.708C246.288 173.998 248.219 172.687 250.359 171.849C252.499 171.011 254.841 169.851 257.392 169.791C259.573 169.523 263.527 170.478 265.718 171.615C267.908 172.752 269.67 173.723 270.799 176.462C272.145 179.728 272.149 181.77 273.106 184.215L257.649 190.473L243.983 196.218Z" fill="#D4D4D4"/>
<path d="M246.56 203.273C247.518 205.863 250.394 207.186 252.984 206.229C255.574 205.271 256.897 202.395 255.94 199.805L246.56 203.273ZM252.818 191.364L251.084 186.674L241.705 190.142L243.439 194.832L252.818 191.364ZM255.94 199.805L252.818 191.364L243.439 194.832L246.56 203.273L255.94 199.805Z" fill="#D4D4D4"/>
<path d="M256.115 199.337C257.073 201.927 259.949 203.25 262.539 202.292C265.129 201.334 266.452 198.458 265.494 195.868L256.115 199.337ZM262.373 187.427L260.639 182.737L251.259 186.206L252.994 190.895L262.373 187.427ZM265.494 195.868L262.373 187.427L252.994 190.895L256.115 199.337L265.494 195.868Z" fill="#D4D4D4"/>
<path d="M265.662 195.401C266.62 197.991 269.496 199.314 272.086 198.357C274.676 197.399 275.999 194.523 275.041 191.933L265.662 195.401ZM271.92 183.491L270.185 178.802L260.806 182.27L262.54 186.96L271.92 183.491ZM275.041 191.933L271.92 183.491L262.54 186.96L265.662 195.401L275.041 191.933Z" fill="#D4D4D4"/>
<g filter="url(#filter0_i_6940_62296)">
<path d="M243.335 182.694C239.847 187.778 237.617 171.435 237.617 171.435L259.544 160.297L265.263 171.555C265.263 171.555 251.257 171.145 243.335 182.694Z" fill="white"/>
</g>
<path d="M45.9982 112.393C69.145 81.9998 54.5846 115.679 59.724 118.597C59.724 118.597 50.9618 136.49 42.9158 153.824C42.9158 153.824 29.6271 174.704 26.1077 189.05C22.5884 203.397 13.5342 207.397 17.4083 184.119C21.2824 160.84 22.8513 142.787 45.9982 112.393Z" fill="#404040"/>
<path d="M8.53499 197.013C8.24983 194.245 8.03993 190.112 8.73374 187.659C9.84178 185.328 10.5643 184.496 12.3599 182.803C14.1555 181.11 16.217 179.829 18.4268 179.032C20.6366 178.235 22.9513 177.938 25.2389 178.159C27.5264 178.379 30.1398 178.403 32.4426 179.503C34.5089 180.25 37.6048 182.889 39.0443 184.894C40.4838 186.898 41.6168 188.561 41.3854 191.514C41.1092 195.036 40.1903 196.859 39.9385 199.473L23.3214 198.067L8.53499 197.013Z" fill="#D4D4D4"/>
<path d="M7.64235 204.47C7.32573 207.213 9.29287 209.693 12.0361 210.01C14.7793 210.327 17.2598 208.359 17.5764 205.616L7.64235 204.47ZM18.6083 196.676L19.1816 191.709L9.24758 190.562L8.67428 195.529L18.6083 196.676ZM17.5764 205.616L18.6083 196.676L8.67428 195.529L7.64235 204.47L17.5764 205.616Z" fill="#D4D4D4"/>
<path d="M17.9392 205.276C17.6226 208.02 19.5897 210.5 22.333 210.817C25.0762 211.133 27.5567 209.166 27.8733 206.423L17.9392 205.276ZM28.9052 197.482L29.4785 192.515L19.5445 191.369L18.9712 196.336L28.9052 197.482ZM27.8733 206.423L28.9052 197.482L18.9712 196.336L17.9392 205.276L27.8733 206.423Z" fill="#D4D4D4"/>
<path d="M28.2439 206.084C27.9273 208.827 29.8944 211.308 32.6376 211.624C35.3809 211.941 37.8613 209.974 38.178 207.231L28.2439 206.084ZM39.2099 198.29L39.7832 193.323L29.8491 192.176L29.2758 197.143L39.2099 198.29ZM38.178 207.231L39.2099 198.29L29.2758 197.143L28.2439 206.084L38.178 207.231Z" fill="#D4D4D4"/>
<g filter="url(#filter1_i_6940_62296)">
<path d="M14.0693 184.654C8.65936 187.612 14.0582 172.026 14.0582 172.026L38.6526 172.005L38.6637 184.632C38.6637 184.632 26.3568 177.934 14.0693 184.654Z" fill="#FAFAFA"/>
</g>
<path fill-rule="evenodd" clip-rule="evenodd" d="M160.322 164.071C159.689 164.077 159.058 164.211 147.921 164.154L147.68 212.251L151.883 253.444C149.503 254.81 147.213 260.128 145.655 273.495L193.728 275.033L235.57 273.945C235.57 273.945 225.423 244.492 198.706 246.589C174.689 248.473 164.296 257.732 162.44 259.584C159.954 231.648 163.11 164.23 163.11 164.23C161.018 164.103 160.67 164.068 160.322 164.071Z" fill="#404040"/>
<path fill-rule="evenodd" clip-rule="evenodd" d="M100.444 164.071C101.076 164.077 101.708 164.211 112.844 164.154L113.085 212.251L108.882 253.444C111.263 254.81 113.553 260.128 115.11 273.495L67.0378 275.033L25.1957 273.945C25.1957 273.945 35.3426 244.492 62.0593 246.589C86.0761 248.473 96.4699 257.732 98.3254 259.584C100.811 231.648 97.6558 164.23 97.6558 164.23C99.7478 164.103 100.096 164.068 100.444 164.071Z" fill="#404040"/>
<mask id="path-15-outside-1_6940_62296" maskUnits="userSpaceOnUse" x="47.6484" y="60" width="83" height="63" fill="black">
<rect fill="white" x="47.6484" y="60" width="83" height="63"/>
<path d="M50.6484 64C50.6484 61.7909 52.4393 60 54.6484 60H130.648V120H50.6484V64Z"/>
</mask>
<path d="M50.6484 64C50.6484 61.7909 52.4393 60 54.6484 60H130.648V120H50.6484V64Z" fill="#58D1FF"/>
<path d="M50.6484 60H130.648H50.6484ZM130.648 123H47.6484L53.6484 117H130.648V123ZM47.6484 123V67C47.6484 63.134 50.7824 60 54.6484 60C54.0962 60 53.6484 61.7909 53.6484 64V117L47.6484 123ZM130.648 60V120V60Z" fill="#00A8E8" mask="url(#path-15-outside-1_6940_62296)"/>
<mask id="path-17-outside-2_6940_62296" maskUnits="userSpaceOnUse" x="127.648" y="60" width="83" height="63" fill="black">
<rect fill="white" x="127.648" y="60" width="83" height="63"/>
<path d="M130.648 60H210.648V120H130.648V60Z"/>
</mask>
<path d="M130.648 60H210.648V120H130.648V60Z" fill="#FF9A7A"/>
<path d="M130.648 120H127.648V123H130.648V120ZM210.648 117H130.648V123H210.648V117ZM133.648 120V60H127.648V120H133.648Z" fill="#FF9A7A" mask="url(#path-17-outside-2_6940_62296)"/>
<mask id="path-19-outside-3_6940_62296" maskUnits="userSpaceOnUse" x="47.6484" y="120" width="83" height="63" fill="black">
<rect fill="white" x="47.6484" y="120" width="83" height="63"/>
<path d="M50.6484 120H130.648V180H50.6484V120Z"/>
</mask>
<path d="M50.6484 120H130.648V180H50.6484V120Z" fill="#FF9A7A"/>
<path d="M50.6484 180H47.6484V183H50.6484V180ZM130.648 177H50.6484V183H130.648V177ZM53.6484 180V120H47.6484V180H53.6484Z" fill="#FF9A7A" mask="url(#path-19-outside-3_6940_62296)"/>
<mask id="path-21-outside-4_6940_62296" maskUnits="userSpaceOnUse" x="127.648" y="120" width="83" height="63" fill="black">
<rect fill="white" x="127.648" y="120" width="83" height="63"/>
<path d="M130.648 120H210.648V176C210.648 178.209 208.858 180 206.648 180H130.648V120Z"/>
</mask>
<path d="M130.648 120H210.648V176C210.648 178.209 208.858 180 206.648 180H130.648V120Z" fill="#58D1FF"/>
<path d="M130.648 120H210.648H130.648ZM210.648 176C210.648 179.866 207.514 183 203.648 183H127.648L133.648 177H206.648C208.858 177 210.648 176.552 210.648 176ZM127.648 183V120H133.648V177L127.648 183ZM210.648 120V180V120Z" fill="#00A8E8" mask="url(#path-21-outside-4_6940_62296)"/>
<path d="M122.648 83.5384C122.648 88.1497 114.86 80.376 107.86 80.376C100.859 80.376 92.6484 88.1497 92.6484 83.5384C92.6484 78.927 100.859 75 107.86 75C114.86 75 122.648 78.927 122.648 83.5384Z" fill="#2F2E41"/>
<ellipse cx="107.648" cy="106.5" rx="15" ry="17.5" fill="white"/>
<ellipse cx="110.648" cy="106.5" rx="9" ry="10.5" fill="black"/>
<ellipse cx="104.148" cy="103.917" rx="2.5" ry="2.91667" fill="white"/>
<path d="M165.648 83.5384C165.648 88.1497 157.86 80.376 150.86 80.376C143.859 80.376 135.648 88.1497 135.648 83.5384C135.648 78.927 143.859 75 150.86 75C157.86 75 165.648 78.927 165.648 83.5384Z" fill="#2F2E41"/>
<ellipse cx="150.648" cy="106.5" rx="15" ry="17.5" fill="white"/>
<ellipse cx="148.648" cy="106.5" rx="9" ry="10.5" fill="black"/>
<ellipse cx="156.148" cy="102.917" rx="2.5" ry="2.91667" fill="white"/>
<g filter="url(#filter2_i_6940_62296)">
<path d="M160.648 143C160.648 159.016 147.217 172 130.648 172C114.08 172 100.648 159.016 100.648 143C100.648 126.984 114.08 134.5 130.648 134.5C147.217 134.5 160.648 126.984 160.648 143Z" fill="black"/>
</g>
<path d="M131.703 144.998L131.696 144.999L131.688 144.999C131.656 144.998 131.61 144.996 131.548 144.994C131.424 144.989 131.24 144.981 130.999 144.97C130.519 144.948 129.814 144.911 128.92 144.853C127.131 144.736 124.583 144.533 121.552 144.191C115.583 143.516 107.752 142.298 100.153 140.125C100.225 137.21 101.142 135.535 102.605 134.574C104.178 133.541 106.495 133.25 109.452 133.375C111.884 133.477 114.665 133.853 117.7 134.264C118.341 134.351 118.993 134.439 119.655 134.527C123.442 135.027 127.544 135.5 131.719 135.5C137.673 135.5 143.003 134.453 147.319 133.606C149.036 133.269 150.593 132.963 151.964 132.767C154.427 132.416 156.209 132.43 157.372 133.072C158.418 133.65 159.093 134.825 159.145 137.197C153.504 140.09 146.703 142.035 141.261 143.262C138.5 143.885 136.097 144.32 134.385 144.6C133.529 144.74 132.846 144.841 132.377 144.907C132.143 144.94 131.963 144.964 131.841 144.98C131.78 144.988 131.734 144.994 131.703 144.998Z" fill="white" stroke="black"/>
<path d="M142.315 166.667C144.648 164.333 140.262 159.804 138.386 157.929C136.511 156.054 133.967 155 131.315 155C128.663 155 126.119 156.054 124.244 157.929C122.369 159.804 120.648 162.681 120.648 165.333C120.648 167.985 123.735 168.797 125.648 169.333C127.562 169.87 128.362 170 130.315 170C132.138 170 135.214 169.775 136.982 169.333C139.648 168.667 139.982 169 142.315 166.667Z" fill="#E73700"/>
<path d="M95.6484 8.9406C95.6484 8.9406 115.671 0.0891014 129.645 0.000577565C142.845 -0.0830402 164.648 8.9406 164.648 8.9406L160.148 63H100.148L95.6484 8.9406Z" fill="#0086BA"/>
<path d="M96.6484 49.0001C96.6484 49.0001 115.671 49.0201 129.645 49.0004C142.845 48.9819 163.148 49.0004 163.148 49.0004L160.148 63.0003H100.148L96.6484 49.0001Z" fill="#00222E"/>
<path d="M178.148 55.1336C178.148 55.7653 177.864 56.4254 177.234 57.1134C176.601 57.8042 175.643 58.4945 174.368 59.1677C171.819 60.5136 168.097 61.7409 163.455 62.7773C154.181 64.8483 141.344 66.1336 127.148 66.1336C112.952 66.1336 100.116 64.8483 90.8414 62.7773C86.2002 61.7409 82.4783 60.5136 79.929 59.1677C78.6538 58.4945 77.6964 57.8042 77.0634 57.1134C76.4329 56.4254 76.1484 55.7653 76.1484 55.1336C76.1484 54.8146 76.2199 54.5777 76.3363 54.3944C76.4534 54.2101 76.6375 54.0463 76.9159 53.9089C77.4921 53.6246 78.4051 53.4861 79.6897 53.5011C82.2451 53.531 85.97 54.1573 90.6443 54.9945C91.1477 55.0847 91.6617 55.1772 92.1859 55.2715C101.357 56.9224 113.647 59.1345 127.148 59.1345C140.65 59.1345 152.94 56.9224 162.111 55.2715C162.635 55.1772 163.149 55.0847 163.653 54.9945C168.327 54.1573 172.052 53.531 174.607 53.5011C175.892 53.4861 176.805 53.6246 177.381 53.9089C177.659 54.0463 177.843 54.2101 177.961 54.3944C178.077 54.5777 178.148 54.8146 178.148 55.1336Z" fill="#0086BA"/>
<path d="M178.148 55.1336C178.148 55.7653 177.864 56.4254 177.234 57.1134C176.601 57.8042 175.643 58.4945 174.368 59.1677C171.819 60.5136 168.097 61.7409 163.455 62.7773C154.181 64.8483 141.344 66.1336 127.148 66.1336C112.952 66.1336 100.116 64.8483 90.8414 62.7773C86.2002 61.7409 82.4783 60.5136 79.929 59.1677C78.6538 58.4945 77.6964 57.8042 77.0634 57.1134C76.4329 56.4254 76.1484 55.7653 76.1484 55.1336C76.1484 54.8146 76.2199 54.5777 76.3363 54.3944C76.4534 54.2101 76.6375 54.0463 76.9159 53.9089C77.4921 53.6246 78.4051 53.4861 79.6897 53.5011C82.2451 53.531 85.97 54.1573 90.6443 54.9945C91.1477 55.0847 91.6617 55.1772 92.1859 55.2715C101.357 56.9224 113.647 59.1345 127.148 59.1345C140.65 59.1345 152.94 56.9224 162.111 55.2715C162.635 55.1772 163.149 55.0847 163.653 54.9945C168.327 54.1573 172.052 53.531 174.607 53.5011C175.892 53.4861 176.805 53.6246 177.381 53.9089C177.659 54.0463 177.843 54.2101 177.961 54.3944C178.077 54.5777 178.148 54.8146 178.148 55.1336Z" stroke="black"/>
<path d="M178.148 55.1336C178.148 55.7653 177.864 56.4254 177.234 57.1134C176.601 57.8042 175.643 58.4945 174.368 59.1677C171.819 60.5136 168.097 61.7409 163.455 62.7773C154.181 64.8483 141.344 66.1336 127.148 66.1336C112.952 66.1336 100.116 64.8483 90.8414 62.7773C86.2002 61.7409 82.4783 60.5136 79.929 59.1677C78.6538 58.4945 77.6964 57.8042 77.0634 57.1134C76.4329 56.4254 76.1484 55.7653 76.1484 55.1336C76.1484 54.8146 76.2199 54.5777 76.3363 54.3944C76.4534 54.2101 76.6375 54.0463 76.9159 53.9089C77.4921 53.6246 78.4051 53.4861 79.6897 53.5011C82.2451 53.531 85.97 54.1573 90.6443 54.9945C91.1477 55.0847 91.6617 55.1772 92.1859 55.2715C101.357 56.9224 113.647 59.1345 127.148 59.1345C140.65 59.1345 152.94 56.9224 162.111 55.2715C162.635 55.1772 163.149 55.0847 163.653 54.9945C168.327 54.1573 172.052 53.531 174.607 53.5011C175.892 53.4861 176.805 53.6246 177.381 53.9089C177.659 54.0463 177.843 54.2101 177.961 54.3944C178.077 54.5777 178.148 54.8146 178.148 55.1336Z" stroke="black" stroke-opacity="0.2"/>
<defs>
<filter id="filter0_i_6940_62296" x="237.617" y="160.297" width="27.6484" height="25.3779" filterUnits="userSpaceOnUse" color-interpolation-filters="sRGB">
<feFlood flood-opacity="0" result="BackgroundImageFix"/>
<feBlend mode="normal" in="SourceGraphic" in2="BackgroundImageFix" result="shape"/>
<feColorMatrix in="SourceAlpha" type="matrix" values="0 0 0 0 0 0 0 0 0 0 0 0 0 0 0 0 0 0 127 0" result="hardAlpha"/>
<feOffset dy="4"/>
<feGaussianBlur stdDeviation="1"/>
<feComposite in2="hardAlpha" operator="arithmetic" k2="-1" k3="1"/>
<feColorMatrix type="matrix" values="0 0 0 0 0 0 0 0 0 0 0 0 0 0 0 0 0 0 0.25 0"/>
<feBlend mode="normal" in2="shape" result="effect1_innerShadow_6940_62296"/>
</filter>
<filter id="filter1_i_6940_62296" x="11.6641" y="172.005" width="27" height="15.0225" filterUnits="userSpaceOnUse" color-interpolation-filters="sRGB">
<feFlood flood-opacity="0" result="BackgroundImageFix"/>
<feBlend mode="normal" in="SourceGraphic" in2="BackgroundImageFix" result="shape"/>
<feColorMatrix in="SourceAlpha" type="matrix" values="0 0 0 0 0 0 0 0 0 0 0 0 0 0 0 0 0 0 127 0" result="hardAlpha"/>
<feOffset dy="4"/>
<feGaussianBlur stdDeviation="1"/>
<feComposite in2="hardAlpha" operator="arithmetic" k2="-1" k3="1"/>
<feColorMatrix type="matrix" values="0 0 0 0 0 0 0 0 0 0 0 0 0 0 0 0 0 0 0.25 0"/>
<feBlend mode="normal" in2="shape" result="effect1_innerShadow_6940_62296"/>
</filter>
<filter id="filter2_i_6940_62296" x="100.648" y="132.738" width="60" height="43.2617" filterUnits="userSpaceOnUse" color-interpolation-filters="sRGB">
<feFlood flood-opacity="0" result="BackgroundImageFix"/>
<feBlend mode="normal" in="SourceGraphic" in2="BackgroundImageFix" result="shape"/>
<feColorMatrix in="SourceAlpha" type="matrix" values="0 0 0 0 0 0 0 0 0 0 0 0 0 0 0 0 0 0 127 0" result="hardAlpha"/>
<feOffset dy="4"/>
<feGaussianBlur stdDeviation="2"/>
<feComposite in2="hardAlpha" operator="arithmetic" k2="-1" k3="1"/>
<feColorMatrix type="matrix" values="0 0 0 0 0 0 0 0 0 0 0 0 0 0 0 0 0 0 0.25 0"/>
<feBlend mode="normal" in2="shape" result="effect1_innerShadow_6940_62296"/>
</filter>
</defs>
</svg>
