<svg width="33" height="32" viewBox="0 0 33 32" fill="none" xmlns="http://www.w3.org/2000/svg">
<path d="M8.32266 4.1374C8.32266 4.1374 5.44766 5.3249 4.77266 5.8124C3.95016 6.4074 2.95016 7.1649 2.42016 8.1774C1.91266 9.1449 1.71016 9.8849 1.67266 11.1249C1.63516 12.3649 2.96016 22.6624 2.96016 22.6624C2.96016 22.6624 10.1402 29.4274 11.2727 29.9399C12.4052 30.4524 14.0752 31.0799 16.0802 31.0424C18.0852 31.0049 19.4027 30.3874 20.1702 30.0224C20.9352 29.6574 30.0202 16.2074 30.0952 15.1124C30.1702 14.0174 30.2427 11.9299 30.1977 11.0474C30.1502 10.1424 29.9652 9.4199 29.4902 8.5074C29.0152 7.5949 28.2352 6.7049 27.7627 6.3024C27.2877 5.9024 21.3252 3.2249 19.5202 2.8199C14.3052 1.6574 8.32266 4.1374 8.32266 4.1374Z" fill="#CECECE"/>
<path d="M3.90661 7.27453C3.94161 8.49703 4.92661 9.06203 6.93411 10.082C8.94161 11.102 14.0466 14.0945 16.1616 14.167C18.2766 14.2395 26.1166 9.47453 27.2491 8.74203C28.3691 8.01703 28.5566 6.85953 27.5041 6.06953C26.0441 4.97703 19.5166 1.94953 18.1316 1.43953C17.4241 1.17953 15.6216 0.77453 14.1916 1.32953C13.0616 1.76703 5.89411 5.08453 5.20161 5.52203C4.50911 5.95953 3.88911 6.59203 3.90661 7.27453Z" fill="#EAEAEA"/>
<path d="M8.63219 4.78017C8.18719 4.27767 5.05469 5.91767 5.05469 7.31517C5.05469 8.67017 7.89719 10.3952 8.60969 9.75517C9.12219 9.29517 7.30719 7.86017 7.54469 7.03017C7.77969 6.20017 9.01219 5.20517 8.63219 4.78017Z" fill="white" fill-opacity="0.3"/>
<path d="M11.7313 12.0202C11.2388 12.7327 14.3863 14.2652 16.3063 14.2652C18.1138 14.2652 21.0663 12.5002 20.6863 11.9877C20.0713 11.1577 18.5788 11.9377 16.2563 11.9877C14.9763 12.0152 12.2438 11.2777 11.7313 12.0202Z" fill="white" fill-opacity="0.3"/>
<path d="M23.1475 9.75965C23.7625 10.1622 27.27 8.38465 27.34 7.31965C27.41 6.25465 25.16 4.97465 24.52 5.42465C23.88 5.87465 24.71 6.20715 24.4975 6.98715C24.285 7.76715 22.41 9.27715 23.1475 9.75965Z" fill="white" fill-opacity="0.3"/>
<path d="M1.66637 11.2722C1.62887 12.5647 1.70637 20.4547 1.72387 21.5247C1.74137 22.7047 2.03137 24.0172 2.81637 24.6897C3.60137 25.3622 9.95887 29.3947 11.3889 30.0122C13.3914 30.8772 15.3389 29.9272 15.4789 27.7722C15.6189 25.6147 15.5339 19.0322 15.5339 18.1372C15.5339 17.2422 15.0839 15.9222 14.1039 15.2497C13.1239 14.5772 5.37387 10.1322 4.57887 9.67471C3.45887 9.03221 1.72387 9.33971 1.66637 11.2722Z" fill="#DFDFDF"/>
<path d="M17.7205 15.3352C16.8805 16.0002 16.543 16.9602 16.543 17.9952C16.543 19.0302 16.488 27.0152 16.5155 27.8277C16.543 28.6402 17.693 30.7977 19.4855 30.2652C21.338 29.7152 23.688 28.0527 25.368 27.0427C27.048 26.0352 28.358 25.1802 28.943 24.7002C29.693 24.0877 30.2005 22.6052 30.228 21.3452C30.2555 20.1127 30.2205 12.3977 30.198 11.7927C30.143 10.3727 29.568 9.20023 28.028 9.53523C26.488 9.87023 18.9255 14.3827 17.7205 15.3352Z" fill="#B8B8B8"/>
<path d="M16.1166 9.79996C18.0233 9.79996 19.5691 8.68851 19.5691 7.31746C19.5691 5.94641 18.0233 4.83496 16.1166 4.83496C14.2098 4.83496 12.6641 5.94641 12.6641 7.31746C12.6641 8.68851 14.2098 9.79996 16.1166 9.79996Z" fill="#FE4E27"/>
<path d="M6.67054 13.8877C7.12054 15.1427 6.98554 16.4427 6.02304 16.7877C5.06054 17.1327 3.90804 16.2752 3.46554 15.0477C3.01304 13.7927 3.12554 12.4902 4.11304 12.1477C5.08054 11.8152 6.22054 12.6327 6.67054 13.8877Z" fill="#2F2F2F"/>
<path d="M13.0012 24.8996C13.5362 26.1196 13.5062 27.5646 12.5712 27.9746C11.6362 28.3846 10.3687 27.5321 9.84124 26.3371C9.30374 25.1171 9.38374 23.7796 10.3187 23.3696C11.2562 22.9596 12.4662 23.6796 13.0012 24.8996Z" fill="#2F2F2F"/>
<path d="M25.5336 16.7401C26.3511 17.2051 27.6661 16.6276 28.3436 15.4426C29.0211 14.2551 28.9061 12.9176 28.0911 12.4501C27.2736 11.9851 25.9811 12.5601 25.3036 13.7476C24.6261 14.9326 24.7161 16.2751 25.5336 16.7401Z" fill="#2F2F2F"/>
<path d="M22.3036 22.1749C23.1336 22.6599 24.4836 22.0824 25.1886 20.8749C25.8936 19.6699 25.7936 18.2974 24.9636 17.8124C24.1336 17.3274 22.7561 17.8649 22.0511 19.0699C21.3461 20.2799 21.4761 21.6899 22.3036 22.1749Z" fill="#2F2F2F"/>
<path d="M19.1008 27.73C19.9033 28.22 21.2358 27.68 21.9483 26.515C22.6608 25.35 22.5858 24.0075 21.7833 23.5175C20.9808 23.0275 19.7383 23.3725 18.9183 24.67C18.1883 25.8225 18.2983 27.24 19.1008 27.73Z" fill="#2F2F2F"/>
</svg>
