<svg width="197" height="176" viewBox="0 0 197 176" fill="none" xmlns="http://www.w3.org/2000/svg">
<path d="M142.477 73.5453C125.503 55.9766 137.27 76.2748 134.224 78.5121C134.224 78.5121 141.128 89.2189 147.535 99.6246C147.535 99.6246 157.536 111.89 160.845 120.737C164.154 129.584 170.203 131.447 166 116.954C161.798 102.462 159.45 91.114 142.477 73.5453Z" fill="#2E2828"/>
<path d="M164.61 108.89L164.595 108.89C163.302 108.921 162.103 109.412 160.928 109.893C160.687 109.992 160.446 110.09 160.206 110.184C158.883 110.702 157.688 111.513 156.69 112.573C155.691 113.633 154.908 114.921 154.387 116.367C154.121 117.107 153.952 117.628 153.853 118.164C153.755 118.691 153.722 119.243 153.741 120.041C153.893 120.792 154.28 121.724 154.759 122.667C155.193 123.521 155.693 124.368 156.138 125.07L164.627 121.501L164.631 121.499L164.631 121.499L174.228 117.614C174.011 117.001 173.875 116.42 173.736 115.825C173.717 115.745 173.699 115.666 173.68 115.585C173.496 114.808 173.285 113.979 172.864 112.958L164.61 108.89ZM164.61 108.89L164.626 108.888M164.61 108.89L164.626 108.888M164.626 108.888C165.269 108.809 166.208 108.91 167.176 109.129M164.626 108.888L167.176 109.129M167.176 109.129C168.14 109.347 169.094 109.673 169.763 110.021M167.176 109.129L169.763 110.021M169.763 110.021C171.156 110.744 172.189 111.32 172.864 112.958L169.763 110.021Z" fill="white" stroke="black" stroke-width="0.639437"/>
<path d="M157.658 129.98C158.27 131.636 160.109 132.482 161.765 131.87C163.421 131.257 164.267 129.418 163.655 127.762L157.658 129.98ZM161.659 122.364L160.55 119.366L154.553 121.584L155.662 124.582L161.659 122.364ZM163.655 127.762L161.659 122.364L155.662 124.582L157.658 129.98L163.655 127.762Z" fill="white"/>
<path d="M163.767 127.463C164.379 129.12 166.218 129.966 167.875 129.353C169.531 128.741 170.377 126.902 169.764 125.246L163.767 127.463ZM167.768 119.848L166.659 116.849L160.662 119.067L161.771 122.066L167.768 119.848ZM169.764 125.246L167.768 119.848L161.771 122.066L163.767 127.463L169.764 125.246Z" fill="white"/>
<path d="M169.868 124.946C170.481 126.602 172.32 127.448 173.976 126.836C175.632 126.223 176.478 124.384 175.866 122.728L169.868 124.946ZM173.87 117.33L172.761 114.332L166.764 116.549L167.872 119.548L173.87 117.33ZM175.866 122.728L173.87 117.33L167.872 119.548L169.868 124.946L175.866 122.728Z" fill="white"/>
<g filter="url(#filter0_di_7208_67581)">
<path d="M155.599 116.821C153.369 120.073 151.943 109.622 151.943 109.622L165.964 102.5L169.621 109.699C169.621 109.699 160.665 109.437 155.599 116.821Z" fill="#D9D9D9"/>
<path d="M152.117 109.713L165.894 102.715L169.36 109.539C169.319 109.54 169.272 109.541 169.222 109.543C168.963 109.55 168.59 109.569 168.127 109.614C167.2 109.706 165.912 109.906 164.464 110.338C161.569 111.202 158.027 113 155.468 116.731C155.198 117.125 154.967 117.268 154.786 117.287C154.61 117.304 154.419 117.21 154.209 116.964C154.001 116.721 153.799 116.358 153.61 115.91C153.42 115.464 153.246 114.945 153.088 114.397C152.773 113.301 152.526 112.103 152.358 111.176C152.274 110.713 152.21 110.319 152.166 110.041C152.145 109.902 152.128 109.791 152.118 109.716L152.117 109.713Z" stroke="black" stroke-width="0.319718"/>
</g>
<path d="M29.4084 71.8688C44.2093 52.4341 34.8989 73.9701 38.1852 75.8356C38.1852 75.8356 32.5823 87.2769 27.4374 98.3608C27.4374 98.3608 18.9401 111.713 16.6897 120.886C14.4393 130.06 8.64976 132.618 11.127 117.733C13.6042 102.848 14.6074 91.3035 29.4084 71.8688Z" fill="#2E2828"/>
<path d="M20.6218 115.077L20.6075 115.07C19.441 114.512 18.1491 114.408 16.8843 114.306C16.624 114.285 16.365 114.265 16.1084 114.24C14.6938 114.104 13.2611 114.287 11.8916 114.781C10.5219 115.275 9.24095 116.07 8.12304 117.124C7.55047 117.664 7.16422 118.052 6.83348 118.485C6.50808 118.911 6.22907 119.388 5.88552 120.109C5.68137 120.847 5.60558 121.854 5.60645 122.911C5.60724 123.87 5.67079 124.851 5.74951 125.678L14.9357 126.332L14.9399 126.333L14.9399 126.333L25.2559 127.206C25.3399 126.561 25.4815 125.981 25.6263 125.388C25.6457 125.308 25.6651 125.229 25.6845 125.149C25.8722 124.373 26.0586 123.538 26.145 122.437L20.6218 115.077ZM20.6218 115.077L20.6367 115.082M20.6218 115.077L20.6367 115.082M20.6367 115.082C21.246 115.302 22.0377 115.816 22.8024 116.449M20.6367 115.082L22.8024 116.449M22.8024 116.449C23.5633 117.08 24.2672 117.802 24.707 118.415M22.8024 116.449L24.707 118.415M24.707 118.415C25.622 119.689 26.2833 120.67 26.145 122.437L24.707 118.415Z" fill="white" stroke="black" stroke-width="0.639437"/>
<path d="M4.8864 130.746C4.68394 132.5 5.9418 134.086 7.69591 134.288C9.45002 134.491 11.0361 133.233 11.2386 131.479L4.8864 130.746ZM11.8985 125.762L12.265 122.586L5.91284 121.853L5.54626 125.029L11.8985 125.762ZM11.2386 131.479L11.8985 125.762L5.54626 125.029L4.8864 130.746L11.2386 131.479Z" fill="white"/>
<path d="M11.4723 131.261C11.2699 133.015 12.5277 134.602 14.2819 134.804C16.036 135.006 17.6221 133.749 17.8245 131.995L11.4723 131.261ZM18.4844 126.278L18.851 123.101L12.4988 122.368L12.1322 125.544L18.4844 126.278ZM17.8245 131.995L18.4844 126.278L12.1322 125.544L11.4723 131.261L17.8245 131.995Z" fill="white"/>
<path d="M18.0583 131.778C17.8558 133.532 19.1137 135.118 20.8678 135.321C22.6219 135.523 24.208 134.265 24.4105 132.511L18.0583 131.778ZM25.0703 126.794L25.4369 123.618L19.0847 122.885L18.7181 126.061L25.0703 126.794ZM24.4105 132.511L25.0703 126.794L18.7181 126.061L18.0583 131.778L24.4105 132.511Z" fill="white"/>
<g filter="url(#filter1_di_7208_67581)">
<path d="M8.99113 118.075C5.53181 119.967 8.98402 110 8.98402 110L24.7106 109.987L24.7177 118.061C24.7177 118.061 16.8482 113.778 8.99113 118.075Z" fill="#D9D9D9"/>
<path d="M9.09852 110.16L24.5509 110.147L24.5576 117.801C24.5201 117.783 24.4784 117.762 24.4324 117.741C24.1988 117.631 23.8573 117.479 23.4232 117.31C22.5553 116.973 21.3161 116.568 19.8293 116.299C16.856 115.761 12.8844 115.763 8.91443 117.935C8.49549 118.164 8.22522 118.188 8.05524 118.122C7.89067 118.058 7.76236 117.887 7.68593 117.574C7.61021 117.263 7.59523 116.847 7.62816 116.362C7.66095 115.879 7.74041 115.337 7.84735 114.777C8.06123 113.657 8.38297 112.476 8.65187 111.574C8.78621 111.123 8.90713 110.742 8.99443 110.475C9.03807 110.341 9.0733 110.235 9.09759 110.163L9.09852 110.16Z" stroke="black" stroke-width="0.319718"/>
</g>
<mask id="path-15-outside-1_7208_67581" maskUnits="userSpaceOnUse" x="30.3828" y="38.3662" width="54" height="41" fill="black">
<rect fill="white" x="30.3828" y="38.3662" width="54" height="41"/>
<path d="M32.3828 40.924C32.3828 39.5114 33.528 38.3662 34.9406 38.3662H83.5377V76.7324H32.3828V40.924Z"/>
</mask>
<path d="M32.3828 40.924C32.3828 39.5114 33.528 38.3662 34.9406 38.3662H83.5377V76.7324H32.3828V40.924Z" fill="#58D1FF"/>
<path d="M32.3828 38.3662H83.5377H32.3828ZM83.5377 78.6507H30.4645L34.3011 74.8141H83.5377V78.6507ZM30.4645 78.6507V42.8423C30.4645 40.3702 32.4685 38.3662 34.9406 38.3662C34.5874 38.3662 34.3011 39.5114 34.3011 40.924V74.8141L30.4645 78.6507ZM83.5377 38.3662V76.7324V38.3662Z" fill="#00A8E8" mask="url(#path-15-outside-1_7208_67581)"/>
<mask id="path-17-outside-2_7208_67581" maskUnits="userSpaceOnUse" x="81.5391" y="38.3662" width="54" height="41" fill="black">
<rect fill="white" x="81.5391" y="38.3662" width="54" height="41"/>
<path d="M83.5391 38.3662H134.694V76.7324H83.5391V38.3662Z"/>
</mask>
<path d="M83.5391 38.3662H134.694V76.7324H83.5391V38.3662Z" fill="#FF9A7A"/>
<path d="M83.5391 76.7324H81.6208V78.6507H83.5391V76.7324ZM134.694 74.8141H83.5391V78.6507H134.694V74.8141ZM85.4574 76.7324V38.3662H81.6208V76.7324H85.4574Z" fill="#FF9A7A" mask="url(#path-17-outside-2_7208_67581)"/>
<mask id="path-19-outside-3_7208_67581" maskUnits="userSpaceOnUse" x="30.3828" y="76.7324" width="54" height="41" fill="black">
<rect fill="white" x="30.3828" y="76.7324" width="54" height="41"/>
<path d="M32.3828 76.7324H83.5377V115.099H32.3828V76.7324Z"/>
</mask>
<path d="M32.3828 76.7324H83.5377V115.099H32.3828V76.7324Z" fill="#FF9A7A"/>
<path d="M32.3828 115.099H30.4645V117.017H32.3828V115.099ZM83.5377 113.18H32.3828V117.017H83.5377V113.18ZM34.3011 115.099V76.7324H30.4645V115.099H34.3011Z" fill="#FF9A7A" mask="url(#path-19-outside-3_7208_67581)"/>
<mask id="path-21-outside-4_7208_67581" maskUnits="userSpaceOnUse" x="81.5391" y="76.7324" width="54" height="41" fill="black">
<rect fill="white" x="81.5391" y="76.7324" width="54" height="41"/>
<path d="M83.5391 76.7324H134.694V112.541C134.694 113.953 133.549 115.099 132.136 115.099H83.5391V76.7324Z"/>
</mask>
<path d="M83.5391 76.7324H134.694V112.541C134.694 113.953 133.549 115.099 132.136 115.099H83.5391V76.7324Z" fill="#58D1FF"/>
<path d="M83.5391 76.7324H134.694H83.5391ZM134.694 112.541C134.694 115.013 132.69 117.017 130.218 117.017H81.6208L85.4574 113.18H132.136C133.549 113.18 134.694 112.894 134.694 112.541ZM81.6208 117.017V76.7324H85.4574V113.18L81.6208 117.017ZM134.694 76.7324V115.099V76.7324Z" fill="#00A8E8" mask="url(#path-21-outside-4_7208_67581)"/>
<path d="M78.4175 53.4177C78.4175 56.3664 73.4376 51.3956 68.961 51.3956C64.4845 51.3956 59.2344 56.3664 59.2344 53.4177C59.2344 50.4691 64.4845 47.958 68.961 47.958C73.4376 47.958 78.4175 50.4691 78.4175 53.4177Z" fill="#2F2E41"/>
<ellipse cx="68.8259" cy="68.1003" rx="9.59155" ry="11.1901" fill="white"/>
<ellipse cx="70.7471" cy="68.1008" rx="5.75493" ry="6.71409" fill="black"/>
<ellipse cx="66.5908" cy="66.449" rx="1.59859" ry="1.86502" fill="white"/>
<path d="M105.917 53.4177C105.917 56.3664 100.938 51.3956 96.461 51.3956C91.9845 51.3956 86.7344 56.3664 86.7344 53.4177C86.7344 50.4691 91.9845 47.958 96.461 47.958C100.938 47.958 105.917 50.4691 105.917 53.4177Z" fill="#2F2E41"/>
<ellipse cx="96.3259" cy="68.1003" rx="9.59155" ry="11.1901" fill="white"/>
<ellipse cx="95.0518" cy="68.1008" rx="5.75493" ry="6.71409" fill="black"/>
<ellipse cx="99.8486" cy="65.8094" rx="1.59859" ry="1.86502" fill="white"/>
<path d="M59.875 93.3574C61.1539 95.2757 59.875 98.1532 59.875 98.1532" stroke="white" stroke-width="1.27887"/>
<path d="M103.922 91.4395C102.643 93.3578 103.922 96.2352 103.922 96.2352" stroke="white" stroke-width="1.27887"/>
<path d="M60.5 95.5957C83.5297 104.228 103.342 94.3168 103.342 94.3168" stroke="white" stroke-width="1.91831"/>
<path d="M61.1641 5.71694C61.1641 5.71694 73.9673 0.0569747 82.9029 0.000369316C91.3432 -0.0530989 105.285 5.71694 105.285 5.71694L102.408 40.2845H64.0415L61.1641 5.71694Z" fill="#0086BA"/>
<path d="M61.8047 31.3322C61.8047 31.3322 73.9685 31.345 82.9041 31.3324C91.3444 31.3205 104.327 31.3324 104.327 31.3324L102.409 40.2845H64.0427L61.8047 31.3322Z" fill="#00222E"/>
<path d="M113.917 35.2549C113.917 35.6589 113.735 36.0809 113.332 36.5209C112.927 36.9626 112.315 37.404 111.5 37.8345C109.87 38.6951 107.49 39.4799 104.522 40.1426C98.5917 41.4669 90.3834 42.2887 81.306 42.2887C72.2286 42.2887 64.0203 41.4669 58.0899 40.1426C55.1222 39.4799 52.7423 38.6951 51.1121 37.8345C50.2968 37.404 49.6845 36.9626 49.2798 36.5209C48.8766 36.0809 48.6947 35.6589 48.6947 35.2549C48.6947 35.0509 48.7404 34.8995 48.8149 34.7822C48.8897 34.6644 49.0074 34.5597 49.1855 34.4718C49.5539 34.29 50.1377 34.2014 50.9591 34.2111C52.5931 34.2302 54.975 34.6307 57.9639 35.166C58.2858 35.2236 58.6145 35.2828 58.9497 35.3431C64.8142 36.3987 72.6726 37.8133 81.306 37.8133C89.9394 37.8133 97.7978 36.3987 103.662 35.3431C103.997 35.2828 104.326 35.2236 104.648 35.166C107.637 34.6307 110.019 34.2302 111.653 34.2111C112.474 34.2014 113.058 34.29 113.426 34.4718C113.605 34.5597 113.722 34.6644 113.797 34.7822C113.872 34.8995 113.917 35.0509 113.917 35.2549Z" fill="#0086BA"/>
<path d="M113.917 35.2549C113.917 35.6589 113.735 36.0809 113.332 36.5209C112.927 36.9626 112.315 37.404 111.5 37.8345C109.87 38.6951 107.49 39.4799 104.522 40.1426C98.5917 41.4669 90.3834 42.2887 81.306 42.2887C72.2286 42.2887 64.0203 41.4669 58.0899 40.1426C55.1222 39.4799 52.7423 38.6951 51.1121 37.8345C50.2968 37.404 49.6845 36.9626 49.2798 36.5209C48.8766 36.0809 48.6947 35.6589 48.6947 35.2549C48.6947 35.0509 48.7404 34.8995 48.8149 34.7822C48.8897 34.6644 49.0074 34.5597 49.1855 34.4718C49.5539 34.29 50.1377 34.2014 50.9591 34.2111C52.5931 34.2302 54.975 34.6307 57.9639 35.166C58.2858 35.2236 58.6145 35.2828 58.9497 35.3431C64.8142 36.3987 72.6726 37.8133 81.306 37.8133C89.9394 37.8133 97.7978 36.3987 103.662 35.3431C103.997 35.2828 104.326 35.2236 104.648 35.166C107.637 34.6307 110.019 34.2302 111.653 34.2111C112.474 34.2014 113.058 34.29 113.426 34.4718C113.605 34.5597 113.722 34.6644 113.797 34.7822C113.872 34.8995 113.917 35.0509 113.917 35.2549Z" stroke="black" stroke-width="0.639437"/>
<path d="M113.917 35.2549C113.917 35.6589 113.735 36.0809 113.332 36.5209C112.927 36.9626 112.315 37.404 111.5 37.8345C109.87 38.6951 107.49 39.4799 104.522 40.1426C98.5917 41.4669 90.3834 42.2887 81.306 42.2887C72.2286 42.2887 64.0203 41.4669 58.0899 40.1426C55.1222 39.4799 52.7423 38.6951 51.1121 37.8345C50.2968 37.404 49.6845 36.9626 49.2798 36.5209C48.8766 36.0809 48.6947 35.6589 48.6947 35.2549C48.6947 35.0509 48.7404 34.8995 48.8149 34.7822C48.8897 34.6644 49.0074 34.5597 49.1855 34.4718C49.5539 34.29 50.1377 34.2014 50.9591 34.2111C52.5931 34.2302 54.975 34.6307 57.9639 35.166C58.2858 35.2236 58.6145 35.2828 58.9497 35.3431C64.8142 36.3987 72.6726 37.8133 81.306 37.8133C89.9394 37.8133 97.7978 36.3987 103.662 35.3431C103.997 35.2828 104.326 35.2236 104.648 35.166C107.637 34.6307 110.019 34.2302 111.653 34.2111C112.474 34.2014 113.058 34.29 113.426 34.4718C113.605 34.5597 113.722 34.6644 113.797 34.7822C113.872 34.8995 113.917 35.0509 113.917 35.2549Z" stroke="black" stroke-opacity="0.2" stroke-width="0.639437"/>
<defs>
<filter id="filter0_di_7208_67581" x="149.388" y="102.5" width="22.7874" height="20.0637" filterUnits="userSpaceOnUse" color-interpolation-filters="sRGB">
<feFlood flood-opacity="0" result="BackgroundImageFix"/>
<feColorMatrix in="SourceAlpha" type="matrix" values="0 0 0 0 0 0 0 0 0 0 0 0 0 0 0 0 0 0 127 0" result="hardAlpha"/>
<feOffset dy="2.55775"/>
<feGaussianBlur stdDeviation="1.27887"/>
<feComposite in2="hardAlpha" operator="out"/>
<feColorMatrix type="matrix" values="0 0 0 0 0 0 0 0 0 0 0 0 0 0 0 0 0 0 0.25 0"/>
<feBlend mode="normal" in2="BackgroundImageFix" result="effect1_dropShadow_7208_67581"/>
<feBlend mode="normal" in="SourceGraphic" in2="effect1_dropShadow_7208_67581" result="shape"/>
<feColorMatrix in="SourceAlpha" type="matrix" values="0 0 0 0 0 0 0 0 0 0 0 0 0 0 0 0 0 0 127 0" result="hardAlpha"/>
<feOffset dy="2.55775"/>
<feGaussianBlur stdDeviation="0.639437"/>
<feComposite in2="hardAlpha" operator="arithmetic" k2="-1" k3="1"/>
<feColorMatrix type="matrix" values="0 0 0 0 0 0 0 0 0 0 0 0 0 0 0 0 0 0 0.25 0"/>
<feBlend mode="normal" in2="shape" result="effect2_innerShadow_7208_67581"/>
</filter>
<filter id="filter1_di_7208_67581" x="4.89538" y="109.986" width="22.3811" height="13.4426" filterUnits="userSpaceOnUse" color-interpolation-filters="sRGB">
<feFlood flood-opacity="0" result="BackgroundImageFix"/>
<feColorMatrix in="SourceAlpha" type="matrix" values="0 0 0 0 0 0 0 0 0 0 0 0 0 0 0 0 0 0 127 0" result="hardAlpha"/>
<feOffset dy="2.55775"/>
<feGaussianBlur stdDeviation="1.27887"/>
<feComposite in2="hardAlpha" operator="out"/>
<feColorMatrix type="matrix" values="0 0 0 0 0 0 0 0 0 0 0 0 0 0 0 0 0 0 0.25 0"/>
<feBlend mode="normal" in2="BackgroundImageFix" result="effect1_dropShadow_7208_67581"/>
<feBlend mode="normal" in="SourceGraphic" in2="effect1_dropShadow_7208_67581" result="shape"/>
<feColorMatrix in="SourceAlpha" type="matrix" values="0 0 0 0 0 0 0 0 0 0 0 0 0 0 0 0 0 0 127 0" result="hardAlpha"/>
<feOffset dy="2.55775"/>
<feGaussianBlur stdDeviation="0.639437"/>
<feComposite in2="hardAlpha" operator="arithmetic" k2="-1" k3="1"/>
<feColorMatrix type="matrix" values="0 0 0 0 0 0 0 0 0 0 0 0 0 0 0 0 0 0 0.25 0"/>
<feBlend mode="normal" in2="shape" result="effect2_innerShadow_7208_67581"/>
</filter>
</defs>
</svg>
