<svg width="330" height="282" viewBox="0 0 330 282" fill="none" xmlns="http://www.w3.org/2000/svg">
<path d="M243.817 181.58C217.272 209.055 235.674 177.311 230.911 173.812C230.911 173.812 241.708 157.068 251.727 140.795C251.727 140.795 267.369 121.613 272.543 107.778C277.717 93.9417 287.177 91.0286 280.605 113.693C274.033 136.358 270.362 154.104 243.817 181.58Z" fill="#2E2828"/>
<path d="M264.983 100.378C263.477 102.718 261.422 106.309 260.931 108.811C260.866 111.391 261.134 112.46 261.971 114.782C262.807 117.103 264.066 119.178 265.677 120.888C267.288 122.598 269.219 123.909 271.359 124.747C273.499 125.584 275.841 126.745 278.392 126.804C280.573 127.072 284.527 126.118 286.718 124.98C288.908 123.843 290.67 122.872 291.799 120.134C293.145 116.867 293.149 114.826 294.106 112.38L278.649 106.123L264.983 100.378Z" fill="white"/>
<path d="M267.56 93.3225C268.518 90.7324 271.394 89.4092 273.984 90.367C276.574 91.3248 277.897 94.2008 276.94 96.7908L267.56 93.3225ZM273.818 105.232L272.084 109.922L262.705 106.453L264.439 101.764L273.818 105.232ZM276.94 96.7908L273.818 105.232L264.439 101.764L267.56 93.3225L276.94 96.7908Z" fill="white"/>
<path d="M277.115 97.259C278.073 94.669 280.949 93.3458 283.539 94.3035C286.129 95.2613 287.452 98.1373 286.494 100.727L277.115 97.259ZM283.373 109.169L281.639 113.858L272.259 110.39L273.994 105.7L283.373 109.169ZM286.494 100.727L283.373 109.169L273.994 105.7L277.115 97.259L286.494 100.727Z" fill="white"/>
<path d="M286.662 101.195C287.62 98.6045 290.496 97.2813 293.086 98.2391C295.676 99.1968 296.999 102.073 296.041 104.663L286.662 101.195ZM292.92 113.104L291.185 117.794L281.806 114.325L283.54 109.636L292.92 113.104ZM296.041 104.663L292.92 113.104L283.54 109.636L286.662 101.195L296.041 104.663Z" fill="white"/>
<g filter="url(#filter0_di_6968_109265)">
<path d="M264.335 113.902C260.847 108.817 258.617 125.16 258.617 125.16L280.544 136.299L286.263 125.04C286.263 125.04 272.257 125.451 264.335 113.902Z" fill="#D9D9D9"/>
</g>
<path d="M45.9982 183.202C69.145 213.596 54.5846 179.916 59.724 176.999C59.724 176.999 50.9618 159.106 42.9158 141.772C42.9158 141.772 29.6271 120.892 26.1077 106.545C22.5884 92.1991 13.5342 88.1987 17.4083 111.477C21.2824 134.755 22.8513 152.809 45.9982 183.202Z" fill="#2E2828"/>
<path d="M8.53499 98.5828C8.24983 101.351 8.03993 105.484 8.73374 107.937C9.84178 110.268 10.5643 111.1 12.3599 112.793C14.1555 114.485 16.217 115.767 18.4268 116.564C20.6366 117.361 22.9513 117.657 25.2389 117.437C27.5264 117.217 30.1398 117.193 32.4426 116.093C34.5089 115.346 37.6048 112.706 39.0443 110.702C40.4838 108.697 41.6168 107.034 41.3854 104.081C41.1092 100.559 40.1903 98.7367 39.9385 96.1224L23.3214 97.5292L8.53499 98.5828Z" fill="white"/>
<path d="M7.64235 91.126C7.32573 88.3828 9.29287 85.9023 12.0361 85.5857C14.7793 85.2691 17.2598 87.2362 17.5764 89.9794L7.64235 91.126ZM18.6083 98.9201L19.1816 103.887L9.24758 105.034L8.67428 100.067L18.6083 98.9201ZM17.5764 89.9794L18.6083 98.9201L8.67428 100.067L7.64235 91.126L17.5764 89.9794Z" fill="white"/>
<path d="M17.9392 90.3194C17.6226 87.5762 19.5897 85.0957 22.333 84.7791C25.0762 84.4624 27.5567 86.4296 27.8733 89.1728L17.9392 90.3194ZM28.9052 98.1134L29.4785 103.08L19.5445 104.227L18.9712 99.26L28.9052 98.1134ZM27.8733 89.1728L28.9052 98.1134L18.9712 99.26L17.9392 90.3194L27.8733 89.1728Z" fill="white"/>
<path d="M28.2439 89.5118C27.9273 86.7686 29.8944 84.2881 32.6376 83.9715C35.3809 83.6548 37.8613 85.622 38.178 88.3652L28.2439 89.5118ZM39.2099 97.3058L39.7832 102.273L29.8491 103.419L29.2758 98.4524L39.2099 97.3058ZM38.178 88.3652L39.2099 97.3058L29.2758 98.4524L28.2439 89.5118L38.178 88.3652Z" fill="white"/>
<g filter="url(#filter1_di_6968_109265)">
<path d="M14.0693 110.942C8.65936 107.983 14.0582 123.569 14.0582 123.569L38.6526 123.591L38.6637 110.964C38.6637 110.964 26.3568 117.662 14.0693 110.942Z" fill="#D9D9D9"/>
</g>
<ellipse cx="63" cy="21" rx="63" ry="21" transform="matrix(1 0 0 -1 64.6484 123.596)" fill="#404040"/>
<mask id="path-14-outside-1_6968_109265" maskUnits="userSpaceOnUse" x="69.6484" y="60.8594" width="83" height="63" fill="black">
<rect fill="white" x="69.6484" y="60.8594" width="83" height="63"/>
<path d="M72.6484 64.8594C72.6484 62.6502 74.4393 60.8594 76.6484 60.8594H152.648V120.859H72.6484V64.8594Z"/>
</mask>
<path d="M72.6484 64.8594C72.6484 62.6502 74.4393 60.8594 76.6484 60.8594H152.648V120.859H72.6484V64.8594Z" fill="#58D1FF"/>
<path d="M72.6484 60.8594H152.648H72.6484ZM152.648 123.859H69.6484L75.6484 117.859H152.648V123.859ZM69.6484 123.859V67.8594C69.6484 63.9934 72.7824 60.8594 76.6484 60.8594C76.0962 60.8594 75.6484 62.6502 75.6484 64.8594V117.859L69.6484 123.859ZM152.648 60.8594V120.859V60.8594Z" fill="#00A8E8" mask="url(#path-14-outside-1_6968_109265)"/>
<mask id="path-16-outside-2_6968_109265" maskUnits="userSpaceOnUse" x="149.648" y="60.8594" width="83" height="63" fill="black">
<rect fill="white" x="149.648" y="60.8594" width="83" height="63"/>
<path d="M152.648 60.8594H232.648V120.859H152.648V60.8594Z"/>
</mask>
<path d="M152.648 60.8594H232.648V120.859H152.648V60.8594Z" fill="#FF9A7A"/>
<path d="M152.648 120.859H149.648V123.859H152.648V120.859ZM232.648 117.859H152.648V123.859H232.648V117.859ZM155.648 120.859V60.8594H149.648V120.859H155.648Z" fill="#FF9A7A" mask="url(#path-16-outside-2_6968_109265)"/>
<mask id="path-18-outside-3_6968_109265" maskUnits="userSpaceOnUse" x="69.6484" y="120.859" width="83" height="63" fill="black">
<rect fill="white" x="69.6484" y="120.859" width="83" height="63"/>
<path d="M72.6484 120.859H152.648V180.859H72.6484V120.859Z"/>
</mask>
<path d="M72.6484 120.859H152.648V180.859H72.6484V120.859Z" fill="#FF9A7A"/>
<path d="M72.6484 180.859H69.6484V183.859H72.6484V180.859ZM152.648 177.859H72.6484V183.859H152.648V177.859ZM75.6484 180.859V120.859H69.6484V180.859H75.6484Z" fill="#FF9A7A" mask="url(#path-18-outside-3_6968_109265)"/>
<mask id="path-20-outside-4_6968_109265" maskUnits="userSpaceOnUse" x="149.648" y="120.859" width="83" height="63" fill="black">
<rect fill="white" x="149.648" y="120.859" width="83" height="63"/>
<path d="M152.648 120.859H232.648V176.859C232.648 179.069 230.858 180.859 228.648 180.859H152.648V120.859Z"/>
</mask>
<path d="M152.648 120.859H232.648V176.859C232.648 179.069 230.858 180.859 228.648 180.859H152.648V120.859Z" fill="#58D1FF"/>
<path d="M152.648 120.859H232.648H152.648ZM232.648 176.859C232.648 180.725 229.514 183.859 225.648 183.859H149.648L155.648 177.859H228.648C230.858 177.859 232.648 177.412 232.648 176.859ZM149.648 183.859V120.859H155.648V177.859L149.648 183.859ZM232.648 120.859V180.859V120.859Z" fill="#00A8E8" mask="url(#path-20-outside-4_6968_109265)"/>
<path d="M144.648 84.3977C144.648 89.0091 136.86 81.2354 129.86 81.2354C122.859 81.2354 114.648 89.0091 114.648 84.3977C114.648 79.7864 122.859 75.8594 129.86 75.8594C136.86 75.8594 144.648 79.7864 144.648 84.3977Z" fill="#2F2E41"/>
<ellipse cx="129.648" cy="107.359" rx="15" ry="17.5" fill="white"/>
<ellipse cx="132.648" cy="107.359" rx="9" ry="10.5" fill="black"/>
<ellipse cx="126.148" cy="104.776" rx="2.5" ry="2.91667" fill="white"/>
<path d="M187.648 84.3977C187.648 89.0091 179.86 81.2354 172.86 81.2354C165.859 81.2354 157.648 89.0091 157.648 84.3977C157.648 79.7864 165.859 75.8594 172.86 75.8594C179.86 75.8594 187.648 79.7864 187.648 84.3977Z" fill="#2F2E41"/>
<ellipse cx="172.648" cy="107.359" rx="15" ry="17.5" fill="white"/>
<ellipse cx="170.648" cy="107.359" rx="9" ry="10.5" fill="black"/>
<ellipse cx="178.148" cy="103.776" rx="2.5" ry="2.91667" fill="white"/>
<g filter="url(#filter2_i_6968_109265)">
<path d="M182.648 143.86C182.648 159.876 169.217 172.86 152.648 172.86C136.08 172.86 122.648 159.876 122.648 143.86C122.648 127.843 136.08 135.36 152.648 135.36C169.217 135.36 182.648 127.843 182.648 143.86Z" fill="black"/>
</g>
<path d="M153.703 145.857L153.696 145.858L153.688 145.858C153.656 145.857 153.61 145.855 153.548 145.853C153.424 145.848 153.24 145.841 152.999 145.83C152.519 145.807 151.814 145.77 150.92 145.712C149.131 145.595 146.583 145.393 143.552 145.05C137.583 144.375 129.752 143.158 122.153 140.984C122.225 138.07 123.142 136.395 124.605 135.434C126.178 134.401 128.495 134.11 131.452 134.234C133.884 134.336 136.665 134.713 139.7 135.124C140.341 135.21 140.993 135.299 141.655 135.386C145.442 135.887 149.544 136.359 153.719 136.359C159.673 136.359 165.003 135.313 169.319 134.465C171.036 134.128 172.593 133.822 173.964 133.627C176.427 133.275 178.209 133.29 179.372 133.932C180.418 134.509 181.093 135.684 181.145 138.056C175.504 140.949 168.703 142.895 163.261 144.122C160.5 144.744 158.097 145.18 156.385 145.46C155.529 145.6 154.846 145.701 154.377 145.767C154.143 145.8 153.963 145.824 153.841 145.84C153.78 145.848 153.734 145.854 153.703 145.857Z" fill="white" stroke="black"/>
<path d="M164.315 167.526C166.648 165.193 162.262 160.664 160.386 158.788C158.511 156.913 155.967 155.859 153.315 155.859C150.663 155.859 148.119 156.913 146.244 158.788C144.369 160.664 142.648 163.541 142.648 166.193C142.648 168.845 145.735 169.656 147.648 170.193C149.562 170.729 150.362 170.859 152.315 170.859C154.138 170.859 157.214 170.635 158.982 170.193C161.648 169.526 161.982 169.859 164.315 167.526Z" fill="#E73700"/>
<path d="M117.648 9.79997C117.648 9.79997 137.671 0.948476 151.645 0.859953C164.845 0.776335 186.648 9.79997 186.648 9.79997L182.148 63.8594H122.148L117.648 9.79997Z" fill="#0086BA"/>
<path d="M118.648 49.8595C118.648 49.8595 137.671 49.8795 151.645 49.8598C164.845 49.8412 185.148 49.8598 185.148 49.8598L182.148 63.8597H122.148L118.648 49.8595Z" fill="#00222E"/>
<path d="M200.148 55.9929C200.148 56.6247 199.864 57.2848 199.234 57.9728C198.601 58.6635 197.643 59.3539 196.368 60.0271C193.819 61.373 190.097 62.6003 185.455 63.6367C176.181 65.7077 163.344 66.9929 149.148 66.9929C134.952 66.9929 122.116 65.7077 112.841 63.6367C108.2 62.6003 104.478 61.373 101.929 60.0271C100.654 59.3539 99.6964 58.6635 99.0634 57.9728C98.4329 57.2848 98.1484 56.6247 98.1484 55.9929C98.1484 55.6739 98.2199 55.4371 98.3363 55.2537C98.4534 55.0695 98.6375 54.9056 98.9159 54.7683C99.4921 54.484 100.405 54.3455 101.69 54.3605C104.245 54.3904 107.97 55.0167 112.644 55.8539C113.148 55.944 113.662 56.0365 114.186 56.1309C123.357 57.7818 135.647 59.9939 149.148 59.9939C162.65 59.9939 174.94 57.7818 184.111 56.1309C184.635 56.0365 185.149 55.944 185.653 55.8539C190.327 55.0167 194.052 54.3904 196.607 54.3605C197.892 54.3455 198.805 54.484 199.381 54.7683C199.659 54.9056 199.843 55.0695 199.961 55.2537C200.077 55.4371 200.148 55.6739 200.148 55.9929Z" fill="#0086BA"/>
<path d="M200.148 55.9929C200.148 56.6247 199.864 57.2848 199.234 57.9728C198.601 58.6635 197.643 59.3539 196.368 60.0271C193.819 61.373 190.097 62.6003 185.455 63.6367C176.181 65.7077 163.344 66.9929 149.148 66.9929C134.952 66.9929 122.116 65.7077 112.841 63.6367C108.2 62.6003 104.478 61.373 101.929 60.0271C100.654 59.3539 99.6964 58.6635 99.0634 57.9728C98.4329 57.2848 98.1484 56.6247 98.1484 55.9929C98.1484 55.6739 98.2199 55.4371 98.3363 55.2537C98.4534 55.0695 98.6375 54.9056 98.9159 54.7683C99.4921 54.484 100.405 54.3455 101.69 54.3605C104.245 54.3904 107.97 55.0167 112.644 55.8539C113.148 55.944 113.662 56.0365 114.186 56.1309C123.357 57.7818 135.647 59.9939 149.148 59.9939C162.65 59.9939 174.94 57.7818 184.111 56.1309C184.635 56.0365 185.149 55.944 185.653 55.8539C190.327 55.0167 194.052 54.3904 196.607 54.3605C197.892 54.3455 198.805 54.484 199.381 54.7683C199.659 54.9056 199.843 55.0695 199.961 55.2537C200.077 55.4371 200.148 55.6739 200.148 55.9929Z" stroke="black"/>
<path d="M200.148 55.9929C200.148 56.6247 199.864 57.2848 199.234 57.9728C198.601 58.6635 197.643 59.3539 196.368 60.0271C193.819 61.373 190.097 62.6003 185.455 63.6367C176.181 65.7077 163.344 66.9929 149.148 66.9929C134.952 66.9929 122.116 65.7077 112.841 63.6367C108.2 62.6003 104.478 61.373 101.929 60.0271C100.654 59.3539 99.6964 58.6635 99.0634 57.9728C98.4329 57.2848 98.1484 56.6247 98.1484 55.9929C98.1484 55.6739 98.2199 55.4371 98.3363 55.2537C98.4534 55.0695 98.6375 54.9056 98.9159 54.7683C99.4921 54.484 100.405 54.3455 101.69 54.3605C104.245 54.3904 107.97 55.0167 112.644 55.8539C113.148 55.944 113.662 56.0365 114.186 56.1309C123.357 57.7818 135.647 59.9939 149.148 59.9939C162.65 59.9939 174.94 57.7818 184.111 56.1309C184.635 56.0365 185.149 55.944 185.653 55.8539C190.327 55.0167 194.052 54.3904 196.607 54.3605C197.892 54.3455 198.805 54.484 199.381 54.7683C199.659 54.9056 199.843 55.0695 199.961 55.2537C200.077 55.4371 200.148 55.6739 200.148 55.9929Z" stroke="black" stroke-opacity="0.2"/>
<g filter="url(#filter3_d_6968_109265)">
<path d="M81.8458 258.259C81.8458 261.109 81.3136 263.564 80.2492 265.624C79.2192 267.684 77.8286 269.435 76.0775 270.877C74.3264 272.319 72.3007 273.504 70.0002 274.431C67.7341 275.323 65.365 276.027 62.8929 276.542C60.4208 277.057 57.9315 277.401 55.425 277.572C52.9529 277.744 50.6353 277.83 48.4722 277.83C46.3435 277.83 44.1289 277.744 41.8284 277.572C39.5623 277.435 37.2962 277.177 35.0301 276.8C32.764 276.422 30.5322 275.924 28.3348 275.306C26.1374 274.654 24.0601 273.847 22.103 272.886L22 206.55C23.9228 205.761 25.9657 205.057 28.1288 204.439C30.2919 203.787 32.4893 203.254 34.7211 202.842C36.9872 202.396 39.2361 202.07 41.4679 201.864C43.6997 201.623 45.8628 201.503 47.9572 201.503C50.395 201.503 52.8499 201.658 55.322 201.967C57.8285 202.276 60.2319 202.791 62.5324 203.512C64.8328 204.233 66.9788 205.177 68.9702 206.344C70.9616 207.478 72.6955 208.885 74.1719 210.568C75.6827 212.25 76.85 214.207 77.6741 216.439C78.5325 218.671 78.9616 221.246 78.9616 224.164C78.9616 226.087 78.687 227.89 78.1376 229.572C77.5882 231.254 76.7985 232.765 75.7685 234.104C74.7384 235.443 73.4852 236.594 72.0088 237.555C70.5324 238.482 68.8672 239.169 67.0131 239.615C69.2449 240.199 71.2706 241.057 73.0904 242.19C74.9445 243.323 76.5067 244.697 77.7771 246.31C79.0818 247.924 80.0775 249.744 80.7642 251.77C81.4853 253.795 81.8458 255.958 81.8458 258.259ZM55.6826 228.903C55.6826 227.907 55.4766 227.066 55.0645 226.379C54.6525 225.658 54.1375 225.074 53.5195 224.628C52.9358 224.181 52.2834 223.855 51.5624 223.649C50.8757 223.443 50.2576 223.34 49.7083 223.34C49.0216 223.34 48.3521 223.443 47.6997 223.649C47.0473 223.855 46.4121 224.096 45.7941 224.37L45.4851 235.804C46.2748 235.804 47.2533 235.735 48.4207 235.598C49.5881 235.46 50.704 235.169 51.7684 234.722C52.8671 234.242 53.7941 233.555 54.5495 232.662C55.3049 231.735 55.6826 230.482 55.6826 228.903ZM48.3692 245.692C47.3735 245.692 46.4121 245.795 45.4851 246.001L45.2791 257.744C45.7941 257.847 46.292 257.95 46.7726 258.053C47.2877 258.122 47.7855 258.156 48.2662 258.156C48.9873 258.156 49.777 258.087 50.6353 257.95C51.4937 257.778 52.3006 257.469 53.0559 257.023C53.8113 256.542 54.4293 255.907 54.91 255.117C55.425 254.328 55.6826 253.28 55.6826 251.976C55.6826 250.671 55.425 249.606 54.91 248.782C54.4293 247.958 53.8285 247.323 53.1074 246.877C52.3864 246.396 51.5967 246.087 50.7383 245.95C49.88 245.778 49.0903 245.692 48.3692 245.692Z" fill="#FFDD00"/>
<path d="M112.064 204.078L108.459 274.225L86.7253 275.358L84.6652 205.52L112.064 204.078Z" fill="#FFDD00"/>
<path d="M186.884 202.739L183.176 272.577L156.189 275.049L141.768 237.658L139.502 275.77H116.326L118.18 202.739L143.931 201.503L161.751 238.585L162.575 203.563L186.884 202.739Z" fill="#FFDD00"/>
<path d="M253.824 266.087C252.21 268.113 250.219 269.881 247.85 271.392C245.481 272.903 242.94 274.156 240.227 275.152C237.515 276.147 234.734 276.886 231.884 277.366C229.034 277.881 226.322 278.139 223.747 278.139C218.768 278.139 214.184 277.246 209.996 275.461C205.807 273.675 202.184 271.22 199.129 268.096C196.107 264.937 193.738 261.229 192.021 256.971C190.304 252.714 189.446 248.13 189.446 243.22C189.446 239.478 189.875 235.821 190.734 232.25C191.592 228.645 192.811 225.263 194.39 222.104C196.004 218.911 197.961 215.993 200.262 213.349C202.562 210.671 205.171 208.37 208.09 206.447C211.008 204.525 214.202 203.031 217.669 201.967C221.137 200.902 224.845 200.37 228.794 200.37C230.27 200.37 231.85 200.439 233.532 200.576C235.215 200.679 236.88 200.885 238.528 201.194C240.21 201.469 241.841 201.864 243.421 202.379C245 202.894 246.442 203.529 247.747 204.284L246.305 223.958C244.382 223.237 242.391 222.757 240.33 222.516C238.305 222.242 236.313 222.104 234.356 222.104C231.609 222.104 229.034 222.533 226.631 223.392C224.262 224.216 222.184 225.418 220.399 226.997C218.648 228.576 217.257 230.499 216.227 232.765C215.197 235.031 214.682 237.589 214.682 240.439C214.682 242.224 214.923 243.958 215.403 245.641C215.884 247.289 216.605 248.765 217.566 250.07C218.562 251.34 219.781 252.37 221.223 253.16C222.699 253.95 224.399 254.345 226.322 254.345C227.627 254.345 228.966 254.173 230.339 253.83C231.747 253.486 232.948 252.903 233.944 252.079L234.15 248.061L221.79 247.855L222.408 232.405C227.524 232.233 232.639 232.096 237.755 231.993C242.871 231.855 248.021 231.684 253.206 231.478L253.824 266.087Z" fill="#FFDD00"/>
<path d="M322 240.233C322 243.358 321.639 246.379 320.918 249.297C320.197 252.182 319.15 254.894 317.777 257.435C316.438 259.976 314.79 262.31 312.833 264.439C310.91 266.534 308.73 268.336 306.292 269.847C303.888 271.358 301.262 272.542 298.412 273.401C295.562 274.225 292.541 274.637 289.348 274.637C286.257 274.637 283.305 274.242 280.489 273.452C277.708 272.662 275.098 271.564 272.661 270.156C270.223 268.714 268.008 266.997 266.017 265.006C264.06 262.98 262.377 260.748 260.97 258.31C259.596 255.838 258.515 253.194 257.725 250.379C256.97 247.564 256.592 244.628 256.592 241.572C256.592 238.585 256.952 235.666 257.674 232.817C258.395 229.933 259.425 227.22 260.764 224.679C262.137 222.139 263.785 219.804 265.708 217.675C267.631 215.546 269.777 213.709 272.146 212.164C274.549 210.619 277.141 209.417 279.923 208.559C282.704 207.701 285.639 207.272 288.729 207.272C293.708 207.272 298.24 208.044 302.326 209.589C306.446 211.134 309.948 213.349 312.833 216.233C315.751 219.083 318 222.551 319.579 226.636C321.193 230.688 322 235.22 322 240.233ZM299.133 241.572C299.133 240.096 298.91 238.671 298.463 237.297C298.051 235.89 297.433 234.654 296.609 233.589C295.785 232.491 294.755 231.615 293.519 230.963C292.317 230.276 290.927 229.933 289.348 229.933C287.734 229.933 286.292 230.224 285.021 230.808C283.751 231.392 282.652 232.199 281.725 233.229C280.832 234.224 280.146 235.409 279.665 236.782C279.184 238.121 278.944 239.546 278.944 241.057C278.944 242.499 279.15 243.941 279.562 245.383C279.974 246.825 280.592 248.13 281.416 249.297C282.24 250.465 283.253 251.409 284.455 252.13C285.691 252.851 287.116 253.212 288.729 253.212C290.343 253.212 291.785 252.903 293.056 252.285C294.36 251.632 295.459 250.774 296.352 249.709C297.245 248.611 297.931 247.358 298.412 245.95C298.893 244.542 299.133 243.083 299.133 241.572Z" fill="#FFDD00"/>
<path d="M115.235 174.681C115.235 183.419 108.151 190.502 99.4135 190.502C90.6755 190.502 83.592 183.419 83.592 174.681C83.592 165.943 90.6755 158.859 99.4135 158.859C108.151 158.859 115.235 165.943 115.235 174.681Z" fill="#FFDD00"/>
</g>
<defs>
<filter id="filter0_di_6968_109265" x="254.617" y="112.921" width="35.6484" height="31.3779" filterUnits="userSpaceOnUse" color-interpolation-filters="sRGB">
<feFlood flood-opacity="0" result="BackgroundImageFix"/>
<feColorMatrix in="SourceAlpha" type="matrix" values="0 0 0 0 0 0 0 0 0 0 0 0 0 0 0 0 0 0 127 0" result="hardAlpha"/>
<feOffset dy="4"/>
<feGaussianBlur stdDeviation="2"/>
<feComposite in2="hardAlpha" operator="out"/>
<feColorMatrix type="matrix" values="0 0 0 0 0 0 0 0 0 0 0 0 0 0 0 0 0 0 0.25 0"/>
<feBlend mode="normal" in2="BackgroundImageFix" result="effect1_dropShadow_6968_109265"/>
<feBlend mode="normal" in="SourceGraphic" in2="effect1_dropShadow_6968_109265" result="shape"/>
<feColorMatrix in="SourceAlpha" type="matrix" values="0 0 0 0 0 0 0 0 0 0 0 0 0 0 0 0 0 0 127 0" result="hardAlpha"/>
<feOffset dy="4"/>
<feGaussianBlur stdDeviation="1"/>
<feComposite in2="hardAlpha" operator="arithmetic" k2="-1" k3="1"/>
<feColorMatrix type="matrix" values="0 0 0 0 0 0 0 0 0 0 0 0 0 0 0 0 0 0 0.25 0"/>
<feBlend mode="normal" in2="shape" result="effect2_innerShadow_6968_109265"/>
</filter>
<filter id="filter1_di_6968_109265" x="7.66406" y="110.568" width="35" height="21.0225" filterUnits="userSpaceOnUse" color-interpolation-filters="sRGB">
<feFlood flood-opacity="0" result="BackgroundImageFix"/>
<feColorMatrix in="SourceAlpha" type="matrix" values="0 0 0 0 0 0 0 0 0 0 0 0 0 0 0 0 0 0 127 0" result="hardAlpha"/>
<feOffset dy="4"/>
<feGaussianBlur stdDeviation="2"/>
<feComposite in2="hardAlpha" operator="out"/>
<feColorMatrix type="matrix" values="0 0 0 0 0 0 0 0 0 0 0 0 0 0 0 0 0 0 0.25 0"/>
<feBlend mode="normal" in2="BackgroundImageFix" result="effect1_dropShadow_6968_109265"/>
<feBlend mode="normal" in="SourceGraphic" in2="effect1_dropShadow_6968_109265" result="shape"/>
<feColorMatrix in="SourceAlpha" type="matrix" values="0 0 0 0 0 0 0 0 0 0 0 0 0 0 0 0 0 0 127 0" result="hardAlpha"/>
<feOffset dy="4"/>
<feGaussianBlur stdDeviation="1"/>
<feComposite in2="hardAlpha" operator="arithmetic" k2="-1" k3="1"/>
<feColorMatrix type="matrix" values="0 0 0 0 0 0 0 0 0 0 0 0 0 0 0 0 0 0 0.25 0"/>
<feBlend mode="normal" in2="shape" result="effect2_innerShadow_6968_109265"/>
</filter>
<filter id="filter2_i_6968_109265" x="122.648" y="133.598" width="60" height="43.2617" filterUnits="userSpaceOnUse" color-interpolation-filters="sRGB">
<feFlood flood-opacity="0" result="BackgroundImageFix"/>
<feBlend mode="normal" in="SourceGraphic" in2="BackgroundImageFix" result="shape"/>
<feColorMatrix in="SourceAlpha" type="matrix" values="0 0 0 0 0 0 0 0 0 0 0 0 0 0 0 0 0 0 127 0" result="hardAlpha"/>
<feOffset dy="4"/>
<feGaussianBlur stdDeviation="2"/>
<feComposite in2="hardAlpha" operator="arithmetic" k2="-1" k3="1"/>
<feColorMatrix type="matrix" values="0 0 0 0 0 0 0 0 0 0 0 0 0 0 0 0 0 0 0.25 0"/>
<feBlend mode="normal" in2="shape" result="effect1_innerShadow_6968_109265"/>
</filter>
<filter id="filter3_d_6968_109265" x="22" y="158.859" width="306.329" height="122.971" filterUnits="userSpaceOnUse" color-interpolation-filters="sRGB">
<feFlood flood-opacity="0" result="BackgroundImageFix"/>
<feColorMatrix in="SourceAlpha" type="matrix" values="0 0 0 0 0 0 0 0 0 0 0 0 0 0 0 0 0 0 127 0" result="hardAlpha"/>
<feOffset dx="5.27384" dy="2.63692"/>
<feGaussianBlur stdDeviation="0.527384"/>
<feComposite in2="hardAlpha" operator="out"/>
<feColorMatrix type="matrix" values="0 0 0 0 0.4 0 0 0 0 0.270588 0 0 0 0 0 0 0 0 1 0"/>
<feBlend mode="normal" in2="BackgroundImageFix" result="effect1_dropShadow_6968_109265"/>
<feBlend mode="normal" in="SourceGraphic" in2="effect1_dropShadow_6968_109265" result="shape"/>
</filter>
</defs>
</svg>
