<svg width="33" height="32" viewBox="0 0 33 32" fill="none" xmlns="http://www.w3.org/2000/svg">
<path d="M13.6976 12.2384H17.4604M17.4604 19.7599H13.6976M15.579 12.2384V19.7599M29.6362 11.4049V20.5956C29.6362 20.5956 29.6362 24.8813 25.3504 24.8813H6.33259C6.33259 24.8813 2.04688 24.8813 2.04688 20.5956V11.4049C2.04688 11.4049 2.04688 7.11914 6.33259 7.11914H25.3504C25.3504 7.11914 29.6362 7.11914 29.6362 11.4049Z" stroke="#202020" stroke-linecap="round" stroke-linejoin="round"/>
<path d="M8.89281 16.6269H10.7742V17.8804C10.7742 18.3794 10.576 18.858 10.2232 19.2108C9.87035 19.5636 9.3918 19.7619 8.89281 19.7619H7.63924C7.39217 19.7619 7.14751 19.7132 6.91925 19.6186C6.69098 19.5241 6.48358 19.3855 6.30887 19.2108C5.95603 18.858 5.75781 18.3794 5.75781 17.8804V14.1197C5.75781 13.0804 6.59996 12.2383 7.63924 12.2383H8.89281C9.28173 12.2388 9.66098 12.3595 9.97861 12.5839C10.2962 12.8083 10.5367 13.1254 10.6671 13.4919M20.9507 19.7619V12.2404H25.965M20.9507 15.6861H25.3371" stroke="#202020" stroke-linecap="round" stroke-linejoin="round"/>
</svg>
