<svg width="28" height="30" viewBox="0 0 28 30" fill="none" xmlns="http://www.w3.org/2000/svg">
<path d="M26.2851 20.6976C27.4701 20.3826 27.8526 18.5576 27.8001 17.6601C27.7401 16.6701 27.1051 15.0776 26.1751 14.9326C26.5151 14.6201 26.9126 13.7276 26.6801 12.3276C26.4401 10.8751 25.3126 9.72012 24.1176 9.89762C23.9676 9.92012 21.4551 10.1876 19.6551 10.4726C17.8551 10.7576 17.7676 10.5351 17.7676 10.5351C19.2376 7.35262 20.3126 -0.224879 15.1001 0.00512134C13.8051 0.270121 15.7026 4.30012 13.0726 7.83512C12.3551 8.80012 11.2976 9.73012 9.74761 10.5351C8.92511 11.0576 8.1451 11.8001 7.6926 12.4176C7.1326 13.1801 6.94261 13.7951 6.1851 14.1101C4.2776 14.9001 2.5001 14.6976 1.6701 14.5251C1.3801 14.4651 1.1001 14.6401 1.0176 14.9251C-0.477395 20.0526 0.742605 24.2926 1.2126 25.6176C1.3001 25.8676 1.5551 26.0176 1.8176 25.9826C3.0876 25.8101 4.0876 25.8051 5.6326 25.9526C7.1176 26.0926 7.94511 27.2001 9.06011 27.9351C11.5776 29.7851 15.2501 29.6501 18.6951 29.5626C19.4376 29.5451 20.1576 29.6526 20.8551 29.7426C21.2076 29.8326 21.5826 29.9051 21.9901 29.9601C23.5526 30.1726 24.2976 29.5876 24.6926 28.5826C25.0376 27.7026 24.8951 26.7651 24.1226 25.9176C24.2876 25.9551 24.4401 25.9876 24.5701 26.0101C26.0826 26.2851 26.9626 24.9776 27.1751 23.6101C27.3526 22.4676 26.9901 21.1376 26.2851 20.6976Z" fill="#FFCA28"/>
<path d="M20.5975 20.1803C20.5975 20.1803 19.765 19.7003 19.6275 19.0478C19.49 18.3953 19.4675 18.0703 19.4475 17.5778C19.4175 16.7603 20.1775 16.2378 20.1775 16.2378L20.23 15.2703C20.23 15.2703 19.4625 14.7828 19.2725 14.6303C18.9775 14.3928 18.8025 13.5078 18.845 13.0553C18.875 12.7378 19.2475 12.1328 19.2475 12.1328C17.4475 12.2403 17.365 14.3378 17.3825 15.0378C17.4075 15.8653 17.045 16.9878 16.525 17.8628C15.855 18.9878 13.495 20.4853 13.375 20.5503C14.75 21.1153 15.5775 22.7528 15.8975 23.9853C16.055 24.5903 16.7325 27.4103 17.1825 27.8453C17.3 28.0128 18.425 28.7528 19.19 28.8753C19.19 28.8753 18.455 28.0703 18.8425 26.7603C19.15 25.7203 20.13 25.4778 20.13 25.4778L20.565 24.7353C20.565 24.7353 19.9425 24.1578 19.805 23.6053C19.6875 23.1328 19.5925 22.0528 19.97 21.5678C20.14 21.3478 20.6475 21.0803 20.6475 21.0803L20.5975 20.1803Z" fill="#FFB300"/>
<path d="M10.5753 10.1907C10.1678 10.7482 8.73531 12.3807 8.42031 12.7707C8.10531 13.1607 6.88531 14.9007 6.48531 15.4607L6.38281 15.4532C6.40531 14.8557 6.70031 13.4957 7.62531 12.1332C8.58531 10.8657 9.97781 10.3032 10.5353 10.0957L10.5753 10.1907Z" fill="#EDA600"/>
<path d="M25.0016 20.3327C21.6016 20.2452 18.7566 20.0702 18.7566 20.0702C18.7566 20.0702 17.7466 20.0352 17.6466 18.2677C17.5691 16.8927 18.5391 16.5102 19.0491 16.4027C20.1116 16.3102 23.5141 15.7952 24.5966 15.6277C25.7341 15.4502 26.1741 14.9377 26.1741 14.9377C26.1741 14.9377 25.6591 14.6677 24.7466 14.7952C23.8316 14.9227 21.1666 15.1702 19.4391 15.3427C19.1691 15.3702 18.5541 15.1552 18.2916 14.2277C18.0441 13.3602 18.4541 12.6902 18.6891 12.4852C19.0966 12.1327 21.2916 11.1727 22.9816 10.7302C24.9891 10.2027 26.1991 11.0927 26.1991 11.0927C25.8091 9.87025 24.4641 9.68275 23.2216 9.77275C22.2966 9.83775 18.6991 10.4802 18.2466 10.3952C18.0916 10.3902 17.9816 10.3277 18.0341 10.1952C18.4266 8.90025 18.8691 6.83025 18.8791 6.33775C18.8841 6.06525 18.6791 6.29525 18.5966 6.52025C18.0166 8.08275 16.5166 10.1402 16.6341 12.2752C16.6791 13.1002 16.9116 14.9952 16.3841 16.4452C15.3866 19.1777 13.2916 20.1452 13.2391 20.2502C13.1866 20.3552 13.2141 20.5102 13.3241 20.5502C13.6766 20.5727 14.0341 20.4302 14.3616 20.3077C15.1291 19.8877 15.8741 19.4127 16.5891 18.9002C16.6966 19.9227 17.1516 20.5227 17.6841 20.8152C16.9616 21.7227 17.0866 24.2452 17.9541 24.8652C17.4166 25.1752 17.1441 25.7127 17.0016 26.2802C16.7166 27.4202 17.0541 27.9302 17.5066 28.4577C17.5066 28.4577 14.9216 28.9652 11.7266 28.3527C8.76915 27.7877 8.75665 25.3852 5.50665 25.3852C2.25665 25.3852 0.589148 26.0902 2.19915 25.9277C4.03665 25.7402 5.26415 26.0177 6.15665 26.0977C7.68415 26.2327 8.09415 28.1327 11.4966 29.1302C13.9066 29.8352 18.9591 29.5252 18.9591 29.5252C18.9591 29.5252 21.3041 30.0002 21.6716 29.9002C21.6716 29.9002 18.8766 28.9027 18.2516 28.1677C18.1316 28.0277 17.5641 27.3752 18.2466 26.0002C18.4291 25.6327 19.2016 25.3852 19.7316 25.4202C19.9191 25.4327 21.0891 25.7002 23.1891 26.1177C24.6091 26.4027 24.8616 27.6102 24.8616 27.6102C24.8616 27.6102 25.0816 25.7602 23.5791 25.4102C22.1516 25.0777 20.0991 24.6202 19.5341 24.4752C18.9691 24.3302 18.3116 23.7777 18.3341 22.5552C18.3516 21.4927 18.9816 21.1252 19.3491 21.1027C19.7166 21.0802 22.7241 21.1802 24.8916 21.2152C25.8141 21.2152 26.3116 20.7127 26.3116 20.7127C26.3116 20.7127 25.9441 20.3577 25.0016 20.3327Z" fill="#EDA600"/>
</svg>
