<svg width="33" height="32" viewBox="0 0 33 32" fill="none" xmlns="http://www.w3.org/2000/svg">
<path d="M23.5422 2.24219C18.0647 2.24219 16.0522 7.83969 16.0522 7.83969C16.0522 7.83969 14.0672 2.24219 8.5522 2.24219C4.4072 2.24219 -0.317801 5.52719 1.4272 12.9947C3.1722 20.4622 16.0672 29.7647 16.0672 29.7647C16.0672 29.7647 28.9147 20.4622 30.6622 12.9947C32.4072 5.52719 28.0222 2.24219 23.5422 2.24219Z" fill="#F44336"/>
<path d="M7.70594 2.79969C12.0059 2.79969 14.1409 7.42219 14.8309 9.29469C14.9284 9.56219 15.3009 9.56969 15.4134 9.30969L16.0434 7.83719C15.1559 5.00219 12.7159 2.24219 8.55094 2.24219C6.82594 2.24219 5.00344 2.81219 3.58594 4.01469C4.83844 3.19219 6.30594 2.79969 7.70594 2.79969Z" fill="#CC3333"/>
<path d="M23.5375 2.24219C22.215 2.24219 21.01 2.52969 20.07 3.10969C20.73 2.85469 21.5475 2.79969 22.3575 2.79969C26.41 2.79969 30.0375 5.87219 28.4 12.9747C26.995 19.0722 18.785 26.4697 16.2775 29.2922C16.1175 29.4722 16.0625 29.7622 16.0625 29.7622C16.0625 29.7622 28.91 20.4597 30.6575 12.9922C32.4025 5.52719 28.025 2.24219 23.5375 2.24219Z" fill="#CC3333"/>
<path d="M4.30849 6.20454C5.24599 5.03454 6.92099 4.06704 8.34099 5.18204C9.10849 5.78454 8.77349 7.01954 8.08599 7.53954C7.08599 8.29954 6.21599 8.75704 5.60599 9.94704C5.24099 10.662 5.02099 11.4445 4.90849 12.242C4.86349 12.557 4.45099 12.6345 4.29599 12.357C3.24099 10.487 2.94099 7.91204 4.30849 6.20454Z" fill="#FF8A80"/>
<path d="M19.3358 8.66489C18.8958 8.66489 18.5858 8.23989 18.7458 7.82989C19.0433 7.07489 19.4283 6.34489 19.8908 5.69489C20.5758 4.73489 21.8783 4.17489 22.7033 4.75739C23.5483 5.35239 23.4383 6.54239 22.8458 7.11739C21.5733 8.34989 19.9683 8.66489 19.3358 8.66489Z" fill="#FF8A80"/>
</svg>
