<svg width="34" height="35" viewBox="0 0 34 35" fill="none" xmlns="http://www.w3.org/2000/svg">
<g id="tick-circle">
<path id="Vector" d="M16.6145 3.62988C8.98377 3.62988 2.76562 9.84799 2.76562 17.4787C2.76562 25.1093 8.98377 31.3274 16.6145 31.3274C24.2452 31.3274 30.4634 25.1093 30.4634 17.4787C30.4634 9.84799 24.2452 3.62988 16.6145 3.62988ZM23.2343 14.2934L15.3819 22.1457C15.1881 22.3396 14.9249 22.4504 14.648 22.4504C14.371 22.4504 14.1078 22.3396 13.914 22.1457L9.99473 18.2265C9.59312 17.8249 9.59312 17.1601 9.99473 16.7585C10.3964 16.3569 11.0611 16.3569 11.4627 16.7585L14.648 19.9438L21.7663 12.8255C22.1679 12.4239 22.8326 12.4239 23.2343 12.8255C23.6359 13.2271 23.6359 13.878 23.2343 14.2934Z" fill="#4CAF50"/>
</g>
</svg>
