<svg width="237" height="177" viewBox="0 0 237 177" fill="none" xmlns="http://www.w3.org/2000/svg">
<path d="M236.411 155.647H0V155.766H236.411V155.647Z" fill="#EBEBEB"/>
<path d="M112.059 134.56H20.7615C20.0463 134.558 19.3608 134.273 18.8555 133.767C18.3502 133.261 18.0664 132.575 18.0664 131.86V3.52187C18.0726 2.81076 18.3592 2.13082 18.8638 1.62974C19.3684 1.12867 20.0504 0.846921 20.7615 0.845703H112.059C112.775 0.845703 113.461 1.13015 113.968 1.63646C114.474 2.14277 114.758 2.82948 114.758 3.54552V131.86C114.758 132.576 114.474 133.263 113.968 133.769C113.461 134.275 112.775 134.56 112.059 134.56ZM20.7615 0.940268C20.0776 0.94152 19.4222 1.21406 18.9391 1.69807C18.456 2.18208 18.1846 2.83801 18.1846 3.52187V131.86C18.1846 132.544 18.456 133.2 18.9391 133.684C19.4222 134.168 20.0776 134.44 20.7615 134.441H112.059C112.743 134.44 113.399 134.168 113.883 133.684C114.367 133.2 114.639 132.544 114.64 131.86V3.52187C114.639 2.83757 114.367 2.18166 113.883 1.69778C113.399 1.21391 112.743 0.941518 112.059 0.940268H20.7615Z" fill="#EBEBEB"/>
<path d="M214.335 134.56H123.033C122.317 134.558 121.631 134.274 121.125 133.768C120.619 133.262 120.334 132.576 120.333 131.86V3.52187C120.34 2.81033 120.628 2.1304 121.133 1.62945C121.639 1.1285 122.321 0.846908 123.033 0.845703H214.335C215.045 0.848164 215.726 1.13046 216.229 1.6314C216.733 2.13235 217.019 2.81158 217.025 3.52187V131.86C217.025 132.574 216.742 133.26 216.238 133.766C215.733 134.272 215.049 134.557 214.335 134.56ZM123.033 0.940268C122.349 0.941518 121.693 1.21391 121.209 1.69778C120.725 2.18166 120.452 2.83757 120.451 3.52187V131.86C120.452 132.544 120.725 133.2 121.209 133.684C121.693 134.168 122.349 134.44 123.033 134.441H214.335C215.019 134.44 215.675 134.168 216.159 133.684C216.643 133.2 216.915 132.544 216.916 131.86V3.52187C216.915 2.83757 216.643 2.18166 216.159 1.69778C215.675 1.21391 215.019 0.941518 214.335 0.940268H123.033Z" fill="#EBEBEB"/>
<path d="M212.722 163.255H200.429V163.374H212.722V163.255Z" fill="#EBEBEB"/>
<path d="M168.339 164.542H147.047V164.66H168.339V164.542Z" fill="#EBEBEB"/>
<path d="M199.957 158.867H171.214V158.985H199.957V158.867Z" fill="#EBEBEB"/>
<path d="M33.8963 159.662H24.804V159.78H33.8963V159.662Z" fill="#EBEBEB"/>
<path d="M64.2514 159.662H38.1091V159.78H64.2514V159.662Z" fill="#EBEBEB"/>
<path d="M115.435 161.657H80.2239V161.775H115.435V161.657Z" fill="#EBEBEB"/>
<path d="M179.006 153.227H182.788V83.2258H179.006V153.227Z" fill="#F0F0F0"/>
<path d="M160.854 155.639H181.795V153.223H160.854V155.639Z" fill="#F0F0F0"/>
<path d="M179.01 83.2207H159.852V153.222H179.01V83.2207Z" fill="#F5F5F5"/>
<path d="M176.968 119.675H161.894V132.177H176.968V119.675Z" fill="#F0F0F0"/>
<path d="M176.968 136.035H161.894V148.537H176.968V136.035Z" fill="#F0F0F0"/>
<path d="M167.421 126.782H171.436C171.744 126.782 171.994 126.532 171.994 126.224V125.623C171.994 125.315 171.744 125.065 171.436 125.065H167.421C167.113 125.065 166.864 125.315 166.864 125.623V126.224C166.864 126.532 167.113 126.782 167.421 126.782Z" fill="#F5F5F5"/>
<path d="M167.421 143.142H171.436C171.744 143.142 171.994 142.892 171.994 142.584V141.983C171.994 141.675 171.744 141.425 171.436 141.425H167.421C167.113 141.425 166.864 141.675 166.864 141.983V142.584C166.864 142.892 167.113 143.142 167.421 143.142Z" fill="#F5F5F5"/>
<path d="M176.968 87.0835H161.894V99.5849H176.968V87.0835Z" fill="#F0F0F0"/>
<path d="M176.968 103.311H161.894V115.812H176.968V103.311Z" fill="#F0F0F0"/>
<path d="M167.421 94.1904H171.436C171.744 94.1904 171.994 93.9406 171.994 93.6325V93.032C171.994 92.7239 171.744 92.4741 171.436 92.4741H167.421C167.113 92.4741 166.864 92.7239 166.864 93.032V93.6325C166.864 93.9406 167.113 94.1904 167.421 94.1904Z" fill="#F5F5F5"/>
<path d="M167.421 110.422H171.436C171.744 110.422 171.994 110.172 171.994 109.864V109.263C171.994 108.955 171.744 108.706 171.436 108.706H167.421C167.113 108.706 166.864 108.955 166.864 109.263V109.864C166.864 110.172 167.113 110.422 167.421 110.422Z" fill="#F5F5F5"/>
<path d="M199.975 153.227H211.323V83.2258H199.975V153.227Z" fill="#F0F0F0"/>
<path d="M181.809 155.639H210.155V153.223H181.809V155.639Z" fill="#F0F0F0"/>
<path d="M199.975 83.2207H180.816V153.222H199.975V83.2207Z" fill="#F5F5F5"/>
<path d="M197.932 119.675H182.858V132.177H197.932V119.675Z" fill="#F0F0F0"/>
<path d="M197.932 136.035H182.858V148.537H197.932V136.035Z" fill="#F0F0F0"/>
<path d="M188.386 126.782H192.401C192.709 126.782 192.958 126.532 192.958 126.224V125.623C192.958 125.315 192.709 125.065 192.401 125.065H188.386C188.078 125.065 187.828 125.315 187.828 125.623V126.224C187.828 126.532 188.078 126.782 188.386 126.782Z" fill="#F5F5F5"/>
<path d="M188.386 143.142H192.401C192.709 143.142 192.958 142.892 192.958 142.584V141.983C192.958 141.675 192.709 141.425 192.401 141.425H188.386C188.078 141.425 187.828 141.675 187.828 141.983V142.584C187.828 142.892 188.078 143.142 188.386 143.142Z" fill="#F5F5F5"/>
<path d="M197.932 87.0835H182.858V99.5849H197.932V87.0835Z" fill="#F0F0F0"/>
<path d="M197.932 103.311H182.858V115.812H197.932V103.311Z" fill="#F0F0F0"/>
<path d="M188.386 94.1904H192.401C192.709 94.1904 192.958 93.9406 192.958 93.6325V93.032C192.958 92.7239 192.709 92.4741 192.401 92.4741H188.386C188.078 92.4741 187.828 92.7239 187.828 93.032V93.6325C187.828 93.9406 188.078 94.1904 188.386 94.1904Z" fill="#F5F5F5"/>
<path d="M188.386 110.422H192.401C192.709 110.422 192.958 110.172 192.958 109.864V109.263C192.958 108.955 192.709 108.706 192.401 108.706H188.386C188.078 108.706 187.828 108.955 187.828 109.263V109.864C187.828 110.172 188.078 110.422 188.386 110.422Z" fill="#F5F5F5"/>
<path d="M138.362 68.6104L202.056 68.6104V12.6944L138.362 12.6944V68.6104Z" fill="#E6E6E6"/>
<path d="M131.534 10.5195H206.178C206.347 10.5195 206.508 10.5863 206.627 10.7051C206.745 10.8239 206.812 10.9851 206.812 11.1531C206.811 11.3203 206.744 11.4803 206.625 11.5981C206.506 11.7159 206.346 11.782 206.178 11.782H131.534C131.368 11.7807 131.209 11.7141 131.091 11.5964C130.973 11.4787 130.907 11.3195 130.905 11.1531C130.905 10.9859 130.971 10.8255 131.089 10.7068C131.207 10.5881 131.367 10.5208 131.534 10.5195Z" fill="#E6E6E6"/>
<path d="M135.662 68.6104L200.798 68.6104V12.6944L135.662 12.6944V68.6104Z" fill="#F0F0F0"/>
<path d="M138.362 68.6104H202.056V70.4023H136.499L138.362 68.6104Z" fill="#E6E6E6"/>
<path d="M131.156 68.6104H196.292L194.429 70.4023H129.293L131.156 68.6104Z" fill="#F0F0F0"/>
<path d="M197.011 64.8283V16.4775L139.445 16.4775V64.8283H197.011Z" fill="#FAFAFA"/>
<path d="M183.942 64.8283L161.733 16.4775H151.251L173.459 64.8283H183.942Z" fill="white"/>
<path d="M171.209 64.8283L149 16.4775H144.91L167.119 64.8283H171.209Z" fill="white"/>
<path d="M139.922 64.8283V16.4775H139.44V64.8283H139.922Z" fill="#E6E6E6"/>
<g opacity="0.4">
<path d="M196.964 55.5273H203.475V9.38467H196.964V55.5273Z" fill="#F0F0F0"/>
<path d="M194.429 55.5273H199.502V9.38467H194.429V55.5273Z" fill="#E6E6E6"/>
<path d="M190.457 55.5273H196.968V9.38467H190.457V55.5273Z" fill="#F0F0F0"/>
<path d="M187.918 55.5273H192.992V9.38467H187.918V55.5273Z" fill="#E6E6E6"/>
<path d="M183.942 55.5273H190.453V9.38467H183.942V55.5273Z" fill="#F0F0F0"/>
</g>
<g opacity="0.4">
<path d="M141.865 55.5273H145.62V9.38467H141.865V55.5273Z" fill="#F0F0F0"/>
<path d="M140.405 55.5273H143.327V9.38467H140.405V55.5273Z" fill="#E6E6E6"/>
<path d="M138.111 55.5273H141.865V9.38467H138.111V55.5273Z" fill="#F0F0F0"/>
<path d="M136.655 55.5273H139.577V9.38467H136.655V55.5273Z" fill="#E6E6E6"/>
<path d="M134.357 55.5273H138.111V9.38467H134.357V55.5273Z" fill="#F0F0F0"/>
</g>
<path d="M77.6467 46.5676H86.6587L85.5949 23.7114H77.6467V46.5676Z" fill="#F5F5F5"/>
<path d="M91.7509 47.8013L93.6942 57.9528H91.7509L79.8311 47.8013H91.7509Z" fill="#F5F5F5"/>
<path d="M93.6943 47.8013V57.9528L81.7744 47.8013H93.6943Z" fill="#E6E6E6"/>
<path d="M45.0031 47.8013L46.9464 57.9528H45.0031L33.0833 47.8013H45.0031Z" fill="#F5F5F5"/>
<path d="M46.946 47.8013V57.9528L35.0261 47.8013H46.946Z" fill="#E6E6E6"/>
<path d="M102.446 46.6011H89.4814V48.0668H102.446V46.6011Z" fill="#E6E6E6"/>
<path d="M25.0264 48.0664L89.4814 48.0664V46.6007L25.0264 46.6007V48.0664Z" fill="#F5F5F5"/>
<path d="M64.4028 46.5675H83.7507L86.1432 18.8696H66.7953L64.4028 46.5675Z" fill="#E6E6E6"/>
<path d="M63.4004 46.5675H82.7483L85.1407 18.8696H65.7929L63.4004 46.5675Z" fill="#F0F0F0"/>
<path d="M81.1267 43.499L83.3159 21.9336H67.4196L65.2305 43.499H81.1267Z" fill="white"/>
<path d="M55.741 46.5674H61.9491L61.2162 30.8271H55.741V46.5674Z" fill="#E0E0E0"/>
<path d="M46.625 46.5673H59.9444L61.5945 27.4937H48.2704L46.625 46.5673Z" fill="#F0F0F0"/>
<path d="M45.9346 46.5673H59.2587L60.9041 27.4937H47.58L45.9346 46.5673Z" fill="#F5F5F5"/>
<path d="M58.138 44.4545L59.6415 29.6079H48.7004L47.1921 44.4545H58.138Z" fill="#E0E0E0"/>
<path d="M124.049 86.6342C124.093 87.1628 123.98 87.6927 123.723 88.1566C123.465 88.6206 123.076 88.9979 122.605 89.2407C122.133 89.4835 121.6 89.5809 121.073 89.5206C120.546 89.4603 120.049 89.245 119.644 88.902C119.239 88.5589 118.946 88.1036 118.8 87.5935C118.654 87.0834 118.663 86.5416 118.825 86.0366C118.988 85.5316 119.296 85.0861 119.712 84.7565C120.128 84.4269 120.632 84.228 121.16 84.185C121.511 84.1558 121.864 84.1961 122.199 84.3035C122.534 84.4108 122.844 84.5832 123.113 84.8106C123.381 85.0381 123.602 85.3163 123.762 85.6292C123.923 85.9421 124.021 86.2836 124.049 86.6342Z" fill="#E0E0E0"/>
<path d="M129.028 88.0337C129.072 88.5624 128.959 89.0922 128.702 89.5562C128.444 90.0201 128.055 90.3974 127.584 90.6402C127.112 90.883 126.579 90.9804 126.052 90.9201C125.525 90.8598 125.028 90.6445 124.623 90.3015C124.218 89.9585 123.925 89.5031 123.779 88.993C123.633 88.483 123.642 87.9411 123.804 87.4361C123.967 86.9311 124.275 86.4856 124.691 86.156C125.107 85.8264 125.611 85.6275 126.139 85.5845C126.847 85.527 127.549 85.7525 128.09 86.2117C128.632 86.6708 128.969 87.3261 129.028 88.0337Z" fill="#E0E0E0"/>
<path d="M132.626 86.4262C132.67 86.9548 132.555 87.4842 132.297 87.9476C132.039 88.4111 131.65 88.7876 131.178 89.0297C130.706 89.2717 130.173 89.3685 129.647 89.3076C129.12 89.2467 128.623 89.031 128.219 88.6877C127.815 88.3444 127.521 87.8889 127.376 87.3789C127.231 86.8689 127.24 86.3273 127.403 85.8226C127.565 85.3178 127.874 84.8726 128.289 84.5433C128.705 84.2139 129.209 84.0152 129.737 83.9723C130.446 83.9161 131.147 84.1427 131.689 84.6026C132.23 85.0626 132.567 85.7183 132.626 86.4262Z" fill="#E0E0E0"/>
<path d="M136.423 87.4289C136.465 87.9562 136.35 88.4841 136.092 88.946C135.835 89.4079 135.446 89.7831 134.975 90.0241C134.504 90.2652 133.972 90.3613 133.447 90.3003C132.921 90.2394 132.426 90.0241 132.023 89.6817C131.62 89.3392 131.327 88.885 131.182 88.3763C131.037 87.8677 131.046 87.3275 131.207 86.8238C131.369 86.3202 131.676 85.8758 132.09 85.5467C132.505 85.2177 133.007 85.0187 133.534 84.975C133.885 84.9459 134.238 84.9863 134.573 85.094C134.909 85.2016 135.219 85.3744 135.488 85.6023C135.756 85.8303 135.977 86.109 136.137 86.4224C136.298 86.7359 136.395 87.0779 136.423 87.4289Z" fill="#E0E0E0"/>
<path d="M139.832 87.8447C139.832 87.8447 139.52 95.2869 127.567 95.2869C115.614 95.2869 115.274 87.8447 115.274 87.8447H139.832Z" fill="#F0F0F0"/>
<path d="M28.3125 155.647H32.6577L32.6577 95.3012H28.3125L28.3125 155.647Z" fill="#E6E6E6"/>
<path d="M27.1542 155.647H29.7122L29.7122 95.3012H27.1542L27.1542 155.647Z" fill="#F0F0F0"/>
<path d="M88.0439 95.3013H26.3596V99.8262H88.0439V95.3013Z" fill="#F0F0F0"/>
<path d="M146.461 155.647H150.807V95.3012H146.461V155.647Z" fill="#E6E6E6"/>
<path d="M145.648 155.647H148.206V95.3012H145.648V155.647Z" fill="#F0F0F0"/>
<path d="M151.582 95.3013H89.8975V99.8262H151.582V95.3013Z" fill="#E6E6E6"/>
<path d="M88.4082 155.647H92.7534L92.7534 95.3012H88.4082V155.647Z" fill="#E6E6E6"/>
<path d="M87.2496 155.647H89.8076L89.8076 95.3012H87.2496L87.2496 155.647Z" fill="#F0F0F0"/>
<path d="M102.669 75.2305H70.4647L64.7246 94.2474H96.9332L102.669 75.2305Z" fill="#E6E6E6"/>
<path d="M96.933 94.2476L96.8053 95.302H64.5967L64.7243 94.2476H96.933Z" fill="#E6E6E6"/>
<path d="M101.68 75.2305H69.4717L63.7363 94.2474H95.9402L101.68 75.2305Z" fill="#F0F0F0"/>
<path d="M95.3112 93.3812L100.522 76.0996H70.1051L64.8899 93.3812H95.3112Z" fill="white"/>
<path d="M87.5521 94.2476L87.4197 95.302H51.9534L52.081 94.2476H87.5521Z" fill="#F0F0F0"/>
<path d="M118.206 177C168.837 177 209.881 174.604 209.881 171.648C209.881 168.692 168.837 166.295 118.206 166.295C67.5748 166.295 26.5303 168.692 26.5303 171.648C26.5303 174.604 67.5748 177 118.206 177Z" fill="#F5F5F5"/>
<path d="M178.514 26.4486H124.097C122.231 26.4793 120.443 27.2046 119.082 28.4828C117.722 29.761 116.887 31.5004 116.74 33.3613L108.277 163.652C108.208 164.539 108.324 165.431 108.619 166.271C108.913 167.11 109.379 167.88 109.987 168.529C110.595 169.179 111.332 169.695 112.15 170.045C112.968 170.394 113.85 170.57 114.74 170.56H169.176C171.042 170.53 172.83 169.806 174.191 168.529C175.551 167.251 176.386 165.513 176.533 163.652L182.604 70.005C182.862 69.915 183.089 69.7524 183.256 69.5369C183.424 69.3213 183.526 69.0619 183.55 68.7898L184.637 52.033C184.656 51.7727 184.59 51.5133 184.448 51.294C184.307 51.0748 184.098 50.9076 183.852 50.8179L184.982 33.3613C185.051 32.4735 184.935 31.5811 184.64 30.7408C184.345 29.9005 183.879 29.1308 183.271 28.4806C182.662 27.8304 181.925 27.314 181.106 26.9641C180.287 26.6143 179.405 26.4387 178.514 26.4486Z" fill="#00A8E8"/>
<path d="M112.333 60.1848H113.402C113.732 60.1789 114.049 60.0503 114.29 59.824C114.531 59.5977 114.68 59.2898 114.707 58.9602L115.179 51.9625C115.191 51.805 115.17 51.6469 115.118 51.498C115.065 51.3491 114.982 51.2128 114.874 51.0976C114.766 50.9825 114.635 50.891 114.49 50.8291C114.345 50.7672 114.188 50.7361 114.03 50.7379H112.967C112.636 50.7427 112.318 50.871 112.077 51.0975C111.836 51.324 111.687 51.6325 111.662 51.9625L111.189 58.9602C111.177 59.1173 111.198 59.2751 111.25 59.4236C111.302 59.5722 111.385 59.7083 111.492 59.8233C111.6 59.9384 111.73 60.0299 111.875 60.0922C112.019 60.1544 112.175 60.1859 112.333 60.1848Z" fill="#00A8E8"/>
<path d="M111.524 72.6761H112.588C112.92 72.6701 113.238 72.541 113.48 72.3138C113.722 72.0866 113.871 71.7776 113.898 71.4467L114.371 64.4537C114.383 64.2962 114.362 64.1381 114.309 63.9892C114.257 63.8403 114.174 63.704 114.066 63.5888C113.958 63.4737 113.827 63.3823 113.682 63.3203C113.536 63.2584 113.38 63.2273 113.222 63.2291H112.158C111.827 63.2339 111.509 63.3619 111.267 63.5884C111.024 63.8148 110.875 64.1233 110.848 64.4537L110.376 71.4467C110.362 71.6047 110.382 71.7637 110.434 71.9135C110.486 72.0632 110.569 72.2004 110.677 72.3163C110.786 72.4321 110.917 72.5239 111.063 72.5859C111.209 72.6479 111.366 72.6786 111.524 72.6761Z" fill="#00A8E8"/>
<path d="M166.282 170.56H111.865C110.975 170.57 110.093 170.394 109.275 170.045C108.457 169.695 107.72 169.179 107.112 168.529C106.504 167.88 106.038 167.11 105.744 166.271C105.449 165.431 105.333 164.539 105.402 163.652L113.846 33.3612C113.994 31.4999 114.83 29.7605 116.191 28.4824C117.553 27.2043 119.341 26.4792 121.208 26.4486H175.62C176.51 26.4394 177.393 26.6154 178.211 26.9655C179.029 27.3156 179.766 27.8322 180.374 28.4823C180.981 29.1325 181.447 29.902 181.742 30.7419C182.036 31.5818 182.153 32.4739 182.084 33.3612L173.639 163.652C173.492 165.512 172.657 167.251 171.297 168.529C169.936 169.806 168.148 170.53 166.282 170.56Z" fill="#263238"/>
<path opacity="0.2" d="M142.773 165.021C144.679 163.175 144.823 160.231 143.093 158.445C141.364 156.659 138.417 156.707 136.511 158.552C134.605 160.398 134.461 163.342 136.19 165.128C137.919 166.914 140.866 166.866 142.773 165.021Z" fill="white"/>
<path d="M171.199 153.647H109.34C109.13 153.647 108.921 153.604 108.728 153.52C108.535 153.436 108.361 153.314 108.217 153.16C108.073 153.006 107.962 152.824 107.891 152.626C107.82 152.428 107.79 152.217 107.803 152.007L115.042 40.2695C115.074 39.8836 115.25 39.5237 115.535 39.2611C115.819 38.9984 116.192 38.8521 116.579 38.8511H178.443C178.654 38.8513 178.862 38.8947 179.055 38.9786C179.249 39.0624 179.423 39.185 179.567 39.3388C179.711 39.4925 179.822 39.6742 179.893 39.8725C179.964 40.0708 179.993 40.2815 179.98 40.4918L172.736 152.205C172.711 152.596 172.538 152.962 172.253 153.23C171.967 153.498 171.591 153.647 171.199 153.647Z" fill="white"/>
<path opacity="0.2" d="M153.94 109.607C160.859 102.908 161.38 92.2217 155.103 85.7375C148.826 79.2533 138.128 79.427 131.208 86.1254C124.289 92.8238 123.768 103.51 130.045 109.995C136.322 116.479 147.02 116.305 153.94 109.607Z" fill="#4CAF50"/>
<path opacity="0.2" d="M140.901 123.902C126.541 123.902 115.614 112.219 116.546 97.8594C117.477 83.4998 129.912 71.8164 144.277 71.8164C158.641 71.8164 169.563 83.4998 168.632 97.8594C167.7 112.219 155.246 123.902 140.901 123.902ZM144.21 72.2892C130.111 72.2892 117.898 83.7599 116.985 97.8594C116.073 111.959 126.796 123.43 140.896 123.43C154.995 123.43 167.208 111.959 168.126 97.8594C169.043 83.7599 158.329 72.2892 144.21 72.2892Z" fill="#00A8E8"/>
<path d="M138.537 106.044L137.118 103.306C134.045 97.3439 126.967 92.0152 124.494 90.4644L126.83 86.9702C129.757 88.8047 135.605 93.3486 139.275 98.7482C146.06 90.7102 155.648 82.4311 168.485 73.4995L170.675 76.8093C156.963 86.3508 147.095 95.0744 140.532 103.481L138.537 106.044Z" fill="#4CAF50"/>
<path opacity="0.2" d="M137.866 33.8867C138.637 33.1402 138.694 31.948 137.993 31.2238C137.292 30.4995 136.099 30.5176 135.327 31.2641C134.556 32.0106 134.499 33.2028 135.201 33.927C135.902 34.6513 137.095 34.6332 137.866 33.8867Z" fill="white"/>
<path opacity="0.2" d="M143.223 30.6896H158.868C159.111 30.6867 159.352 30.7348 159.576 30.8306C159.8 30.9264 160.001 31.0679 160.166 31.246C160.332 31.4241 160.458 31.6348 160.538 31.8647C160.617 32.0946 160.648 32.3385 160.627 32.5809C160.588 33.0891 160.361 33.5646 159.991 33.9144C159.62 34.2641 159.132 34.463 158.622 34.4721H142.981C142.738 34.4742 142.497 34.4257 142.274 34.3297C142.05 34.2336 141.849 34.0922 141.684 33.9144C141.518 33.7365 141.391 33.5261 141.311 33.2966C141.23 33.067 141.199 32.8233 141.218 32.5809C141.257 32.0726 141.483 31.5971 141.854 31.2474C142.225 30.8976 142.713 30.6987 143.223 30.6896Z" fill="white"/>
<path d="M84.985 65.6222C84.1859 66.4402 83.3301 67.3433 82.5405 68.2416C81.7509 69.14 80.9613 70.062 80.219 71.0076C79.4766 71.9533 78.8005 72.8989 78.1007 73.8966L77.6279 74.6389L77.1551 75.3907C76.999 75.6413 76.8572 75.8966 76.7201 76.1567L76.3418 76.8517C76.1876 77.2492 76.0997 77.6693 76.0818 78.0952C76.0439 78.6431 76.0439 79.1928 76.0818 79.7407C76.1745 80.9226 76.3323 82.0986 76.5546 83.2632C76.7626 84.4547 77.0274 85.6509 77.3064 86.8424C77.5853 88.034 77.8927 89.2396 78.2047 90.4122L76.4553 91.0695C75.3803 88.7568 74.4794 86.3672 73.7602 83.9204C73.395 82.6594 73.1154 81.3751 72.9233 80.0764C72.8277 79.3838 72.7787 78.6856 72.7767 77.9865C72.7656 77.1628 72.905 76.344 73.1881 75.5704C73.2968 75.3056 73.3536 75.2016 73.4292 75.0408L73.6467 74.5916C73.7886 74.2938 73.9351 73.9959 74.1196 73.7075L74.5924 72.8375L75.0936 71.9911C75.7614 70.8762 76.489 69.7981 77.2733 68.7617C78.0487 67.7263 78.8525 66.7191 79.6988 65.7451C80.5452 64.7711 81.401 63.8538 82.3845 62.9082L84.985 65.6222Z" fill="#B55B52"/>
<path d="M85.1882 59.9489C82.6255 60.0624 80.1904 64.3178 80.1904 64.3178L83.5758 71.2257C83.5758 71.2257 88.1622 67.4053 88.2189 63.6606C88.2568 61.2066 87.7083 59.8307 85.1882 59.9489Z" fill="#00A8E8"/>
<path opacity="0.7" d="M85.1882 59.9489C82.6255 60.0624 80.1904 64.3178 80.1904 64.3178L83.5758 71.2257C83.5758 71.2257 88.1622 67.4053 88.2189 63.6606C88.2568 61.2066 87.7083 59.8307 85.1882 59.9489Z" fill="white"/>
<path opacity="0.2" d="M85.7983 64.9129C85.0512 66.043 84.6918 68.9745 84.5784 70.2795C85.7065 69.1824 86.6629 67.9215 87.4153 66.5394C86.9094 65.277 86.29 64.1706 85.7983 64.9129Z" fill="black"/>
<path d="M77.6987 89.6938L80.8146 90.6395L78.7389 92.7388C78.7389 92.7388 76.493 92.0438 76.1809 90.5166L77.6987 89.6938Z" fill="#B55B52"/>
<path d="M82.7013 93.0178L82.1764 95.0273L78.739 92.7199L80.8147 90.6206L82.7013 93.0178Z" fill="#B55B52"/>
<path d="M103.203 51.7447C103.103 52.0237 103.174 52.3073 103.359 52.3735C103.543 52.4397 103.77 52.2742 103.865 51.9953C103.959 51.7163 103.893 51.4279 103.709 51.3617C103.524 51.2955 103.302 51.461 103.203 51.7447Z" fill="#263238"/>
<path d="M103.624 51.3472L104.366 51.4086C104.366 51.4086 103.836 51.8011 103.624 51.3472Z" fill="#263238"/>
<path d="M103.345 52.1045C103.373 52.8401 103.5 53.5685 103.723 54.27C103.543 54.3172 103.354 54.3248 103.17 54.2921C102.987 54.2595 102.812 54.1874 102.659 54.0809L103.345 52.1045Z" fill="#A02724"/>
<path d="M104.12 50.653C104.086 50.6483 104.055 50.6336 104.03 50.6109C104.004 50.5881 103.986 50.5583 103.978 50.5253C103.926 50.3116 103.827 50.1124 103.687 49.9429C103.547 49.7733 103.37 49.6378 103.17 49.5466C103.127 49.5306 103.092 49.4983 103.072 49.4567C103.053 49.4152 103.05 49.3676 103.066 49.3243C103.073 49.3027 103.085 49.2827 103.1 49.2656C103.115 49.2486 103.134 49.2347 103.155 49.225C103.175 49.2153 103.198 49.2099 103.221 49.2091C103.244 49.2083 103.266 49.2121 103.288 49.2203C103.545 49.3321 103.773 49.503 103.952 49.719C104.131 49.935 104.256 50.1902 104.319 50.4638C104.324 50.4862 104.325 50.5095 104.322 50.5323C104.319 50.5551 104.311 50.577 104.299 50.5968C104.287 50.6166 104.272 50.6338 104.253 50.6475C104.234 50.6612 104.213 50.6711 104.191 50.6766L104.12 50.653Z" fill="#263238"/>
<path d="M93.4909 52.9321C93.5571 55.1686 93.3301 59.1923 91.5996 60.3318C91.5996 60.3318 91.8313 62.6297 95.855 63.4099C100.276 64.2657 98.3279 61.6368 98.3279 61.6368C96.011 60.5966 96.3657 58.8282 97.0607 57.2395L93.4909 52.9321Z" fill="#B55B52"/>
<path d="M106.631 68.2368C107.028 69.3196 107.482 70.4922 107.965 71.6033C108.447 72.7144 108.91 73.8398 109.473 74.9131C110.036 75.9864 110.584 77.0644 111.18 78.1093C111.487 78.6247 111.794 79.1401 112.125 79.6318C112.286 79.8871 112.452 80.133 112.627 80.3647L112.882 80.724L113.01 80.9084L113.076 80.9983L113.118 81.0456C113.426 81.3954 113.779 81.7023 114.168 81.9581C114.637 82.2782 115.123 82.5718 115.624 82.8376C116.66 83.3955 117.771 83.9014 118.901 84.379C120.031 84.8565 121.185 85.3246 122.353 85.7359C123.52 86.1473 124.717 86.5823 125.866 86.9842L125.426 88.8046C122.892 88.381 120.389 87.7918 117.932 87.0409C116.674 86.6573 115.439 86.2011 114.234 85.6745C113.602 85.394 112.987 85.0783 112.39 84.7288C111.698 84.3343 111.071 83.8351 110.532 83.2489L110.419 83.1212L110.338 83.022L110.182 82.8281L109.87 82.4309C109.657 82.1709 109.454 81.9061 109.265 81.6366C108.863 81.1023 108.494 80.5538 108.13 80.0006C107.413 78.9033 106.751 77.7702 106.149 76.6058C105.548 75.4473 104.981 74.2795 104.461 73.088C103.941 71.8965 103.473 70.7239 103.042 69.4189L106.631 68.2368Z" fill="#B55B52"/>
<path d="M125.241 86.975L128.031 85.897L127.894 89.1169C127.894 89.1169 125.634 89.7174 124.584 88.5779L125.241 86.975Z" fill="#B55B52"/>
<path d="M130.135 87.0034L131.09 89.0602L127.894 89.1169L128.031 85.897L130.135 87.0034Z" fill="#B55B52"/>
<path d="M83.8694 167.699L87.5621 167.974L88.6591 159.496L84.9663 159.222L83.8694 167.699Z" fill="#B55B52"/>
<path d="M54.6206 148.522L57.032 151.388L64.1905 146.787L61.7791 143.922L54.6206 148.522Z" fill="#B55B52"/>
<path d="M58.1571 151.019L56.2138 147.283C56.1829 147.218 56.1292 147.167 56.063 147.139C55.9967 147.111 55.9225 147.109 55.8545 147.132L52.767 148.201C52.6895 148.232 52.6195 148.279 52.5616 148.339C52.5037 148.399 52.4592 148.471 52.4311 148.55C52.4029 148.628 52.3918 148.712 52.3983 148.795C52.4049 148.878 52.429 148.959 52.4691 149.033C53.1689 150.323 53.5708 150.924 54.4218 152.555C54.9514 153.562 55.6181 155.094 56.3415 156.489C57.0649 157.884 58.4456 157.265 58.2659 156.617C57.4526 153.728 57.9917 152.929 58.2659 151.676C58.3049 151.451 58.2665 151.219 58.1571 151.019Z" fill="#263238"/>
<path d="M87.7936 167.449H83.6422C83.5707 167.448 83.5013 167.473 83.4467 167.519C83.392 167.565 83.3557 167.629 83.3443 167.7L82.7864 170.981C82.7749 171.063 82.7811 171.146 82.8046 171.226C82.828 171.305 82.8683 171.378 82.9225 171.44C82.9768 171.503 83.0438 171.553 83.119 171.587C83.1942 171.621 83.2759 171.639 83.3585 171.638C84.8101 171.615 85.5051 171.53 87.3302 171.53C88.4555 171.53 90.7723 171.648 92.3232 171.648C93.8741 171.648 93.997 170.116 93.354 169.974C90.4745 169.355 89.3586 168.494 88.4035 167.676C88.235 167.528 88.0179 167.447 87.7936 167.449Z" fill="#263238"/>
<path opacity="0.2" d="M88.6586 159.496L88.0487 164.21L84.3701 163.841L84.9659 159.227L88.6586 159.496Z" fill="black"/>
<path opacity="0.2" d="M61.7788 143.922L64.1902 146.787L61.2256 148.693L58.7244 145.884L61.7788 143.922Z" fill="black"/>
<path d="M84.1624 82.4311L98.9711 85.3011C105.969 64.7003 104.295 64.0241 104.295 64.0241C103.207 63.4363 102.085 62.9153 100.933 62.4638L100.73 62.3882C99.7844 62.043 99.5858 61.991 98.3186 61.6222C96.1342 61.1068 94.1058 60.6766 91.5951 60.3219L91.1223 60.2558C90.6495 60.199 90.2145 60.1517 89.7795 60.1092C89.4863 60.0761 89.1932 60.0572 88.9142 60.0383L87.9686 59.9862C86.3515 59.9059 85.1931 59.9295 85.1931 59.9295C86.0064 72.795 85.387 76.4972 84.1624 82.4311Z" fill="#00A8E8"/>
<path opacity="0.7" d="M84.1624 82.4311L98.9711 85.3011C105.969 64.7003 104.295 64.0241 104.295 64.0241C103.207 63.4363 102.085 62.9153 100.933 62.4638L100.73 62.3882C99.7844 62.043 99.5858 61.991 98.3186 61.6222C96.1342 61.1068 94.1058 60.6766 91.5951 60.3219L91.1223 60.2558C90.6495 60.199 90.2145 60.1517 89.7795 60.1092C89.4863 60.0761 89.1932 60.0572 88.9142 60.0383L87.9686 59.9862C86.3515 59.9059 85.1931 59.9295 85.1931 59.9295C86.0064 72.795 85.387 76.4972 84.1624 82.4311Z" fill="white"/>
<path opacity="0.2" d="M102.167 68.8322L100.829 68.6147C100.829 70.3784 101.501 73.4044 102.153 75.3288C102.706 73.4375 103.136 71.8819 103.463 70.5722L102.167 68.8322Z" fill="black"/>
<path d="M103.78 63.7743C105.969 64.4741 107.562 68.8051 108.158 70.6727L103.903 75.6705C103.903 75.6705 99.5431 69.4056 100.238 67.4623C100.919 65.4386 102.72 63.4291 103.78 63.7743Z" fill="#00A8E8"/>
<path opacity="0.7" d="M103.78 63.7743C105.969 64.4741 107.562 68.8051 108.158 70.6727L103.903 75.6705C103.903 75.6705 99.5431 69.4056 100.238 67.4623C100.919 65.4386 102.72 63.4291 103.78 63.7743Z" fill="white"/>
<path d="M105.198 47.7829C104.758 49.0737 102.834 49.589 100.919 48.9413C99.004 48.2935 97.7936 46.7095 98.2333 45.4187C98.673 44.1279 100.597 43.6126 102.489 44.2651C104.38 44.9176 105.633 46.492 105.198 47.7829Z" fill="#263238"/>
<path d="M94.0914 47.4279C93.1079 50.9457 92.6162 52.4114 93.7415 54.8322C95.4342 58.4777 99.9639 59.0498 101.978 55.9245C103.789 53.1159 105.094 47.8345 102.2 45.1914C101.59 44.6012 100.836 44.1805 100.013 43.9707C99.1897 43.7609 98.3262 43.7693 97.5075 43.9951C96.6888 44.2209 95.9431 44.6563 95.3441 45.2583C94.745 45.8603 94.3132 46.6081 94.0914 47.4279Z" fill="#B55B52"/>
<path d="M99.5858 43.3194C98.1673 44.1327 95.1554 39.0404 91.4154 43.3194C88.7392 46.3881 90.4461 50.8846 90.4461 50.8846C90.4461 50.8846 88.3137 47.1351 86.6115 48.9649C84.3893 51.329 86.6872 59.7878 94.0159 59.2062C101.345 58.6247 100.635 52.6766 100.635 52.6766C100.635 52.6766 104.068 49.1872 103.898 46.0571C103.77 43.7119 101.95 41.9814 99.5858 43.3194Z" fill="#263238"/>
<path d="M100.475 50.4494C100.292 51.104 100.315 51.799 100.541 52.44C100.844 53.3431 101.539 53.3478 101.908 52.7237C102.276 52.0995 102.48 51.0168 101.955 50.2886C101.43 49.5605 100.711 49.726 100.475 50.4494Z" fill="#B55B52"/>
<path d="M95.037 84.5357C95.037 84.5357 93.4578 90.011 91.4294 97.2357C90.0818 102.049 88.531 107.638 87.1172 112.9C86.3087 115.912 85.5475 118.815 84.8902 121.411C81.1739 136.092 62.6393 148.712 62.6393 148.712L59.0505 144.764C59.0505 144.764 71.5047 134.277 75.1265 120.579C82.441 92.7723 78.3275 88.0819 84.1574 82.4316L95.037 84.5357Z" fill="#263238"/>
<path opacity="0.2" d="M93.4392 89.4425C92.8908 91.5655 92.2004 94.2464 91.4392 97.2441C90.0917 102.057 88.5408 107.646 87.1271 112.909C86.5219 106.195 86.1814 93.8492 91.1224 90.0099C92.0964 89.2629 92.8671 89.1068 93.4392 89.4425Z" fill="black"/>
<path d="M62.947 149.279L58.4646 144.348L59.8216 142.986L65.3205 148.168L62.947 149.279Z" fill="#00A8E8"/>
<path opacity="0.7" d="M62.947 149.279L58.4646 144.348L59.8216 142.986L65.3205 148.168L62.947 149.279Z" fill="white"/>
<path d="M58.8333 153.024C58.7882 153.023 58.7436 153.015 58.7009 153C58.2612 152.839 57.9822 151.997 57.8546 151.51C57.8504 151.494 57.8514 151.476 57.8573 151.46C57.8632 151.444 57.8738 151.431 57.8877 151.421C57.9014 151.411 57.918 151.405 57.935 151.405C57.9519 151.405 57.9685 151.411 57.9822 151.421C58.1146 151.496 59.2778 152.177 59.3014 152.655C59.3053 152.707 59.2951 152.759 59.2718 152.805C59.2485 152.852 59.213 152.891 59.169 152.919C59.0724 152.992 58.9539 153.028 58.8333 153.024ZM58.0815 151.676C58.2754 152.314 58.5213 152.745 58.7624 152.83C58.8139 152.846 58.8687 152.848 58.9216 152.838C58.9744 152.827 59.0238 152.803 59.065 152.768C59.1265 152.726 59.1312 152.683 59.1265 152.655C59.1028 152.409 58.5402 151.964 58.0815 151.676Z" fill="#00A8E8"/>
<path d="M98.7345 85.3013C98.7345 85.3013 99.6802 114.531 97.5903 125.543C95.4437 137.019 88.8904 163.024 88.8904 163.024L83.5664 162.338C83.5664 162.338 86.9329 136.021 88.3655 124.645C89.9211 112.238 87.8927 83.1831 87.8927 83.1831L98.7345 85.3013Z" fill="#263238"/>
<path d="M90.0346 163.35L82.4458 162.371L82.5356 160.565L90.7958 160.924L90.0346 163.35Z" fill="#00A8E8"/>
<path opacity="0.7" d="M90.0346 163.35L82.4458 162.371L82.5356 160.565L90.7958 160.924L90.0346 163.35Z" fill="white"/>
<path d="M59.013 151.879C58.6202 151.86 58.2369 151.752 57.8924 151.562C57.8795 151.554 57.8688 151.543 57.8614 151.53C57.8539 151.517 57.85 151.502 57.8499 151.487C57.8519 151.471 57.8572 151.457 57.8654 151.444C57.8735 151.431 57.8844 151.42 57.8971 151.411C57.9397 151.411 58.8428 150.915 59.3629 151.108C59.4281 151.132 59.4873 151.17 59.5363 151.219C59.5853 151.268 59.623 151.327 59.6466 151.392C59.6777 151.455 59.6866 151.527 59.672 151.595C59.6575 151.664 59.6202 151.726 59.5662 151.77C59.3982 151.865 59.2043 151.903 59.013 151.879ZM58.1288 151.496C58.5402 151.685 59.2589 151.789 59.4574 151.633C59.4905 151.605 59.5236 151.562 59.4574 151.454C59.4435 151.412 59.42 151.374 59.3889 151.342C59.3577 151.311 59.3196 151.288 59.2778 151.274C58.8811 151.229 58.4803 151.307 58.1288 151.496Z" fill="#00A8E8"/>
<path d="M89.1647 168.092C88.7753 168.084 88.3875 168.04 88.0063 167.96C87.9882 167.958 87.9713 167.95 87.9584 167.937C87.9455 167.924 87.9374 167.907 87.9353 167.889C87.9325 167.871 87.9356 167.852 87.9441 167.836C87.9526 167.82 87.9661 167.807 87.9826 167.799C88.1528 167.709 89.647 166.958 90.0914 167.208C90.1338 167.231 90.1693 167.266 90.1942 167.307C90.2191 167.349 90.2326 167.396 90.2333 167.445C90.2425 167.523 90.2317 167.603 90.2019 167.677C90.1722 167.75 90.1244 167.815 90.063 167.865C89.7974 168.039 89.4811 168.119 89.1647 168.092ZM88.2994 167.837C89.1127 167.974 89.7179 167.936 89.9496 167.738C89.9893 167.703 90.02 167.659 90.039 167.609C90.0579 167.56 90.0646 167.507 90.0583 167.454C90.0597 167.435 90.0555 167.416 90.0463 167.399C90.0371 167.382 90.0232 167.368 90.0063 167.359C89.7652 167.227 88.9141 167.544 88.2994 167.837Z" fill="#00A8E8"/>
<path d="M88.0252 167.964C88.0081 167.969 87.9902 167.969 87.9732 167.964C87.9604 167.955 87.9502 167.943 87.9436 167.929C87.937 167.915 87.9341 167.899 87.9353 167.884C87.9353 167.818 88.1197 166.22 89.0134 166.314C89.2498 166.338 89.3207 166.456 89.3349 166.555C89.4011 166.971 88.5074 167.775 88.0583 167.974L88.0252 167.964ZM88.9424 166.465C88.4129 166.465 88.2001 167.34 88.1339 167.718C88.6067 167.444 89.2025 166.815 89.1647 166.565C89.1647 166.565 89.1647 166.484 88.9945 166.47L88.9424 166.465Z" fill="#00A8E8"/>
<path d="M84.0674 81.5282L83.1832 82.715C83.117 82.8095 83.2211 82.9372 83.3913 82.9703L98.9235 85.9774C99.0559 85.9774 99.1788 85.9774 99.1977 85.8781L99.5523 84.5826C99.5523 84.4975 99.472 84.3935 99.3254 84.3651L84.3275 81.462C84.2821 81.4498 84.2343 81.4495 84.1888 81.4611C84.1433 81.4727 84.1015 81.4958 84.0674 81.5282Z" fill="#00A8E8"/>
<path d="M85.8076 83.5894L85.4057 83.509C85.3253 83.509 85.2733 83.4428 85.2875 83.3955L85.7603 81.717C85.7603 81.6697 85.8549 81.6413 85.9305 81.6555L86.3324 81.7359C86.4128 81.7359 86.4695 81.8021 86.4554 81.8494L85.9825 83.5279C85.9636 83.5894 85.888 83.5894 85.8076 83.5894Z" fill="#263238"/>
<path d="M95.9497 85.5707L95.5478 85.4951C95.4674 85.4951 95.4154 85.4242 95.4296 85.3769L95.9024 83.7031C95.9024 83.6511 95.9922 83.6227 96.0726 83.6416L96.4745 83.7173C96.5502 83.7173 96.6069 83.7882 96.5927 83.8355L96.1199 85.5093C96.1057 85.5613 96.0301 85.5896 95.9497 85.5707Z" fill="#263238"/>
</svg>
