<svg width="110" height="32" viewBox="0 0 110 32" fill="none" xmlns="http://www.w3.org/2000/svg">
<rect width="110" height="32" rx="16" fill="#FEFEFE"/>
<path d="M13.825 25L15.45 17.975L10 13.25L17.2 12.625L20 5.99997L22.8 12.625L30 13.25L24.55 17.975L26.175 25L20 21.275L13.825 25Z" fill="#1A1A1A"/>
<path d="M37.3012 21.5V10.3H44.1172V11.404H38.6452V15.34H43.3012V16.428H38.6452V21.5H37.3012ZM48.9923 21.692C48.235 21.692 47.563 21.5213 46.9763 21.18C46.3896 20.828 45.9256 20.3427 45.5843 19.724C45.2536 19.1053 45.0883 18.3747 45.0883 17.532C45.0883 16.7 45.2536 15.9747 45.5843 15.356C45.915 14.7267 46.3736 14.2413 46.9603 13.9C47.5576 13.548 48.2456 13.372 49.0243 13.372C49.7923 13.372 50.4536 13.548 51.0083 13.9C51.5736 14.2413 52.0056 14.6947 52.3043 15.26C52.603 15.8253 52.7523 16.4333 52.7523 17.084C52.7523 17.2013 52.747 17.3187 52.7363 17.436C52.7363 17.5533 52.7363 17.6867 52.7363 17.836H46.4163C46.4483 18.444 46.587 18.9507 46.8323 19.356C47.0883 19.7507 47.403 20.0493 47.7763 20.252C48.1603 20.4547 48.5656 20.556 48.9923 20.556C49.547 20.556 50.011 20.428 50.3843 20.172C50.7576 19.916 51.0296 19.5693 51.2003 19.132H52.5283C52.315 19.868 51.9043 20.4813 51.2963 20.972C50.699 21.452 49.931 21.692 48.9923 21.692ZM48.9923 14.508C48.3523 14.508 47.7816 14.7053 47.2803 15.1C46.7896 15.484 46.507 16.0493 46.4323 16.796H51.4243C51.3923 16.0813 51.147 15.5213 50.6883 15.116C50.2296 14.7107 49.6643 14.508 48.9923 14.508ZM57.1737 21.692C56.5124 21.692 55.963 21.58 55.5257 21.356C55.0884 21.132 54.763 20.8333 54.5497 20.46C54.3364 20.0867 54.2297 19.6813 54.2297 19.244C54.2297 18.4333 54.539 17.8093 55.1577 17.372C55.7764 16.9347 56.619 16.716 57.6857 16.716H59.8297V16.62C59.8297 15.9267 59.6484 15.404 59.2857 15.052C58.923 14.6893 58.4377 14.508 57.8297 14.508C57.307 14.508 56.8537 14.6413 56.4697 14.908C56.0964 15.164 55.8617 15.5427 55.7657 16.044H54.3897C54.443 15.468 54.635 14.9827 54.9657 14.588C55.307 14.1933 55.7284 13.8947 56.2297 13.692C56.731 13.4787 57.2644 13.372 57.8297 13.372C58.939 13.372 59.771 13.6707 60.3257 14.268C60.891 14.8547 61.1737 15.6387 61.1737 16.62V21.5H59.9737L59.8937 20.076C59.6697 20.524 59.339 20.908 58.9017 21.228C58.475 21.5373 57.899 21.692 57.1737 21.692ZM57.3817 20.556C57.8937 20.556 58.331 20.4227 58.6937 20.156C59.067 19.8893 59.3497 19.5427 59.5417 19.116C59.7337 18.6893 59.8297 18.2413 59.8297 17.772V17.756H57.7977C57.0084 17.756 56.4484 17.8947 56.1177 18.172C55.7977 18.4387 55.6377 18.7747 55.6377 19.18C55.6377 19.596 55.787 19.932 56.0857 20.188C56.395 20.4333 56.827 20.556 57.3817 20.556ZM66.1072 21.5C65.3819 21.5 64.8112 21.324 64.3952 20.972C63.9792 20.62 63.7712 19.9853 63.7712 19.068V14.7H62.3952V13.564H63.7712L63.9472 11.66H65.1152V13.564H67.4512V14.7H65.1152V19.068C65.1152 19.5693 65.2165 19.9107 65.4192 20.092C65.6219 20.2627 65.9792 20.348 66.4912 20.348H67.3232V21.5H66.1072ZM72.0547 21.692C71.116 21.692 70.3694 21.4093 69.8147 20.844C69.26 20.268 68.9827 19.388 68.9827 18.204V13.564H70.3267V18.06C70.3267 19.7133 71.004 20.54 72.3587 20.54C73.052 20.54 73.6227 20.2947 74.0707 19.804C74.5294 19.3027 74.7587 18.5933 74.7587 17.676V13.564H76.1027V21.5H74.8867L74.7907 20.076C74.5454 20.5773 74.1774 20.972 73.6867 21.26C73.2067 21.548 72.6627 21.692 72.0547 21.692ZM78.3149 21.5V13.564H79.5309L79.6429 15.084C79.8883 14.5613 80.2616 14.1453 80.7629 13.836C81.2643 13.5267 81.8829 13.372 82.6189 13.372V14.78H82.2509C81.7816 14.78 81.3496 14.8653 80.9549 15.036C80.5603 15.196 80.2456 15.4733 80.0109 15.868C79.7763 16.2627 79.6589 16.8067 79.6589 17.5V21.5H78.3149ZM87.3986 21.692C86.6412 21.692 85.9692 21.5213 85.3826 21.18C84.7959 20.828 84.3319 20.3427 83.9906 19.724C83.6599 19.1053 83.4946 18.3747 83.4946 17.532C83.4946 16.7 83.6599 15.9747 83.9906 15.356C84.3212 14.7267 84.7799 14.2413 85.3666 13.9C85.9639 13.548 86.6519 13.372 87.4306 13.372C88.1986 13.372 88.8599 13.548 89.4146 13.9C89.9799 14.2413 90.4119 14.6947 90.7106 15.26C91.0092 15.8253 91.1586 16.4333 91.1586 17.084C91.1586 17.2013 91.1532 17.3187 91.1426 17.436C91.1426 17.5533 91.1426 17.6867 91.1426 17.836H84.8226C84.8546 18.444 84.9932 18.9507 85.2386 19.356C85.4946 19.7507 85.8092 20.0493 86.1826 20.252C86.5666 20.4547 86.9719 20.556 87.3986 20.556C87.9532 20.556 88.4172 20.428 88.7906 20.172C89.1639 19.916 89.4359 19.5693 89.6066 19.132H90.9346C90.7212 19.868 90.3106 20.4813 89.7026 20.972C89.1052 21.452 88.3372 21.692 87.3986 21.692ZM87.3986 14.508C86.7586 14.508 86.1879 14.7053 85.6866 15.1C85.1959 15.484 84.9132 16.0493 84.8386 16.796H89.8306C89.7986 16.0813 89.5532 15.5213 89.0946 15.116C88.6359 14.7107 88.0706 14.508 87.3986 14.508ZM96.5399 21.692C95.7506 21.692 95.0573 21.5107 94.4599 21.148C93.8733 20.7853 93.4146 20.2893 93.0839 19.66C92.7639 19.0307 92.6039 18.316 92.6039 17.516C92.6039 16.716 92.7693 16.0067 93.0999 15.388C93.4306 14.7587 93.8893 14.268 94.4759 13.916C95.0626 13.5533 95.7559 13.372 96.5559 13.372C97.2066 13.372 97.7826 13.5053 98.2839 13.772C98.7853 14.0387 99.1746 14.412 99.4519 14.892V9.98H100.796V21.5H99.5799L99.4519 20.188C99.1959 20.572 98.8279 20.9187 98.3479 21.228C97.8679 21.5373 97.2653 21.692 96.5399 21.692ZM96.6839 20.524C97.2173 20.524 97.6866 20.4013 98.0919 20.156C98.5079 19.9 98.8279 19.548 99.0519 19.1C99.2866 18.652 99.4039 18.1293 99.4039 17.532C99.4039 16.9347 99.2866 16.412 99.0519 15.964C98.8279 15.516 98.5079 15.1693 98.0919 14.924C97.6866 14.668 97.2173 14.54 96.6839 14.54C96.1613 14.54 95.6919 14.668 95.2759 14.924C94.8706 15.1693 94.5506 15.516 94.3159 15.964C94.0919 16.412 93.9799 16.9347 93.9799 17.532C93.9799 18.1293 94.0919 18.652 94.3159 19.1C94.5506 19.548 94.8706 19.9 95.2759 20.156C95.6919 20.4013 96.1613 20.524 96.6839 20.524Z" fill="#1A1A1A"/>
</svg>
