<svg width="236" height="175" viewBox="0 0 236 175" fill="none" xmlns="http://www.w3.org/2000/svg">
<path d="M235.825 153.788H0.0771484V153.906H235.825V153.788Z" fill="#E0E0E0"/>
<path d="M178.143 158.762H161.923V158.88H178.143V158.762Z" fill="#E0E0E0"/>
<path d="M52.4324 158.818H43.3042V158.936H52.4324V158.818Z" fill="#E0E0E0"/>
<path d="M118.423 158.546H99.9214V158.664H118.423V158.546Z" fill="#E0E0E0"/>
<path d="M99.4497 156.874H91.1797V156.992H99.4497V156.874Z" fill="#E0E0E0"/>
<path d="M200.256 156.936H175.271V157.053H200.256V156.936Z" fill="#E0E0E0"/>
<path d="M111.822 132.838H20.7808C20.0676 132.837 19.384 132.554 18.8801 132.051C18.3763 131.548 18.0933 130.867 18.0933 130.156V2.65864C18.0995 1.95219 18.3852 1.2767 18.8884 0.778906C19.3916 0.28111 20.0716 0.00121019 20.7808 0H111.822C112.536 0 113.221 0.282581 113.726 0.785577C114.231 1.28857 114.514 1.97078 114.514 2.68213V130.156C114.514 130.867 114.231 131.55 113.726 132.053C113.221 132.556 112.536 132.838 111.822 132.838ZM20.7808 0.0939453C20.0988 0.0951896 19.4453 0.365946 18.9635 0.846785C18.4817 1.32762 18.2111 1.97925 18.2111 2.65864V130.156C18.2111 130.835 18.4817 131.487 18.9635 131.968C19.4453 132.449 20.0988 132.719 20.7808 132.721H111.822C112.504 132.719 113.158 132.449 113.641 131.968C114.124 131.487 114.395 130.836 114.396 130.156V2.65864C114.395 1.97882 114.124 1.3272 113.641 0.846498C113.158 0.365793 112.504 0.0951869 111.822 0.0939453H20.7808Z" fill="#E0E0E0"/>
<path d="M213.811 132.838H122.765C122.052 132.837 121.368 132.554 120.863 132.051C120.359 131.548 120.074 130.867 120.073 130.156V2.65864C120.081 1.95176 120.367 1.27628 120.871 0.778612C121.375 0.280946 122.056 0.00119699 122.765 0H213.811C214.52 0.00244468 215.199 0.282891 215.701 0.780554C216.203 1.27822 216.488 1.953 216.494 2.65864V130.156C216.494 130.866 216.212 131.546 215.709 132.049C215.206 132.552 214.524 132.836 213.811 132.838ZM122.765 0.0939453C122.083 0.0951869 121.429 0.365793 120.947 0.846498C120.464 1.3272 120.192 1.97882 120.191 2.65864V130.156C120.192 130.836 120.464 131.487 120.947 131.968C121.429 132.449 122.083 132.719 122.765 132.721H213.811C214.494 132.719 215.148 132.449 215.63 131.968C216.113 131.487 216.385 130.836 216.386 130.156V2.65864C216.385 1.97882 216.113 1.3272 215.63 0.846498C215.148 0.365793 214.494 0.0951869 213.811 0.0939453H122.765Z" fill="#E0E0E0"/>
<path d="M207.211 94.9931C201.411 86.1952 206.706 76.7396 205.824 66.9506C204.943 57.1615 195.607 55.0289 197.375 46.7524C199.421 37.1324 193.966 27.9023 187.785 27.9023C181.604 27.9023 176.153 37.1089 178.199 46.7383C179.968 55.0289 170.655 57.1662 169.75 66.9365C168.845 76.7067 174.163 86.1952 168.359 94.979C162.555 103.763 164.083 115.426 167.35 121.208C168.219 122.743 169.267 124.17 170.472 125.459C172.686 127.828 175.366 129.716 178.345 131.008C181.324 132.299 184.538 132.966 187.787 132.966C191.036 132.966 194.25 132.299 197.229 131.008C200.208 129.716 202.889 127.828 205.103 125.459C206.304 124.168 207.35 122.742 208.22 121.208C211.492 115.44 213.015 103.81 207.211 94.9931Z" fill="#E0E0E0"/>
<path d="M187.785 101.668C188.17 101.668 188.551 101.744 188.907 101.89C189.263 102.037 189.586 102.252 189.858 102.524C190.131 102.795 190.347 103.117 190.494 103.472C190.642 103.826 190.717 104.206 190.717 104.59V153.789H184.852V104.59C184.852 104.206 184.928 103.826 185.075 103.472C185.223 103.117 185.439 102.795 185.711 102.524C185.983 102.252 186.307 102.037 186.662 101.89C187.018 101.744 187.4 101.668 187.785 101.668Z" fill="#F0F0F0"/>
<path d="M150.914 153.787H142.941V104.593C142.943 103.538 143.365 102.528 144.113 101.782C144.862 101.037 145.876 100.617 146.934 100.614C147.993 100.617 149.007 101.037 149.756 101.782C150.504 102.528 150.926 103.538 150.928 104.593L150.914 153.787Z" fill="#E0E0E0"/>
<path d="M146.92 140.518C160.505 140.518 171.518 129.546 171.518 116.012C171.518 102.478 160.505 91.5068 146.92 91.5068C133.335 91.5068 122.322 102.478 122.322 116.012C122.322 129.546 133.335 140.518 146.92 140.518Z" fill="#F0F0F0"/>
<path d="M175.825 108.659C177.116 103.482 173.95 98.2436 168.754 96.9578C163.558 95.672 158.3 98.8259 157.009 104.002C155.718 109.179 158.884 114.417 164.08 115.703C169.276 116.989 174.534 113.835 175.825 108.659Z" fill="#F0F0F0"/>
<path d="M132.686 101.532C133.195 98.4154 131.073 95.4779 127.945 94.9704C124.817 94.4629 121.868 96.5776 121.359 99.6937C120.849 102.81 122.972 105.747 126.1 106.255C129.228 106.762 132.176 104.648 132.686 101.532Z" fill="#F0F0F0"/>
<path d="M133.266 101.667C135.49 101.667 137.292 99.8714 137.292 97.656C137.292 95.4405 135.49 93.6445 133.266 93.6445C131.042 93.6445 129.239 95.4405 129.239 97.656C129.239 99.8714 131.042 101.667 133.266 101.667Z" fill="#F0F0F0"/>
<path d="M96.2627 124.425C92.4377 124.993 88.7824 126.382 85.5503 128.498C85.522 124.778 84.8383 121.25 83.0844 118.399C80.4157 120.987 78.2515 124.341 76.4834 127.948C75.8375 121.189 74.0505 114.613 70.0946 110.446C64.1679 114.162 61.1126 120.353 59.6604 126.91C57.2613 122.489 53.7791 118.743 49.5374 116.022C45.9116 119.827 44.7517 125.088 44.8507 130.48C40.7299 125.698 36.1563 121.969 31.696 121.532C30.5974 129.09 32.936 136.22 35.9112 141.857C37.8427 145.473 40.7283 148.496 44.257 150.599C47.7857 152.703 51.8236 153.807 55.9356 153.792H75.3094C83.5653 153.792 91.3073 149.405 95.1782 142.139C97.6253 137.535 98.7946 131.612 96.2627 124.425Z" fill="#E0E0E0"/>
<path d="M90.7274 26.84C93.1179 19.8552 91.1989 14.8809 85.3665 14.8809C81.6982 14.8809 77.1483 16.8396 72.7162 20.0243C72.2164 18.2065 70.8067 17.1214 68.5388 17.1214C64.5452 17.1214 59.0428 20.4847 54.7287 25.2289C53.514 24.0792 51.906 23.4327 50.2306 23.4205C46.4067 23.2044 41.7814 25.1396 37.7595 28.2821C37.558 28.0011 37.2919 27.7722 36.9835 27.6145C36.6751 27.4568 36.3333 27.3749 35.9867 27.3755C33.7848 27.2534 30.8002 29.2075 29.3244 31.7346C29.2348 31.8896 29.1547 32.0446 29.0698 32.2043H91.8873C92.0759 29.9966 91.6845 28.1553 90.7274 26.84Z" fill="#F0F0F0"/>
<path d="M90.9211 69.2518C92.0904 65.8416 91.1616 63.4131 88.3043 63.4131C86.5079 63.4131 84.2872 64.3525 82.123 65.9261C82.0064 65.4878 81.7369 65.1051 81.3628 64.8469C80.9886 64.5886 80.5343 64.4717 80.0814 64.5169C78.1341 64.5169 75.4466 66.161 73.3343 68.4814C72.7422 67.918 71.9559 67.6019 71.1371 67.5983C69.2512 67.4903 67.0115 68.4344 65.0454 69.9704C64.9501 69.8346 64.824 69.723 64.6774 69.6447C64.5308 69.5664 64.3677 69.5235 64.2014 69.5195C63.1264 69.4584 61.6695 70.412 60.9481 71.6474L60.8208 71.8728H91.5058C91.6341 70.9575 91.4264 70.0268 90.9211 69.2518Z" fill="#F0F0F0"/>
<path d="M161.692 43.4456C161.45 43.4117 161.206 43.3944 160.961 43.3939C161.188 39.9884 159.882 37.8089 157.086 37.8089C155.072 37.8089 152.597 38.9456 150.079 40.8668C150.801 34.2531 148.49 29.9551 143.257 29.9551C139.041 29.9551 133.699 32.7734 128.423 37.311C127.952 34.7181 126.405 33.1586 123.793 33.1586C119.206 33.1586 112.685 37.9686 107.456 44.7514C106.86 43.9693 106.096 43.33 105.22 42.8805C104.343 42.431 103.377 42.1827 102.392 42.1538C98.026 41.8485 92.599 44.6105 87.7756 49.1105C87.6001 48.731 87.3208 48.4085 86.9697 48.18C86.6186 47.9515 86.2099 47.8263 85.7906 47.8187C83.4001 47.6496 80.1327 50.1345 78.1948 53.4554H165.535C167.586 48.42 165.954 44.0139 161.692 43.4456Z" fill="#F0F0F0"/>
<path d="M117.951 175C168.44 175 209.37 172.619 209.37 169.683C209.37 166.746 168.44 164.365 117.951 164.365C67.4621 164.365 26.5327 166.746 26.5327 169.683C26.5327 172.619 67.4621 175 117.951 175Z" fill="#F5F5F5"/>
<path d="M23.1147 44.8867L130.602 60.3031L145.025 74.8035L23.1147 44.8867Z" fill="#00A8E8"/>
<path opacity="0.6" d="M23.1147 44.8867L130.602 60.3031L145.025 74.8035L23.1147 44.8867Z" fill="white"/>
<path d="M23.1147 44.8867L130.602 60.3031L125.613 81.2716L23.1147 44.8867Z" fill="#00A8E8"/>
<path opacity="0.2" d="M23.1147 44.8867L130.602 60.3031L125.613 81.2716L23.1147 44.8867Z" fill="black"/>
<path d="M123.407 20.6107L129.645 49.7337C129.807 50.4942 129.66 51.2877 129.236 51.9402C128.811 52.5927 128.145 53.051 127.382 53.2143L71.7075 65.0514C70.9442 65.2118 70.1483 65.0646 69.4936 64.6421C68.839 64.2197 68.3788 63.5562 68.2137 62.7967L61.9711 33.6738C61.8102 32.9128 61.9585 32.1193 62.3836 31.4669C62.8086 30.8146 63.4757 30.3566 64.239 30.1931L119.913 18.3561C120.677 18.1958 121.474 18.3436 122.128 18.767C122.783 19.1905 123.243 19.8551 123.407 20.6154V20.6107Z" fill="#00A8E8"/>
<path opacity="0.4" d="M123.407 20.6107L129.645 49.7337C129.807 50.4942 129.66 51.2877 129.236 51.9402C128.811 52.5927 128.145 53.051 127.382 53.2143L71.7075 65.0514C70.9442 65.2118 70.1483 65.0646 69.4936 64.6421C68.839 64.2197 68.3788 63.5562 68.2137 62.7967L61.9711 33.6738C61.8102 32.9128 61.9585 32.1193 62.3836 31.4669C62.8086 30.8146 63.4757 30.3566 64.239 30.1931L119.913 18.3561C120.677 18.1958 121.474 18.3436 122.128 18.767C122.783 19.1905 123.243 19.8551 123.407 20.6154V20.6107Z" fill="black"/>
<path d="M122.035 18.7035L103.435 41.4523C101.71 43.5614 99.3136 45.0207 96.6429 45.5887C93.9722 46.1567 91.1868 45.7994 88.7476 44.5759L62.4429 31.3767C62.8685 30.7677 63.5107 30.3428 64.2393 30.1883L119.914 18.3512C120.64 18.1972 121.398 18.3231 122.035 18.7035Z" fill="#00A8E8"/>
<path d="M23.1147 44.8867L111.77 65.8787L125.613 81.2716L23.1147 44.8867Z" fill="#00A8E8"/>
<path opacity="0.6" d="M23.1147 44.8867L111.77 65.8787L125.613 81.2716L23.1147 44.8867Z" fill="white"/>
<path d="M55.4546 65.1191L55.2163 65.5244L65.0821 71.2817L65.3205 70.8764L55.4546 65.1191Z" fill="#00A8E8"/>
<path d="M69.6763 73.416L69.438 73.8213L72.9856 75.8915L73.2239 75.4862L69.6763 73.416Z" fill="#00A8E8"/>
<path d="M23.1147 44.8867L111.77 65.8787L94.537 86.5701L23.1147 44.8867Z" fill="#00A8E8"/>
<path d="M141.696 94.0667C141.577 94.067 141.458 94.0447 141.347 94.001L126.91 88.3079C126.679 88.2152 126.494 88.0353 126.396 87.8073C126.298 87.5794 126.294 87.322 126.385 87.0913C126.477 86.8605 126.656 86.6753 126.884 86.5758C127.113 86.4764 127.371 86.4709 127.603 86.5605L142.045 92.2536C142.249 92.3341 142.419 92.483 142.525 92.6748C142.631 92.8667 142.666 93.0892 142.625 93.3042C142.583 93.5191 142.468 93.7129 142.298 93.8522C142.129 93.9914 141.916 94.0673 141.696 94.0667Z" fill="#00A8E8"/>
<path opacity="0.3" d="M141.696 94.0667C141.577 94.067 141.458 94.0447 141.347 94.001L126.91 88.3079C126.679 88.2152 126.494 88.0353 126.396 87.8073C126.298 87.5794 126.294 87.322 126.385 87.0913C126.477 86.8605 126.656 86.6753 126.884 86.5758C127.113 86.4764 127.371 86.4709 127.603 86.5605L142.045 92.2536C142.249 92.3341 142.419 92.483 142.525 92.6748C142.631 92.8667 142.666 93.0892 142.625 93.3042C142.583 93.5191 142.468 93.7129 142.298 93.8522C142.129 93.9914 141.916 94.0673 141.696 94.0667Z" fill="black"/>
<path d="M140.843 85.818C140.725 85.8173 140.608 85.7934 140.499 85.7476L132.743 82.6709C132.627 82.6261 132.521 82.5589 132.431 82.4732C132.341 82.3875 132.27 82.2849 132.22 82.1714C132.17 82.0579 132.143 81.9357 132.141 81.8119C132.139 81.688 132.161 81.5649 132.207 81.4497C132.252 81.3344 132.32 81.2294 132.407 81.1405C132.494 81.0516 132.597 80.9807 132.711 80.9317C132.826 80.8828 132.949 80.8569 133.073 80.8555C133.197 80.8541 133.321 80.8772 133.436 80.9235L141.192 83.9861C141.425 84.0773 141.611 84.2565 141.711 84.4846C141.811 84.7127 141.816 84.971 141.725 85.2027C141.658 85.3826 141.538 85.538 141.381 85.648C141.223 85.758 141.036 85.8174 140.843 85.818Z" fill="#00A8E8"/>
<path opacity="0.5" d="M140.843 85.818C140.725 85.8173 140.608 85.7934 140.499 85.7476L132.743 82.6709C132.627 82.6261 132.521 82.5589 132.431 82.4732C132.341 82.3875 132.27 82.2849 132.22 82.1714C132.17 82.0579 132.143 81.9357 132.141 81.8119C132.139 81.688 132.161 81.5649 132.207 81.4497C132.252 81.3344 132.32 81.2294 132.407 81.1405C132.494 81.0516 132.597 80.9807 132.711 80.9317C132.826 80.8828 132.949 80.8569 133.073 80.8555C133.197 80.8541 133.321 80.8772 133.436 80.9235L141.192 83.9861C141.425 84.0773 141.611 84.2565 141.711 84.4846C141.811 84.7127 141.816 84.971 141.725 85.2027C141.658 85.3826 141.538 85.538 141.381 85.648C141.223 85.758 141.036 85.8174 140.843 85.818Z" fill="white"/>
<path d="M124.629 93.9443C124.511 93.9429 124.394 93.9207 124.284 93.8785L110.201 88.3076C110.085 88.2628 109.979 88.1957 109.889 88.1099C109.799 88.0242 109.728 87.9217 109.678 87.8082C109.628 87.6947 109.601 87.5724 109.599 87.4486C109.597 87.3247 109.619 87.2016 109.665 87.0864C109.71 86.9712 109.778 86.8661 109.865 86.7772C109.952 86.6883 110.055 86.6174 110.169 86.5685C110.284 86.5196 110.407 86.4937 110.531 86.4922C110.655 86.4908 110.779 86.5139 110.894 86.5602L124.978 92.1124C125.182 92.1928 125.352 92.3418 125.457 92.5336C125.563 92.7254 125.598 92.948 125.557 93.1629C125.516 93.3779 125.4 93.5717 125.231 93.7109C125.061 93.8502 124.848 93.9261 124.629 93.9255V93.9443Z" fill="#00A8E8"/>
<path opacity="0.3" d="M124.629 93.9443C124.511 93.9429 124.394 93.9207 124.284 93.8785L110.201 88.3076C110.085 88.2628 109.979 88.1957 109.889 88.1099C109.799 88.0242 109.728 87.9217 109.678 87.8082C109.628 87.6947 109.601 87.5724 109.599 87.4486C109.597 87.3247 109.619 87.2016 109.665 87.0864C109.71 86.9712 109.778 86.8661 109.865 86.7772C109.952 86.6883 110.055 86.6174 110.169 86.5685C110.284 86.5196 110.407 86.4937 110.531 86.4922C110.655 86.4908 110.779 86.5139 110.894 86.5602L124.978 92.1124C125.182 92.1928 125.352 92.3418 125.457 92.5336C125.563 92.7254 125.598 92.948 125.557 93.1629C125.516 93.3779 125.4 93.5717 125.231 93.7109C125.061 93.8502 124.848 93.9261 124.629 93.9255V93.9443Z" fill="black"/>
<path d="M175.616 51.585C176.865 54.0134 178.011 56.4466 179.1 58.9361C180.189 61.4257 181.203 63.9481 182.089 66.5927L182.41 67.5932C182.466 67.7717 182.547 68.0629 182.594 68.2696C182.641 68.4763 182.683 68.7111 182.707 68.9084C182.815 69.6662 182.87 70.4306 182.872 71.196C182.879 72.6076 182.813 74.0186 182.674 75.4235C182.411 78.143 181.982 80.8442 181.391 83.5121L178.803 83.2256C178.77 80.5811 178.746 77.9083 178.652 75.3014C178.61 74.0049 178.534 72.7038 178.402 71.4825C178.342 70.909 178.248 70.3396 178.119 69.7774C178.096 69.6459 178.058 69.5472 178.03 69.4392C178.001 69.3312 177.973 69.2936 177.926 69.1527L177.568 68.2649C176.582 65.8881 175.474 63.4925 174.343 61.1063L170.919 53.9477L175.616 51.585Z" fill="#E4897B"/>
<path d="M178.84 82.3984L177.633 84.6484L181.49 85.7194C181.49 85.7194 182.226 83.911 181.349 82.483L178.84 82.3984Z" fill="#E4897B"/>
<path d="M176.157 87.8895L179.703 88.1714L181.49 85.7194L177.633 84.6484L176.157 87.8895Z" fill="#E4897B"/>
<path d="M159.381 35.3507C159.329 35.6278 159.136 35.8204 158.957 35.7828C158.778 35.7452 158.679 35.4963 158.735 35.2238C158.792 34.9514 158.98 34.7541 159.159 34.7917C159.339 34.8293 159.442 35.0782 159.381 35.3507Z" fill="#263238"/>
<path d="M159.164 35.8203C158.666 36.5888 158.065 37.2858 157.377 37.8918C157.538 38.062 157.734 38.1954 157.951 38.283C158.168 38.3706 158.402 38.4102 158.636 38.3991L159.164 35.8203Z" fill="#DE5753"/>
<path d="M160.692 34.0401C160.648 34.039 160.605 34.0204 160.574 33.9885C160.439 33.8341 160.269 33.7137 160.078 33.637C159.887 33.5603 159.681 33.5294 159.476 33.5469C159.437 33.5473 159.399 33.5339 159.369 33.509C159.339 33.4841 159.318 33.4494 159.312 33.4111C159.305 33.3728 159.312 33.3333 159.332 33.2997C159.351 33.266 159.382 33.2405 159.419 33.2275C159.681 33.1944 159.948 33.2264 160.194 33.3207C160.441 33.4149 160.661 33.5685 160.834 33.7677C160.864 33.7984 160.881 33.8397 160.881 33.8828C160.881 33.9258 160.864 33.9671 160.834 33.9979C160.815 34.0151 160.792 34.0278 160.768 34.0351C160.743 34.0424 160.717 34.0442 160.692 34.0401Z" fill="#263238"/>
<path d="M167.18 39.1885C166.685 41.7156 166.19 46.3377 167.963 48.024C167.963 48.024 167.27 50.584 162.56 50.584C157.373 50.584 160.089 48.024 160.089 48.024C162.918 47.3523 162.838 45.262 162.348 43.3033L167.18 39.1885Z" fill="#E4897B"/>
<path d="M168.674 49.6165C169.047 48.3811 169.457 46.9672 168.608 46.521C167.665 46.0513 162.54 45.5346 160.772 46.4506C159.004 47.3665 159.508 49.8795 159.508 49.8795L168.674 49.6165Z" fill="#263238"/>
<path d="M179.547 166.752C179.401 166.771 179.252 166.761 179.109 166.723C178.967 166.684 178.834 166.617 178.717 166.526C178.676 166.469 178.654 166.401 178.654 166.331C178.654 166.261 178.676 166.193 178.717 166.136C178.744 166.088 178.781 166.045 178.826 166.012C178.871 165.979 178.922 165.956 178.977 165.944C179.486 165.831 180.438 166.479 180.481 166.507C180.493 166.518 180.502 166.531 180.508 166.546C180.514 166.56 180.516 166.576 180.514 166.592C180.511 166.607 180.504 166.621 180.493 166.632C180.482 166.643 180.468 166.65 180.453 166.653C180.155 166.717 179.852 166.75 179.547 166.752ZM179.113 166.094H179.014C178.983 166.101 178.952 166.114 178.926 166.134C178.9 166.153 178.879 166.178 178.864 166.207C178.788 166.338 178.835 166.395 178.864 166.414C179.01 166.611 179.717 166.611 180.236 166.526C179.898 166.304 179.514 166.16 179.113 166.104V166.094Z" fill="#00A8E8"/>
<path d="M180.434 166.667H180.396C180.038 166.47 179.344 165.728 179.415 165.333C179.427 165.272 179.46 165.217 179.508 165.178C179.556 165.138 179.617 165.117 179.679 165.117C179.741 165.11 179.804 165.116 179.864 165.134C179.924 165.151 179.98 165.181 180.028 165.22C180.429 165.549 180.5 166.545 180.5 166.587C180.502 166.602 180.499 166.617 180.492 166.631C180.486 166.644 180.475 166.655 180.462 166.662C180.453 166.666 180.443 166.668 180.434 166.667ZM179.736 165.258H179.717C179.609 165.258 179.599 165.324 179.594 165.342C179.552 165.573 179.995 166.141 180.349 166.409C180.325 166.016 180.184 165.64 179.943 165.328C179.912 165.304 179.875 165.286 179.836 165.275C179.797 165.265 179.757 165.262 179.717 165.267L179.736 165.258Z" fill="#00A8E8"/>
<path d="M158.75 166.752C158.307 166.752 157.878 166.691 157.732 166.493C157.695 166.441 157.675 166.379 157.675 166.315C157.675 166.251 157.695 166.189 157.732 166.136C157.76 166.088 157.798 166.046 157.844 166.013C157.889 165.98 157.941 165.956 157.996 165.944C158.566 165.789 159.783 166.474 159.834 166.503C159.848 166.512 159.859 166.524 159.866 166.539C159.873 166.554 159.875 166.571 159.872 166.587C159.869 166.604 159.862 166.619 159.85 166.631C159.838 166.642 159.823 166.65 159.806 166.653C159.458 166.718 159.104 166.751 158.75 166.752ZM158.198 166.085C158.147 166.077 158.094 166.077 158.043 166.085C158.01 166.091 157.978 166.105 157.951 166.124C157.923 166.143 157.9 166.168 157.882 166.197C157.821 166.301 157.845 166.348 157.882 166.376C158.038 166.592 158.915 166.606 159.566 166.517C159.142 166.289 158.677 166.145 158.198 166.094V166.085Z" fill="#00A8E8"/>
<path d="M159.796 166.667H159.763C159.344 166.484 158.519 165.727 158.58 165.347C158.58 165.253 158.66 165.14 158.886 165.117C158.971 165.104 159.056 165.11 159.138 165.135C159.22 165.159 159.295 165.201 159.358 165.258C159.801 165.615 159.891 166.545 159.895 166.587C159.897 166.601 159.895 166.616 159.889 166.629C159.883 166.642 159.874 166.654 159.862 166.662C159.852 166.668 159.841 166.671 159.83 166.672C159.818 166.673 159.807 166.671 159.796 166.667ZM158.952 165.258H158.901C158.754 165.258 158.745 165.333 158.74 165.352C158.702 165.587 159.268 166.174 159.683 166.427C159.642 166.033 159.477 165.661 159.212 165.366C159.144 165.308 159.06 165.273 158.971 165.267L158.952 165.258Z" fill="#00A8E8"/>
<path d="M163.606 166.583H160.141L159.796 158.593H163.262L163.606 166.583Z" fill="#E4897B"/>
<path d="M184.404 166.583H180.938L179.198 158.593H182.659L184.404 166.583Z" fill="#E4897B"/>
<path d="M180.694 166.184H184.583C184.653 166.184 184.72 166.208 184.774 166.252C184.828 166.295 184.866 166.356 184.88 166.423L185.564 169.49C185.58 169.565 185.578 169.642 185.56 169.716C185.541 169.79 185.506 169.859 185.457 169.918C185.408 169.977 185.347 170.024 185.277 170.055C185.207 170.087 185.132 170.103 185.055 170.101C183.697 170.078 183.037 169.998 181.325 169.998C180.274 169.998 178.105 170.11 176.648 170.11C175.191 170.11 175.007 168.701 175.601 168.546C178.27 167.964 179.274 167.161 180.128 166.4C180.283 166.26 180.485 166.183 180.694 166.184Z" fill="#263238"/>
<path d="M160.164 166.184H163.936C164.006 166.184 164.073 166.208 164.127 166.252C164.181 166.295 164.218 166.356 164.233 166.423L164.917 169.49C164.933 169.564 164.933 169.641 164.915 169.715C164.898 169.789 164.863 169.857 164.815 169.916C164.767 169.975 164.707 170.022 164.638 170.054C164.569 170.086 164.493 170.102 164.417 170.101C163.055 170.078 161.084 169.998 159.368 169.998C157.364 169.998 155.629 170.11 153.276 170.11C151.861 170.11 151.461 168.701 152.055 168.546C154.766 167.954 156.977 167.893 159.32 166.456C159.57 166.287 159.863 166.192 160.164 166.184Z" fill="#263238"/>
<path d="M158.5 54.0831C155.604 53.8595 152.722 53.4785 149.867 52.9416C148.452 52.6692 147.01 52.3639 145.576 51.9787C144.107 51.6041 142.664 51.1334 141.257 50.5695C140.894 50.4192 140.527 50.2548 140.164 50.0998C139.755 49.8992 139.361 49.67 138.985 49.414C138.306 48.9678 137.721 48.5027 137.141 48.0424C135.986 47.103 134.916 46.1635 133.841 45.2006C131.733 43.2559 129.734 41.2455 127.806 39.1317L129.541 37.2012L136.382 42.1004C137.509 42.9083 138.65 43.7022 139.772 44.449C140.329 44.8201 140.899 45.1677 141.422 45.4636C141.641 45.588 141.868 45.6978 142.101 45.7924C142.38 45.9005 142.663 46.0085 142.96 46.1118C145.508 46.8936 148.114 47.4747 150.753 47.8498C153.446 48.2726 156.227 48.6202 158.915 48.902L158.5 54.0831Z" fill="#E4897B"/>
<path d="M174.163 48.8033C177.411 49.5455 180.693 59.001 180.693 59.001L174.012 63.7781C174.012 63.7781 172.126 59.3721 170.306 55.5204C168.401 51.4854 170.844 48.047 174.163 48.8033Z" fill="#00A8E8"/>
<path opacity="0.4" d="M174.163 48.8033C177.411 49.5455 180.693 59.001 180.693 59.001L174.012 63.7781C174.012 63.7781 172.126 59.3721 170.306 55.5204C168.401 51.4854 170.844 48.047 174.163 48.8033Z" fill="black"/>
<path d="M172.291 53.9707L170.966 56.9253C172.338 59.8751 173.593 62.7968 173.927 63.5766C173.88 60.0865 173.215 55.7557 172.291 53.9707Z" fill="#00A8E8"/>
<path opacity="0.6" d="M172.291 53.9707L170.966 56.9253C172.338 59.8751 173.593 62.7968 173.927 63.5766C173.88 60.0865 173.215 55.7557 172.291 53.9707Z" fill="black"/>
<path d="M154.761 48.9822C154.761 48.9822 151.073 53.1299 154.553 78.8097H173.078C173.21 75.9913 171.423 62.1533 174.163 48.8037C172.115 48.4109 170.044 48.1504 167.962 48.0239C165.34 47.8735 162.711 47.8735 160.088 48.0239C158.29 48.2045 156.509 48.5248 154.761 48.9822Z" fill="#00A8E8"/>
<path opacity="0.4" d="M154.761 48.9822C154.761 48.9822 151.073 53.1299 154.553 78.8097H173.078C173.21 75.9913 171.423 62.1533 174.163 48.8037C172.115 48.4109 170.044 48.1504 167.962 48.0239C165.34 47.8735 162.711 47.8735 160.088 48.0239C158.29 48.2045 156.509 48.5248 154.761 48.9822Z" fill="black"/>
<path d="M153.389 53.9707C153.266 54.943 153.172 56.0939 153.111 57.4514C154.94 56.9044 156.679 56.0908 158.269 55.037L153.389 53.9707Z" fill="#00A8E8"/>
<path opacity="0.6" d="M153.389 53.9707C153.266 54.943 153.172 56.0939 153.111 57.4514C154.94 56.9044 156.679 56.0908 158.269 55.037L153.389 53.9707Z" fill="black"/>
<path d="M161.329 54.4865C158.849 56.6755 149.381 56.4547 149.381 56.4547L149.07 47.3232C152.267 47.7769 155.492 48.0092 158.721 48.0184C163.997 47.9104 164.035 52.0722 161.329 54.4865Z" fill="#00A8E8"/>
<path opacity="0.4" d="M161.329 54.4865C158.849 56.6755 149.381 56.4547 149.381 56.4547L149.07 47.3232C152.267 47.7769 155.492 48.0092 158.721 48.0184C163.997 47.9104 164.035 52.0722 161.329 54.4865Z" fill="black"/>
<path d="M129.63 37.2208L127.272 34.4541L124.731 37.2724C124.731 37.2724 126.296 39.8935 128.781 39.4802L129.63 37.2208Z" fill="#E4897B"/>
<path d="M123.897 31.2266L122.982 34.8387L124.712 37.2531L127.254 34.4536L123.897 31.2266Z" fill="#E4897B"/>
<path d="M159.796 158.597L159.976 162.711H163.441L163.262 158.597H159.796Z" fill="#CE6F64"/>
<path d="M182.664 158.597H179.198L180.094 162.711H183.56L182.664 158.597Z" fill="#CE6F64"/>
<path d="M161.881 31.9404C158.773 30.5312 157.793 24.2698 166.732 25.8339C166.732 25.8339 165.384 27.3183 168.119 28.2577C170.853 29.1972 168.566 34.9983 161.881 31.9404Z" fill="#263238"/>
<path d="M168.633 36.6375C167.741 39.9255 167.393 41.9266 165.332 43.3029C162.249 45.3696 158.415 42.9975 158.293 39.4887C158.184 36.3368 159.66 31.4564 163.22 30.7894C164.006 30.6359 164.818 30.6855 165.579 30.9335C166.34 31.1816 167.024 31.6197 167.567 32.2061C168.11 32.7925 168.493 33.5077 168.679 34.2835C168.866 35.0592 168.85 35.8697 168.633 36.6375Z" fill="#E4897B"/>
<path d="M166.61 27.4782C168.727 28.6525 171.594 29.3571 171.325 31.0293C170.971 33.0726 173.055 31.795 172.57 34.8341C172.254 36.821 168.576 42.8429 165.969 42.5517C162.074 42.0819 162.569 36.1822 162.555 33.0726C162.546 31.236 162.461 25.1625 166.61 27.4782Z" fill="#263238"/>
<path d="M162.088 30.1133C161.145 30.3341 159.895 35.75 163.549 36.2479C167.75 36.8162 162.088 30.1133 162.088 30.1133Z" fill="#263238"/>
<path d="M162.182 32.035C161.027 32.1383 158.41 30.7526 158.731 28.6671C158.731 28.653 160.386 31.1049 162.182 32.035Z" fill="#263238"/>
<path d="M163.899 36.6798C163.544 37.4542 162.942 38.0901 162.187 38.4882C161.192 39.0049 160.631 38.2533 160.858 37.2575C161.06 36.365 161.824 35.0169 162.847 34.9089C163.87 34.8009 164.309 35.7403 163.899 36.6798Z" fill="#E4897B"/>
<path d="M169.085 32.8806C169.79 32.576 170.407 32.102 170.883 31.5011C171.359 30.9002 171.677 30.1912 171.81 29.4375C171.81 29.4375 173.366 33.7449 169.085 32.8806Z" fill="#263238"/>
<path d="M173.017 32.8094C172.689 32.5898 172.311 32.4548 171.918 32.4162C171.525 32.3777 171.128 32.4369 170.763 32.5886C170.763 32.5886 172.215 30.7144 173.017 32.8094Z" fill="#263238"/>
<path d="M161.126 78.8088C161.126 78.8088 165.058 105.179 167.213 115.057C169.57 125.861 178.482 161.917 178.482 161.917H184.823C184.823 161.917 178.953 126.749 177.605 116.02C176.143 104.395 173.078 78.79 173.078 78.79L161.126 78.8088Z" fill="#00A8E8"/>
<path opacity="0.5" d="M161.126 78.8088C161.126 78.8088 165.058 105.179 167.213 115.057C169.57 125.861 178.482 161.917 178.482 161.917H184.823C184.823 161.917 178.953 126.749 177.605 116.02C176.143 104.395 173.078 78.79 173.078 78.79L161.126 78.8088Z" fill="white"/>
<path d="M177.468 159.589C177.44 159.589 178.124 162.017 178.124 162.017H185.262L185.13 159.852L177.468 159.589Z" fill="#00A8E8"/>
<path opacity="0.1" d="M177.468 159.589C177.44 159.589 178.124 162.017 178.124 162.017H185.262L185.13 159.852L177.468 159.589Z" fill="black"/>
<path d="M163.611 88.203C168.156 89.0908 167.675 105.977 167.128 114.663C165.817 108.523 163.898 96.7098 162.587 88.3252C162.905 88.1695 163.265 88.1264 163.611 88.203Z" fill="#00A8E8"/>
<path opacity="0.4" d="M163.611 88.203C168.156 89.0908 167.675 105.977 167.128 114.663C165.817 108.523 163.898 96.7098 162.587 88.3252C162.905 88.1695 163.265 88.1264 163.611 88.203Z" fill="white"/>
<path d="M154.554 78.8086C154.554 78.8086 154.082 104.606 154.455 115.132C154.846 126.077 158.698 161.917 158.698 161.917H164.564C164.564 161.917 164.781 126.716 165.035 115.969C165.323 104.249 166.742 78.8086 166.742 78.8086H154.554Z" fill="#00A8E8"/>
<path opacity="0.5" d="M154.554 78.8086C154.554 78.8086 154.082 104.606 154.455 115.132C154.846 126.077 158.698 161.917 158.698 161.917H164.564C164.564 161.917 164.781 126.716 165.035 115.969C165.323 104.249 166.742 78.8086 166.742 78.8086H154.554Z" fill="white"/>
<path d="M159.914 157.718C159.9 157.718 159.886 157.712 159.876 157.703C159.865 157.693 159.859 157.68 159.858 157.666C158.82 147.745 156.383 123.742 156.086 115.132C155.77 106.344 156.057 86.6247 156.152 80.7907C156.152 80.7758 156.158 80.7615 156.168 80.7509C156.179 80.7403 156.193 80.7344 156.208 80.7344C156.224 80.7343 156.239 80.7401 156.25 80.7506C156.261 80.761 156.268 80.7754 156.27 80.7907C156.175 86.6247 155.888 106.344 156.204 115.128C156.51 123.738 158.948 147.731 159.976 157.652C159.976 157.668 159.97 157.683 159.96 157.695C159.949 157.707 159.935 157.715 159.919 157.718H159.914Z" fill="#00A8E8"/>
<path opacity="0.4" d="M159.914 157.718C159.9 157.718 159.886 157.712 159.876 157.703C159.865 157.693 159.859 157.68 159.858 157.666C158.82 147.745 156.383 123.742 156.086 115.132C155.77 106.344 156.057 86.6247 156.152 80.7907C156.152 80.7758 156.158 80.7615 156.168 80.7509C156.179 80.7403 156.193 80.7344 156.208 80.7344C156.224 80.7343 156.239 80.7401 156.25 80.7506C156.261 80.761 156.268 80.7754 156.27 80.7907C156.175 86.6247 155.888 106.344 156.204 115.128C156.51 123.738 158.948 147.731 159.976 157.652C159.976 157.668 159.97 157.683 159.96 157.695C159.949 157.707 159.935 157.715 159.919 157.718H159.914Z" fill="white"/>
<path d="M157.557 159.589C157.533 159.589 157.892 162.017 157.892 162.017H165.025L165.219 159.852L157.557 159.589Z" fill="#00A8E8"/>
<path opacity="0.1" d="M157.557 159.589C157.533 159.589 157.892 162.017 157.892 162.017H165.025L165.219 159.852L157.557 159.589Z" fill="black"/>
</svg>
