<svg width="113" height="49" viewBox="0 0 113 49" fill="none" xmlns="http://www.w3.org/2000/svg">
<g id="Remote Bingo Logo A">
<g id="Group 1321314450">
<g id="remote">
<path id="Vector" d="M113.001 10.0755C113.001 10.9136 112.943 11.7517 112.827 12.5898C111.18 12.6958 109.542 12.8692 107.914 13.1101C106.286 13.3413 104.658 13.5725 103.03 13.8037C103.281 14.4973 103.671 15.0512 104.201 15.4655C104.74 15.8797 105.381 16.0869 106.122 16.0869C106.508 16.0869 106.927 16.0146 107.38 15.8701C107.842 15.7256 108.3 15.5474 108.752 15.3354C109.205 15.1139 109.639 14.8778 110.053 14.6274C110.467 14.3769 110.824 14.1505 111.122 13.9482L110.429 20.5087C110.053 20.7977 109.644 21.0434 109.2 21.2457C108.767 21.448 108.314 21.6118 107.842 21.737C107.37 21.8622 106.893 21.9538 106.411 22.0116C105.93 22.0694 105.458 22.0983 104.995 22.0983C104.042 22.0983 103.17 21.9682 102.38 21.7081C101.59 21.448 100.872 21.0867 100.227 20.6243C99.5908 20.1523 99.0321 19.5983 98.5504 18.9625C98.0687 18.3267 97.6689 17.6331 97.351 16.8816C97.0331 16.1302 96.7922 15.3354 96.6285 14.4973C96.4647 13.6592 96.3828 12.8114 96.3828 11.954C96.3828 11.0581 96.4647 10.1622 96.6285 9.26623C96.7922 8.3703 97.0379 7.50809 97.3654 6.67959C97.7026 5.8511 98.1217 5.08522 98.6226 4.38197C99.1332 3.66908 99.7257 3.04771 100.4 2.51785C101.074 1.988 101.835 1.57376 102.683 1.27511C103.541 0.97647 104.485 0.827148 105.516 0.827148C106.373 0.827148 107.153 0.947569 107.856 1.18841C108.569 1.41962 109.2 1.74716 109.75 2.17104C110.308 2.58529 110.79 3.08142 111.195 3.65944C111.609 4.23746 111.946 4.87328 112.206 5.56691C112.476 6.2509 112.673 6.97824 112.799 7.74893C112.933 8.50999 113.001 9.2855 113.001 10.0755ZM107.221 9.32403C107.221 9.05429 107.192 8.77973 107.134 8.50035C107.076 8.21134 106.98 7.95124 106.845 7.72003C106.72 7.48882 106.551 7.30096 106.339 7.15646C106.127 7.00232 105.862 6.92525 105.544 6.92525C105.159 6.92525 104.817 7.03122 104.518 7.24316C104.229 7.44547 103.979 7.70558 103.767 8.02349C103.555 8.33176 103.382 8.66894 103.247 9.03502C103.112 9.4011 103.011 9.73828 102.943 10.0466L107.221 9.64194V9.32403Z" fill="#00A8E8"/>
<path id="Vector_2" d="M96.1822 1.37695L96.0377 7.50396L91.7315 7.67736L91.2113 21.0874L85.1132 21.4053L84.5641 7.99527L80.2578 8.22648L80.4312 1.40585L96.1822 1.37695Z" fill="#00A8E8"/>
<path id="Vector_3" d="M79.7115 10.6829C79.7115 11.5595 79.6103 12.4073 79.408 13.2262C79.2057 14.0354 78.9119 14.7964 78.5266 15.5093C78.1508 16.2222 77.6884 16.8773 77.1393 17.4746C76.5998 18.0623 75.9881 18.568 75.3041 18.9919C74.6297 19.4158 73.8928 19.7481 73.0932 19.989C72.2936 20.2202 71.4458 20.3358 70.5499 20.3358C69.6829 20.3358 68.8544 20.225 68.0644 20.0034C67.2841 19.7819 66.5519 19.4736 65.8679 19.0786C65.1839 18.674 64.5626 18.1923 64.0038 17.6336C63.4547 17.0652 62.9826 16.439 62.5877 15.755C62.2023 15.0614 61.8989 14.3196 61.6773 13.5296C61.4653 12.7397 61.3594 11.916 61.3594 11.0586C61.3594 10.2205 61.4605 9.4016 61.6628 8.60201C61.8651 7.79278 62.1542 7.03172 62.5299 6.31883C62.9152 5.60594 63.3776 4.95085 63.9171 4.35357C64.4566 3.75628 65.0587 3.24088 65.7234 2.80737C66.3978 2.37385 67.1251 2.03667 67.9054 1.79583C68.6858 1.55499 69.5094 1.43457 70.3765 1.43457C71.7734 1.43457 73.045 1.65133 74.1914 2.08484C75.3474 2.51836 76.3301 3.13973 77.1393 3.94895C77.9582 4.74855 78.5892 5.72155 79.0323 6.86795C79.4851 8.00472 79.7115 9.27637 79.7115 10.6829ZM73.2955 11.0586C73.2955 10.6443 73.2329 10.2445 73.1076 9.8592C72.992 9.46422 72.8186 9.11741 72.5874 8.81877C72.3562 8.51049 72.0672 8.26483 71.7204 8.08179C71.3832 7.88912 70.993 7.79278 70.5499 7.79278C70.0971 7.79278 69.6925 7.87467 69.336 8.03844C68.9796 8.20221 68.6713 8.4286 68.4112 8.71761C68.1607 8.99699 67.9681 9.32935 67.8332 9.7147C67.6983 10.0904 67.6309 10.4902 67.6309 10.9141C67.6309 11.3187 67.6887 11.7233 67.8043 12.1279C67.9199 12.5325 68.0933 12.8986 68.3245 13.2262C68.5557 13.5537 68.8399 13.8186 69.1771 14.0209C69.5239 14.2232 69.9237 14.3244 70.3765 14.3244C70.8293 14.3244 71.2339 14.2377 71.5903 14.0643C71.9564 13.8813 72.2647 13.6404 72.5151 13.3418C72.7656 13.0335 72.9583 12.6819 73.0932 12.2869C73.228 11.8919 73.2955 11.4825 73.2955 11.0586Z" fill="#00A8E8"/>
<path id="Vector_4" d="M60.3659 11.9546C60.3659 13.3322 60.3226 14.705 60.2359 16.073C60.1492 17.441 60.048 18.8138 59.9324 20.1914L52.5049 20.5382C52.7265 18.8619 52.9239 17.1857 53.0974 15.5094C53.2804 13.8235 53.3719 12.1376 53.3719 10.4518C53.3719 10.3458 53.3671 10.1627 53.3575 9.90263C53.3478 9.63289 53.3286 9.32943 53.2997 8.99225C53.2804 8.65507 53.2467 8.30826 53.1985 7.95182C53.16 7.58574 53.1022 7.25338 53.0251 6.95473C52.9577 6.64646 52.871 6.39598 52.765 6.20331C52.659 6.01064 52.5338 5.9143 52.3893 5.9143C52.0521 5.9143 51.7872 6.04435 51.5945 6.30446C51.4018 6.55494 51.2573 6.8584 51.161 7.21484C51.0743 7.57129 51.0213 7.93737 51.002 8.31308C50.9828 8.67916 50.9731 8.9778 50.9731 9.20901C50.9731 9.61362 50.9828 10.0182 51.002 10.4229C51.0213 10.8275 51.0309 11.2417 51.0309 11.6656C51.0309 13.1588 50.9924 14.6472 50.9153 16.1308C50.8479 17.6144 50.7612 19.1028 50.6552 20.596L43.8057 20.8561C44.0273 19.1798 44.2199 17.5084 44.3837 15.8418C44.5571 14.1655 44.6438 12.4845 44.6438 10.7986C44.6438 10.6926 44.639 10.4999 44.6294 10.2205C44.6197 9.94117 44.6005 9.62807 44.5716 9.28126C44.5523 8.93445 44.5186 8.57319 44.4704 8.19748C44.4223 7.82176 44.3596 7.47977 44.2826 7.17149C44.2151 6.85358 44.1284 6.59347 44.0225 6.39117C43.9165 6.18886 43.7864 6.08771 43.6323 6.08771C43.3914 6.08771 43.1891 6.18404 43.0254 6.37671C42.8616 6.55975 42.7267 6.8006 42.6208 7.09924C42.5244 7.39788 42.4474 7.73024 42.3895 8.09632C42.3414 8.45277 42.3028 8.8044 42.2739 9.15121C42.2547 9.49802 42.2402 9.82075 42.2306 10.1194C42.2306 10.4084 42.2258 10.6252 42.2161 10.7697L42.7797 12.5101H35.4967C35.6508 10.882 35.805 9.24915 35.9591 7.61142C36.1229 5.9737 35.3811 13.1492 35.4967 11.5211C35.6219 9.88336 35.7231 8.24564 35.8001 6.60792C35.8772 4.9702 35.9157 3.33248 35.9157 1.69476L42.7942 1.40575L42.7653 3.082C42.9772 2.81226 43.218 2.54252 43.4878 2.27278C43.7575 1.9934 44.0417 1.74774 44.3404 1.5358C44.6486 1.31423 44.9714 1.13601 45.3085 1.00113C45.6554 0.866264 46.0118 0.798828 46.3779 0.798828C46.8499 0.798828 47.2738 0.837363 47.6495 0.914432C48.0252 0.981868 48.3624 1.10229 48.6611 1.27569C48.9693 1.4491 49.2391 1.68994 49.4703 1.99822C49.7015 2.29686 49.9038 2.67739 50.0772 3.13981C50.3855 2.80263 50.6938 2.48953 51.002 2.20053C51.3199 1.91152 51.6523 1.66586 51.9991 1.46355C52.3459 1.25161 52.7216 1.08784 53.1263 0.972234C53.5309 0.85663 53.9788 0.798828 54.4701 0.798828C55.4046 0.798828 56.1994 0.981868 56.8545 1.34795C57.5096 1.70439 58.0539 2.18126 58.4874 2.77854C58.9305 3.37583 59.2725 4.05982 59.5134 4.83051C59.7638 5.60121 59.9517 6.4008 60.0769 7.22929C60.2022 8.05779 60.2792 8.88147 60.3081 9.70033C60.3467 10.5192 60.3659 11.2706 60.3659 11.9546Z" fill="#00A8E8"/>
<path id="Vector_5" d="M34.204 10.0755C34.204 10.9136 34.1462 11.7517 34.0306 12.5898C32.3832 12.6958 30.7455 12.8692 29.1174 13.1101C27.4893 13.3413 25.8612 13.5725 24.2332 13.8037C24.4836 14.4973 24.8738 15.0512 25.4036 15.4655C25.9431 15.8797 26.5838 16.0869 27.3256 16.0869C27.7109 16.0869 28.13 16.0146 28.5828 15.8701C29.0452 15.7256 29.5028 15.5474 29.9556 15.3354C30.4083 15.1139 30.8418 14.8778 31.2561 14.6274C31.6703 14.3769 32.0268 14.1505 32.3254 13.9482L31.6318 20.5087C31.2561 20.7977 30.8467 21.0434 30.4035 21.2457C29.97 21.448 29.5172 21.6118 29.0452 21.737C28.5731 21.8622 28.0963 21.9538 27.6146 22.0116C27.1329 22.0694 26.6608 22.0983 26.1984 22.0983C25.2447 22.0983 24.3728 21.9682 23.5829 21.7081C22.7929 21.448 22.0752 21.0867 21.4298 20.6243C20.7939 20.1523 20.2352 19.5983 19.7535 18.9625C19.2718 18.3267 18.872 17.6331 18.5541 16.8816C18.2362 16.1302 17.9954 15.3354 17.8316 14.4973C17.6678 13.6592 17.5859 12.8114 17.5859 11.954C17.5859 11.0581 17.6678 10.1622 17.8316 9.26623C17.9954 8.3703 18.241 7.50809 18.5686 6.67959C18.9057 5.8511 19.3248 5.08522 19.8258 4.38197C20.3363 3.66908 20.9288 3.04771 21.6032 2.51785C22.2775 1.988 23.0386 1.57376 23.8863 1.27511C24.7437 0.97647 25.6878 0.827148 26.7186 0.827148C27.576 0.827148 28.3564 0.947569 29.0596 1.18841C29.7725 1.41962 30.4035 1.74716 30.9526 2.17104C31.5114 2.58529 31.9931 3.08142 32.3977 3.65944C32.8119 4.23746 33.1491 4.87328 33.4092 5.56691C33.679 6.2509 33.8764 6.97824 34.0017 7.74893C34.1366 8.50999 34.204 9.2855 34.204 10.0755ZM28.4238 9.32403C28.4238 9.05429 28.3949 8.77973 28.3371 8.50035C28.2793 8.21134 28.183 7.95124 28.0481 7.72003C27.9228 7.48882 27.7543 7.30096 27.5423 7.15646C27.3304 7.00232 27.0655 6.92525 26.7475 6.92525C26.3622 6.92525 26.0202 7.03122 25.7216 7.24316C25.4325 7.44547 25.1821 7.70558 24.9701 8.02349C24.7582 8.33176 24.5848 8.66894 24.4499 9.03502C24.315 9.4011 24.2139 9.73828 24.1465 10.0466L28.4238 9.64194V9.32403Z" fill="#00A8E8"/>
<path id="Vector_6" d="M17.0516 7.82153C17.0516 8.57295 16.9841 9.25694 16.8493 9.87349C16.724 10.4804 16.5217 11.0392 16.2423 11.5497C15.963 12.0603 15.6017 12.5324 15.1586 12.9659C14.7154 13.3994 14.1807 13.8137 13.5546 14.2086L16.9938 20.3356L10.491 21.6073L8.26568 15.4514L6.47382 15.5092L6.21371 21.5206H0C0.0481683 19.3241 0.0915197 17.1373 0.130054 14.9601C0.178223 12.7829 0.231208 10.596 0.28901 8.39954C0.308277 7.29167 0.327544 6.19344 0.346812 5.10483C0.366079 4.01623 0.404613 2.91799 0.462415 1.81012C1.13677 1.55965 1.80149 1.35253 2.45658 1.18875C3.11167 1.02498 3.76676 0.899744 4.42185 0.813041C5.08657 0.716704 5.75611 0.654086 6.43046 0.625185C7.11445 0.58665 7.81289 0.567383 8.52578 0.567383C9.62402 0.567383 10.6837 0.721521 11.7049 1.0298C12.7357 1.32844 13.6461 1.78122 14.436 2.38814C15.226 2.99506 15.857 3.75131 16.329 4.65687C16.8107 5.56243 17.0516 6.61732 17.0516 7.82153ZM10.5778 8.28394C10.5778 7.87933 10.52 7.50843 10.4043 7.17125C10.2984 6.83408 10.1346 6.54507 9.91303 6.30422C9.70109 6.05375 9.43135 5.86108 9.1038 5.7262C8.78589 5.5817 8.41018 5.50945 7.97667 5.50945C7.78399 5.50945 7.59614 5.5239 7.4131 5.5528C7.23006 5.57207 7.05184 5.60578 6.87843 5.65395L6.64722 11.0295H6.99403C7.40828 11.0295 7.82734 10.9765 8.25123 10.8706C8.68474 10.7646 9.07009 10.6008 9.40726 10.3793C9.75408 10.1577 10.0335 9.87349 10.2454 9.52668C10.467 9.17987 10.5778 8.76562 10.5778 8.28394Z" fill="#00A8E8"/>
</g>
<g id="Vector_7" filter="url(#filter0_d_6890_40611)">
<path d="M32.3671 41.4742C32.3671 42.2752 32.2175 42.9651 31.9183 43.5442C31.6288 44.1232 31.238 44.6153 30.7458 45.0206C30.2537 45.4259 29.6843 45.7589 29.0378 46.0194C28.4008 46.2703 27.735 46.4681 27.0402 46.6129C26.3454 46.7576 25.6457 46.8541 24.9413 46.9024C24.2465 46.9506 23.5951 46.9748 22.9871 46.9748C22.3888 46.9748 21.7664 46.9506 21.1198 46.9024C20.4829 46.8638 19.846 46.7914 19.2091 46.6853C18.5722 46.5791 17.9449 46.4392 17.3273 46.2655C16.7097 46.0821 16.1259 45.8554 15.5758 45.5852L15.5469 26.9411C16.0873 26.7192 16.6615 26.5213 17.2694 26.3476C17.8774 26.1643 18.495 26.0147 19.1222 25.8989C19.7592 25.7734 20.3912 25.6818 21.0185 25.6239C21.6458 25.5563 22.2537 25.5225 22.8424 25.5225C23.5275 25.5225 24.2175 25.566 24.9123 25.6528C25.6168 25.7397 26.2923 25.8844 26.9389 26.0871C27.5854 26.2897 28.1885 26.5551 28.7483 26.8832C29.308 27.2017 29.7953 27.5973 30.2102 28.0702C30.6349 28.543 30.963 29.0931 31.1946 29.7203C31.4358 30.3476 31.5564 31.0714 31.5564 31.8916C31.5564 32.432 31.4792 32.9387 31.3248 33.4115C31.1704 33.8844 30.9485 34.309 30.659 34.6853C30.3695 35.0617 30.0172 35.385 29.6023 35.6552C29.1873 35.9157 28.7193 36.1087 28.1982 36.2342C28.8255 36.3982 29.3948 36.6395 29.9063 36.9579C30.4274 37.2764 30.8665 37.6624 31.2235 38.116C31.5902 38.5695 31.8701 39.081 32.0631 39.6503C32.2657 40.2197 32.3671 40.8276 32.3671 41.4742ZM25.0137 33.2233C25.0137 32.9435 24.9558 32.7071 24.84 32.5141C24.7241 32.3114 24.5794 32.1474 24.4057 32.0219C24.2416 31.8964 24.0583 31.8048 23.8556 31.7469C23.6626 31.689 23.4889 31.66 23.3345 31.66C23.1415 31.66 22.9534 31.689 22.77 31.7469C22.5866 31.8048 22.4081 31.8723 22.2344 31.9495L22.1476 35.163C22.3695 35.163 22.6445 35.1437 22.9727 35.1051C23.3008 35.0665 23.6144 34.9845 23.9135 34.859C24.2223 34.7239 24.4829 34.5309 24.6952 34.28C24.9075 34.0195 25.0137 33.6672 25.0137 33.2233ZM22.9582 37.9423C22.6783 37.9423 22.4081 37.9712 22.1476 38.0291L22.0897 41.3294C22.2344 41.3584 22.3743 41.3874 22.5094 41.4163C22.6542 41.4356 22.7941 41.4452 22.9292 41.4452C23.1319 41.4452 23.3538 41.426 23.5951 41.3874C23.8363 41.3391 24.0631 41.2522 24.2754 41.1268C24.4877 40.9917 24.6614 40.8132 24.7965 40.5912C24.9413 40.3693 25.0137 40.0749 25.0137 39.7082C25.0137 39.3415 24.9413 39.0424 24.7965 38.8108C24.6614 38.5792 24.4925 38.4006 24.2899 38.2752C24.0872 38.1401 23.8653 38.0532 23.624 38.0146C23.3828 37.9664 23.1608 37.9423 22.9582 37.9423Z" fill="#FFDD00"/>
<path d="M40.8603 26.2463L39.847 45.9615L33.7385 46.28L33.1595 26.6516L40.8603 26.2463Z" fill="#FFDD00"/>
<path d="M61.889 25.8699L60.8468 45.4983L53.2618 46.1931L49.2087 35.6841L48.5718 46.3958H42.058L42.5791 25.8699L49.8167 25.5225L54.8251 35.9447L55.0567 26.1015L61.889 25.8699Z" fill="#FFDD00"/>
<path d="M80.7031 43.6744C80.2495 44.2438 79.6898 44.7408 79.0239 45.1654C78.3581 45.59 77.644 45.9422 76.8816 46.2221C76.1192 46.5019 75.3376 46.7094 74.5366 46.8445C73.7357 46.9893 72.9733 47.0616 72.2495 47.0616C70.8503 47.0616 69.562 46.8107 68.3847 46.3089C67.2074 45.8071 66.1893 45.1171 65.3304 44.239C64.4812 43.3512 63.8153 42.3089 63.3328 41.1123C62.8503 39.9157 62.6091 38.6274 62.6091 37.2474C62.6091 36.1956 62.7297 35.1678 62.9709 34.1642C63.2122 33.151 63.5548 32.2004 63.9987 31.3126C64.4522 30.4152 65.0023 29.5949 65.6489 28.8518C66.2954 28.0991 67.0288 27.4526 67.8491 26.9122C68.6693 26.3717 69.5668 25.952 70.5415 25.6528C71.5161 25.3537 72.5583 25.2041 73.6681 25.2041C74.0831 25.2041 74.527 25.2234 74.9998 25.262C75.4727 25.2909 75.9407 25.3488 76.4039 25.4357C76.8768 25.5129 77.3352 25.6239 77.7791 25.7686C78.223 25.9134 78.6283 26.0919 78.995 26.3042L78.5897 31.8337C78.0493 31.6311 77.4896 31.496 76.9106 31.4284C76.3412 31.3512 75.7815 31.3126 75.2314 31.3126C74.4594 31.3126 73.7357 31.4332 73.0602 31.6745C72.3943 31.9061 71.8105 32.2439 71.3087 32.6878C70.8165 33.1317 70.4257 33.6721 70.1362 34.309C69.8467 34.9459 69.7019 35.6648 69.7019 36.4658C69.7019 36.9676 69.7695 37.4549 69.9046 37.9278C70.0397 38.391 70.2423 38.8059 70.5125 39.1726C70.7924 39.5297 71.135 39.8192 71.5403 40.0412C71.9552 40.2631 72.4329 40.3741 72.9733 40.3741C73.34 40.3741 73.7164 40.3258 74.1024 40.2293C74.498 40.1328 74.8358 39.9688 75.1156 39.7372L75.1735 38.6081L71.6995 38.5502L71.8732 34.2077C73.3111 34.1594 74.7489 34.1208 76.1868 34.0919C77.6247 34.0533 79.0722 34.005 80.5294 33.9471L80.7031 43.6744Z" fill="#FFDD00"/>
<path d="M99.8645 36.4079C99.8645 37.286 99.7632 38.1353 99.5605 38.9555C99.3579 39.7661 99.0635 40.5285 98.6775 41.2426C98.3012 41.9567 97.838 42.6129 97.2879 43.2112C96.7475 43.7999 96.1347 44.3065 95.4496 44.7311C94.774 45.1557 94.0358 45.4887 93.2349 45.7299C92.4339 45.9615 91.5847 46.0773 90.6872 46.0773C89.8187 46.0773 88.9888 45.9663 88.1975 45.7444C87.4158 45.5224 86.6824 45.2136 85.9973 44.818C85.3121 44.4127 84.6897 43.9302 84.13 43.3705C83.5799 42.8011 83.107 42.1738 82.7114 41.4887C82.3254 40.7939 82.0214 40.0508 81.7995 39.2595C81.5872 38.4682 81.481 37.6431 81.481 36.7842C81.481 35.9447 81.5823 35.1244 81.785 34.3235C81.9876 33.5128 82.2771 32.7505 82.6535 32.0364C83.0395 31.3223 83.5027 30.6661 84.0431 30.0677C84.5835 29.4694 85.1867 28.9532 85.8525 28.5189C86.528 28.0846 87.2566 27.7469 88.0383 27.5056C88.8199 27.2644 89.645 27.1438 90.5135 27.1438C91.9128 27.1438 93.1866 27.3609 94.335 27.7951C95.493 28.2294 96.4773 28.8518 97.2879 29.6624C98.1082 30.4634 98.7403 31.4381 99.1842 32.5864C99.6377 33.7251 99.8645 34.999 99.8645 36.4079ZM93.4375 36.7842C93.4375 36.3693 93.3748 35.9688 93.2493 35.5828C93.1335 35.1871 92.9598 34.8397 92.7282 34.5406C92.4966 34.2318 92.2071 33.9857 91.8597 33.8023C91.522 33.6093 91.1311 33.5128 90.6872 33.5128C90.2337 33.5128 89.8284 33.5949 89.4713 33.7589C89.1143 33.923 88.8055 34.1498 88.5449 34.4393C88.294 34.7191 88.101 35.052 87.9659 35.438C87.8308 35.8144 87.7632 36.2149 87.7632 36.6395C87.7632 37.0448 87.8211 37.4501 87.9369 37.8554C88.0527 38.2607 88.2264 38.6274 88.458 38.9555C88.6896 39.2836 88.9743 39.549 89.3121 39.7517C89.6595 39.9543 90.06 40.0556 90.5135 40.0556C90.9671 40.0556 91.3724 39.9688 91.7294 39.7951C92.0961 39.6117 92.4049 39.3705 92.6559 39.0713C92.9068 38.7625 93.0998 38.4103 93.2349 38.0146C93.37 37.619 93.4375 37.2088 93.4375 36.7842Z" fill="#FFDD00"/>
<path d="M41.7514 17.9839C41.7514 20.4398 39.7605 22.4307 37.3046 22.4307C34.8487 22.4307 32.8578 20.4398 32.8578 17.9839C32.8578 15.528 34.8487 13.5371 37.3046 13.5371C39.7605 13.5371 41.7514 15.528 41.7514 17.9839Z" fill="#FFDD00"/>
</g>
</g>
</g>
<defs>
<filter id="filter0_d_6890_40611" x="15.5469" y="13.5371" width="86.099" height="34.562" filterUnits="userSpaceOnUse" color-interpolation-filters="sRGB">
<feFlood flood-opacity="0" result="BackgroundImageFix"/>
<feColorMatrix in="SourceAlpha" type="matrix" values="0 0 0 0 0 0 0 0 0 0 0 0 0 0 0 0 0 0 127 0" result="hardAlpha"/>
<feOffset dx="1.48226" dy="0.74113"/>
<feGaussianBlur stdDeviation="0.148226"/>
<feComposite in2="hardAlpha" operator="out"/>
<feColorMatrix type="matrix" values="0 0 0 0 0.4 0 0 0 0 0.270588 0 0 0 0 0 0 0 0 1 0"/>
<feBlend mode="normal" in2="BackgroundImageFix" result="effect1_dropShadow_6890_40611"/>
<feBlend mode="normal" in="SourceGraphic" in2="effect1_dropShadow_6890_40611" result="shape"/>
</filter>
</defs>
</svg>
