<svg width="237" height="176" viewBox="0 0 237 176" fill="none" xmlns="http://www.w3.org/2000/svg">
<path d="M236.204 154.666H0V154.784H236.204V154.666Z" fill="#EBEBEB"/>
<path d="M42.2807 157.883H24.7827V158.001H42.2807V157.883Z" fill="#EBEBEB"/>
<path d="M113.378 160.439H79.8369V160.557H113.378V160.439Z" fill="#EBEBEB"/>
<path d="M68.816 157.939H44.8413V158.058H68.816V157.939Z" fill="#EBEBEB"/>
<path d="M215.158 161.474H192.166V161.592H215.158V161.474Z" fill="#EBEBEB"/>
<path d="M190.064 161.474H174.961V161.592H190.064V161.474Z" fill="#EBEBEB"/>
<path d="M160.25 159.48H130.956V159.598H160.25V159.48Z" fill="#EBEBEB"/>
<path d="M111.961 133.597H20.7437C20.0292 133.596 19.3443 133.311 18.8394 132.805C18.3346 132.299 18.051 131.614 18.051 130.899V2.67383C18.0572 1.96334 18.3435 1.28399 18.8477 0.783355C19.3519 0.282716 20.0332 0.0012171 20.7437 0H111.961C112.676 0 113.362 0.284194 113.868 0.790064C114.374 1.29593 114.658 1.98204 114.658 2.69745V130.899C114.658 131.615 114.374 132.301 113.868 132.807C113.362 133.313 112.676 133.597 111.961 133.597ZM20.7437 0.0944818C20.0605 0.0957332 19.4056 0.368036 18.9229 0.851621C18.4402 1.33521 18.1691 1.99056 18.1691 2.67383V130.899C18.1691 131.583 18.4402 132.238 18.9229 132.722C19.4056 133.205 20.0605 133.477 20.7437 133.479H111.961C112.645 133.477 113.3 133.205 113.783 132.722C114.267 132.238 114.539 131.583 114.54 130.899V2.67383C114.539 1.99012 114.267 1.33478 113.783 0.851333C113.3 0.367883 112.645 0.0957306 111.961 0.0944818H20.7437Z" fill="#EBEBEB"/>
<path d="M214.147 133.597H122.925C122.21 133.596 121.525 133.311 121.019 132.805C120.514 132.3 120.229 131.614 120.228 130.899V2.67383C120.235 1.96291 120.523 1.28357 121.028 0.783059C121.532 0.282551 122.214 0.00120383 122.925 0H214.147C214.857 0.00245864 215.537 0.284507 216.04 0.785012C216.543 1.28552 216.829 1.96415 216.835 2.67383V130.899C216.835 131.613 216.552 132.298 216.048 132.803C215.545 133.309 214.861 133.594 214.147 133.597ZM122.925 0.0944818C122.242 0.0957306 121.586 0.367883 121.103 0.851333C120.619 1.33478 120.347 1.99012 120.346 2.67383V130.899C120.347 131.583 120.619 132.238 121.103 132.722C121.586 133.205 122.242 133.477 122.925 133.479H214.147C214.831 133.477 215.486 133.205 215.97 132.722C216.453 132.238 216.725 131.583 216.726 130.899V2.67383C216.725 1.99012 216.453 1.33478 215.97 0.851333C215.486 0.367883 214.831 0.0957306 214.147 0.0944818H122.925Z" fill="#EBEBEB"/>
<path d="M205.79 153.211H168.943C167.224 153.211 165.575 152.529 164.359 151.313C163.144 150.098 162.461 148.449 162.461 146.73V113.624C162.461 111.905 163.144 110.256 164.359 109.041C165.575 107.825 167.224 107.142 168.943 107.142H205.79V153.211Z" fill="#F0F0F0"/>
<path d="M205.488 153.211H206.097C209.677 153.211 212.579 150.31 212.579 146.73V113.624C212.579 110.044 209.677 107.142 206.097 107.142H205.488C201.908 107.142 199.006 110.044 199.006 113.624V146.73C199.006 150.31 201.908 153.211 205.488 153.211Z" fill="#F5F5F5"/>
<path d="M200.854 124.135H120.11V153.211H200.854V124.135Z" fill="#F0F0F0"/>
<path d="M204.808 154.666H85.4682C85.2934 154.667 85.1203 154.633 84.9587 154.567C84.7971 154.5 84.6502 154.403 84.5265 154.279C84.4027 154.156 84.3045 154.009 84.2375 153.848C84.1705 153.687 84.136 153.514 84.136 153.339V153.211H168.914L206.135 153.339C206.135 153.691 205.995 154.029 205.746 154.278C205.497 154.527 205.16 154.666 204.808 154.666Z" fill="#E0E0E0"/>
<path d="M93.1779 88.0283H170.577C172.974 88.0283 175.273 88.9805 176.967 90.6752C178.662 92.37 179.614 94.6687 179.614 97.0655V130.706H84.136V97.0655C84.136 94.6687 85.0881 92.37 86.7829 90.6752C88.4777 88.9805 90.7763 88.0283 93.1731 88.0283H93.1779Z" fill="#E0E0E0"/>
<path d="M99.376 88.0283H177.626C179.907 88.0283 182.095 88.9347 183.708 90.5479C185.322 92.1612 186.228 94.3493 186.228 96.6309V130.71H90.7734V96.6309C90.7734 94.3493 91.6798 92.1612 93.2931 90.5479C94.9064 88.9347 97.0944 88.0283 99.376 88.0283Z" fill="#F5F5F5"/>
<path d="M196.994 121.479H126.256C125.173 121.479 124.135 121.91 123.37 122.675C122.604 123.44 122.174 124.479 122.174 125.561V129.241C122.174 130.324 122.604 131.362 123.37 132.127C124.135 132.893 125.173 133.323 126.256 133.323H196.994C197.772 133.323 198.542 133.169 199.26 132.872C199.979 132.574 200.632 132.138 201.181 131.587C201.731 131.037 202.167 130.384 202.464 129.665C202.761 128.947 202.914 128.176 202.913 127.399C202.913 125.829 202.29 124.323 201.18 123.213C200.07 122.103 198.564 121.479 196.994 121.479Z" fill="#E0E0E0"/>
<path d="M119.902 153.211H83.0541C81.3351 153.211 79.6865 152.529 78.471 151.313C77.2555 150.098 76.5726 148.449 76.5726 146.73V113.624C76.5726 111.905 77.2555 110.256 78.471 109.041C79.6865 107.825 81.3351 107.142 83.0541 107.142H119.902V153.211Z" fill="#F0F0F0"/>
<path d="M119.595 153.211H120.204C123.784 153.211 126.686 150.31 126.686 146.73V113.624C126.686 110.044 123.784 107.142 120.204 107.142H119.595C116.015 107.142 113.113 110.044 113.113 113.624V146.73C113.113 150.31 116.015 153.211 119.595 153.211Z" fill="#F5F5F5"/>
<path d="M189.464 17.7246H156.098V66.7888H189.464V17.7246Z" fill="#E0E0E0"/>
<path d="M191.471 17.7246H157.009V66.7888H191.471V17.7246Z" fill="#F5F5F5"/>
<path d="M159.896 21.589V62.9199H188.585V21.589H159.896Z" fill="white"/>
<path d="M170.671 44.2504V47.3966C171.609 47.3966 172.537 47.212 173.403 46.8533C174.269 46.4945 175.056 45.9688 175.719 45.3059C176.382 44.6431 176.907 43.8562 177.266 42.9902C177.625 42.1241 177.809 41.1959 177.809 40.2585V37.1123C176.872 37.1117 175.943 37.2959 175.077 37.6544C174.211 38.0129 173.424 38.5387 172.761 39.2016C172.098 39.8646 171.572 40.6517 171.213 41.518C170.855 42.3843 170.671 43.3128 170.671 44.2504Z" fill="#F5F5F5"/>
<path d="M170.671 33.6399V36.7861C172.564 36.7849 174.379 36.0324 175.717 34.694C177.056 33.3556 177.808 31.5408 177.809 29.648V26.4971C176.872 26.4971 175.943 26.6819 175.077 27.0409C174.21 27.3999 173.423 27.9261 172.76 28.5894C172.098 29.2528 171.572 30.0402 171.213 30.9068C170.855 31.7734 170.671 32.7021 170.671 33.6399Z" fill="#F5F5F5"/>
<path d="M170.671 54.8656V58.0119C172.565 58.0106 174.381 57.2575 175.719 55.9181C177.058 54.5787 177.809 52.7626 177.809 50.8691V47.7134C176.871 47.7134 175.942 47.8985 175.075 48.2581C174.208 48.6177 173.42 49.1447 172.757 49.8091C172.094 50.4734 171.569 51.262 171.211 52.1296C170.853 52.9973 170.67 53.927 170.671 54.8656Z" fill="#F5F5F5"/>
<path d="M139.908 56.2069V21.5889L30.943 21.5889V56.2069L139.908 56.2069Z" fill="#EBEBEB"/>
<path d="M30.9431 56.2069L30.9431 21.5889H30.2865L30.2865 56.2069H30.9431Z" fill="#E0E0E0"/>
<path d="M134.537 26.9604H36.3142V50.8359H134.537V26.9604Z" fill="#F5F5F5"/>
<path d="M59.854 50.8359H51.6956L58.0825 26.9604H66.241L59.854 50.8359Z" fill="white"/>
<path d="M67.441 50.8359H62.7217L69.1086 26.9604H73.828L67.441 50.8359Z" fill="white"/>
<path d="M108.507 50.8359H103.788L110.175 26.9604H114.894L108.507 50.8359Z" fill="white"/>
<path d="M73.3745 115.074H46.9622L43.6931 79.1899H70.1101L73.3745 115.074Z" fill="#E6E6E6"/>
<path d="M74.7443 115.074H48.3273L45.063 79.1899H71.48L74.7443 115.074Z" fill="#F0F0F0"/>
<path d="M51.9366 111.101L49.395 83.1626H67.8661L70.4077 111.101H51.9366Z" fill="white"/>
<path d="M93.1732 115.074H89.616V154.661H93.1732V115.074Z" fill="#E6E6E6"/>
<path d="M94.2927 115.074H91.822V154.661H94.2927V115.074Z" fill="#F5F5F5"/>
<path d="M57.5204 119.443H95.0579V115.074H57.5204V119.443Z" fill="#F5F5F5"/>
<path d="M55.9286 119.443H52.3713V154.666H55.9286V119.443Z" fill="#E6E6E6"/>
<path d="M57.053 119.443H54.5823V154.666H57.053V119.443Z" fill="#F5F5F5"/>
<path d="M33.4229 119.443H29.8657V154.666H33.4229V119.443Z" fill="#E6E6E6"/>
<path d="M34.5473 119.443H32.0767V154.666H34.5473V119.443Z" fill="#F5F5F5"/>
<path d="M70.6676 119.443H67.1104V154.666H70.6676V119.443Z" fill="#E6E6E6"/>
<path d="M71.7873 119.443H69.3167V154.666H71.7873V119.443Z" fill="#F5F5F5"/>
<path d="M57.5204 115.074H29.8657V119.443H57.5204V115.074Z" fill="#E6E6E6"/>
<path d="M118.102 176C168.688 176 209.697 173.606 209.697 170.652C209.697 167.699 168.688 165.305 118.102 165.305C67.5153 165.305 26.5068 167.699 26.5068 170.652C26.5068 173.606 67.5153 176 118.102 176Z" fill="#F5F5F5"/>
<path d="M155.12 38.2652C153.315 37.1362 148.133 38.2652 148.979 43.9341C149.824 49.603 143.163 48.1527 144.618 54.7475C146.073 61.3423 157.879 71.1401 165.149 64.4886C172.42 57.8371 166.292 54.9034 166.429 47.0095C166.524 42.3185 164.398 33.9191 155.12 38.2652Z" fill="#263238"/>
<path d="M165.815 64.2047C165.781 64.2044 165.749 64.1908 165.725 64.1669C165.714 64.1559 165.705 64.1426 165.699 64.128C165.692 64.1134 165.689 64.0977 165.689 64.0818C165.689 64.066 165.692 64.0502 165.699 64.0356C165.705 64.021 165.714 64.0078 165.725 63.9968C170.204 59.5467 169.169 56.8351 167.861 53.4054C167.133 51.5158 166.316 49.3616 166.245 46.5697C166.174 43.5557 165.073 39.4411 162.206 37.7451C160.175 36.5452 157.567 36.7531 154.458 38.364C154.43 38.3775 154.398 38.3796 154.368 38.37C154.338 38.3603 154.313 38.3396 154.298 38.312C154.29 38.2979 154.285 38.2822 154.283 38.2661C154.281 38.2499 154.283 38.2335 154.288 38.218C154.293 38.2025 154.301 38.1881 154.311 38.1758C154.322 38.1636 154.335 38.1536 154.35 38.1467C157.539 36.4932 160.222 36.2901 162.333 37.5373C165.281 39.2852 166.415 43.4896 166.491 46.5602C166.557 49.3144 167.369 51.4402 168.087 53.3157C169.424 56.8304 170.487 59.6081 165.895 64.181C165.872 64.1977 165.844 64.206 165.815 64.2047Z" fill="#263238"/>
<path d="M166.864 63.5574C166.864 63.5574 166.939 63.6661 166.991 63.7369L167.18 63.992C167.319 64.1684 167.465 64.3432 167.62 64.5164C167.936 64.8732 168.274 65.2107 168.631 65.5273C169.362 66.1972 170.153 66.7996 170.993 67.3272C171.845 67.8701 172.732 68.3577 173.648 68.787C174.12 69.0184 174.592 69.2027 175.065 69.4105C175.155 69.453 175.065 69.4105 175.003 69.4483C174.942 69.4861 174.89 69.5192 174.942 69.4908C175.174 69.2935 175.358 69.0464 175.48 68.7681C175.689 68.3516 175.868 67.9206 176.014 67.4784C176.331 66.4918 176.589 65.4868 176.784 64.4692C176.997 63.4299 177.162 62.3669 177.309 61.2946C177.455 60.2222 177.587 59.1357 177.706 58.0728H179.628C179.786 60.332 179.768 62.6 179.576 64.8565C179.488 66.0259 179.31 67.1868 179.042 68.3287C178.899 68.9489 178.703 69.5558 178.457 70.1428C178.158 70.8903 177.697 71.5617 177.106 72.108C176.67 72.4892 176.14 72.7455 175.57 72.8497C175.006 72.9442 174.428 72.8938 173.888 72.7032C173.336 72.5048 172.774 72.3395 172.226 72.1127C171.113 71.6783 170.036 71.1587 169.004 70.5585C167.955 69.9354 166.964 69.2208 166.042 68.4232C165.574 68.0082 165.132 67.5649 164.719 67.0957C164.506 66.8595 164.299 66.6233 164.1 66.3493L163.807 65.9336C163.703 65.7777 163.633 65.6691 163.486 65.414L166.864 63.5574Z" fill="#FFC3BD"/>
<path d="M166.217 61.8098C170.634 64.6443 170.275 66.3638 170.275 66.3638L167.497 70.3888C167.497 70.3888 160.411 67.5543 159.971 65.3293C159.509 63.0098 164.072 60.4399 166.217 61.8098Z" fill="#263238"/>
<path opacity="0.1" d="M166.217 61.8098C170.634 64.6443 170.275 66.3638 170.275 66.3638L167.497 70.3888C167.497 70.3888 160.411 67.5543 159.971 65.3293C159.509 63.0098 164.072 60.4399 166.217 61.8098Z" fill="white"/>
<path d="M170.539 65.9669C170.621 66.025 170.677 66.1131 170.695 66.2121C170.713 66.3111 170.691 66.4131 170.634 66.496L167.799 70.5635C167.771 70.6051 167.735 70.6408 167.693 70.6682C167.651 70.6957 167.604 70.7143 167.555 70.7232C167.505 70.732 167.455 70.7308 167.406 70.7196C167.357 70.7083 167.311 70.6874 167.27 70.658C167.229 70.6292 167.195 70.5927 167.168 70.5505C167.141 70.5083 167.123 70.4613 167.115 70.4121C167.107 70.3629 167.108 70.3126 167.119 70.2639C167.13 70.2153 167.151 70.1694 167.18 70.1289L170.015 66.0614C170.073 65.9806 170.16 65.9256 170.258 65.9079C170.356 65.8903 170.457 65.9115 170.539 65.9669Z" fill="#00A8E8"/>
<path d="M178.017 58.999L175.825 56.0701L180.03 54.9883C180.03 54.9883 180.885 57.596 179.487 59.5092L178.017 58.999Z" fill="#FFC3BD"/>
<path d="M175.944 52.4699L179.444 51.8794L180.03 54.9878L175.825 56.0696L175.944 52.4699Z" fill="#FFC3BD"/>
<path d="M140.324 166.571L144.33 166.959L147.193 157.539L143.187 157.151L140.324 166.571Z" fill="#FFC3BD"/>
<path d="M114.838 152.649L117.809 155.436L124.225 148.388L121.253 145.601L114.838 152.649Z" fill="#FFC3BD"/>
<path d="M119.184 154.099L116.949 150.079C116.913 150.009 116.851 149.955 116.777 149.927C116.703 149.899 116.621 149.899 116.548 149.928L113.109 151.237C113.021 151.272 112.942 151.327 112.877 151.396C112.812 151.464 112.763 151.547 112.733 151.636C112.703 151.726 112.693 151.821 112.703 151.915C112.713 152.009 112.744 152.1 112.792 152.182C113.595 153.57 114.053 154.203 115.031 155.961C115.636 157.047 116.812 159.546 117.648 161.049C118.485 162.551 120.01 161.809 119.803 161.105C118.858 157.964 119.028 156.216 119.297 154.832C119.346 154.582 119.306 154.323 119.184 154.099Z" fill="#263238"/>
<path d="M144.807 165.735H139.946C139.86 165.736 139.776 165.766 139.707 165.818C139.638 165.871 139.588 165.944 139.564 166.028L138.505 169.873C138.481 169.964 138.477 170.06 138.496 170.152C138.514 170.245 138.553 170.332 138.611 170.406C138.669 170.481 138.743 170.541 138.828 170.582C138.913 170.623 139.006 170.644 139.101 170.643C140.811 170.643 141.623 170.643 143.759 170.643H150.292C152.068 170.643 152.437 168.848 151.709 168.687C148.402 167.96 146.513 166.954 145.497 165.995C145.31 165.821 145.062 165.728 144.807 165.735Z" fill="#263238"/>
<path opacity="0.2" d="M147.193 157.543L145.719 162.395H141.59L143.187 157.156L147.193 157.543Z" fill="black"/>
<path opacity="0.2" d="M121.253 145.601L124.224 148.393L120.917 152.025L117.946 149.233L121.253 145.601Z" fill="black"/>
<path d="M166.217 61.8098C166.217 61.8098 167.823 62.901 157.643 85.0191L141.614 80.5832C143.688 74.1301 144.812 70.11 145.393 55.8574C147.766 56.0149 150.125 56.3448 152.451 56.8448C154.921 57.3435 157.352 58.0176 159.726 58.8619C161.939 59.7315 164.106 60.7155 166.217 61.8098Z" fill="#263238"/>
<path opacity="0.1" d="M166.217 61.8098C166.217 61.8098 167.823 62.901 157.643 85.0191L141.614 80.5832C143.688 74.1301 144.812 70.11 145.393 55.8574C147.766 56.0149 150.125 56.3448 152.451 56.8448C154.921 57.3435 157.352 58.0176 159.726 58.8619C161.939 59.7315 164.106 60.7155 166.217 61.8098Z" fill="white"/>
<path d="M155.446 48.8472C155.257 51.3179 154.525 55.7349 152.455 56.845C152.455 56.845 151.251 60.9408 156.476 62.4478C160.902 63.7186 159.731 58.8622 159.731 58.8622C157.293 57.5158 158.786 55.1302 159.258 52.4564L155.446 48.8472Z" fill="#FFC3BD"/>
<path opacity="0.2" d="M155.422 48.8516C155.271 50.8309 154.775 54.0811 153.504 55.8479C154.978 55.9944 157.284 55.5456 157.964 54.4307C158.3 53.6491 158.574 52.8419 158.781 52.0167L155.422 48.8516Z" fill="black"/>
<path d="M161.927 45.2706C161.927 49.3333 161.998 51.0576 160.075 53.2543C157.18 56.5612 152.191 55.6589 150.986 51.6718C149.904 48.0862 150.103 42.0441 153.977 40.197C154.828 39.7859 155.77 39.5994 156.714 39.6552C157.657 39.7109 158.571 40.0071 159.368 40.5156C160.164 41.0241 160.818 41.7279 161.266 42.5602C161.714 43.3925 161.942 44.3255 161.927 45.2706Z" fill="#FFC3BD"/>
<path d="M153.532 43.0173C155.814 46.2061 163.491 50.6373 164.006 46.3667C164.521 42.0961 160.6 37.8634 156.716 38.2838C152.833 38.7043 151.581 40.3057 153.532 43.0173Z" fill="#263238"/>
<path d="M163.609 49.0644C163.437 49.4138 163.198 49.726 162.905 49.9829C162.613 50.2399 162.272 50.4366 161.904 50.5619C160.916 50.8879 160.373 50.0186 160.605 49.0596C160.817 48.1951 161.582 46.9858 162.598 47.0755C162.819 47.0983 163.03 47.176 163.213 47.3016C163.396 47.4272 163.545 47.5967 163.645 47.7945C163.746 47.9923 163.795 48.2122 163.789 48.4341C163.783 48.6559 163.721 48.8726 163.609 49.0644Z" fill="#FFC3BD"/>
<path d="M157.642 85.0334C157.642 85.0334 163.349 108.148 159.608 125.632C157.099 137.343 148.057 161.001 148.057 161.001L140.971 160.822C140.971 160.822 147.816 135.997 149.229 126.232C151.652 109.528 145.884 81.7832 145.884 81.7832L157.642 85.0334Z" fill="#00A8E8"/>
<path opacity="0.2" d="M151.279 88.3403L147.746 93.9147C148.804 100.525 149.474 107.191 149.753 113.879C154.737 104.983 152.385 93.0644 151.279 88.3403Z" fill="black"/>
<path d="M149.324 161.355L140.324 161.133L140.929 157.93L149.98 158.61L149.324 161.355Z" fill="#263238"/>
<path d="M154.128 84.0886C154.128 84.0886 150.821 109.362 143.702 123.724C137.943 135.321 122.576 151.832 122.576 151.832L118.645 147.783C118.645 147.783 129.038 129.832 133.29 122.136C143.787 103.24 134.485 86.3042 141.6 80.5645L154.128 84.0886Z" fill="#00A8E8"/>
<path d="M122.973 152.384L117.904 147.438L119.586 145.152L125.113 150.863L122.973 152.384Z" fill="#263238"/>
<path d="M141.633 79.5721L140.513 80.8098C140.428 80.9043 140.513 81.0555 140.711 81.1074L157.524 85.7606C157.666 85.7984 157.808 85.7607 157.841 85.6756L158.384 84.2584C158.422 84.1639 158.318 84.0458 158.162 83.9986L141.93 79.506C141.879 79.4901 141.825 79.4879 141.773 79.4995C141.72 79.5111 141.672 79.5361 141.633 79.5721Z" fill="#00A8E8"/>
<path opacity="0.5" d="M141.633 79.5721L140.513 80.8098C140.428 80.9043 140.513 81.0555 140.711 81.1074L157.524 85.7606C157.666 85.7984 157.808 85.7607 157.841 85.6756L158.384 84.2584C158.422 84.1639 158.318 84.0458 158.162 83.9986L141.93 79.506C141.879 79.4901 141.825 79.4879 141.773 79.4995C141.72 79.5111 141.672 79.5361 141.633 79.5721Z" fill="white"/>
<path d="M143.31 81.991L142.875 81.8729C142.79 81.8493 142.738 81.7832 142.757 81.7312L143.475 79.9266C143.498 79.8699 143.588 79.8463 143.673 79.8699L144.108 79.9928C144.193 79.9928 144.25 80.0778 144.226 80.1345L143.508 81.9391C143.485 81.9681 143.453 81.989 143.417 81.9983C143.382 82.0077 143.344 82.0051 143.31 81.991Z" fill="#00A8E8"/>
<path d="M156.258 85.5768L155.824 85.4587C155.739 85.4351 155.682 85.369 155.706 85.317L156.424 83.5077C156.447 83.4786 156.478 83.4578 156.514 83.4484C156.55 83.439 156.588 83.4416 156.622 83.4557L157.057 83.5785C157.142 83.6022 157.194 83.6636 157.175 83.7155L156.457 85.506C156.433 85.5768 156.367 85.6004 156.258 85.5768Z" fill="#00A8E8"/>
<path d="M149.786 83.7861L149.352 83.6632C149.262 83.6632 149.21 83.5782 149.229 83.5262L149.952 81.7169C149.952 81.6649 150.06 81.6413 150.145 81.6649L150.58 81.783C150.67 81.783 150.722 81.8728 150.703 81.9248L149.98 83.7341C149.961 83.7861 149.871 83.8097 149.786 83.7861Z" fill="#00A8E8"/>
<path d="M155.852 46.7678C155.852 47.0985 155.71 47.3772 155.498 47.3867C155.285 47.3961 155.092 47.1457 155.068 46.8151C155.044 46.4844 155.21 46.2057 155.427 46.1915C155.644 46.1773 155.833 46.4324 155.852 46.7678Z" fill="#263238"/>
<path d="M152.116 46.981C152.116 47.3117 151.974 47.5905 151.757 47.6046C151.539 47.6188 151.355 47.359 151.331 47.0283C151.308 46.6976 151.473 46.4189 151.69 46.4094C151.908 46.4 152.116 46.6551 152.116 46.981Z" fill="#263238"/>
<path d="M151.794 46.4188L150.991 46.2393C150.991 46.2393 151.431 46.8345 151.794 46.4188Z" fill="#263238"/>
<path d="M153.141 47.4907C152.89 48.259 152.538 48.9899 152.092 49.6638C152.266 49.7739 152.463 49.8444 152.668 49.8705C152.873 49.8966 153.081 49.8777 153.278 49.815L153.141 47.4907Z" fill="#ED847E"/>
<path d="M155.115 50.9398C154.919 50.9906 154.718 51.0207 154.515 51.0296C154.505 51.0309 154.494 51.03 154.484 51.0268C154.473 51.0236 154.464 51.0182 154.456 51.0111C154.448 51.0039 154.441 50.9951 154.437 50.9853C154.432 50.9754 154.43 50.9648 154.43 50.954C154.43 50.9434 154.431 50.9329 154.435 50.9229C154.438 50.9129 154.443 50.9037 154.45 50.8958C154.457 50.8879 154.466 50.8814 154.476 50.8768C154.485 50.8722 154.495 50.8696 154.506 50.869C154.919 50.8523 155.322 50.7394 155.684 50.5393C156.046 50.3391 156.356 50.0573 156.589 49.7163C156.601 49.7014 156.618 49.6913 156.637 49.6878C156.656 49.6844 156.676 49.6878 156.692 49.6976C156.709 49.7073 156.721 49.7226 156.728 49.7408C156.734 49.759 156.733 49.7788 156.726 49.7966C156.354 50.3687 155.778 50.7775 155.115 50.9398Z" fill="#263238"/>
<path d="M157.085 44.3543C157.058 44.3612 157.03 44.3609 157.004 44.3535C156.977 44.346 156.953 44.3316 156.934 44.3118C156.762 44.1305 156.549 43.9929 156.313 43.9108C156.078 43.8286 155.825 43.8041 155.578 43.8394C155.536 43.8467 155.493 43.8382 155.457 43.8155C155.422 43.7928 155.396 43.7575 155.384 43.7165C155.376 43.6746 155.384 43.6311 155.407 43.5949C155.43 43.5588 155.466 43.533 155.507 43.5229C155.807 43.4749 156.113 43.4996 156.401 43.595C156.689 43.6903 156.949 43.8536 157.161 44.0708C157.19 44.1023 157.206 44.1436 157.206 44.1866C157.206 44.2295 157.19 44.2709 157.161 44.3023C157.14 44.3253 157.114 44.3431 157.085 44.3543Z" fill="#263238"/>
<path d="M150.5 44.8313C150.475 44.8463 150.446 44.8542 150.417 44.8542C150.388 44.8542 150.359 44.8463 150.334 44.8313C150.301 44.8059 150.279 44.7685 150.273 44.727C150.266 44.6855 150.277 44.6432 150.301 44.6092C150.475 44.3613 150.707 44.159 150.976 44.0192C151.244 43.8794 151.543 43.8064 151.846 43.8062C151.867 43.8074 151.888 43.8127 151.907 43.8219C151.926 43.8311 151.943 43.844 151.957 43.8598C151.971 43.8756 151.982 43.894 151.989 43.914C151.996 43.934 151.998 43.9551 151.997 43.9762C151.996 43.9973 151.991 44.018 151.981 44.037C151.972 44.056 151.959 44.0731 151.943 44.0871C151.928 44.1012 151.909 44.1119 151.889 44.1189C151.869 44.1258 151.848 44.1287 151.827 44.1274C151.578 44.1314 151.334 44.1942 151.114 44.3108C150.893 44.4274 150.704 44.5944 150.561 44.7982C150.543 44.8137 150.522 44.825 150.5 44.8313Z" fill="#263238"/>
<path d="M145.771 61.9465C145.36 62.57 144.987 63.0708 144.566 63.5999C144.146 64.129 143.735 64.625 143.3 65.1163C142.429 66.1038 141.501 67.0407 140.523 67.9224C139.549 68.8218 138.517 69.6551 137.433 70.4167C136.899 70.8136 136.328 71.1584 135.77 71.5174L134.896 72.0182L134.462 72.2638C134.301 72.3489 134.093 72.4623 133.895 72.5426C133.019 72.9386 132.046 73.0668 131.098 72.911C130.203 72.742 129.367 72.345 128.67 71.7584C128.082 71.2676 127.563 70.6986 127.13 70.0672C126.73 69.4937 126.374 68.8904 126.067 68.2626C124.946 65.8832 124.173 63.3552 123.771 60.756L125.661 60.3214C126.053 61.4457 126.492 62.6126 126.988 63.7038C127.453 64.7947 128.001 65.8482 128.627 66.8548C129.15 67.7657 129.843 68.5676 130.668 69.2168C130.943 69.4273 131.269 69.5595 131.613 69.5995C131.913 69.6123 132.211 69.5402 132.473 69.3916C132.564 69.3451 132.652 69.293 132.737 69.2357L133.106 68.9995L133.838 68.5271C134.31 68.1775 134.783 67.8516 135.255 67.4784C136.186 66.7497 137.078 65.974 137.929 65.1541C138.794 64.3368 139.601 63.4629 140.381 62.5653C140.773 62.1165 141.156 61.663 141.524 61.2001C141.893 60.7371 142.261 60.2552 142.559 59.8301L145.771 61.9465Z" fill="#FFC3BD"/>
<path d="M126.024 62.0648L126.44 57.6572L122.477 59.2776C122.477 59.2776 122.949 61.4932 124.461 62.2868L126.024 62.0648Z" fill="#FFC3BD"/>
<path d="M125.174 55.2764L122.108 54.6104L122.476 59.2777L126.44 57.6574L125.174 55.2764Z" fill="#FFC3BD"/>
<path d="M145.398 55.8574C143.333 55.8574 138.364 63.7372 138.364 63.7372L141.874 67.3747C141.874 67.3747 148.487 62.9152 148.747 60.2886C148.974 58.0305 148.024 55.881 145.398 55.8574Z" fill="#263238"/>
<path opacity="0.1" d="M145.398 55.8574C143.333 55.8574 138.364 63.7372 138.364 63.7372L141.874 67.3747C141.874 67.3747 148.487 62.9152 148.747 60.2886C148.974 58.0305 148.024 55.881 145.398 55.8574Z" fill="white"/>
<path d="M142.195 67.5546C142.124 67.6253 142.028 67.665 141.928 67.665C141.828 67.665 141.732 67.6253 141.661 67.5546L138.113 64.0777C138.042 64.0069 138.003 63.9109 138.003 63.8108C138.003 63.7107 138.042 63.6147 138.113 63.5439C138.185 63.4729 138.281 63.4331 138.382 63.4331C138.483 63.4331 138.58 63.4729 138.652 63.5439L142.195 67.0161C142.266 67.0877 142.305 67.1845 142.305 67.2853C142.305 67.3862 142.266 67.483 142.195 67.5546Z" fill="#00A8E8"/>
<path d="M119.992 156.263C120.121 156.26 120.246 156.213 120.346 156.131C120.393 156.1 120.431 156.057 120.456 156.006C120.48 155.955 120.489 155.899 120.483 155.843C120.441 155.332 119.146 154.638 118.995 154.558C118.982 154.55 118.967 154.545 118.952 154.545C118.937 154.545 118.923 154.55 118.91 154.558C118.897 154.567 118.887 154.58 118.882 154.595C118.877 154.611 118.877 154.627 118.882 154.643C119.028 155.162 119.354 156.06 119.826 156.225C119.879 156.248 119.935 156.26 119.992 156.263ZM119.047 154.794C119.519 155.049 120.256 155.54 120.28 155.857C120.283 155.885 120.278 155.914 120.264 155.939C120.251 155.965 120.23 155.985 120.204 155.998C120.157 156.043 120.098 156.075 120.034 156.09C119.97 156.105 119.903 156.102 119.841 156.083C119.585 155.989 119.293 155.512 119.047 154.794Z" fill="#00A8E8"/>
<path d="M120.167 154.997C120.371 155.012 120.575 154.961 120.748 154.851C120.804 154.804 120.843 154.738 120.857 154.666C120.871 154.593 120.859 154.518 120.823 154.454C120.798 154.386 120.758 154.324 120.706 154.274C120.653 154.224 120.59 154.187 120.521 154.166C119.968 153.972 118.938 154.534 118.896 154.558C118.884 154.565 118.873 154.576 118.866 154.588C118.858 154.6 118.854 154.614 118.853 154.628C118.853 154.643 118.857 154.656 118.863 154.669C118.87 154.681 118.879 154.692 118.891 154.699C119.289 154.893 119.724 154.995 120.167 154.997ZM120.247 154.284C120.322 154.283 120.398 154.296 120.469 154.321C120.516 154.335 120.559 154.36 120.594 154.394C120.629 154.427 120.656 154.469 120.672 154.515C120.724 154.638 120.672 154.695 120.644 154.728C120.403 154.931 119.552 154.817 119.113 154.628C119.465 154.441 119.85 154.323 120.247 154.284Z" fill="#00A8E8"/>
<path d="M146.961 166.519C147.292 166.544 147.621 166.466 147.906 166.297C147.98 166.242 148.039 166.171 148.08 166.089C148.121 166.007 148.142 165.917 148.142 165.825C148.148 165.777 148.141 165.729 148.121 165.686C148.101 165.642 148.069 165.605 148.029 165.579C147.59 165.277 145.823 166.089 145.624 166.184C145.608 166.191 145.595 166.203 145.587 166.219C145.578 166.234 145.575 166.252 145.577 166.269C145.579 166.285 145.586 166.3 145.597 166.312C145.608 166.324 145.623 166.332 145.639 166.335C146.072 166.443 146.515 166.505 146.961 166.519ZM147.736 165.683C147.805 165.679 147.874 165.693 147.935 165.726C147.958 165.726 147.982 165.768 147.977 165.834C147.976 165.899 147.96 165.963 147.929 166.021C147.899 166.078 147.855 166.128 147.802 166.165C147.405 166.467 146.437 166.34 145.913 166.245C146.487 165.963 147.102 165.773 147.736 165.683Z" fill="#00A8E8"/>
<path d="M145.653 166.354H145.681C146.215 166.136 147.325 165.244 147.264 164.8C147.264 164.705 147.188 164.587 146.947 164.559C146.002 164.45 145.591 166.184 145.572 166.259C145.57 166.274 145.571 166.289 145.576 166.303C145.581 166.317 145.589 166.33 145.601 166.34C145.617 166.349 145.635 166.354 145.653 166.354ZM146.862 164.71H146.919C147.084 164.71 147.094 164.79 147.098 164.814C147.136 165.097 146.343 165.82 145.766 166.122C145.894 165.721 146.253 164.71 146.862 164.71Z" fill="#00A8E8"/>
<path d="M155.521 46.2015L154.718 46.022C154.718 46.022 155.158 46.6172 155.521 46.2015Z" fill="#263238"/>
<path d="M72.0479 168.504L125.477 163.839C129.105 163.522 131.79 160.324 131.473 156.695L120.345 29.2429C120.028 25.6145 116.83 22.9299 113.202 23.2467L59.7724 27.9117C56.144 28.2285 53.4594 31.4268 53.7763 35.0552L64.9045 162.508C65.2213 166.136 68.4195 168.821 72.0479 168.504Z" fill="#00A8E8"/>
<path d="M57.7755 72.6986C58.2705 72.6518 58.727 72.4118 59.0462 72.0307C59.3655 71.6496 59.5216 71.158 59.4809 70.6625L58.0117 53.8542C57.9661 53.3593 57.7273 52.9023 57.347 52.5822C56.9668 52.2622 56.4758 52.1048 55.9804 52.1441C55.4846 52.1898 55.0268 52.4292 54.7066 52.8105C54.3864 53.1917 54.2296 53.684 54.2702 54.1802L55.7442 70.9885C55.7898 71.4834 56.0286 71.9404 56.4088 72.2605C56.789 72.5805 57.2801 72.7379 57.7755 72.6986Z" fill="#00A8E8"/>
<path d="M123.032 59.4039L123.686 59.3468C124.453 59.2799 125.02 58.604 124.953 57.8373L124.056 47.5684C123.989 46.8017 123.314 46.2344 122.547 46.3013L121.893 46.3584C121.126 46.4254 120.559 47.1012 120.626 47.868L121.522 58.1368C121.589 58.9036 122.265 59.4709 123.032 59.4039Z" fill="#263238"/>
<path d="M123.799 76.6914L124.456 76.6323C125.225 76.563 125.793 75.8829 125.724 75.1132L124.796 64.8053C124.727 64.0356 124.047 63.4679 123.277 63.5371L122.62 63.5962C121.851 63.6655 121.283 64.3456 121.352 65.1153L122.28 75.4232C122.349 76.1928 123.029 76.7606 123.799 76.6914Z" fill="#263238"/>
<path d="M73.1707 168.403L126.6 163.738C130.228 163.421 132.913 160.223 132.596 156.594L121.468 29.1418C121.151 25.5134 117.953 22.8288 114.324 23.1456L60.8952 27.8107C57.2668 28.1275 54.5822 31.3257 54.899 34.9541L66.0273 162.407C66.3441 166.035 69.5423 168.72 73.1707 168.403Z" fill="#263238"/>
<path opacity="0.4" d="M67.9084 160.467L130.384 155.01C130.711 154.98 131.012 154.823 131.223 154.571C131.433 154.32 131.536 153.996 131.509 153.669L120.936 32.4491C120.906 32.1235 120.749 31.8228 120.499 31.6124C120.248 31.4019 119.925 31.2986 119.599 31.3248L57.0998 36.7858C56.9385 36.8001 56.7815 36.846 56.638 36.9209C56.4944 36.9958 56.367 37.0983 56.263 37.2224C56.1591 37.3465 56.0806 37.49 56.032 37.6444C55.9835 37.7989 55.9659 37.9615 55.9801 38.1228L66.5715 159.347C66.5852 159.509 66.6307 159.666 66.7054 159.81C66.7801 159.954 66.8825 160.081 67.0068 160.185C67.1311 160.289 67.2747 160.368 67.4295 160.416C67.5842 160.465 67.747 160.482 67.9084 160.467Z" fill="#00A8E8"/>
<path opacity="0.3" d="M111.342 32.0479L103.49 157.359L90.4329 158.502L98.2843 33.1864L111.342 32.0479Z" fill="#00A8E8"/>
<path opacity="0.2" d="M94.5383 28.0259L81.1963 29.1908C80.887 29.2179 80.6581 29.4905 80.6851 29.7998L80.7324 30.341C80.7594 30.6503 81.032 30.8791 81.3413 30.8521L94.6833 29.6872C94.9926 29.6602 95.2214 29.3876 95.1944 29.0783L95.1472 28.5371C95.1202 28.2278 94.8476 27.9989 94.5383 28.0259Z" fill="white"/>
<path d="M82.1043 76.5864H147.112C148.801 76.5914 150.419 77.2644 151.613 78.4585C152.807 79.6525 153.48 81.2706 153.485 82.9592V114.847C153.48 116.536 152.807 118.154 151.613 119.349C150.419 120.544 148.801 121.218 147.112 121.224H124.616L114.606 131.235L104.596 121.224H82.1043C80.4144 121.219 78.7952 120.546 77.6002 119.351C76.4053 118.156 75.7318 116.537 75.7268 114.847V82.9592C75.7318 81.2698 76.4055 79.651 77.6005 78.4568C78.7956 77.2626 80.4149 76.5902 82.1043 76.5864Z" fill="#00A8E8"/>
<path opacity="0.3" d="M82.1043 76.5864H147.112C148.801 76.5914 150.419 77.2644 151.613 78.4585C152.807 79.6525 153.48 81.2706 153.485 82.9592V114.847C153.48 116.536 152.807 118.154 151.613 119.349C150.419 120.544 148.801 121.218 147.112 121.224H124.616L114.606 131.235L104.596 121.224H82.1043C80.4144 121.219 78.7952 120.546 77.6002 119.351C76.4053 118.156 75.7318 116.537 75.7268 114.847V82.9592C75.7318 81.2698 76.4055 79.651 77.6005 78.4568C78.7956 77.2626 80.4149 76.5902 82.1043 76.5864Z" fill="white"/>
<path d="M86.2709 87.636V110.17C86.2633 111.044 86.6019 111.885 87.2127 112.51C87.8234 113.135 88.6567 113.493 89.5305 113.505H139.681C140.555 113.493 141.388 113.135 141.999 112.51C142.61 111.885 142.948 111.044 142.941 110.17V87.636C142.941 87.2092 142.86 86.7862 142.705 86.3888C142.467 85.7786 142.052 85.2536 141.513 84.8815C140.974 84.5093 140.336 84.3071 139.681 84.3008H89.5305C88.8761 84.3067 88.2386 84.5089 87.7004 84.8812C87.1623 85.2534 86.7482 85.7786 86.5118 86.3888C86.3517 86.7851 86.2698 87.2086 86.2709 87.636Z" fill="white"/>
<path opacity="0.1" d="M86.512 86.3888L110.756 96.9471C111.971 97.4777 113.283 97.7515 114.608 97.7515C115.934 97.7515 117.246 97.4777 118.461 96.9471L142.705 86.3888C142.467 85.7786 142.052 85.2536 141.513 84.8815C140.974 84.5093 140.336 84.3071 139.681 84.3008H89.5306C88.8763 84.3067 88.2388 84.5089 87.7006 84.8812C87.1624 85.2534 86.7483 85.7786 86.512 86.3888Z" fill="black"/>
<path d="M87.5988 86.2725C91.3845 82.4869 91.3845 76.3491 87.5988 72.5634C83.8131 68.7778 77.6754 68.7778 73.8897 72.5634C70.104 76.3491 70.104 82.4869 73.8897 86.2725C77.6754 90.0582 83.8131 90.0582 87.5988 86.2725Z" fill="#DE5753"/>
<path d="M82.6145 85.3257H80.3564V76.8223C79.5217 77.5988 78.5267 78.1826 77.4417 78.5324V76.4869C78.1384 76.2308 78.7869 75.8586 79.3596 75.3862C80.0046 74.9064 80.4968 74.2501 80.7769 73.4966H82.6098L82.6145 85.3257Z" fill="white"/>
<path d="M135.283 19.3306C134.947 19.3279 134.623 19.2057 134.368 18.9859C134.114 18.7661 133.946 18.463 133.894 18.1307C133.246 13.8718 130.936 10.0437 127.47 7.48539C124.004 4.92709 119.665 3.84735 115.404 4.48286C115.058 4.49195 114.721 4.3742 114.456 4.1518C114.191 3.92941 114.016 3.61774 113.965 3.27554C113.914 2.93335 113.99 2.58427 114.178 2.29412C114.367 2.00397 114.655 1.79278 114.988 1.70038C119.987 0.955285 125.076 2.2228 129.141 5.22496C133.206 8.22711 135.914 12.7188 136.672 17.715C136.724 18.0828 136.629 18.4562 136.408 18.7548C136.187 19.0535 135.858 19.2534 135.491 19.3117C135.422 19.3248 135.353 19.3312 135.283 19.3306Z" fill="#00A8E8"/>
<path d="M128.296 20.3795C127.961 20.3769 127.637 20.2554 127.383 20.0365C127.128 19.8177 126.96 19.5157 126.907 19.1843C126.542 16.7763 125.237 14.6114 123.278 13.1643C121.32 11.7172 118.867 11.1062 116.458 11.4652C116.111 11.4755 115.773 11.3587 115.507 11.1367C115.241 10.9147 115.066 10.6029 115.014 10.2603C114.962 9.91771 115.038 9.56801 115.226 9.27732C115.415 8.98662 115.703 8.77508 116.037 8.68267C119.184 8.21259 122.389 9.01002 124.948 10.9C127.508 12.79 129.213 15.6181 129.69 18.7638C129.743 19.1324 129.649 19.507 129.428 19.8067C129.207 20.1064 128.877 20.307 128.509 20.3653C128.438 20.3747 128.367 20.3795 128.296 20.3795Z" fill="#00A8E8"/>
<path d="M121.314 21.4328C120.978 21.4301 120.654 21.3079 120.399 21.0881C120.145 20.8682 119.977 20.5651 119.925 20.2329C119.884 19.9566 119.789 19.691 119.645 19.4516C119.501 19.2121 119.312 19.0034 119.087 18.8375C118.862 18.6716 118.607 18.5517 118.336 18.4847C118.064 18.4177 117.783 18.405 117.506 18.4472C117.164 18.4519 116.831 18.3321 116.569 18.1101C116.308 17.8881 116.136 17.5789 116.085 17.2399C116.035 16.9008 116.109 16.5548 116.293 16.2661C116.478 15.9773 116.762 15.7653 117.091 15.6694C117.734 15.5724 118.389 15.6035 119.02 15.761C119.651 15.9184 120.245 16.199 120.767 16.5867C121.289 16.9744 121.729 17.4615 122.062 18.0199C122.395 18.5784 122.615 19.1972 122.708 19.8408C122.759 20.2086 122.664 20.582 122.444 20.8806C122.223 21.1793 121.893 21.3792 121.527 21.4375C121.456 21.443 121.385 21.4414 121.314 21.4328Z" fill="#00A8E8"/>
</svg>
