<svg width="24" height="25" viewBox="0 0 24 25" fill="none" xmlns="http://www.w3.org/2000/svg">
<g id="vuesax/linear/facebook">
<g id="facebook">
<path id="Vector" d="M14 9.86738V12.7674H16.6C16.8 12.7674 16.9 12.9674 16.9 13.1674L16.5 15.0674C16.5 15.1674 16.3 15.2674 16.2 15.2674H14V22.5674H11V15.3674H9.3C9.1 15.3674 9 15.2674 9 15.0674V13.1674C9 12.9674 9.1 12.8674 9.3 12.8674H11V9.56738C11 7.86738 12.3 6.56738 14 6.56738H16.7C16.9 6.56738 17 6.66738 17 6.86738V9.26738C17 9.46738 16.9 9.56738 16.7 9.56738H14.3C14.1 9.56738 14 9.66738 14 9.86738Z" stroke="#292D32" stroke-width="1.5" stroke-miterlimit="10" stroke-linecap="round"/>
<path id="Vector_2" d="M15 22.5674H9C4 22.5674 2 20.5674 2 15.5674V9.56738C2 4.56738 4 2.56738 9 2.56738H15C20 2.56738 22 4.56738 22 9.56738V15.5674C22 20.5674 20 22.5674 15 22.5674Z" stroke="#292D32" stroke-width="1.5" stroke-linecap="round" stroke-linejoin="round"/>
</g>
</g>
</svg>
