<svg width="24" height="24" viewBox="0 0 24 24" fill="none" xmlns="http://www.w3.org/2000/svg">
<path d="M21.8055 10.0415H21V10H12V14H17.6515C16.827 16.3285 14.6115 18 12 18C8.6865 18 6 15.3135 6 12C6 8.6865 8.6865 6 12 6C13.5295 6 14.921 6.577 15.9805 7.5195L18.809 4.691C17.023 3.0265 14.634 2 12 2C6.4775 2 2 6.4775 2 12C2 17.5225 6.4775 22 12 22C17.5225 22 22 17.5225 22 12C22 11.3295 21.931 10.675 21.8055 10.0415Z" fill="#FFC107"/>
<path d="M3.15625 7.3455L6.44175 9.755C7.33075 7.554 9.48375 6 12.0033 6C13.5328 6 14.9243 6.577 15.9838 7.5195L18.8123 4.691C17.0262 3.0265 14.6372 2 12.0033 2C8.16225 2 4.83125 4.1685 3.15625 7.3455Z" fill="#FF3D00"/>
<path d="M11.9963 21.9999C14.5793 21.9999 16.9263 21.0114 18.7008 19.4039L15.6058 16.7849C14.568 17.574 13.3 18.0009 11.9963 17.9999C9.39525 17.9999 7.18675 16.3414 6.35475 14.0269L3.09375 16.5394C4.74875 19.7779 8.10975 21.9999 11.9963 21.9999Z" fill="#4CAF50"/>
<path d="M21.8055 10.0415H21V10H12V14H17.6515C17.2571 15.1082 16.5467 16.0766 15.608 16.7855L15.6095 16.7845L18.7045 19.4035C18.4855 19.6025 22 17 22 12C22 11.3295 21.931 10.675 21.8055 10.0415Z" fill="#1976D2"/>
</svg>
