<svg width="24" height="25" viewBox="0 0 24 25" fill="none" xmlns="http://www.w3.org/2000/svg">
<g id="Instagram Icon">
<g id="vuesax/linear/instagram">
<g id="instagram">
<path id="Vector" d="M9 22.5674H15C20 22.5674 22 20.5674 22 15.5674V9.56738C22 4.56738 20 2.56738 15 2.56738H9C4 2.56738 2 4.56738 2 9.56738V15.5674C2 20.5674 4 22.5674 9 22.5674Z" stroke="#202020" stroke-width="1.5" stroke-linecap="round" stroke-linejoin="round"/>
<path id="Vector_2" d="M12 16.0674C13.933 16.0674 15.5 14.5004 15.5 12.5674C15.5 10.6344 13.933 9.06738 12 9.06738C10.067 9.06738 8.5 10.6344 8.5 12.5674C8.5 14.5004 10.067 16.0674 12 16.0674Z" stroke="#202020" stroke-width="1.5" stroke-linecap="round" stroke-linejoin="round"/>
<path id="Vector_3" d="M17.6361 7.56738H17.6477" stroke="#202020" stroke-width="1.5" stroke-linecap="round" stroke-linejoin="round"/>
</g>
</g>
</g>
</svg>
