<svg width="25" height="25" viewBox="0 0 25 25" fill="none" xmlns="http://www.w3.org/2000/svg">
<g id="XLogo">
<path id="Vector" d="M20.5217 20.7687L14.6529 11.5456L20.4439 5.17527C20.5748 5.02764 20.6423 4.83433 20.6317 4.63726C20.6211 4.44019 20.5333 4.25524 20.3872 4.12251C20.2412 3.98978 20.0487 3.91997 19.8515 3.92821C19.6543 3.93645 19.4683 4.02207 19.3339 4.16652L13.8176 10.234L10.0217 4.26871C9.95398 4.16217 9.8605 4.07443 9.74988 4.01363C9.63926 3.95283 9.51509 3.92094 9.38886 3.9209H4.88886C4.75439 3.92083 4.62237 3.95692 4.50663 4.02539C4.39089 4.09386 4.29569 4.19219 4.231 4.31008C4.1663 4.42796 4.13449 4.56108 4.1389 4.69548C4.14331 4.82988 4.18377 4.96063 4.25605 5.07402L10.1248 14.2962L4.33386 20.6712C4.26624 20.7439 4.2137 20.8292 4.1793 20.9223C4.1449 21.0154 4.12932 21.1144 4.13347 21.2135C4.13761 21.3127 4.16139 21.4101 4.20344 21.5C4.24548 21.5899 4.30495 21.6705 4.3784 21.7373C4.45185 21.804 4.53782 21.8555 4.63132 21.8888C4.72482 21.9221 4.824 21.9365 4.9231 21.9312C5.02221 21.9258 5.11927 21.9009 5.20866 21.8578C5.29805 21.8146 5.378 21.7542 5.44386 21.68L10.9601 15.6125L14.756 21.5778C14.8243 21.6834 14.918 21.7703 15.0286 21.8302C15.1392 21.8902 15.2631 21.9214 15.3889 21.9209H19.8889C20.0232 21.9209 20.155 21.8847 20.2706 21.8163C20.3862 21.7479 20.4813 21.6497 20.546 21.5319C20.6107 21.4142 20.6425 21.2813 20.6383 21.147C20.634 21.0127 20.5937 20.8821 20.5217 20.7687ZM15.8004 20.4209L6.2548 5.4209H8.97355L18.5229 20.4209H15.8004Z" fill="black"/>
</g>
</svg>
