<svg width="38" height="39" viewBox="0 0 38 39" fill="none" xmlns="http://www.w3.org/2000/svg">
<path d="M37.4616 7.89385L37.3716 7.12877H32.8711C33.0962 5.59861 33.2312 4.02345 33.3212 2.40329C33.3662 1.5482 32.6911 0.828125 31.926 0.828125H6.13839C5.32831 0.828125 4.69824 1.5482 4.74325 2.40329C4.78825 4.02345 4.96827 5.59861 5.19329 7.12877H0.692834L0.55782 7.89385C0.512816 8.07387 0.0177648 12.6643 2.98807 16.8048C4.92327 19.505 7.93858 21.3502 11.854 22.2953C13.1141 23.5555 14.5092 24.5005 15.9944 25.0856C15.8144 26.9308 15.5894 28.731 15.3643 30.3961H22.7001C22.4301 28.686 22.205 26.9308 22.025 25.0856C23.5102 24.5455 24.9053 23.6005 26.1654 22.2953C30.0808 21.3502 33.0961 19.505 35.0313 16.8048C38.0017 12.6643 37.4616 8.07387 37.4616 7.89385ZM4.2932 15.6796C2.40301 13.0694 2.17799 10.2341 2.17799 8.88395H5.46332C6.31841 13.1594 7.84857 16.9398 9.78376 19.7751C7.44353 18.875 5.59834 17.4798 4.2932 15.6796ZM33.7262 15.6796C32.4211 17.4798 30.5759 18.875 28.2357 19.7751C30.2159 16.8948 31.701 13.1594 32.5561 8.88395H35.8414C35.8414 10.2341 35.5714 13.0694 33.7262 15.6796Z" fill="#FCB31B"/>
<path d="M26.6585 36.7421H11.357C10.9069 36.7421 10.5469 36.382 10.5469 35.932V30.1714C10.5469 29.7214 10.9069 29.3613 11.357 29.3613H26.6585C27.1086 29.3613 27.4686 29.7214 27.4686 30.1714V35.932C27.4686 36.382 27.1086 36.7421 26.6585 36.7421Z" fill="#C19D72"/>
<path d="M9.06008 38.4524H28.9521C29.4022 38.4524 29.7622 38.0924 29.7622 37.6423V35.9322C29.7622 35.4821 29.4022 35.1221 28.9521 35.1221H9.06008C8.61004 35.1221 8.25 35.4821 8.25 35.9322V37.6423C8.25 38.0474 8.61004 38.4524 9.06008 38.4524Z" fill="#A88763"/>
<path d="M22.6158 33.547H15.4151C15.1 33.547 14.875 33.322 14.875 33.007V31.8819C14.875 31.5668 15.1 31.3418 15.4151 31.3418H22.6158C22.9308 31.3418 23.1558 31.5668 23.1558 31.8819V33.007C23.1558 33.322 22.8858 33.547 22.6158 33.547Z" fill="#FCB31B"/>
</svg>
